#N canvas 832 362 1375 809 12;
#X obj 110 130 hsl 128 15 -1 1 0 0 empty \$0-dkezpan_val empty -2 -8
0 12 -262144 -1 -1 6350 1;
#X text 985 48 derek kwan;
#X text 990 72 pdkez;
#X text 988 95 gpl v 3 2017;
#X floatatom 251 129 5 0 0 0 - - -, f 5;
#X obj 405 27 loadbang;
#X obj 566 83 inlet;
#X obj 738 83 inlet;
#X obj 237 109 bng 15 250 50 0 empty \$0-dkezpan_center center 17 7
0 12 -262144 -1 -1;
#X text 791 79 center;
#X obj 738 108 s \$0-dkezpan_center;
#X obj 551 198 s \$0-dkezpan_val;
#X obj 337 144 inlet~;
#X obj 271 463 cos~;
#X obj 332 463 cos~;
#X msg 365 366 \$1 5;
#X obj 377 312 + 1;
#X obj 361 339 * 0.125;
#X obj 365 397 line~;
#X obj 360 423 +~ 0.75;
#X obj 217 521 *~;
#X obj 295 521 *~;
#X obj 188 592 outlet~;
#X obj 273 594 outlet~;
#X text 254 425 cos theta;
#X text 430 321 -1 1 to 0 2;
#X text 436 355 to 0 0.25;
#X text 432 378 (into cos~ is x*2pi = 0 to pi/2);
#X text 392 450 sin theta;
#X text 619 79 pan;
#X msg 146 65 0;
#X obj 405 52 f \$1;
#X text 47 241 nono-to-stereo-panner;
#X obj 460 123 clip -1 1;
#X connect 0 0 4 0;
#X connect 0 0 16 0;
#X connect 5 0 31 0;
#X connect 6 0 33 1;
#X connect 7 0 10 0;
#X connect 8 0 30 0;
#X connect 12 0 20 0;
#X connect 12 0 21 0;
#X connect 13 0 20 1;
#X connect 14 0 21 1;
#X connect 15 0 18 0;
#X connect 16 0 17 0;
#X connect 17 0 15 0;
#X connect 18 0 13 0;
#X connect 18 0 19 0;
#X connect 19 0 14 0;
#X connect 20 0 22 0;
#X connect 21 0 23 0;
#X connect 30 0 0 0;
#X connect 31 0 33 0;
#X connect 33 0 11 0;
#X coords 0 -1 1 1 200 50 1 100 100;
