#N canvas 1109 414 1392 714 12;
#X obj 111 202 hsl 128 15 0.01 10 0 0 empty \$0-ezphaser_rate rate
-2 -8 0 12 -262144 -1 -1 1259 1;
#X floatatom 254 202 5 0 0 0 - - -, f 5;
#X obj 237 148 tgl 15 0 empty \$0-ezphaser_bypass bypass 17 7 0 12
-262144 -1 -1 0 1;
#X obj 423 629 pdkez_switcher;
#X obj 507 142 inlet~;
#X obj 401 232 osc~ 3;
#X obj 112 173 hsl 128 15 0 1 0 0 empty \$0-ezphaser_depth depth -2
-8 0 12 -262144 -1 -1 0 1;
#X floatatom 255 174 5 0 0 0 - - -, f 5;
#X obj 272 564 *~ 0;
#X obj 87 3 loadbang;
#X msg 22 65 0;
#X obj 407 570 +~;
#X obj 423 654 outlet~;
#X text 1023 17 derek kwan;
#X text 1028 41 pdkez;
#X text 1026 64 gpl v 3 2017;
#X obj 170 148 tgl 15 0 empty \$0-ezphaser_invert invert 17 7 0 12
-262144 -1 -1 0 1;
#X obj 266 326 sel 0 1;
#X msg 266 351 1;
#X msg 314 354 -1;
#X obj 280 391 t b f;
#X obj 222 493 * 1;
#X obj 554 66 inlet;
#X text 613 69 depth;
#X obj 644 139 inlet;
#X text 693 141 rate;
#X obj 775 78 inlet;
#X text 834 75 invert;
#X obj 921 141 inlet;
#X text 974 137 bypass;
#X obj 396 284 *~ 0.5;
#X obj 391 318 +~ 0.5;
#N canvas 1199 111 1019 797 \$0-pdkez_phaser-ap 0;
#X obj 310 262 rzero_rev~;
#X obj 308 289 rpole~;
#X obj 308 314 rzero_rev~;
#X obj 308 339 rpole~;
#X obj 308 364 rzero_rev~;
#X obj 308 389 rpole~;
#X obj 306 420 rzero_rev~;
#X obj 306 445 rpole~;
#X obj 306 470 rzero_rev~;
#X obj 306 495 rpole~;
#X obj 306 520 rzero_rev~;
#X obj 306 545 rpole~;
#X obj 315 226 inlet~;
#X obj 306 570 outlet~;
#X obj 484 219 inlet~;
#X connect 0 0 1 0;
#X connect 1 0 2 0;
#X connect 2 0 3 0;
#X connect 3 0 4 0;
#X connect 4 0 5 0;
#X connect 5 0 6 0;
#X connect 6 0 7 0;
#X connect 7 0 8 0;
#X connect 8 0 9 0;
#X connect 9 0 10 0;
#X connect 10 0 11 0;
#X connect 11 0 13 0;
#X connect 12 0 0 0;
#X connect 14 0 0 1;
#X connect 14 0 1 1;
#X connect 14 0 2 1;
#X connect 14 0 3 1;
#X connect 14 0 4 1;
#X connect 14 0 5 1;
#X connect 14 0 6 1;
#X connect 14 0 7 1;
#X connect 14 0 8 1;
#X connect 14 0 9 1;
#X connect 14 0 10 1;
#X connect 14 0 11 1;
#X restore 387 409 pd \$0-pdkez_phaser-ap;
#X msg 166 56 1;
#X obj 701 263 loadbang;
#X obj 703 328 f \$1;
#X text 763 326 depth;
#X msg 703 378 0.5;
#X obj 831 326 f \$2;
#X obj 703 353 moses 1e-20;
#X obj 831 351 moses 1e-20;
#X msg 831 376 1;
#X text 881 326 rate;
#X obj 611 441 pack \$0 f f f, f 29;
#X obj 701 288 t b b;
#X obj 965 323 f \$3;
#X text 1015 329 invert;
#X obj 554 91 s \$0-ezphaser_depth;
#X obj 775 103 s \$0-ezphaser_invert;
#X obj 921 166 s \$0-ezphaser_bypass;
#X obj 651 190 s \$0-ezphaser_rate;
#X msg 611 466 \; \$1-ezphaser_depth \$1 \; \$1-ezphaser_rate \$2 \;
\$1-ezphaser_invert \$3 \;;
#X connect 0 0 1 0;
#X connect 0 0 5 0;
#X connect 2 0 3 2;
#X connect 3 0 12 0;
#X connect 4 0 11 1;
#X connect 4 0 3 1;
#X connect 4 0 32 0;
#X connect 5 0 30 0;
#X connect 6 0 7 0;
#X connect 6 0 21 0;
#X connect 8 0 11 0;
#X connect 9 0 33 0;
#X connect 9 0 10 0;
#X connect 10 0 6 0;
#X connect 11 0 3 0;
#X connect 16 0 17 0;
#X connect 17 0 18 0;
#X connect 17 1 19 0;
#X connect 18 0 20 0;
#X connect 19 0 20 0;
#X connect 20 0 6 0;
#X connect 20 1 21 1;
#X connect 21 0 8 1;
#X connect 22 0 47 0;
#X connect 24 0 50 0;
#X connect 26 0 48 0;
#X connect 28 0 49 0;
#X connect 30 0 31 0;
#X connect 31 0 32 1;
#X connect 32 0 8 0;
#X connect 33 0 0 0;
#X connect 34 0 44 0;
#X connect 35 0 39 0;
#X connect 37 0 43 1;
#X connect 38 0 40 0;
#X connect 39 0 37 0;
#X connect 39 1 43 1;
#X connect 40 0 41 0;
#X connect 40 1 43 2;
#X connect 41 0 43 2;
#X connect 43 0 51 0;
#X connect 44 0 43 0;
#X connect 44 1 38 0;
#X connect 44 1 35 0;
#X connect 44 1 45 0;
#X connect 45 0 43 3;
#X coords 0 -1 1 1 200 125 1 100 100;
