#N canvas 166 322 1974 938 12;
#X obj 111 202 hsl 128 15 0.01 10 0 0 empty \$0-ezphaser_rate rate
-2 -8 0 12 -262144 -1 -1 623 1;
#X floatatom 254 202 5 0 0 0 - - -, f 5;
#X obj 237 148 tgl 15 0 empty \$0-ezphaser_bypass bypass 17 7 0 12
-262144 -1 -1 0 1;
#X obj 423 629 pdkez_switcher;
#X obj 507 142 inlet~;
#X obj 401 232 osc~ 3;
#X obj 112 173 hsl 128 15 0 1 0 0 empty \$0-ezphaser_depth depth -2
-8 0 12 -262144 -1 -1 12700 1;
#X floatatom 255 174 5 0 0 0 - - -, f 5;
#X obj 272 564 *~ 0;
#X obj 87 3 loadbang;
#X msg 22 65 0;
#X obj 407 570 +~;
#X obj 423 654 outlet~;
#X text 1533 11 derek kwan;
#X text 1538 35 pdkez;
#X text 1536 58 gpl v 3 2017;
#X obj 170 148 tgl 15 0 empty \$0-ezphaser_invert invert 17 7 0 12
-262144 -1 -1 1 1;
#X obj 266 326 sel 0 1;
#X msg 266 351 1;
#X msg 314 354 -1;
#X obj 280 391 t b f;
#X obj 222 493 * 1;
#X obj 1064 60 inlet;
#X text 1123 63 depth;
#X obj 1154 133 inlet;
#X text 1203 135 rate;
#X obj 1285 72 inlet;
#X text 1344 69 invert;
#X obj 1431 135 inlet;
#X text 1484 131 bypass;
#X obj 396 284 *~ 0.5;
#X obj 391 318 +~ 0.5;
#X msg 166 56 1;
#X obj 1211 257 loadbang;
#X obj 1213 322 f \$1;
#X text 1273 320 depth;
#X msg 1213 372 0.5;
#X obj 1341 320 f \$2;
#X obj 1213 347 moses 1e-20;
#X obj 1341 345 moses 1e-20;
#X msg 1341 370 1;
#X text 1391 320 rate;
#X obj 1121 435 pack \$0 f f f, f 29;
#X obj 1211 282 t b b;
#X obj 1475 317 f \$3;
#X text 1525 323 invert;
#X obj 1064 85 s \$0-ezphaser_depth;
#X obj 1285 97 s \$0-ezphaser_invert;
#X obj 1431 160 s \$0-ezphaser_bypass;
#X obj 1161 184 s \$0-ezphaser_rate;
#N canvas 1199 111 1019 797 \$0-pdkez_phaser-apL 0;
#X obj 310 262 rzero_rev~;
#X obj 308 289 rpole~;
#X obj 308 314 rzero_rev~;
#X obj 308 339 rpole~;
#X obj 308 364 rzero_rev~;
#X obj 308 389 rpole~;
#X obj 306 420 rzero_rev~;
#X obj 306 445 rpole~;
#X obj 306 470 rzero_rev~;
#X obj 306 495 rpole~;
#X obj 306 520 rzero_rev~;
#X obj 306 545 rpole~;
#X obj 315 226 inlet~;
#X obj 306 570 outlet~;
#X obj 484 219 inlet~;
#X connect 0 0 1 0;
#X connect 1 0 2 0;
#X connect 2 0 3 0;
#X connect 3 0 4 0;
#X connect 4 0 5 0;
#X connect 5 0 6 0;
#X connect 6 0 7 0;
#X connect 7 0 8 0;
#X connect 8 0 9 0;
#X connect 9 0 10 0;
#X connect 10 0 11 0;
#X connect 11 0 13 0;
#X connect 12 0 0 0;
#X connect 14 0 0 1;
#X connect 14 0 1 1;
#X connect 14 0 2 1;
#X connect 14 0 3 1;
#X connect 14 0 4 1;
#X connect 14 0 5 1;
#X connect 14 0 6 1;
#X connect 14 0 7 1;
#X connect 14 0 8 1;
#X connect 14 0 9 1;
#X connect 14 0 10 1;
#X connect 14 0 11 1;
#X restore 387 409 pd \$0-pdkez_phaser-apL;
#X obj 718 640 pdkez_switcher;
#X obj 802 153 inlet~;
#X obj 567 575 *~ 0;
#X obj 702 581 +~;
#X obj 718 665 outlet~;
#N canvas 1199 111 1019 797 \$0-pdkez_phaser-apR 0;
#X obj 310 262 rzero_rev~;
#X obj 308 289 rpole~;
#X obj 308 314 rzero_rev~;
#X obj 308 339 rpole~;
#X obj 308 364 rzero_rev~;
#X obj 308 389 rpole~;
#X obj 306 420 rzero_rev~;
#X obj 306 445 rpole~;
#X obj 306 470 rzero_rev~;
#X obj 306 495 rpole~;
#X obj 306 520 rzero_rev~;
#X obj 306 545 rpole~;
#X obj 315 226 inlet~;
#X obj 306 570 outlet~;
#X obj 484 219 inlet~;
#X connect 0 0 1 0;
#X connect 1 0 2 0;
#X connect 2 0 3 0;
#X connect 3 0 4 0;
#X connect 4 0 5 0;
#X connect 5 0 6 0;
#X connect 6 0 7 0;
#X connect 7 0 8 0;
#X connect 8 0 9 0;
#X connect 9 0 10 0;
#X connect 10 0 11 0;
#X connect 11 0 13 0;
#X connect 12 0 0 0;
#X connect 14 0 0 1;
#X connect 14 0 1 1;
#X connect 14 0 2 1;
#X connect 14 0 3 1;
#X connect 14 0 4 1;
#X connect 14 0 5 1;
#X connect 14 0 6 1;
#X connect 14 0 7 1;
#X connect 14 0 8 1;
#X connect 14 0 9 1;
#X connect 14 0 10 1;
#X connect 14 0 11 1;
#X restore 682 420 pd \$0-pdkez_phaser-apR;
#X msg 1121 460 \; \$1-ezphaser_depth \$2 \; \$1-ezphaser_rate \$3
\; \$1-ezphaser_invert \$4 \;;
#X connect 0 0 1 0;
#X connect 0 0 5 0;
#X connect 2 0 3 2;
#X connect 2 0 51 2;
#X connect 3 0 12 0;
#X connect 4 0 11 1;
#X connect 4 0 3 1;
#X connect 4 0 50 0;
#X connect 5 0 30 0;
#X connect 6 0 7 0;
#X connect 6 0 21 0;
#X connect 8 0 11 0;
#X connect 9 0 32 0;
#X connect 9 0 10 0;
#X connect 10 0 6 0;
#X connect 11 0 3 0;
#X connect 16 0 17 0;
#X connect 17 0 18 0;
#X connect 17 1 19 0;
#X connect 18 0 20 0;
#X connect 19 0 20 0;
#X connect 20 0 6 0;
#X connect 20 1 21 1;
#X connect 21 0 8 1;
#X connect 21 0 53 1;
#X connect 22 0 46 0;
#X connect 24 0 49 0;
#X connect 26 0 47 0;
#X connect 28 0 48 0;
#X connect 30 0 31 0;
#X connect 31 0 50 1;
#X connect 31 0 56 1;
#X connect 32 0 0 0;
#X connect 33 0 43 0;
#X connect 34 0 38 0;
#X connect 36 0 42 1;
#X connect 37 0 39 0;
#X connect 38 0 36 0;
#X connect 38 1 42 1;
#X connect 39 0 40 0;
#X connect 39 1 42 2;
#X connect 40 0 42 2;
#X connect 42 0 57 0;
#X connect 43 0 42 0;
#X connect 43 1 37 0;
#X connect 43 1 34 0;
#X connect 43 1 44 0;
#X connect 44 0 42 3;
#X connect 50 0 8 0;
#X connect 51 0 55 0;
#X connect 52 0 54 1;
#X connect 52 0 51 1;
#X connect 52 0 56 0;
#X connect 53 0 54 0;
#X connect 54 0 51 0;
#X connect 56 0 53 0;
#X coords 0 -1 1 1 200 125 1 100 100;
