#N canvas 1069 139 1018 582 12;
#X obj 465 530 array define \$0-dkezsndplay_arr;
#X obj 131 447 pdkez-sndplay_ptr~ \$0-dkezsndplay_arr;
#X obj 107 131 bng 20 250 50 0 empty empty load 22 10 0 15 -262144
-1 -1;
#X obj 30 315 openpanel;
#X obj 30 340 pack s \$0;
#X msg 28 373 read -resize \$1 \$2-dkezsndplay_arr;
#X obj 28 398 soundfiler;
#X obj 115 174 hsl 250 15 0 1 0 0 empty \$0-dkezsndplayM_start start_point
-2 -8 0 12 -262144 -1 -1 20200 1;
#X floatatom 193 154 9 0 0 0 - - -, f 9;
#X obj 114 210 hsl 250 15 0 1 0 0 empty \$0-dkezsndplayM_end end_point
-2 -8 0 12 -262144 -1 -1 12600 1;
#X floatatom 184 191 9 0 0 0 - - -, f 9;
#X obj 139 250 hsl 128 15 0.25 4 0 0 empty \$0-dkezsndplayM_rate rate
-2 -8 0 12 -262144 -1 -1 2540 1;
#X floatatom 173 231 9 0 0 0 - - -, f 9;
#X obj 176 132 bng 20 250 50 0 empty empty trig 22 10 0 15 -262144
-1 -1;
#X obj 111 249 bng 15 250 50 0 empty empty init 0 -7 0 10 -262144 -1
-1;
#X msg 124 290 1;
#X obj 306 132 tgl 20 0 empty \$0-dkezsndplayM_loop loop 22 10 0 15
-262144 -1 -1 0 1;
#X obj 379 58 inlet;
#X text 443 58 start;
#X obj 112 61 inlet;
#X text 171 58 trig;
#X obj 438 160 inlet;
#X text 502 160 stop;
#X obj 604 61 inlet;
#X text 668 61 rate;
#X obj 689 162 inlet;
#X text 753 162 loop;
#X obj 593 310 loadbang;
#X obj 593 335 f \$0;
#X obj 869 56 inlet;
#X text 921 57 file path;
#X obj 131 497 outlet~;
#X obj 359 106 s \$0-dkezsndplayM_start;
#X obj 418 208 s \$0-dkezsndplayM_stop;
#X obj 584 109 s \$0-dkezsndplayM_rate;
#X obj 669 210 s \$0-dkezsndplayM_loop;
#X msg 593 360 \; \$1-dkezsndplayM_start 0 \; \$1-dkezsndplayM_end
1 \; \$1-dkezsndplayM_rate 1 \; \$1-dkezsndplayM_loop 0 \;;
#X obj 131 472 tabread4~ \$0-dkezsndplay_arr;
#X obj 216 57 inlet;
#X text 264 57 stop;
#X obj 241 131 bng 20 250 50 0 empty empty stop 22 10 0 15 -262144
-1 -1;
#X floatatom 284 249 9 0 0 2 dur_in_ms - -, f 9;
#X msg 43 468 bang;
#X text 872 112 derek kwan;
#X text 877 136 pdkez;
#X text 875 159 gpl v 3 2017;
#X connect 1 0 37 0;
#X connect 1 1 41 0;
#X connect 2 0 3 0;
#X connect 3 0 4 0;
#X connect 4 0 5 0;
#X connect 5 0 6 0;
#X connect 6 0 42 0;
#X connect 7 0 8 0;
#X connect 7 0 1 2;
#X connect 9 0 10 0;
#X connect 9 0 1 3;
#X connect 11 0 12 0;
#X connect 11 0 1 4;
#X connect 13 0 1 0;
#X connect 14 0 15 0;
#X connect 15 0 11 0;
#X connect 16 0 1 5;
#X connect 17 0 32 0;
#X connect 19 0 13 0;
#X connect 21 0 33 0;
#X connect 23 0 34 0;
#X connect 25 0 35 0;
#X connect 27 0 28 0;
#X connect 28 0 36 0;
#X connect 29 0 4 0;
#X connect 37 0 31 0;
#X connect 38 0 40 0;
#X connect 40 0 1 1;
#X connect 42 0 7 0;
#X connect 42 0 40 0;
#X coords 0 -1 1 1 275 175 1 100 100;
