#N canvas 613 226 829 517 12;
#X obj 105 118 bng 15 250 50 0 empty empty load 17 7 0 15 -262144 -1
-1;
#X obj 106 175 openpanel;
#X obj 285 271 array define \$1;
#X obj 101 329 soundfiler;
#X symbolatom 106 138 23 0 0 0 - - -, f 23;
#X obj 151 229 symbol \$1;
#X text 332 80 derek kwan;
#X text 337 104 pdkez;
#X text 335 127 gpl v 3 2017;
#X obj 433 270 array define \$2;
#X obj 106 200 t s b b;
#X msg 101 304 read -resize -maxsize 4e+10 \$1 \$2 \$3;
#X obj 103 268 pack s s s;
#X obj 261 227 symbol \$2;
#X obj 101 361 outlet;
#X obj 198 360 outlet;
#X connect 0 0 1 0;
#X connect 1 0 4 0;
#X connect 1 0 10 0;
#X connect 3 0 14 0;
#X connect 3 1 15 0;
#X connect 5 0 12 1;
#X connect 10 0 12 0;
#X connect 10 1 5 0;
#X connect 10 2 13 0;
#X connect 11 0 3 0;
#X connect 12 0 11 0;
#X connect 13 0 12 2;
#X coords 0 -1 1 1 200 60 1 100 100;
