#N canvas 737 358 1392 714 12;
#X obj 111 161 hsl 128 15 20 100 0 0 empty \$0-ezringmod_rate rate
-2 -8 0 12 -262144 -1 -1 12700 1;
#X floatatom 254 161 5 0 0 0 - - -, f 5;
#X obj 237 114 tgl 15 0 empty \$0-ezringmod_bypass bypass 17 7 0 12
-262144 -1 -1 0 1;
#X obj 423 629 pdkez_switcher;
#X obj 478 102 inlet~;
#X obj 400 298 osc~ 3;
#X obj 112 132 hsl 128 15 0 1 0 0 empty \$0-ezringmod_depth depth -2
-8 0 12 -262144 -1 -1 12700 1;
#X floatatom 255 133 5 0 0 0 - - -, f 5;
#X obj 381 393 *~ 0, f 6;
#X obj 423 654 outlet~;
#X text 1233 10 derek kwan;
#X text 1238 34 pdkez;
#X text 1236 57 gpl v 3 2017;
#X obj 764 59 inlet;
#X text 823 62 depth;
#X obj 854 132 inlet;
#X text 903 134 rate;
#X obj 1131 134 inlet;
#X text 1184 130 bypass;
#X obj 764 84 s \$0-ezringmod_depth;
#X obj 861 183 s \$0-ezringmod_rate;
#X obj 1131 159 s \$0-ezringmod_bypass;
#X obj 407 570 *~;
#X obj 604 641 pdkez_switcher;
#X obj 659 114 inlet~;
#X obj 604 666 outlet~;
#X obj 588 582 *~;
#X obj 947 287 loadbang;
#X obj 949 352 f \$1;
#X obj 1077 350 f \$2;
#X obj 1077 375 moses 1e-20;
#X text 1127 350 rate;
#X obj 947 312 t b b;
#X obj 857 465 pack \$0 f f, f 29;
#X text 1009 350 bitres;
#X obj 949 377 moses 1e-20;
#X msg 949 402 1;
#X msg 1077 400 100;
#X msg 857 491 \; \$1-ezringmod_depth \$2 \; \$1-ezringmod_rate \$3
\;;
#X connect 0 0 1 0;
#X connect 0 0 5 0;
#X connect 2 0 3 2;
#X connect 2 0 23 2;
#X connect 3 0 9 0;
#X connect 4 0 3 1;
#X connect 4 0 22 1;
#X connect 5 0 8 0;
#X connect 6 0 7 0;
#X connect 6 0 8 1;
#X connect 8 0 22 0;
#X connect 8 0 26 0;
#X connect 13 0 19 0;
#X connect 15 0 20 0;
#X connect 17 0 21 0;
#X connect 22 0 3 0;
#X connect 23 0 25 0;
#X connect 24 0 23 1;
#X connect 24 0 26 1;
#X connect 26 0 23 0;
#X connect 27 0 32 0;
#X connect 28 0 35 0;
#X connect 29 0 30 0;
#X connect 30 0 37 0;
#X connect 30 1 33 2;
#X connect 32 0 33 0;
#X connect 32 1 29 0;
#X connect 32 1 28 0;
#X connect 33 0 38 0;
#X connect 35 0 36 0;
#X connect 35 1 33 1;
#X connect 36 0 33 1;
#X connect 37 0 33 2;
#X coords 0 -1 1 1 200 80 1 100 100;
