#N canvas 619 133 1318 621 12;
#X obj 300 538 outlet~;
#X obj 444 113 inlet~;
#X text 985 48 derek kwan;
#X text 990 72 pdkez;
#X text 988 95 gpl v 3 2017;
#X floatatom 136 120 5 1 100 0 gain #0-ezoverdrive_gain_r #0-ezoverdrive_gain
, f 5;
#X obj 306 472 pdkez_switcher;
#X obj 181 123 tgl 15 0 \$0-ezoverdrive_bypass \$0-ezoverdrive_bypass_r
bypass 17 7 0 12 -262144 -1 -1 0 1;
#X obj 299 334 expr~ tanh($f2*$v1);
#X obj 541 75 inlet;
#X obj 738 83 inlet;
#X text 791 79 bypass;
#X obj 789 227 loadbang;
#X obj 791 292 f \$1;
#X obj 789 252 t b b;
#X obj 791 317 moses 1e-20;
#X msg 791 342 1;
#X obj 699 405 pack \$0 f, f 29;
#X text 851 290 gain;
#X obj 538 157 s \$0-ezoverdrive_gain_r;
#X msg 699 431 \; \$1-ezoverdrive_gain_r \$2 \;;
#X obj 500 328 r \$0-ezoverdrive_gain;
#X obj 541 99 route gain bypass;
#X obj 738 108 s \$0-ezoverdrive_bypass_r;
#X obj 480 428 r \$0-ezoverdrive_bypass;
#X connect 1 0 6 1;
#X connect 1 0 8 0;
#X connect 6 0 0 0;
#X connect 8 0 6 0;
#X connect 9 0 22 0;
#X connect 10 0 23 0;
#X connect 12 0 14 0;
#X connect 13 0 15 0;
#X connect 14 0 17 0;
#X connect 14 1 13 0;
#X connect 15 0 16 0;
#X connect 15 1 17 1;
#X connect 16 0 17 1;
#X connect 17 0 20 0;
#X connect 21 0 8 1;
#X connect 22 0 19 0;
#X connect 22 1 23 0;
#X connect 24 0 6 2;
#X coords 0 -1 1 1 150 40 1 100 100;
