#N canvas 291 198 1036 703 12;
#X obj 115 174 hsl 250 15 0 1 0 0 empty \$0-dkezsndplayS_start start_point
-2 -8 0 12 -262144 -1 -1 0 1;
#X floatatom 193 154 9 0 0 0 - - -, f 9;
#X obj 114 210 hsl 250 15 0 1 0 0 empty \$0-dkezsndplayS_end end_point
-2 -8 0 12 -262144 -1 -1 24900 1;
#X floatatom 184 191 9 0 0 0 - - -, f 9;
#X obj 111 251 hsl 250 15 0.25 4 0 0 empty \$0-dkezsndplayS_rate rate
-2 -8 0 12 -262144 -1 -1 4980 1;
#X floatatom 152 230 9 0 0 0 - - -, f 9;
#X obj 193 132 bng 20 250 50 0 empty empty play 22 10 0 12 -262144
-1 -1;
#X obj 239 233 bng 15 250 50 0 empty empty normal_rate 17 7 0 10 -262144
-1 -1;
#X msg 124 290 1;
#X obj 313 132 tgl 20 0 empty \$0-dkezsndplayS_loop loop 22 10 0 12
-262144 -1 -1 0 1;
#X obj 484 83 inlet;
#X text 548 83 start;
#X obj 112 61 inlet;
#X text 171 58 trig;
#X obj 642 186 inlet;
#X text 706 186 stop;
#X obj 709 86 inlet;
#X text 773 86 rate;
#X obj 417 165 inlet;
#X text 481 165 loop;
#X obj 593 310 loadbang;
#X obj 593 335 f \$0;
#X obj 126 576 outlet~;
#X obj 494 134 s \$0-dkezsndplayS_start;
#X obj 622 234 s \$0-dkezsndplayS_stop;
#X obj 689 134 s \$0-dkezsndplayS_rate;
#X obj 397 213 s \$0-dkezsndplayS_loop;
#X msg 593 360 \; \$1-dkezsndplayS_start 0 \; \$1-dkezsndplayS_end
1 \; \$1-dkezsndplayS_rate 1 \; \$1-dkezsndplayS_loop 0 \;;
#X obj 216 57 inlet;
#X text 264 57 stop;
#X obj 254 131 bng 20 250 50 0 empty empty stop 22 10 0 12 -262144
-1 -1;
#X floatatom 108 136 9 0 0 2 dur_in_ms - -, f 9;
#X text 882 52 derek kwan;
#X text 887 76 pdkez;
#X text 885 99 gpl v 3 2017;
#X obj 253 590 outlet~;
#X obj 131 447 pdkez-sndplay_ptr~ \$1-0, f 38;
#X obj 131 493 tabread4~ \$1-0;
#X obj 258 493 tabread4~ \$1-0;
#X text 488 494 arg: array name;
#X text 484 523 (will read from name-0 \, name-1);
#X obj 131 518 *~;
#X obj 258 518 *~;
#X connect 0 0 1 0;
#X connect 0 0 36 2;
#X connect 2 0 3 0;
#X connect 2 0 36 3;
#X connect 4 0 5 0;
#X connect 4 0 36 4;
#X connect 6 0 36 0;
#X connect 7 0 8 0;
#X connect 8 0 4 0;
#X connect 9 0 36 5;
#X connect 10 0 23 0;
#X connect 12 0 6 0;
#X connect 14 0 24 0;
#X connect 16 0 25 0;
#X connect 18 0 26 0;
#X connect 20 0 21 0;
#X connect 21 0 27 0;
#X connect 28 0 30 0;
#X connect 30 0 36 1;
#X connect 36 0 37 0;
#X connect 36 0 38 0;
#X connect 36 1 41 1;
#X connect 36 1 42 1;
#X connect 36 2 31 0;
#X connect 37 0 41 0;
#X connect 38 0 42 0;
#X connect 41 0 22 0;
#X connect 42 0 35 0;
#X coords 0 -1 1 1 275 175 1 100 100;
