#N canvas 202 665 1392 714 12;
#X obj 111 202 hsl 128 15 0.01 10 0 0 empty \$0-ezchorus_rate rate
-2 -8 0 12 -262144 -1 -1 1259 1;
#X floatatom 254 202 5 0 0 0 - - -, f 5;
#X obj 237 148 tgl 15 0 empty \$0-phaser_bypass bypass 17 7 0 12 -262144
-1 -1 0 1;
#X obj 423 629 pdkez_switcher;
#X obj 507 142 inlet~;
#X obj 196 266 osc~ 3;
#X obj 112 173 hsl 128 15 0 1 0 0 empty \$0-ezchorus_depth depth -2
-8 0 12 -262144 -1 -1 0 1;
#X floatatom 255 174 5 0 0 0 - - -, f 5;
#X obj 87 3 loadbang;
#X msg 22 65 0;
#X obj 423 654 outlet~;
#X text 1023 17 derek kwan;
#X text 1028 41 pdkez;
#X text 1026 64 gpl v 3 2017;
#X obj 554 66 inlet;
#X text 613 69 depth;
#X obj 644 139 inlet;
#X text 693 141 rate;
#X obj 921 141 inlet;
#X text 974 137 bypass;
#X obj 191 318 *~ 0.5;
#X obj 186 352 +~ 0.5;
#X obj 921 166 s \$0-phaser_bypass;
#X msg 166 56 1;
#X obj 554 91 s \$0-ezchorus_depth;
#X obj 651 190 s \$0-ezchorus_rate;
#X obj 563 298 delwrite~ \$0-pdkezchorus_del 50;
#X obj 300 376 clone pdkez_chorus-voice~ 8 \$0-pdkezchorus_del;
#X obj 310 456 +~;
#X connect 0 0 1 0;
#X connect 0 0 5 0;
#X connect 2 0 3 2;
#X connect 3 0 10 0;
#X connect 4 0 3 1;
#X connect 4 0 26 0;
#X connect 4 0 28 1;
#X connect 5 0 20 0;
#X connect 6 0 7 0;
#X connect 8 0 23 0;
#X connect 8 0 9 0;
#X connect 9 0 6 0;
#X connect 14 0 24 0;
#X connect 16 0 25 0;
#X connect 18 0 22 0;
#X connect 20 0 21 0;
#X connect 21 0 27 0;
#X connect 23 0 0 0;
#X connect 27 0 28 0;
#X connect 28 0 3 0;
#X coords 0 -1 1 1 200 125 1 100 100;
