#N canvas 439 243 1810 858 12;
#X obj 112 173 hsl 128 15 0 1 0 0 empty \$0-ezdelay_fb fb -2 -8 0 12
-262144 -1 -1 9525 1;
#X floatatom 255 173 5 0 0 0 - - -, f 5;
#X obj 237 121 tgl 15 0 empty \$0-ezdelay_bypass bypass 17 7 0 12 -262144
-1 -1 0 1;
#X obj 198 660 pdkez_switcher;
#X obj 333 97 inlet~;
#X obj 112 142 hsl 128 15 0 1 0 0 empty \$0-ezdelay_ms ms -2 -8 0 12
-262144 -1 -1 12700 1;
#X floatatom 255 143 5 0 0 0 - - -, f 5;
#X obj 198 685 outlet~;
#X text 1337 28 derek kwan;
#X text 1348 61 pdkez;
#X text 1346 84 gpl v 3 2017;
#X obj 577 52 inlet;
#X obj 636 149 inlet;
#X obj 912 46 inlet;
#X text 965 42 bypass;
#X obj 26 504 *~ 1;
#X obj 1090 35 loadbang;
#X obj 1227 194 pack \$0 \$1;
#X text 636 55 ms;
#X obj 577 77 s \$0-ezdelay_ms;
#X text 685 151 fb;
#X msg 1227 219 \; \$1-ezdelay_ms range 0 \$2;
#X obj 752 53 inlet;
#X text 805 52 wet;
#X obj 752 78 s \$0-ezdelay_wet;
#X obj 111 202 hsl 128 15 0 1 0 0 empty \$0-ezdelay_wet wet -2 -8 0
12 -262144 -1 -1 6350 1;
#X floatatom 254 202 5 0 0 0 - - -, f 5;
#X obj 643 200 s \$0-ezdelay_fb;
#X obj 117 523 *~ 1;
#X obj 178 121 bng 15 250 50 0 empty \$0-ezdelay_clear clear 17 7 0
12 -262144 -1 -1;
#X msg 407 221 clear;
#X obj 912 71 s \$0-ezdelay_bypass;
#X obj 815 139 inlet;
#X obj 815 164 s \$0-ezdelay_clear;
#X text 870 144 clear;
#X obj 117 548 +~;
#X msg 901 596 \; \$1-ezdelay_ms \$2 \; \$1-ezdelay_fb \$3 \; \$1-ezdelay_wet
\$4 \;;
#X obj 901 570 pack \$0 f f f, f 29;
#X obj 1005 449 f \$2;
#X msg 985 512 125;
#X obj 985 487 moses 1e-20;
#X text 1053 454 ms;
#X obj 991 417 t b b b b, f 26;
#X obj 1089 454 f \$3;
#X msg 1089 504 0.75;
#X obj 1089 479 moses 1e-20;
#X text 1194 486 fb;
#X obj 1233 461 f \$4;
#X obj 1233 486 moses 1e-20;
#X msg 1229 519 0.5;
#X text 1273 461 wet;
#X obj 528 581 pdkez_switcher;
#X obj 461 102 inlet~;
#X obj 528 606 outlet~;
#X obj 449 502 *~ 1;
#X obj 524 504 *~ 1;
#X obj 524 529 +~;
#X obj 142 421 delwrite~ \$0-dkezdelay_delL \$1;
#X obj 643 414 delwrite~ \$0-dkezdelay_delR \$1;
#X obj 25 283 line~;
#X obj 3 336 delread4~ \$0-dkezdelay_delL;
#X obj 422 316 delread4~ \$0-dkezdelay_delR;
#X msg 27 240 \$1 50;
#X obj 346 545 t b f;
#X obj 1123 75 t b b b;
#X obj 1215 100 f \$1;
#X obj 1215 125 max 1;
#X connect 0 0 1 0;
#X connect 0 0 15 1;
#X connect 0 0 54 1;
#X connect 2 0 63 0;
#X connect 3 0 7 0;
#X connect 4 0 3 1;
#X connect 4 0 35 1;
#X connect 4 0 57 0;
#X connect 5 0 6 0;
#X connect 5 0 62 0;
#X connect 11 0 19 0;
#X connect 12 0 27 0;
#X connect 13 0 31 0;
#X connect 15 0 57 0;
#X connect 16 0 64 0;
#X connect 17 0 21 0;
#X connect 22 0 24 0;
#X connect 25 0 26 0;
#X connect 25 0 28 1;
#X connect 25 0 55 1;
#X connect 28 0 35 0;
#X connect 29 0 30 0;
#X connect 30 0 57 0;
#X connect 30 0 58 0;
#X connect 32 0 33 0;
#X connect 35 0 3 0;
#X connect 37 0 36 0;
#X connect 38 0 40 0;
#X connect 39 0 37 1;
#X connect 40 0 39 0;
#X connect 40 1 37 1;
#X connect 42 0 37 0;
#X connect 42 1 38 0;
#X connect 42 2 43 0;
#X connect 42 3 47 0;
#X connect 43 0 45 0;
#X connect 44 0 37 2;
#X connect 45 0 44 0;
#X connect 45 1 37 2;
#X connect 47 0 48 0;
#X connect 48 0 49 0;
#X connect 48 1 37 3;
#X connect 49 0 37 3;
#X connect 51 0 53 0;
#X connect 52 0 51 1;
#X connect 52 0 56 1;
#X connect 52 0 58 0;
#X connect 54 0 58 0;
#X connect 55 0 56 0;
#X connect 56 0 51 0;
#X connect 59 0 60 0;
#X connect 59 0 61 0;
#X connect 60 0 15 0;
#X connect 60 0 28 0;
#X connect 61 0 54 0;
#X connect 61 0 55 0;
#X connect 62 0 59 0;
#X connect 63 0 30 0;
#X connect 63 1 51 2;
#X connect 63 1 3 2;
#X connect 64 0 42 0;
#X connect 64 1 17 0;
#X connect 64 2 65 0;
#X connect 65 0 66 0;
#X connect 66 0 17 1;
#X coords 0 -1 1 1 200 125 1 100 100;
