#N canvas 770 202 1566 758 12;
#X floatatom 254 134 5 1 128 0 rate_red #0-ezbitcrush_rate_r #0-ezbitcrush_rate_s
, f 5;
#X obj 306 440 phasor~;
#X obj 357 346 samplerate~;
#X obj 187 265 sel 1;
#X obj 140 403 *~ 1;
#X obj 194 405 *~ 0;
#X obj 275 185 inlet~;
#X msg 204 301 1;
#X msg 285 296 0;
#X msg 106 321 0;
#X obj 202 492 samphold~;
#X obj 364 282 t b f;
#X obj 364 381 /;
#X obj 107 137 hradio 15 1 0 5 \$0-ezbitcrush_bitres_s \$0-ezbitcrush_bitres_r
bits16/8/4/2/1 0 -8 0 12 -262144 -1 -1 0;
#X msg 460 499 16;
#X msg 503 498 8;
#X msg 547 502 4;
#X msg 598 506 2;
#X msg 643 507 1;
#X obj 419 568 expr pow(2 \, $f1);
#X obj 419 593 / 2;
#X text 467 596 half since pos and neg;
#X obj 146 725 outlet~;
#X msg 159 321 1;
#X obj 429 454 sel 0 1 2 3 4;
#X obj 952 48 inlet;
#X obj 234 105 tgl 15 0 \$0-ezbitcrush_bypass_s \$0-ezbitcrush_bypass_r
bypass 17 7 0 12 -262144 -1 -1 0 1;
#X obj 144 674 pdkez_switcher;
#X obj 1180 39 inlet;
#X text 1233 35 bypass;
#X obj 911 143 s \$0-ezbitcrush_bitres_r;
#X obj 1026 167 s \$0-ezbitcrush_rate_r;
#X obj 418 423 r \$0-ezbitcrush_bitres_s;
#X text 1404 66 derek kwan;
#X text 1409 90 pdkez;
#X text 1407 113 gpl v 3 2017;
#X obj 170 584 expr~ rint($v1 * $f2)/$f2;
#X obj 1229 311 loadbang;
#X obj 1231 376 f \$1;
#X obj 1359 374 f \$2;
#X obj 1359 399 moses 1e-20;
#X msg 1359 424 1;
#X text 1409 374 rate;
#X obj 1229 336 t b b;
#X obj 1139 489 pack \$0 f f, f 29;
#X text 1291 374 bitres;
#X msg 1139 515 \; \$1-ezbitcrush_bitres_r \$2 \; \$1-ezbitcrush_rate_r
\$3 \;;
#X obj 79 191 r \$0-ezbitcrush_rate_s;
#X obj 79 215 t f f;
#X obj 946 79 route bitres rate bypass;
#X obj 257 621 r \$0-ezbitcrush_bypass_s;
#X obj 1180 64 s \$0-ezbitcrush_bypass_r;
#X obj 847 415 phasor~;
#X obj 898 321 samplerate~;
#X obj 728 240 sel 1;
#X obj 681 378 *~ 1;
#X obj 735 380 *~ 0;
#X obj 816 160 inlet~;
#X msg 745 276 1;
#X msg 826 271 0;
#X msg 647 296 0;
#X obj 743 467 samphold~;
#X obj 905 257 t b f;
#X obj 905 356 /;
#X obj 687 700 outlet~;
#X msg 700 296 1;
#X obj 685 649 pdkez_switcher;
#X obj 711 559 expr~ rint($v1 * $f2)/$f2;
#X obj 620 166 r \$0-ezbitcrush_rate_s;
#X obj 620 190 t f f;
#X obj 798 596 r \$0-ezbitcrush_bypass_s;
#X connect 1 0 10 1;
#X connect 2 0 12 0;
#X connect 3 0 9 0;
#X connect 3 0 23 0;
#X connect 3 1 7 0;
#X connect 3 1 8 0;
#X connect 4 0 36 0;
#X connect 5 0 10 0;
#X connect 6 0 5 0;
#X connect 6 0 4 0;
#X connect 6 0 27 1;
#X connect 7 0 5 1;
#X connect 8 0 4 1;
#X connect 9 0 5 1;
#X connect 10 0 36 0;
#X connect 11 0 2 0;
#X connect 11 1 12 1;
#X connect 12 0 1 0;
#X connect 14 0 19 0;
#X connect 15 0 19 0;
#X connect 16 0 19 0;
#X connect 17 0 19 0;
#X connect 18 0 19 0;
#X connect 19 0 20 0;
#X connect 20 0 36 1;
#X connect 20 0 67 1;
#X connect 23 0 4 1;
#X connect 24 0 14 0;
#X connect 24 1 15 0;
#X connect 24 2 16 0;
#X connect 24 3 17 0;
#X connect 24 4 18 0;
#X connect 25 0 49 0;
#X connect 27 0 22 0;
#X connect 28 0 51 0;
#X connect 32 0 24 0;
#X connect 36 0 27 0;
#X connect 37 0 43 0;
#X connect 38 0 44 1;
#X connect 39 0 40 0;
#X connect 40 0 41 0;
#X connect 40 1 44 2;
#X connect 41 0 44 2;
#X connect 43 0 44 0;
#X connect 43 1 39 0;
#X connect 43 1 38 0;
#X connect 44 0 46 0;
#X connect 47 0 48 0;
#X connect 48 0 3 0;
#X connect 48 1 11 0;
#X connect 49 0 30 0;
#X connect 49 1 31 0;
#X connect 49 2 51 0;
#X connect 50 0 27 2;
#X connect 52 0 61 1;
#X connect 53 0 63 0;
#X connect 54 0 60 0;
#X connect 54 0 65 0;
#X connect 54 1 58 0;
#X connect 54 1 59 0;
#X connect 55 0 67 0;
#X connect 56 0 61 0;
#X connect 57 0 56 0;
#X connect 57 0 55 0;
#X connect 57 0 66 1;
#X connect 58 0 56 1;
#X connect 59 0 55 1;
#X connect 60 0 56 1;
#X connect 61 0 67 0;
#X connect 62 0 53 0;
#X connect 62 1 63 1;
#X connect 63 0 52 0;
#X connect 65 0 55 1;
#X connect 66 0 64 0;
#X connect 67 0 66 0;
#X connect 68 0 69 0;
#X connect 69 0 54 0;
#X connect 69 1 62 0;
#X connect 70 0 66 2;
#X coords 0 -1 1 1 200 55 1 100 100;
