#N canvas 737 358 1392 714 12;
#X obj 111 202 hsl 128 15 20 100 0 0 empty \$0-ezringmod_rate rate
-2 -8 0 12 -262144 -1 -1 12700 1;
#X floatatom 254 202 5 0 0 0 - - -, f 5;
#X obj 237 148 tgl 15 0 empty \$0-ezringmod_bypass bypass 17 7 0 12
-262144 -1 -1 0 1;
#X obj 423 629 pdkez_switcher;
#X obj 478 102 inlet~;
#X obj 594 258 osc~ 3;
#X obj 112 173 hsl 128 15 0 1 0 0 empty \$0-ezringmod_depth depth -2
-8 0 12 -262144 -1 -1 12700 1;
#X floatatom 255 174 5 0 0 0 - - -, f 5;
#X obj 381 393 *~ 0, f 6;
#X obj 87 3 loadbang;
#X obj 423 654 outlet~;
#X text 1023 17 derek kwan;
#X text 1028 41 pdkez;
#X text 1026 64 gpl v 3 2017;
#X obj 554 66 inlet;
#X text 613 69 depth;
#X obj 644 139 inlet;
#X text 693 141 rate;
#X obj 921 141 inlet;
#X text 974 137 bypass;
#X obj 554 91 s \$0-ezringmod_depth;
#X obj 651 190 s \$0-ezringmod_rate;
#X obj 921 166 s \$0-ezringmod_bypass;
#X msg 166 56 20;
#X obj 407 570 *~;
#X msg 22 65 1;
#X connect 0 0 1 0;
#X connect 0 0 5 0;
#X connect 2 0 3 2;
#X connect 3 0 10 0;
#X connect 4 0 3 1;
#X connect 4 0 24 1;
#X connect 5 0 8 0;
#X connect 6 0 7 0;
#X connect 6 0 8 1;
#X connect 8 0 24 0;
#X connect 9 0 23 0;
#X connect 9 0 25 0;
#X connect 14 0 20 0;
#X connect 16 0 21 0;
#X connect 18 0 22 0;
#X connect 23 0 0 0;
#X connect 24 0 3 0;
#X connect 25 0 6 0;
#X coords 0 -1 1 1 200 125 1 100 100;
