#N canvas 791 290 1314 425 12;
#X obj 112 172 hsl 128 15 0 1 0 0 empty \$0-ezdelay_fb fb -2 -8 0 12
-262144 -1 -1 9525 1;
#X floatatom 255 172 5 0 0 0 - - -, f 5;
#X obj 239 122 tgl 15 0 empty \$0-ezdelay_bypass bypass 17 7 0 12 -262144
-1 -1 0 1;
#X obj 114 141 hsl 128 15 0 1 0 0 empty \$0-ezdelay_ms ms -2 -8 0 12
-262144 -1 -1 12700 1;
#X floatatom 257 142 5 0 0 0 - - -, f 5;
#X obj 102 381 outlet~;
#X text 1180 10 derek kwan;
#X text 1185 34 pdkez;
#X text 1185 54 gpl v 3 2017;
#X obj 825 24 inlet;
#X text 878 20 bypass;
#X obj 112 229 hsl 128 15 0 1 0 0 empty \$0-ezdelay_wet wet -2 -8 0
12 -262144 -1 -1 6350 1;
#X floatatom 255 229 5 0 0 0 - - -, f 5;
#X obj 180 122 bng 15 250 50 0 empty \$0-ezdelay_clear clear 17 7 0
12 -262144 -1 -1;
#X obj 809 160 s \$0-ezdelay_bypass;
#X obj 732 126 s \$0-ezdelay_clear;
#X obj 112 201 hsl 128 15 0 1 0 0 empty \$0-ezdelay_dry dry -2 -8 0
12 -262144 -1 -1 12700 1;
#X floatatom 255 201 5 0 0 0 - - -, f 5;
#X obj 469 127 s \$0-ezdelay_ms;
#X obj 634 173 s \$0-ezdelay_wet;
#X obj 491 175 s \$0-ezdelay_fb;
#X obj 600 128 s \$0-ezdelay_dry;
#X obj 481 33 inlet;
#X obj 481 57 route ms fb dry wet clear bypass;
#N canvas 61 331 1037 780 dkezdelay_voice 0;
#X obj 389 711 pdkez_switcher;
#X obj 67 48 inlet~;
#X msg 494 354 clear;
#X obj 211 655 +~;
#X obj 267 350 delread4~ \$0-dkezdelay_del;
#X obj 271 300 line~;
#X msg 271 275 \$1 50;
#X obj 574 320 t b f;
#X obj 38 384 delwrite~ \$0-dkezdelay_del \$1;
#X obj 359 585 *~;
#X obj 368 526 line~;
#X msg 371 498 \$1 1;
#X obj 187 598 *~;
#X obj 237 549 line~;
#X msg 256 496 \$1 1;
#X obj 86 493 *~;
#X obj 321 414 line~;
#X msg 325 381 \$1 1;
#X obj 275 159 inlet;
#X text 323 157 ms;
#X obj 375 151 inlet;
#X text 427 150 fb;
#X obj 479 139 inlet;
#X text 526 139 dry;
#X obj 588 129 inlet;
#X text 652 131 wet;
#X obj 722 140 inlet;
#X text 767 133 clear;
#X obj 829 152 inlet;
#X text 883 149 bypass, f 46;
#X obj 389 735 outlet~;
#X connect 0 0 30 0;
#X connect 1 0 0 1;
#X connect 1 0 8 0;
#X connect 1 0 12 0;
#X connect 2 0 8 0;
#X connect 3 0 0 0;
#X connect 4 0 9 0;
#X connect 4 0 15 0;
#X connect 5 0 4 0;
#X connect 6 0 5 0;
#X connect 7 0 2 0;
#X connect 7 1 0 2;
#X connect 9 0 3 1;
#X connect 10 0 9 1;
#X connect 11 0 10 0;
#X connect 12 0 3 0;
#X connect 13 0 12 1;
#X connect 14 0 13 0;
#X connect 15 0 8 0;
#X connect 16 0 15 1;
#X connect 17 0 16 0;
#X connect 18 0 6 0;
#X connect 20 0 17 0;
#X connect 22 0 14 0;
#X connect 24 0 11 0;
#X connect 26 0 2 0;
#X connect 28 0 7 0;
#X restore 107 335 pd dkezdelay_voice;
#X obj 93 42 inlet~;
#N canvas 614 471 955 700 dkezdelay_defaults 0;
#X obj 389 26 loadbang;
#X obj 495 213 pack \$0 \$1;
#X msg 495 238 \; \$1-ezdelay_ms range 0 \$2;
#X obj 229 315 f \$2;
#X msg 209 378 125;
#X obj 209 353 moses 1e-20;
#X text 277 320 ms;
#X obj 313 320 f \$3;
#X msg 313 370 0.75;
#X obj 313 345 moses 1e-20;
#X text 418 352 fb;
#X obj 590 359 moses 1e-20;
#X text 630 334 wet;
#X obj 403 59 t b b b;
#X obj 494 92 f \$1;
#X obj 494 117 max 1;
#X obj 215 283 t b b b b b, f 26;
#X obj 590 334 f \$5;
#X obj 452 357 moses 1e-20;
#X msg 448 378 1;
#X obj 125 436 pack \$0 f f f f, f 64;
#X obj 452 332 f \$4;
#X text 492 332 dry;
#X msg 125 462 \; \$1-ezdelay_ms \$2 \; \$1-ezdelay_fb \$3 \; \$1-ezdelay_dry
\$4 \; \$1-ezdelay_wet \$5 \;;
#X msg 586 392 1;
#X connect 0 0 13 0;
#X connect 1 0 2 0;
#X connect 3 0 5 0;
#X connect 4 0 20 1;
#X connect 5 0 4 0;
#X connect 5 1 20 1;
#X connect 7 0 9 0;
#X connect 8 0 20 2;
#X connect 9 0 8 0;
#X connect 9 1 20 2;
#X connect 11 0 24 0;
#X connect 11 1 20 4;
#X connect 13 0 16 0;
#X connect 13 1 1 0;
#X connect 13 2 14 0;
#X connect 14 0 15 0;
#X connect 15 0 1 1;
#X connect 16 0 20 0;
#X connect 16 1 3 0;
#X connect 16 2 7 0;
#X connect 16 3 21 0;
#X connect 16 4 17 0;
#X connect 17 0 11 0;
#X connect 18 0 19 0;
#X connect 18 1 20 3;
#X connect 19 0 20 3;
#X connect 20 0 23 0;
#X connect 21 0 18 0;
#X connect 24 0 20 4;
#X restore 888 74 pd dkezdelay_defaults;
#X connect 0 0 1 0;
#X connect 0 0 24 2;
#X connect 2 0 24 6;
#X connect 3 0 4 0;
#X connect 3 0 24 1;
#X connect 9 0 14 0;
#X connect 11 0 12 0;
#X connect 11 0 24 4;
#X connect 13 0 24 5;
#X connect 16 0 17 0;
#X connect 16 0 24 3;
#X connect 22 0 23 0;
#X connect 23 0 18 0;
#X connect 23 1 20 0;
#X connect 23 2 21 0;
#X connect 23 3 19 0;
#X connect 23 4 15 0;
#X connect 23 5 14 0;
#X connect 24 0 5 0;
#X connect 25 0 24 0;
#X coords 0 -1 1 1 200 150 1 100 100;
