#N canvas 520 197 1817 726 12;
#X obj 110 187 hsl 128 15 0.01 10 0 0 empty \$0-ezflanger_rate rate
-2 -8 0 12 -262144 -1 -1 9859 1;
#X floatatom 253 187 5 0 0 0 - - -, f 5;
#X obj 236 133 tgl 15 0 empty \$0-ezflanger_bypass bypass 17 7 0 12
-262144 -1 -1 0 1;
#X obj 433 674 pdkez_switcher;
#X obj 478 102 inlet~;
#X obj 395 132 osc~ 3;
#X obj 111 158 hsl 128 15 0 1 0 0 empty \$0-ezflanger_depth depth -2
-8 0 12 -262144 -1 -1 6350 1;
#X floatatom 254 159 5 0 0 0 - - -, f 5;
#X obj 399 605 *~ 0;
#X obj 440 640 +~;
#X obj 433 699 outlet~;
#X text 1355 33 derek kwan;
#X text 1360 57 pdkez;
#X text 1358 80 gpl v 3 2017;
#X obj 168 132 tgl 15 0 empty \$0-ezflanger_invert invert 17 7 0 12
-262144 -1 -1 0 1;
#X obj 197 350 sel 0 1;
#X msg 197 375 1;
#X msg 245 378 -1;
#X obj 211 415 t b f;
#X obj 137 479 * 1;
#X obj 886 82 inlet;
#X text 945 85 depth;
#X obj 976 155 inlet;
#X text 1025 157 rate;
#X obj 1397 119 inlet;
#X text 1456 116 invert;
#X obj 1512 180 inlet;
#X text 1565 176 bypass;
#X obj 107 257 hsl 128 15 0 1 0 0 empty \$0-ezflanger_fb fb -2 -8 0
12 -262144 -1 -1 6350 1;
#X floatatom 250 257 5 0 0 0 - - -, f 5;
#X obj 108 223 hsl 128 15 0 1 0 0 empty \$0-ezflanger_width width -2
-8 0 12 -262144 -1 -1 6350 1;
#X floatatom 251 223 5 0 0 0 - - -, f 5;
#X obj 886 107 s \$0-ezflanger_depth;
#X obj 983 206 s \$0-ezflanger_rate;
#X obj 1397 144 s \$0-ezflanger_invert;
#X obj 1512 205 s \$0-ezflanger_bypass;
#X obj 465 583 *~ 0;
#X obj 349 272 +~ 5.5;
#X obj 340 233 *~ 4.5;
#X obj 400 203 * 4.5;
#X text 425 259 scale to 1ms - 10 ms;
#X obj 1084 79 inlet;
#X obj 1174 152 inlet;
#X text 1143 82 width;
#X obj 1084 104 s \$0-ezflanger_width;
#X obj 1181 203 s \$0-ezflanger_fb;
#X text 1223 154 fb;
#N canvas 238 177 813 393 \$0-ezflanger_defaults 0;
#X obj 139 101 f \$1;
#X text 199 99 depth;
#X obj 95 201 pack \$0 f f f f f, f 74;
#X msg 139 151 0.5;
#X obj 267 99 f \$2;
#X obj 139 126 moses 1e-20;
#X obj 267 124 moses 1e-20;
#X msg 267 149 1;
#X text 317 99 rate;
#X obj 377 116 moses 1e-20;
#X text 427 91 width;
#X msg 377 141 0.5;
#X obj 503 110 moses 1e-20;
#X text 553 85 fb;
#X msg 503 135 0.5;
#X obj 377 91 f \$3;
#X obj 503 85 f \$4;
#X obj 619 85 f \$5;
#X text 669 85 invert;
#X msg 95 281 \; \$1-ezflanger_depth \$2 \; \$1-ezflanger_rate \$3
\; \$1-ezflanger_width \$4 \; \$1-ezflanger_fb \$5 \; \$1-ezflanger_invert
\$6 \;;
#X obj 129 15 loadbang;
#X obj 129 40 t b b;
#X connect 0 0 5 0;
#X connect 2 0 19 0;
#X connect 3 0 2 1;
#X connect 4 0 6 0;
#X connect 5 0 3 0;
#X connect 5 1 2 1;
#X connect 6 0 7 0;
#X connect 6 1 2 2;
#X connect 7 0 2 2;
#X connect 9 0 11 0;
#X connect 9 1 2 3;
#X connect 11 0 2 3;
#X connect 12 0 14 0;
#X connect 12 1 2 4;
#X connect 14 0 2 4;
#X connect 15 0 9 0;
#X connect 16 0 12 0;
#X connect 17 0 2 5;
#X connect 20 0 21 0;
#X connect 21 0 2 0;
#X connect 21 1 17 0;
#X connect 21 1 16 0;
#X connect 21 1 15 0;
#X connect 21 1 4 0;
#X connect 21 1 0 0;
#X restore 1503 73 pd \$0-ezflanger_defaults;
#X obj 808 649 pdkez_switcher;
#X obj 826 122 inlet~;
#X obj 699 580 *~ 0;
#X obj 792 590 +~;
#X obj 808 674 outlet~;
#X obj 765 558 *~ 0;
#X obj 503 348 delwrite~ \$0-pdkez_flanger_delL 5;
#X obj 388 398 delread4~ \$0-pdkez_flanger_delL 5;
#X obj 900 427 delwrite~ \$0-pdkez_flanger_delR 5;
#X obj 804 482 delread4~ \$0-pdkez_flanger_delR 5;
#X connect 0 0 1 0;
#X connect 0 0 5 0;
#X connect 2 0 3 2;
#X connect 2 0 48 2;
#X connect 3 0 10 0;
#X connect 4 0 9 1;
#X connect 4 0 3 1;
#X connect 4 0 54 0;
#X connect 5 0 38 0;
#X connect 6 0 7 0;
#X connect 6 0 19 0;
#X connect 8 0 9 0;
#X connect 9 0 3 0;
#X connect 14 0 15 0;
#X connect 15 0 16 0;
#X connect 15 1 17 0;
#X connect 16 0 18 0;
#X connect 17 0 18 0;
#X connect 18 0 6 0;
#X connect 18 1 19 1;
#X connect 19 0 8 1;
#X connect 19 0 50 1;
#X connect 20 0 32 0;
#X connect 22 0 33 0;
#X connect 24 0 34 0;
#X connect 26 0 35 0;
#X connect 28 0 29 0;
#X connect 28 0 36 1;
#X connect 28 0 53 1;
#X connect 30 0 31 0;
#X connect 30 0 39 0;
#X connect 36 0 54 0;
#X connect 37 0 55 0;
#X connect 37 0 57 0;
#X connect 38 0 37 0;
#X connect 39 0 38 1;
#X connect 41 0 44 0;
#X connect 42 0 45 0;
#X connect 48 0 52 0;
#X connect 49 0 51 1;
#X connect 49 0 48 1;
#X connect 49 0 56 0;
#X connect 50 0 51 0;
#X connect 51 0 48 0;
#X connect 53 0 56 0;
#X connect 55 0 8 0;
#X connect 55 0 36 0;
#X connect 57 0 50 0;
#X connect 57 0 53 0;
#X coords 0 -1 1 1 200 185 1 100 100;
