#N canvas 602 270 1220 576 12;
#N canvas 0 50 450 250 (subpatch) 0;
#X array \$0-input 256 float 4;
#X coords 0 1 255 -1 200 140 1 0 0;
#X restore 104 144 graph;
#X obj 416 134 inlet~;
#X obj 725 138 inlet;
#X text 780 137 metro time;
#X obj 536 250 metro;
#X obj 668 12 loadbang;
#X obj 668 37 f \$1;
#X obj 668 62 moses 1e-07;
#X obj 503 128 inlet;
#X text 561 126 metro on/off;
#X obj 244 121 tgl 15 0 empty empty graph 17 7 0 12 -262144 -1 -1 0
1;
#X obj 423 347 tabwrite~ \$0-input;
#X msg 668 87 125;
#X text 1015 33 derek kwan;
#X text 1018 62 pdkez;
#X text 1025 91 gpl v 3 2017;
#X connect 1 0 11 0;
#X connect 2 0 4 1;
#X connect 4 0 11 0;
#X connect 5 0 6 0;
#X connect 6 0 7 0;
#X connect 7 0 12 0;
#X connect 7 1 4 1;
#X connect 8 0 10 0;
#X connect 10 0 4 0;
#X connect 12 0 4 1;
#X coords 0 -1 1 1 210 190 1 100 100;
