#N canvas 530 185 1592 713 12;
#X obj 106 199 hsl 128 15 1 128 0 0 empty \$0-ezbitcrush_rate_r rate_reduction
-2 -8 0 12 -262144 -1 -1 0 1;
#X floatatom 244 199 5 0 0 0 - - -, f 5;
#X obj 412 31 inlet~;
#X obj 110 144 hradio 15 1 0 5 \$0-ezbitcrush_bitres_s \$0-ezbitcrush_bitres_r
bit_res 0 -8 0 12 -262144 -1 -1 1008;
#X text 104 160 16;
#X text 126 160 8;
#X text 141 160 4;
#X text 155 159 2;
#X text 171 160 1;
#X msg 737 334 16;
#X msg 780 333 8;
#X msg 824 337 4;
#X msg 875 341 2;
#X msg 782 458 1;
#X obj 696 403 expr pow(2 \, $f1);
#X obj 696 428 / 2;
#X text 744 431 half since pos and neg;
#X obj 217 667 outlet~;
#X obj 706 289 sel 0 1 2 3 4;
#X obj 680 22 inlet;
#X text 741 19 bitres;
#X obj 752 104 inlet;
#X text 813 101 rate;
#X obj 223 147 tgl 15 0 empty \$0-ezbitcrush_bypass bypass 17 7 0 12
-262144 -1 -1 0 1;
#X obj 215 616 pdkez_switcher;
#X obj 908 13 inlet;
#X text 961 9 bypass;
#X obj 682 59 s \$0-ezbitcrush_bitres_r;
#X obj 754 141 s \$0-ezbitcrush_rate_r;
#X obj 695 258 r \$0-ezbitcrush_bitres_s;
#X obj 908 38 s \$0-ezbitcrush_bypass;
#X text 1132 40 derek kwan;
#X text 1137 64 pdkez;
#X text 1135 87 gpl v 3 2017;
#X obj 1179 220 loadbang;
#X obj 1181 285 f \$1;
#X obj 1309 283 f \$2;
#X obj 1309 308 moses 1e-20;
#X msg 1309 333 1;
#X text 1359 283 rate;
#X obj 1179 245 t b b;
#X obj 1089 398 pack \$0 f f, f 29;
#X text 1241 283 bitres;
#X obj 386 466 expr~ rint($v1 * $f3)/$f3 \; rint($v2 * $f3)/$f3;
#X obj 499 39 inlet~;
#N canvas 1046 534 896 816 \$0-bitcrush_sampholder 0;
#X obj 534 331 phasor~;
#X obj 538 259 samplerate~;
#X obj 270 195 sel 1;
#X obj 140 403 *~ 1;
#X obj 191 405 *~ 0;
#X msg 334 239 1;
#X msg 380 238 0;
#X msg 189 251 0;
#X obj 312 517 samphold~;
#X obj 545 195 t b f;
#X obj 545 294 /;
#X msg 242 251 1;
#X obj 386 97 inlet;
#X obj 150 79 inlet~;
#X obj 313 586 outlet~;
#X obj 277 401 *~ 1;
#X obj 328 403 *~ 0;
#X obj 287 77 inlet~;
#X obj 423 521 samphold~;
#X obj 423 598 outlet~;
#X connect 0 0 8 1;
#X connect 0 0 18 1;
#X connect 1 0 10 0;
#X connect 2 0 7 0;
#X connect 2 0 11 0;
#X connect 2 1 5 0;
#X connect 2 1 6 0;
#X connect 3 0 14 0;
#X connect 4 0 8 0;
#X connect 5 0 4 1;
#X connect 5 0 16 1;
#X connect 6 0 3 1;
#X connect 6 0 15 1;
#X connect 7 0 4 1;
#X connect 7 0 16 1;
#X connect 8 0 14 0;
#X connect 9 0 1 0;
#X connect 9 1 10 1;
#X connect 10 0 0 0;
#X connect 11 0 3 1;
#X connect 11 0 15 1;
#X connect 12 0 2 0;
#X connect 12 0 9 0;
#X connect 13 0 3 0;
#X connect 13 0 4 0;
#X connect 15 0 19 0;
#X connect 16 0 18 0;
#X connect 17 0 15 0;
#X connect 17 0 16 0;
#X connect 18 0 19 0;
#X restore 387 396 pd \$0-bitcrush_sampholder;
#X obj 449 670 outlet~;
#X obj 447 619 pdkez_switcher;
#X msg 1089 424 \; \$1-ezbitcrush_bitres_r \$2 \; \$1-ezbitcrush_rate_r
\$3 \;;
#X connect 0 0 1 0;
#X connect 0 0 45 2;
#X connect 2 0 24 1;
#X connect 2 0 45 0;
#X connect 9 0 14 0;
#X connect 10 0 14 0;
#X connect 11 0 14 0;
#X connect 12 0 14 0;
#X connect 13 0 14 0;
#X connect 14 0 15 0;
#X connect 15 0 43 2;
#X connect 18 0 9 0;
#X connect 18 1 10 0;
#X connect 18 2 11 0;
#X connect 18 3 12 0;
#X connect 18 4 13 0;
#X connect 19 0 27 0;
#X connect 21 0 28 0;
#X connect 23 0 24 2;
#X connect 23 0 47 2;
#X connect 24 0 17 0;
#X connect 25 0 30 0;
#X connect 29 0 18 0;
#X connect 34 0 40 0;
#X connect 35 0 41 1;
#X connect 36 0 37 0;
#X connect 37 0 38 0;
#X connect 37 1 41 2;
#X connect 38 0 41 2;
#X connect 40 0 41 0;
#X connect 40 1 36 0;
#X connect 40 1 35 0;
#X connect 41 0 48 0;
#X connect 43 0 24 0;
#X connect 43 1 47 0;
#X connect 44 0 45 1;
#X connect 44 0 47 1;
#X connect 45 0 43 0;
#X connect 45 1 43 1;
#X connect 47 0 46 0;
#X coords 0 -1 1 1 200 125 1 100 100;
