#N canvas 609 386 1464 507 12;
#X obj 395 275 inlet~;
#X obj 389 429 outlet~;
#X obj 483 421 outlet~;
#X floatatom 134 226 5 0 1e+20 0 freq - #0-freq, f 5;
#X obj 456 251 pack f 5;
#X floatatom 189 226 5 0 1e+20 0 q - #0-q, f 5;
#X obj 563 230 r \$0-q;
#X obj 449 201 r \$0-freq;
#X floatatom 258 226 5 0 1e+20 0 ramp - #0-ramp, f 5;
#X obj 534 197 r \$0-ramp;
#X text 378 49 args: freq \, q \, ramp;
#X obj 111 52 loadbang;
#X obj 111 76 t b b b, f 45;
#X obj 106 132 f \$1;
#X obj 239 134 moses 1e-20;
#X obj 389 381 vcf~ 3, f 12;
#X msg 239 158 3;
#X obj 239 110 f \$2;
#X obj 373 122 f \$3;
#X obj 373 146 moses 1e-20;
#X msg 337 168 5;
#X text 898 0 derek kwan;
#X text 897 28 pdkez;
#X text 900 52 gpl v 3 2018;
#X obj 456 275 line~;
#X obj 653 17 inlet;
#X obj 653 41 route freq q ramp;
#X connect 0 0 15 0;
#X connect 4 0 24 0;
#X connect 6 0 15 2;
#X connect 7 0 4 0;
#X connect 9 0 4 1;
#X connect 11 0 12 0;
#X connect 12 0 13 0;
#X connect 12 1 17 0;
#X connect 12 2 18 0;
#X connect 13 0 3 0;
#X connect 14 0 16 0;
#X connect 14 1 5 0;
#X connect 15 0 1 0;
#X connect 15 1 2 0;
#X connect 16 0 5 0;
#X connect 17 0 14 0;
#X connect 18 0 19 0;
#X connect 19 0 20 0;
#X connect 19 1 8 0;
#X connect 20 0 8 0;
#X connect 24 0 15 1;
#X connect 25 0 26 0;
#X connect 26 0 3 0;
#X connect 26 1 5 0;
#X connect 26 2 8 0;
#X coords 0 -1 1 1 200 50 1 100 200;
