#N canvas 543 255 1375 809 12;
#X text 1070 36 derek kwan;
#X text 1075 60 pdkez;
#X text 1073 83 gpl v 3 2017;
#X obj 240 105 tgl 15 0 empty \$0-ezfshift_bypass bypass 17 7 0 12
-262144 -1 -1 0 1;
#X obj 228 465 pdkez_switcher;
#X obj 114 144 hsl 175 15 -1000 1000 0 0 empty \$0-ezfshift_amt fshift_amt
-2 -8 0 12 -262144 -1 -1 8700 1;
#X floatatom 240 124 5 0 0 0 - - -, f 5;
#X obj 228 490 outlet~;
#X obj 805 48 inlet;
#X text 858 44 bypass;
#X obj 196 124 bng 15 250 50 0 empty empty 0 17 7 0 10 -262144 -1 -1
;
#X obj 82 239 inlet~;
#X obj 221 362 *~;
#X obj 287 368 *~;
#X obj 228 403 -~;
#X obj 335 313 cos~;
#X obj 389 298 +~ 0.25;
#X obj 389 320 cos~;
#X text 30 11 FREQSHIFT~: frequency shifting by single sideband modulation
;
#X text 31 29 based on Miller Puckette's H90.ssb.modulation;
#X text 793 245 in 1: signal;
#X text 647 38 fshift_amt;
#X obj 588 59 s \$0-ezfshift_amt;
#X obj 588 34 inlet;
#X obj 374 77 loadbang;
#X obj 339 257 phasor~;
#X obj 374 102 f \$1;
#X obj 805 73 s \$0-ezfshift_bypass;
#X msg 36 199 0;
#X text 792 303 in 3: freq shift amount;
#X text 795 277 in2 2: signal;
#X text 783 371 argt: freq shift amount;
#X obj 457 236 inlet~;
#X obj 442 385 *~;
#X obj 508 391 *~;
#X obj 449 426 -~;
#X obj 444 473 pdkez_switcher;
#X obj 444 498 outlet~;
#X obj 455 271 pdkez_hilbert;
#X obj 80 274 pdkez_hilbert;
#X connect 3 0 4 2;
#X connect 3 0 36 2;
#X connect 4 0 7 0;
#X connect 5 0 6 0;
#X connect 5 0 25 0;
#X connect 8 0 27 0;
#X connect 10 0 28 0;
#X connect 11 0 4 1;
#X connect 11 0 39 0;
#X connect 12 0 14 0;
#X connect 13 0 14 1;
#X connect 14 0 4 0;
#X connect 15 0 12 1;
#X connect 15 0 33 1;
#X connect 16 0 17 0;
#X connect 17 0 13 1;
#X connect 17 0 34 1;
#X connect 23 0 22 0;
#X connect 24 0 26 0;
#X connect 25 0 15 0;
#X connect 25 0 16 0;
#X connect 26 0 22 0;
#X connect 28 0 5 0;
#X connect 32 0 36 1;
#X connect 32 0 38 0;
#X connect 33 0 35 0;
#X connect 34 0 35 1;
#X connect 35 0 36 0;
#X connect 36 0 37 0;
#X connect 38 0 33 0;
#X connect 38 1 34 0;
#X connect 39 0 12 0;
#X connect 39 1 13 0;
#X coords 0 -1 1 1 200 65 1 100 100;
