#N canvas 754 409 1318 621 12;
#X obj 114 149 hsl 128 15 1 100 0 0 empty \$0-distort_gain gain -2
-8 0 12 -262144 -1 -1 0 1;
#X obj 369 298 exp~;
#X obj 371 262 *~ 2;
#X obj 332 349 -~ 1;
#X text 434 180 (exp(2x) - 1)/(exp(2x)+1);
#X obj 411 354 +~ 1;
#X obj 335 424 /~;
#X obj 300 538 outlet~;
#X obj 444 113 inlet~;
#X text 985 48 derek kwan;
#X text 990 72 pdkez;
#X text 988 95 gpl v 3 2017;
#X obj 383 211 *~ 1;
#X floatatom 254 147 5 0 0 0 - - -, f 5;
#X obj 306 472 pdkez_switcher;
#X obj 235 125 tgl 15 0 empty \$0-distort_bypass bypass 17 7 0 12 -262144
-1 -1 0 1;
#X obj 405 49 loadbang;
#X msg 405 74 1;
#X obj 566 83 inlet;
#X text 619 79 gain;
#X obj 566 108 s \$0-distort_gain;
#X obj 738 83 inlet;
#X text 791 79 bypass;
#X obj 738 108 s \$0-distort_bypass;
#X connect 0 0 12 1;
#X connect 0 0 13 0;
#X connect 1 0 3 0;
#X connect 1 0 5 0;
#X connect 2 0 1 0;
#X connect 3 0 6 0;
#X connect 5 0 6 1;
#X connect 6 0 14 0;
#X connect 8 0 12 0;
#X connect 8 0 14 1;
#X connect 12 0 2 0;
#X connect 14 0 7 0;
#X connect 15 0 14 2;
#X connect 16 0 17 0;
#X connect 17 0 0 0;
#X connect 18 0 20 0;
#X connect 21 0 23 0;
#X coords 0 -1 1 1 200 75 1 100 100;
