#N canvas 292 115 903 901 12;
#X obj 171 775 dac~ 1 2;
#X floatatom 242 158 5 0 0 0 - - -;
#X obj 106 145 hsl 128 30 0 2 0 0 empty \$0-dkezdac-gain gain -2 -8
0 12 -262144 -1 -1 6350 1;
#X floatatom 214 126 3 0 0 0 ch1 #0-dkezdac-chan1 -;
#X floatatom 262 128 3 0 0 0 ch2 #0-dkezdac-chan2 -;
#X obj 480 105 loadbang;
#X obj 461 313 f \$1;
#X obj 525 316 f \$2;
#X obj 525 341 moses 1;
#X msg 525 366 2;
#X obj 667 420 s \$0-dkezdac-chan2;
#X obj 461 338 moses 1;
#X msg 461 363 1;
#X obj 584 493 s \$0-dkezdac-chan1;
#X obj 480 130 t b b b;
#X msg 352 471 set \$1 \$2;
#X obj 351 411 pack f f;
#X obj 615 167 s \$0-dkezdac-gain;
#X obj 622 44 inlet;
#X text 3 6 dkezdac~ - dac~ abstraction;
#X text 5 30 args: integers for channels 1 and 2;
#X obj 668 117 i;
#X obj 717 122 i;
#X obj 414 49 inlet~;
#X text -1 49 in1: signal for chan1;
#X text 192 48 in2: signal for chan2;
#X obj 496 52 inlet~;
#X msg 540 190 1;
#X obj 288 146 tgl 30 0 empty \$0-dkezdac-dsp dsp 0 -7 0 12 -262144
-1 -1 0 1;
#X msg 211 347 \; pd dsp \$1;
#X obj 362 356 t b f;
#X obj 271 104 tgl 15 0 empty empty mono 17 7 0 12 -262144 -1 -1 0
1;
#X obj 285 547 == 1;
#X obj 336 553 == 0;
#X msg 430 190 0;
#X obj 192 621 *~ 1;
#X obj 320 643 *~ 0;
#X obj 179 500 *~;
#X obj 233 500 *~;
#X msg 151 417 \$1 5;
#X obj 151 442 line~;
#X obj 222 103 tgl 15 0 empty empty mute 17 7 0 12 -262144 -1 -1 0
1;
#X obj 51 323 sel 1 0;
#X msg 51 348 0;
#X obj 134 127 bng 15 250 50 0 empty empty unity 17 7 0 12 -262144
-1 -1;
#X msg 107 211 1;
#X obj 622 69 route gain chan1 chan2 unity;
#X text 3 79 in3: "gain (f)" \, "chan1 (i)" \, and "chan2 (i)" and
"unity";
#X obj 308 774 outlet~;
#X obj 404 777 outlet~;
#X obj 160 690 +~;
#X connect 1 0 39 0;
#X connect 2 0 1 0;
#X connect 3 0 16 0;
#X connect 4 0 30 0;
#X connect 5 0 14 0;
#X connect 6 0 11 0;
#X connect 7 0 8 0;
#X connect 8 0 9 0;
#X connect 8 1 10 0;
#X connect 9 0 10 0;
#X connect 11 0 12 0;
#X connect 11 1 13 0;
#X connect 12 0 13 0;
#X connect 14 0 6 0;
#X connect 14 0 27 0;
#X connect 14 1 7 0;
#X connect 14 2 34 0;
#X connect 15 0 0 0;
#X connect 16 0 15 0;
#X connect 18 0 46 0;
#X connect 21 0 13 0;
#X connect 22 0 10 0;
#X connect 23 0 37 0;
#X connect 26 0 38 0;
#X connect 27 0 17 0;
#X connect 28 0 29 0;
#X connect 30 0 16 0;
#X connect 30 1 16 1;
#X connect 31 0 32 0;
#X connect 31 0 33 0;
#X connect 32 0 35 1;
#X connect 33 0 36 1;
#X connect 34 0 31 0;
#X connect 34 0 41 0;
#X connect 35 0 50 1;
#X connect 36 0 0 1;
#X connect 36 0 49 0;
#X connect 37 0 50 0;
#X connect 38 0 35 0;
#X connect 38 0 36 0;
#X connect 39 0 40 0;
#X connect 40 0 37 1;
#X connect 40 0 38 1;
#X connect 41 0 42 0;
#X connect 42 0 43 0;
#X connect 42 1 1 0;
#X connect 43 0 39 0;
#X connect 44 0 45 0;
#X connect 45 0 2 0;
#X connect 46 0 17 0;
#X connect 46 1 21 0;
#X connect 46 2 22 0;
#X connect 46 3 44 0;
#X connect 50 0 0 0;
#X connect 50 0 48 0;
#X coords 0 -1 1 1 220 80 1 100 100;
