#N canvas 1069 139 1018 582 12;
#X obj 115 174 hsl 250 15 0 1 0 0 empty \$0-dkezsndplayM_start start_point
-2 -8 0 12 -262144 -1 -1 0 1;
#X floatatom 193 154 9 0 0 0 - - -, f 9;
#X obj 114 210 hsl 250 15 0 1 0 0 empty \$0-dkezsndplayM_end end_point
-2 -8 0 12 -262144 -1 -1 24900 1;
#X floatatom 184 191 9 0 0 0 - - -, f 9;
#X obj 111 251 hsl 250 15 0.25 4 0 0 empty \$0-dkezsndplayM_rate rate
-2 -8 0 12 -262144 -1 -1 4980 1;
#X floatatom 152 230 9 0 0 0 - - -, f 9;
#X obj 193 132 bng 20 250 50 0 empty empty play 22 10 0 12 -262144
-1 -1;
#X obj 239 233 bng 15 250 50 0 empty empty normal_rate 17 7 0 10 -262144
-1 -1;
#X msg 77 299 1;
#X obj 309 130 tgl 20 0 empty \$0-dkezsndplayM_loop loop 22 10 0 12
-262144 -1 -1 0 1;
#X obj 511 36 inlet;
#X text 575 36 start;
#X obj 112 61 inlet;
#X text 171 58 trig;
#X obj 623 145 inlet;
#X text 687 145 stop;
#X obj 740 32 inlet;
#X text 804 32 rate;
#X obj 426 135 inlet;
#X text 486 144 loop;
#X obj 593 310 loadbang;
#X obj 593 335 f \$0;
#X obj 131 497 outlet~;
#X obj 521 95 s \$0-dkezsndplayM_start;
#X obj 603 193 s \$0-dkezsndplayM_stop;
#X obj 720 88 s \$0-dkezsndplayM_rate;
#X obj 406 183 s \$0-dkezsndplayM_loop;
#X msg 593 360 \; \$1-dkezsndplayM_start 0 \; \$1-dkezsndplayM_end
1 \; \$1-dkezsndplayM_rate 1 \; \$1-dkezsndplayM_loop 0 \;;
#X obj 216 57 inlet;
#X text 264 57 stop;
#X obj 252 129 bng 20 250 50 0 empty empty stop 22 10 0 12 -262144
-1 -1;
#X floatatom 108 136 9 0 0 2 dur_in_ms - -, f 9;
#X text 872 112 derek kwan;
#X text 877 136 pdkez;
#X text 875 159 gpl v 3 2017;
#X obj 131 472 tabread4~ \$1;
#X obj 131 447 pdkez-sndplay_ptr~ \$1, f 38;
#X connect 0 0 1 0;
#X connect 0 0 36 2;
#X connect 2 0 3 0;
#X connect 2 0 36 3;
#X connect 4 0 5 0;
#X connect 4 0 36 4;
#X connect 6 0 36 0;
#X connect 7 0 8 0;
#X connect 8 0 4 0;
#X connect 9 0 36 5;
#X connect 10 0 23 0;
#X connect 12 0 6 0;
#X connect 14 0 24 0;
#X connect 16 0 25 0;
#X connect 18 0 26 0;
#X connect 20 0 21 0;
#X connect 21 0 27 0;
#X connect 28 0 30 0;
#X connect 30 0 36 1;
#X connect 35 0 22 0;
#X connect 36 0 35 0;
#X connect 36 1 31 0;
#X coords 0 -1 1 1 275 175 1 100 100;
