#N canvas 1047 486 1392 714 12;
#X obj 111 202 hsl 128 15 0.01 5 0 0 empty \$0-ezchorus_rate rate -2
-8 0 12 -262144 -1 -1 1000 1;
#X floatatom 254 202 5 0 0 0 - - -, f 5;
#X obj 237 148 tgl 15 0 empty \$0-ezchorus_bypass bypass 17 7 0 12
-262144 -1 -1 0 1;
#X obj 423 629 pdkez_switcher;
#X obj 507 142 inlet~;
#X obj 112 173 hsl 128 15 0 1 0 0 empty \$0-ezchorus_depth depth -2
-8 0 12 -262144 -1 -1 6200 1;
#X floatatom 255 174 5 0 0 0 - - -, f 5;
#X obj 87 3 loadbang;
#X obj 423 654 outlet~;
#X text 1023 17 derek kwan;
#X text 1028 41 pdkez;
#X text 1026 64 gpl v 3 2017;
#X obj 554 66 inlet;
#X text 613 69 depth;
#X obj 644 139 inlet;
#X text 693 141 rate;
#X obj 921 141 inlet;
#X text 974 137 bypass;
#X obj 554 91 s \$0-ezchorus_depth;
#X obj 651 190 s \$0-ezchorus_rate;
#X obj 563 298 delwrite~ \$0-pdkezchorus_del 50;
#X obj 310 456 +~;
#X obj 921 166 s \$0-ezchorus_bypass;
#X obj 525 181 /~ 8;
#X obj 192 301 phasor~ 3;
#X obj 300 376 clone pdkez_chorus-voice~ 8 \$0-pdkezchorus_del;
#X msg 22 65 0.5;
#X msg 166 56 0.5;
#X connect 0 0 1 0;
#X connect 0 0 24 0;
#X connect 2 0 3 2;
#X connect 3 0 8 0;
#X connect 4 0 3 1;
#X connect 4 0 23 0;
#X connect 5 0 6 0;
#X connect 7 0 27 0;
#X connect 7 0 26 0;
#X connect 12 0 18 0;
#X connect 14 0 19 0;
#X connect 16 0 22 0;
#X connect 21 0 3 0;
#X connect 23 0 20 0;
#X connect 23 0 21 1;
#X connect 24 0 25 0;
#X connect 25 0 21 0;
#X connect 26 0 5 0;
#X connect 27 0 0 0;
#X coords 0 -1 1 1 200 125 1 100 100;
