#N canvas 433 204 1434 676 12;
#X obj 107 125 bng 15 250 50 0 empty empty load 17 7 0 15 -262144 -1
-1;
#X obj 106 189 openpanel;
#X obj 287 248 array define \$1;
#X msg 103 281 read -resize -maxsize 4e+10 \$1 \$2;
#X obj 103 306 soundfiler;
#X symbolatom 107 147 23 0 0 0 - - -, f 23;
#X obj 201 224 symbol \$1;
#X obj 105 245 pack s s;
#X text 356 92 derek kwan;
#X text 361 116 pdkez;
#X text 359 139 gpl v 3 2017;
#X obj 184 342 outlet;
#X obj 555 85 inlet;
#X text 610 85 file name;
#X obj 708 89 inlet;
#X text 761 90 array name;
#X obj 266 348 outlet;
#X obj 106 214 t a b;
#X obj 555 110 symbol;
#X obj 517 315 moses 1e-20;
#X obj 582 364 t b f, f 18;
#X obj 582 389 samplerate~;
#X obj 582 414 / 1000;
#X obj 582 439 *;
#X obj 582 464 array size \$1;
#X text 667 193 arg1: array name;
#X text 675 223 arg2: array size in ms;
#X obj 874 95 inlet;
#X text 937 97 array size;
#X obj 187 124 nbx 7 16 1 1e+37 0 0 empty \$0-ezarrayM_ms ms -20 7
0 15 -262144 -1 -1 1000 256;
#X obj 1039 94 loadbang;
#X obj 1039 119 f \$2;
#X obj 1039 144 moses 1e-20, f 18;
#X msg 1039 169 1000;
#X obj 875 266 s \$0-ezarrayM_ms;
#X obj 98 398 t b f;
#X obj 152 441 samplerate~;
#X obj 152 466 / 1000;
#X obj 109 504 /;
#X obj 189 564 s \$0-ezarrayM_ms;
#X obj 91 567 outlet;
#X msg 109 529 set \$1;
#X connect 0 0 1 0;
#X connect 1 0 5 0;
#X connect 1 0 16 0;
#X connect 1 0 17 0;
#X connect 3 0 4 0;
#X connect 4 0 35 0;
#X connect 4 1 11 0;
#X connect 6 0 7 1;
#X connect 7 0 3 0;
#X connect 12 0 18 0;
#X connect 14 0 6 1;
#X connect 17 0 7 0;
#X connect 17 1 6 0;
#X connect 18 0 5 0;
#X connect 18 0 17 0;
#X connect 19 1 20 0;
#X connect 20 0 21 0;
#X connect 20 1 23 1;
#X connect 21 0 22 0;
#X connect 22 0 23 0;
#X connect 23 0 24 0;
#X connect 27 0 34 0;
#X connect 29 0 19 0;
#X connect 30 0 31 0;
#X connect 31 0 32 0;
#X connect 32 0 33 0;
#X connect 32 1 34 0;
#X connect 33 0 34 0;
#X connect 35 0 38 0;
#X connect 35 1 36 0;
#X connect 36 0 37 0;
#X connect 37 0 38 1;
#X connect 38 0 40 0;
#X connect 38 0 41 0;
#X connect 41 0 39 0;
#X coords 0 -1 1 1 200 70 1 100 100;
