#N canvas 1678 430 820 713 12;
#X obj 147 143 tgl 15 0 empty empty on 17 7 0 15 -262144 -1 -1 0 1
;
#X obj 219 28 inlet;
#X obj 205 350 bonk~;
#X obj 147 488 spigot;
#X floatatom 179 200 5 0 0 0 thresh_hi #0-eztrig_hi -, f 5;
#X floatatom 180 170 5 0 0 0 thresh_lo #0-eztrig_lo -, f 5;
#X floatatom 177 225 5 0 1e+20 0 minvel #0-eztrig_minvel -, f 5;
#N canvas 1042 521 933 449 \$0-eztrig_defaults 0;
#X obj 169 99 loadbang;
#X obj 331 224 moses 1e-20;
#X obj 129 142 t b b, f 59;
#X obj 205 208 moses 1e-20;
#X text 250 181 thresh_lo;
#X text 377 196 thresh_hi;
#X msg 327 246 10;
#X msg 205 233 6;
#X obj 203 264 f;
#X obj 327 270 f;
#X obj 501 212 moses 1e-20;
#X msg 501 236 7;
#X obj 501 260 f;
#X text 550 185 minvel;
#X obj 82 317 pack \$0 f f f, f 61;
#X obj 205 183 f \$1;
#X obj 327 196 f \$2;
#X obj 501 188 f \$3;
#X msg 85 355 \; \$1-eztrig_lo \$2 \; \$1-eztrig_hi \$3 \; \$1-eztrig_minvel
\$4 \;;
#X connect 0 0 2 0;
#X connect 1 0 6 0;
#X connect 1 1 9 0;
#X connect 2 0 14 0;
#X connect 2 1 15 0;
#X connect 2 1 16 0;
#X connect 2 1 17 0;
#X connect 3 0 7 0;
#X connect 3 1 8 0;
#X connect 6 0 9 0;
#X connect 7 0 8 0;
#X connect 8 0 14 1;
#X connect 9 0 14 2;
#X connect 10 0 11 0;
#X connect 10 1 12 0;
#X connect 11 0 12 0;
#X connect 12 0 14 3;
#X connect 14 0 18 0;
#X connect 15 0 3 0;
#X connect 16 0 1 0;
#X connect 17 0 10 0;
#X restore 511 232 pd \$0-eztrig_defaults;
#X text 318 301 args: thresh_lo \, thresh_hi \, minvel;
#X obj 247 535 outlet;
#X obj 58 352 pack f f;
#X obj 114 301 t b f;
#X msg 58 376 thresh \$1 \$2;
#X msg 196 303 minvel \$1;
#X text 566 43 derek kwan;
#X text 572 69 pdkez;
#X text 580 104 gpl v 3 2018;
#X obj 219 52 route thresh_lo thresh_hi minvel on trig;
#X obj 219 76 s \$0-eztrig_lo;
#X obj 290 136 s \$0-eztrig_hi;
#X obj 299 195 s \$0-eztrig_minvel;
#X obj 209 136 bng 30 250 50 0 empty \$0-eztrgrnstr_trig trig 0 -7
0 12 -262144 -1 -1;
#X obj 93 38 inlet~;
#X connect 0 0 3 1;
#X connect 1 0 17 0;
#X connect 2 0 3 0;
#X connect 3 0 21 0;
#X connect 4 0 11 0;
#X connect 5 0 10 0;
#X connect 6 0 13 0;
#X connect 10 0 12 0;
#X connect 11 0 10 0;
#X connect 11 1 10 1;
#X connect 12 0 2 0;
#X connect 13 0 2 0;
#X connect 17 0 18 0;
#X connect 17 1 19 0;
#X connect 17 2 20 0;
#X connect 17 3 0 0;
#X connect 17 4 21 0;
#X connect 21 0 9 0;
#X connect 22 0 2 0;
#X coords 0 -1 1 1 150 150 1 100 100;
