#N canvas 754 409 1318 621 12;
#X obj 114 149 hsl 128 15 1 100 0 0 empty \$0-ezoverdrive_gain gain
-2 -8 0 12 -262144 -1 -1 12700 1;
#X obj 300 538 outlet~;
#X obj 347 132 inlet~;
#X text 985 48 derek kwan;
#X text 990 72 pdkez;
#X text 988 95 gpl v 3 2017;
#X floatatom 254 147 5 0 0 0 - - -, f 5;
#X obj 306 472 pdkez_switcher;
#X obj 235 125 tgl 15 0 empty \$0-ezoverdrive_bypass bypass 17 7 0
12 -262144 -1 -1 0 1;
#X obj 541 75 inlet;
#X text 594 71 gain;
#X obj 738 83 inlet;
#X text 791 79 bypass;
#X obj 514 544 outlet~;
#X obj 520 478 pdkez_switcher;
#X obj 458 133 inlet~;
#X obj 368 347 expr~ tanh($f3*$v1) \; tanh($f3*$v2) \;;
#X obj 789 227 loadbang;
#X obj 791 292 f \$1;
#X obj 789 252 t b b;
#X obj 791 317 moses 1e-20;
#X msg 791 342 1;
#X obj 699 405 pack \$0 f, f 29;
#X text 851 290 gain;
#X obj 738 108 s \$0-ezoverdrive_bypass;
#X obj 541 100 s \$0-ezoverdrive_gain;
#X msg 699 431 \; \$1-ezoverdrive_gain \$2 \;;
#X connect 0 0 6 0;
#X connect 0 0 16 2;
#X connect 2 0 7 1;
#X connect 2 0 16 0;
#X connect 7 0 1 0;
#X connect 8 0 7 2;
#X connect 8 0 14 2;
#X connect 9 0 25 0;
#X connect 11 0 24 0;
#X connect 14 0 13 0;
#X connect 15 0 16 1;
#X connect 15 0 14 1;
#X connect 16 0 7 0;
#X connect 16 1 14 0;
#X connect 17 0 19 0;
#X connect 18 0 20 0;
#X connect 19 0 22 0;
#X connect 19 1 18 0;
#X connect 20 0 21 0;
#X connect 20 1 22 1;
#X connect 21 0 22 1;
#X connect 22 0 26 0;
#X coords 0 -1 1 1 200 75 1 100 100;
