#N canvas 615 140 1289 788 12;
#X obj 356 375 loadbang;
#X obj 44 326 inlet~;
#X obj 44 351 *~;
#X obj 44 376 rfft~;
#X obj 44 401 *~;
#X obj 83 404 *~;
#X obj 44 426 +~;
#X obj 46 630 tabwrite~ \$0-magnitude;
#N canvas 1 95 450 250 (subpatch) 0;
#X array \$0-magnitude 1 float 4;
#X coords 0 0 0 -20 270 140 1 0 0;
#X restore 113 142 graph;
#X text 537 733 bounds: xlo ylo xhi yhi;
#X text 10 10 dkfftgraph~ - fft magnitude grapher (for now \, mb add
phase later);
#X text 287 59 in1: sig;
#X text 752 16 derek kwan;
#X text 752 38 pdkvabs;
#X text 752 54 gpl v 3 2017;
#X obj 418 446 f \$1;
#X obj 498 555 / 4;
#X obj 440 531 t f f;
#X obj 346 589 pack \$0 \$1 f f;
#X obj 418 471 max 64;
#X obj 599 400 switch~;
#X msg 599 375 set \$1 1;
#X obj 333 116 tgl 15 0 empty empty graph 17 7 0 10 -262144 -1 -1 0
1;
#X text 23 62 args - window size \, metrotime;
#X text 386 61 in2: metrotime;
#X text 510 60 in3: on/off;
#X obj 486 157 inlet;
#X obj 359 316 metro;
#X obj 647 65 inlet;
#X obj 367 415 t b b b, f 13;
#X obj 593 462 f \$2;
#X obj 593 487 moses 1e-20;
#X msg 488 383 0;
#X obj 450 558 / 2;
#X obj 50 513 /~ 1;
#X msg 593 512 50;
#X obj 198 396 env~ 1024;
#X obj 623 226 bng 15 250 50 0 empty empty empty 17 7 0 10 -262144
-1 -1;
#X obj 196 479 *;
#X obj 271 508 * 3;
#X obj 198 421 dbtopow;
#X obj 43 584 log~;
#X msg 346 614 \; \$1-magnitude resize \$3 \; \$1-magnitude bounds
0 0 \$3 -20 \; \$1-magnitude xticks 0 64 2 \; \$1-magnitude yticks
0 2.5 2 \; \$1-magnitude xlabel -20.01 0 \$4 \$3 \;;
#X obj 198 446 sqrt;
#X obj 44 451 q8_sqrt~;
#X obj 131 318 pdkvabs/dkhannblock~;
#X obj 423 506 pdkvabs/dknearpow2;
#X connect 0 0 29 0;
#X connect 1 0 2 0;
#X connect 1 0 36 0;
#X connect 2 0 3 0;
#X connect 3 0 4 0;
#X connect 3 0 4 1;
#X connect 3 1 5 0;
#X connect 3 1 5 1;
#X connect 4 0 6 0;
#X connect 5 0 6 1;
#X connect 6 0 44 0;
#X connect 15 0 19 0;
#X connect 16 0 18 3;
#X connect 16 0 39 0;
#X connect 17 0 33 0;
#X connect 17 1 16 0;
#X connect 18 0 42 0;
#X connect 19 0 46 0;
#X connect 21 0 20 0;
#X connect 22 0 27 0;
#X connect 22 0 20 0;
#X connect 26 0 27 1;
#X connect 27 0 7 0;
#X connect 28 0 22 0;
#X connect 29 0 18 0;
#X connect 29 1 15 0;
#X connect 29 2 30 0;
#X connect 29 2 32 0;
#X connect 30 0 31 0;
#X connect 31 0 35 0;
#X connect 31 1 27 1;
#X connect 32 0 22 0;
#X connect 33 0 18 2;
#X connect 34 0 41 0;
#X connect 35 0 27 1;
#X connect 36 0 40 0;
#X connect 37 0 29 0;
#X connect 38 0 34 1;
#X connect 39 0 38 1;
#X connect 40 0 43 0;
#X connect 41 0 7 0;
#X connect 43 0 38 0;
#X connect 44 0 34 0;
#X connect 45 0 2 1;
#X connect 46 0 17 0;
#X connect 46 0 21 0;
#X coords 0 512 512 0 300 200 1 100 100;
