#N canvas 1141 379 1370 884 12;
#X obj 105 124 bng 15 250 50 0 empty empty load 17 7 0 15 -262144 -1
-1;
#X obj 106 192 openpanel;
#X obj 81 471 soundfiler;
#X symbolatom 106 147 23 0 0 0 - - -, f 23;
#X text 332 80 derek kwan;
#X text 337 104 pdkez;
#X text 335 127 gpl v 3 2017;
#X msg 81 446 read -resize -maxsize 4e+10 \$1 \$2 \$3;
#X obj 83 410 pack s s s;
#X obj 178 502 outlet;
#X obj 467 87 inlet;
#X text 522 87 file name;
#X obj 633 91 inlet;
#X obj 466 114 symbol;
#X obj 643 310 t b f, f 18;
#X obj 643 335 samplerate~;
#X obj 643 360 / 1000;
#X obj 643 385 *;
#X text 441 551 arg1: array name;
#X text 441 611 arg2: array size in ms;
#X obj 265 413 array define \$1-0;
#X obj 413 412 array define \$1-1;
#X obj 531 450 array size \$1-0;
#X obj 681 446 array size \$1-1;
#X text 435 585 (arrays defined as name-0 \, name-1);
#X text 686 92 array name;
#X obj 106 217 t a b;
#X obj 141 308 makefilename %s-0;
#X obj 151 246 symbol \$1;
#X obj 298 311 makefilename %s-1;
#X obj 806 71 inlet;
#X text 869 73 array size;
#X obj 971 70 loadbang;
#X obj 971 95 f \$2;
#X obj 971 120 moses 1e-20, f 18;
#X msg 971 145 1000;
#X obj 807 242 s \$0-ezarrayS_ms;
#X obj 188 123 nbx 7 16 1 1e+37 0 0 empty \$0-ezarrayS_ms ms -20 7
0 15 -262144 -1 -1 1000 256;
#X obj 556 268 moses 1e-20;
#X obj 79 514 t b f;
#X obj 133 557 samplerate~;
#X obj 133 582 / 1000;
#X obj 90 620 /;
#X obj 90 674 outlet;
#X obj 182 683 s \$0-ezarrayS_ms;
#X msg 190 650 set \$1;
#X connect 0 0 1 0;
#X connect 1 0 3 0;
#X connect 1 0 26 0;
#X connect 2 0 39 0;
#X connect 2 1 9 0;
#X connect 7 0 2 0;
#X connect 8 0 7 0;
#X connect 10 0 13 0;
#X connect 12 0 28 1;
#X connect 13 0 3 0;
#X connect 13 0 26 0;
#X connect 14 0 15 0;
#X connect 14 1 17 1;
#X connect 15 0 16 0;
#X connect 16 0 17 0;
#X connect 17 0 22 0;
#X connect 17 0 23 0;
#X connect 26 0 8 0;
#X connect 26 1 28 0;
#X connect 27 0 8 1;
#X connect 28 0 27 0;
#X connect 28 0 29 0;
#X connect 29 0 8 2;
#X connect 30 0 36 0;
#X connect 32 0 33 0;
#X connect 33 0 34 0;
#X connect 34 0 35 0;
#X connect 34 1 36 0;
#X connect 35 0 36 0;
#X connect 37 0 38 0;
#X connect 38 1 14 0;
#X connect 39 0 42 0;
#X connect 39 1 40 0;
#X connect 40 0 41 0;
#X connect 41 0 42 1;
#X connect 42 0 43 0;
#X connect 42 0 45 0;
#X connect 45 0 44 0;
#X coords 0 -1 1 1 200 70 1 100 100;
