#N canvas 1044 182 939 386 12;
#X floatatom 123 118 7 0 0 0 - - -, f 7;
#X obj 102 119 tgl 15 0 empty empty empty 17 7 0 10 -262144 -1 -1 1
1;
#X obj 215 81 inlet~;
#X obj 490 78 inlet;
#X text 288 76 sig~;
#X text 543 78 on/off;
#X obj 345 80 inlet;
#X obj 210 216 snapshot~;
#X obj 102 180 metro;
#X obj 210 241 outlet;
#X text 393 82 rate (ms);
#X obj 386 142 loadbang;
#X obj 386 213 moses 1e-20;
#X msg 386 238 50;
#X obj 386 167 f \$1;
#X text 24 25 dkeznum~ - signal to float number box;
#X text 736 18 derek kwan;
#X text 740 34 pdkez;
#X text 743 66 gpl v 3 2017;
#X text 36 61 arg: rate (ms);
#X connect 1 0 8 0;
#X connect 2 0 7 0;
#X connect 3 0 1 0;
#X connect 6 0 8 1;
#X connect 7 0 0 0;
#X connect 7 0 9 0;
#X connect 8 0 7 0;
#X connect 11 0 14 0;
#X connect 12 0 13 0;
#X connect 12 1 8 1;
#X connect 13 0 8 1;
#X connect 14 0 12 0;
#X coords 0 -1 1 1 85 40 1 100 100;
