#N canvas 770 202 1087 251 12;
#X obj 78 58 inlet~;
#X obj 32 219 outlet~;
#X obj 486 42 inlet;
#X obj 689 56 inlet;
#X text 938 60 derek kwan;
#X text 943 84 pdkez;
#X text 941 107 gpl v 3 2017;
#X obj 110 130 hsl 128 15 5 50 0 0 \$0-ezstutter_rate empty stutter_rate
-2 -8 0 12 -262144 -1 -1 0 1;
#X floatatom 253 130 5 0 0 0 - - -, f 5;
#X obj 224 104 tgl 15 0 \$0-ezstutter_on empty stutter 17 7 0 12 -262144
-1 -1 0 1;
#X obj 488 79 s \$0-ezstutter_rate;
#X obj 689 81 s \$0-ezstutter_on;
#X text 742 52 on;
#X obj 330 108 f \$2;
#X text 547 39 rate;
#X text 432 164 args: max stutter time \, rate;
#X obj 287 46 inlet~;
#X obj 260 223 outlet~;
#X text 418 135 inlets: sig~ \, sig~ \, rate \, off/on;
#X obj 30 181 pdkvabs/dkstutter~ \$1 \$2;
#X obj 258 185 pdkvabs/dkstutter~ \$1 \$2;
#X msg 247 47 5;
#X obj 362 40 loadbang;
#X connect 0 0 19 0;
#X connect 2 0 10 0;
#X connect 3 0 11 0;
#X connect 7 0 8 0;
#X connect 7 0 19 1;
#X connect 7 0 20 1;
#X connect 9 0 19 2;
#X connect 9 0 20 2;
#X connect 13 0 7 0;
#X connect 16 0 20 0;
#X connect 19 0 1 0;
#X connect 20 0 17 0;
#X connect 21 0 7 0;
#X connect 22 0 13 0;
#X connect 22 0 21 0;
#X coords 0 -1 1 1 200 50 1 100 100;
