#N canvas 498 213 1636 739 12;
#X obj 111 202 hsl 128 15 1 10 0 0 empty \$0-ezautowah_q q -2 -8 0
12 -262144 -1 -1 0 1;
#X floatatom 254 202 5 0 0 0 - - -, f 5;
#X obj 237 148 tgl 15 0 empty \$0-ezautowah_bypass bypass 17 7 0 12
-262144 -1 -1 0 1;
#X obj 209 669 pdkez_switcher;
#X obj 317 38 inlet~;
#X obj 112 173 hsl 128 15 0 1 0 0 empty \$0-ezautowah_range range -2
-8 0 12 -262144 -1 -1 12700 1;
#X floatatom 255 174 5 0 0 0 - - -, f 5;
#X obj 769 66 loadbang;
#X obj 209 694 outlet~;
#X text 1023 17 derek kwan;
#X text 1028 41 pdkez;
#X text 1026 64 gpl v 3 2017;
#X obj 554 66 inlet;
#X obj 644 139 inlet;
#X obj 921 141 inlet;
#X text 974 137 bypass;
#X obj 629 255 env~;
#X obj 109 571 vcf~ 5;
#X obj 629 280 - 20;
#X obj 629 412 + 20;
#X msg 629 437 \$1 2;
#X obj 631 379 * 29.8;
#X obj 142 621 pdkez_sig2sel~;
#X obj 629 305 clip 0 80;
#X obj 632 336 * 1.25;
#X text 698 335 1 - 100 for sanity's sake;
#X text 678 262 scale from 20-100;
#X text 727 393 1 - 500 (*4.8) -> 1 - 8000 (* 79.8);
#X obj 231 267 * 75;
#X obj 231 292 + 4.8;
#X obj 554 91 s \$0-ezautowah_range;
#X obj 651 190 s \$0-ezautowah_q;
#X text 613 69 range;
#X text 693 141 q;
#X obj 199 148 hradio 15 1 0 2 empty \$0-ezautowah_sel bp/hp 0 -8 0
10 -262144 -1 -1 5;
#X obj 769 91 s \$0-ezautowah_sel;
#X text 851 68 sel;
#X obj 921 166 s \$0-ezautowah_bypass;
#X obj 1029 428 loadbang;
#X obj 1031 493 f \$1;
#X msg 1031 543 0.5;
#X obj 1159 491 f \$2;
#X obj 1031 518 moses 1e-20;
#X obj 1159 516 moses 1e-20;
#X obj 939 606 pack \$0 f f f, f 29;
#X obj 1029 453 t b b;
#X obj 1293 488 f \$3;
#X text 1091 491 range;
#X text 1209 491 q;
#X msg 1159 541 5;
#X text 1338 491 sel;
#X obj 80 392 delwrite~ \$0-ezautowah_delL 5;
#X obj 106 439 delread~ \$0-ezautowah_delL 1.5;
#X obj 675 651 pdkez_switcher;
#X obj 675 676 outlet~;
#X obj 551 553 vcf~ 5;
#X obj 570 614 pdkez_sig2sel~;
#X obj 341 386 delwrite~ \$0-ezautowah_delR 5;
#X obj 368 433 delread~ \$0-ezautowah_delR 1.5;
#X obj 631 471 line~;
#X obj 629 496 lop~ 3, f 7;
#X obj 409 35 inlet~;
#X obj 516 141 +~;
#X obj 522 175 /~ 2;
#X msg 938 632 \; \$1-ezautowah_range \$2 \; \$1-ezautowah_q \$3 \;
\$1-ezautowah_sel \$4 \;;
#X connect 0 0 1 0;
#X connect 0 0 17 2;
#X connect 0 0 55 2;
#X connect 2 0 3 2;
#X connect 2 0 53 2;
#X connect 3 0 8 0;
#X connect 4 0 3 1;
#X connect 4 0 51 0;
#X connect 4 0 62 0;
#X connect 5 0 6 0;
#X connect 5 0 28 0;
#X connect 7 0 35 0;
#X connect 12 0 30 0;
#X connect 13 0 31 0;
#X connect 14 0 37 0;
#X connect 16 0 18 0;
#X connect 17 0 22 0;
#X connect 17 1 22 1;
#X connect 18 0 23 0;
#X connect 19 0 20 0;
#X connect 20 0 59 0;
#X connect 21 0 19 0;
#X connect 22 0 3 0;
#X connect 23 0 24 0;
#X connect 24 0 21 0;
#X connect 28 0 29 0;
#X connect 29 0 21 1;
#X connect 34 0 22 2;
#X connect 34 0 56 2;
#X connect 38 0 45 0;
#X connect 39 0 42 0;
#X connect 40 0 44 1;
#X connect 41 0 43 0;
#X connect 42 0 40 0;
#X connect 42 1 44 1;
#X connect 43 0 49 0;
#X connect 43 1 44 2;
#X connect 44 0 64 0;
#X connect 45 0 44 0;
#X connect 45 1 41 0;
#X connect 45 1 39 0;
#X connect 45 1 46 0;
#X connect 46 0 44 3;
#X connect 49 0 44 2;
#X connect 52 0 17 0;
#X connect 53 0 54 0;
#X connect 55 0 56 0;
#X connect 55 1 56 1;
#X connect 56 0 53 0;
#X connect 58 0 55 0;
#X connect 59 0 60 0;
#X connect 60 0 17 1;
#X connect 60 0 55 1;
#X connect 61 0 53 1;
#X connect 61 0 57 0;
#X connect 61 0 62 1;
#X connect 62 0 63 0;
#X connect 63 0 16 0;
#X coords 0 -1 1 1 200 125 1 100 100;
