#N canvas 754 409 1375 809 12;
#X obj 114 149 hsl 128 15 -1 1 0 0 empty \$0-dkezpan_val pan -2 -8
0 12 -262144 -1 -1 6350 1;
#X text 985 48 derek kwan;
#X text 990 72 pdkez;
#X text 988 95 gpl v 3 2017;
#X floatatom 254 147 5 0 0 0 - - -, f 5;
#X obj 405 49 loadbang;
#X obj 566 83 inlet;
#X obj 738 83 inlet;
#X obj 233 126 bng 15 250 50 0 empty \$0-dkezpan_center center 17 7
0 12 -262144 -1 -1;
#X text 791 79 center;
#X obj 738 108 s \$0-dkezpan_center;
#X obj 554 199 s \$0-dkezpan_val;
#X obj 502 94 f \$1;
#X text 619 79 pan;
#X msg 124 67 0;
#X obj 345 200 inlet~;
#X obj 421 201 inlet~;
#X obj 359 477 line~;
#X obj 359 454 pack 0 1;
#X obj 473 480 line~;
#X obj 473 457 pack 0 1;
#X obj 355 500 *~;
#X obj 449 494 *~;
#X obj 327 533 outlet~;
#X obj 410 537 outlet~;
#X obj 516 342 + 1;
#X obj 505 369 * 0.5;
#X obj 456 411 + 1;
#X obj 459 379 * -1;
#X text 82 230 stereo-to-stereo panner;
#X obj 515 143 clip -1 1;
#X connect 0 0 4 0;
#X connect 0 0 25 0;
#X connect 5 0 12 0;
#X connect 6 0 30 0;
#X connect 7 0 10 0;
#X connect 8 0 14 0;
#X connect 12 0 30 0;
#X connect 14 0 0 0;
#X connect 15 0 21 0;
#X connect 16 0 22 0;
#X connect 17 0 21 1;
#X connect 18 0 17 0;
#X connect 19 0 22 1;
#X connect 20 0 19 0;
#X connect 21 0 23 0;
#X connect 22 0 24 0;
#X connect 25 0 26 0;
#X connect 26 0 28 0;
#X connect 26 0 20 0;
#X connect 27 0 18 0;
#X connect 28 0 27 0;
#X connect 30 0 11 0;
#X coords 0 -1 1 1 200 75 1 100 100;
