#N canvas 1053 222 1234 878 12;
#X obj 27 508 soundfiler;
#X obj 55 91 bng 20 250 50 0 empty empty save 0 -7 0 15 -262144 -1
-1;
#X obj 6 215 savepanel;
#X obj 100 89 tgl 20 0 empty \$0-ezsndrec_rec rec 0 -7 0 15 -262144
-1 -1 0 1;
#X obj 58 132 hsl 165 15 0 1 0 0 empty \$0-ezsndrecM_offset offset
-2 -8 0 12 -262144 -1 -1 0 1;
#X floatatom 127 111 9 0 0 0 - - -, f 9;
#X obj 138 221 sel 0 1, f 26;
#X msg 549 634 start \$1;
#X msg 118 325 stop;
#X obj 589 582 i;
#X obj 466 100 inlet;
#X obj 467 145 s \$0-ezsndrecM_rec;
#X obj 339 95 inlet~;
#X text 526 100 rec;
#X obj 631 105 inlet;
#X text 691 105 offset;
#X obj 632 150 s \$0-ezsndrecM_offset;
#X text 1023 17 derek kwan;
#X text 1028 41 pdkez;
#X text 1026 64 gpl v 3 2017;
#X obj 587 485 array size \$1;
#X obj 520 695 tabwrite~ \$1;
#X msg 11 448 write -wave \$1 \$2;
#X text 582 225 arg: array name;
#X obj 47 286 symbol \$1;
#X obj 17 323 pack s s;
#X obj 6 240 t a b;
#X obj 841 105 inlet;
#X text 904 110 array name;
#X obj 837 180 s \$0-ezsndrecM_name;
#X obj 587 312 r \$0-ezsndrecM_name;
#X msg 587 362 set \$1;
#X obj 416 205 r \$0-ezsndrecM_name;
#X obj 841 130 symbol \$1;
#X obj 372 242 symbol \$1;
#X msg 388 267 \; \$1 const 0;
#X obj 129 382 timer;
#X obj 147 621 s \$0-ezsndrecM_rectime;
#X obj 144 90 nbx 5 14 -1e+37 1e+37 0 0 empty \$0-ezsndrecM_rectime
rectime 0 -8 0 15 -262144 -1 -1 20000 256;
#X obj 506 464 f, f 8;
#X obj 506 489 t f b;
#X obj 540 556 *;
#X obj 91 718 outlet;
#X text 154 720 rec time in ms;
#X obj 204 283 t b b b;
#X obj 193 349 array size \$1;
#X obj 213 410 samplerate~;
#X obj 214 453 / 1000;
#X obj 180 508 del;
#X obj 173 571 s \$0-ezsndrec_rec;
#X msg 180 533 0;
#X msg 282 448 stop;
#X obj 199 312 t b b;
#X obj 181 475 /;
#X connect 1 0 2 0;
#X connect 2 0 26 0;
#X connect 3 0 6 0;
#X connect 4 0 5 0;
#X connect 4 0 39 1;
#X connect 6 0 8 0;
#X connect 6 0 36 1;
#X connect 6 1 44 0;
#X connect 7 0 21 0;
#X connect 8 0 21 0;
#X connect 8 0 51 0;
#X connect 9 0 7 0;
#X connect 10 0 11 0;
#X connect 12 0 21 0;
#X connect 14 0 16 0;
#X connect 20 0 41 1;
#X connect 22 0 0 0;
#X connect 24 0 25 1;
#X connect 25 0 22 0;
#X connect 26 0 25 0;
#X connect 26 1 24 0;
#X connect 27 0 33 0;
#X connect 30 0 20 1;
#X connect 30 0 31 0;
#X connect 30 0 45 1;
#X connect 31 0 21 0;
#X connect 32 0 34 1;
#X connect 33 0 29 0;
#X connect 34 0 35 0;
#X connect 36 0 37 0;
#X connect 36 0 42 0;
#X connect 39 0 40 0;
#X connect 40 0 41 0;
#X connect 40 1 20 0;
#X connect 41 0 9 0;
#X connect 44 0 52 0;
#X connect 44 1 39 0;
#X connect 44 1 36 0;
#X connect 44 2 34 0;
#X connect 44 2 51 0;
#X connect 45 0 53 0;
#X connect 46 0 47 0;
#X connect 47 0 53 1;
#X connect 48 0 50 0;
#X connect 50 0 49 0;
#X connect 51 0 48 0;
#X connect 52 0 45 0;
#X connect 52 1 46 0;
#X connect 53 0 48 0;
#X coords 0 -1 1 1 180 105 1 50 50;
