#N canvas 193 501 1392 714 12;
#X obj 111 202 hsl 128 15 1 10 0 0 empty \$0-ezautowah_q q -2 -8 0
12 -262144 -1 -1 5800 1;
#X floatatom 254 202 5 0 0 0 - - -, f 5;
#X obj 237 148 tgl 15 0 empty \$0-ezringmod_bypass bypass 17 7 0 12
-262144 -1 -1 0 1;
#X obj 423 629 pdkez_switcher;
#X obj 478 102 inlet~;
#X obj 112 173 hsl 128 15 0 1 0 0 empty \$0-ezautowah_range range -2
-8 0 12 -262144 -1 -1 4900 1;
#X floatatom 255 174 5 0 0 0 - - -, f 5;
#X obj 769 66 loadbang;
#X obj 423 654 outlet~;
#X text 1023 17 derek kwan;
#X text 1028 41 pdkez;
#X text 1026 64 gpl v 3 2017;
#X obj 554 66 inlet;
#X obj 644 139 inlet;
#X obj 921 141 inlet;
#X text 974 137 bypass;
#X obj 921 166 s \$0-ezringmod_bypass;
#X obj 629 255 env~;
#X obj 313 559 vcf~ 5;
#X obj 629 280 - 20;
#X obj 629 412 + 20;
#X obj 254 385 delwrite~ \$0-ezautowah_del 5;
#X obj 626 494 line~;
#X msg 629 437 \$1 2;
#X obj 624 519 lop~ 3, f 7;
#X obj 631 379 * 29.8;
#X obj 368 587 pdkez_sig2sel~;
#X obj 629 305 clip 0 80;
#X obj 632 336 * 1.25;
#X text 698 335 1 - 100 for sanity's sake;
#X text 678 262 scale from 20-100;
#X text 727 393 1 - 500 (*4.8) -> 1 - 8000 (* 79.8);
#X obj 231 267 * 75;
#X obj 231 292 + 4.8;
#X obj 554 91 s \$0-ezautowah_range;
#X obj 651 190 s \$0-ezautowah_q;
#X text 613 69 range;
#X text 693 141 q;
#X obj 199 148 hradio 15 1 0 2 empty \$0-ezautowah_sel bp/hp 0 -8 0
10 -262144 -1 -1 1;
#X obj 769 91 s \$0-ezautowah_sel;
#X text 851 68 sel;
#X obj 1148 265 loadbang;
#X obj 1148 300 f \$0;
#X msg 1148 325 \; \$1-ezautowah_range 0.5 \; \$1-ezautowah_q 5 \;
\$1-ezautowah_sel 1 \;;
#X obj 280 432 delread~ \$0-ezautowah_del 1.5;
#X connect 0 0 1 0;
#X connect 0 0 18 2;
#X connect 2 0 3 2;
#X connect 3 0 8 0;
#X connect 4 0 21 0;
#X connect 4 0 17 0;
#X connect 4 0 3 1;
#X connect 5 0 6 0;
#X connect 5 0 32 0;
#X connect 7 0 39 0;
#X connect 12 0 34 0;
#X connect 13 0 35 0;
#X connect 14 0 16 0;
#X connect 17 0 19 0;
#X connect 18 0 26 0;
#X connect 18 1 26 1;
#X connect 19 0 27 0;
#X connect 20 0 23 0;
#X connect 22 0 24 0;
#X connect 23 0 22 0;
#X connect 24 0 18 1;
#X connect 25 0 20 0;
#X connect 26 0 3 0;
#X connect 27 0 28 0;
#X connect 28 0 25 0;
#X connect 32 0 33 0;
#X connect 33 0 25 1;
#X connect 38 0 26 2;
#X connect 41 0 42 0;
#X connect 42 0 43 0;
#X connect 44 0 18 0;
#X coords 0 -1 1 1 200 125 1 100 100;
