#N canvas 983 254 1241 903 12;
#X floatatom 208 176 5 0 0 0 thresh_high #0-eztrgrnstr_hi -, f 5;
#X floatatom 208 149 5 0 0 0 thresh_low #0-eztrgrnstr_lo -, f 5;
#X obj 443 144 inlet;
#X obj 555 211 inlet;
#X obj 443 169 s \$0-eztrgrnstr_lo;
#X obj 555 236 s \$0-eztrgrnstr_hi;
#X text 501 143 thresh_low;
#X text 615 213 thresh_hi;
#X obj 1092 227 inlet;
#X text 1147 227 bypass;
#X obj 954 342 array define \$0-eztrgrnstr_arr;
#X floatatom 209 199 5 0 0 0 stretch #0-eztrgrnstr_stretch #0-eztrgrnstr_stretch_s
, f 5;
#X floatatom 209 224 5 0 0 0 max_len(ms) #0-eztrgrnstr_len #0-eztrgrnstr_len_s
, f 5;
#X obj 707 142 inlet;
#X text 774 142 stretch;
#X obj 707 167 s \$0-eztrgrnstr_stretch;
#X obj 843 204 inlet;
#X text 893 204 max_len;
#X obj 850 248 s \$0-eztrgrnstr_len;
#X obj 232 127 tgl 15 0 empty \$0-eztrgrnstr_bypass bypass 17 7 0 12
-262144 -1 -1 0 1;
#X obj 1092 252 s \$0-eztrgrnstr_bypass;
#X obj 187 127 tgl 15 0 empty empty on 17 7 0 12 -262144 -1 -1 0 1
;
#N canvas 1042 521 933 449 \$0-eztrgrnstr_defaults 0;
#X obj 169 99 loadbang;
#X obj 180 182 f \$1;
#X obj 308 180 f \$2;
#X obj 308 205 moses 1e-20;
#X obj 129 142 t b b, f 31;
#X obj 88 295 pack \$0 f f f f, f 61;
#X obj 180 207 moses 1e-20;
#X text 225 180 thresh_lo;
#X text 358 180 thresh_hi;
#X obj 451 205 moses 1e-20;
#X text 501 180 stretch;
#X obj 451 180 f \$3;
#X msg 451 230 100;
#X obj 579 208 moses 1e-20;
#X text 629 183 max_len;
#X msg 582 233 1000;
#X obj 579 183 f \$4;
#X msg 88 330 \; \$1-eztrgrnstr_lo \$2 \; \$1-eztrgrnstr_hi \$3 \;
\$1-eztrgrnstr_stretch \$4 \; \$1-eztrgrnstr_len \$5 \;;
#X msg 308 230 10;
#X msg 180 232 6;
#X connect 0 0 4 0;
#X connect 1 0 6 0;
#X connect 2 0 3 0;
#X connect 3 0 18 0;
#X connect 3 1 5 2;
#X connect 4 0 5 0;
#X connect 4 1 2 0;
#X connect 4 1 1 0;
#X connect 4 1 11 0;
#X connect 4 1 16 0;
#X connect 5 0 17 0;
#X connect 6 0 19 0;
#X connect 6 1 5 1;
#X connect 9 0 12 0;
#X connect 9 1 5 3;
#X connect 11 0 9 0;
#X connect 12 0 5 3;
#X connect 13 0 15 0;
#X connect 13 1 5 4;
#X connect 15 0 5 4;
#X connect 16 0 13 0;
#X connect 18 0 5 2;
#X connect 19 0 5 1;
#X restore 974 373 pd \$0-eztrgrnstr_defaults;
#X text 26 39 dkeztrgrnstrM~ - granular triggered stretcher;
#X text 1067 11 derek kwan;
#X text 1073 37 pdkez;
#X text 1081 72 gpl v 3 2017;
#X text 780 442 args: thresh_low \, thresh_hi \, stretch \, max_len
(ms);
#X obj 132 128 tgl 15 0 empty empty auto 17 7 0 12 -262144 -1 -1 0
1;
#X obj 265 158 bng 30 250 50 0 empty \$0-eztrgrnstr_trig trig 0 -7
0 12 -262144 -1 -1;
#X obj 1015 144 inlet;
#X obj 1015 169 s \$0-eztrgrnstr_trig;
#X text 1064 143 trigger;
#N canvas 779 507 942 651 \$0-eztrgrnstr_recorder 0;
#X obj 334 228 bonk~;
#X obj 435 72 t b f;
#X obj 372 112 s \$0-eztrgrnstr_lo;
#X msg 341 176 thresh \$1 \$2;
#X obj 393 458 *~;
#X obj 425 418 line~;
#X msg 429 375 1 2;
#X obj 300 300 t b b;
#X obj 261 512 tabwrite~ \$0-eztrgrnstr_arr;
#X obj 280 362 del;
#X obj 144 338 - 2;
#X obj 280 387 t b b;
#X msg 354 401 0 2;
#X obj 280 412 del 2;
#X msg 280 437 stop;
#X obj 108 303 r \$0-eztrgrnstr_len_s;
#X obj 341 151 pack f 10000;
#X msg 326 333 stop;
#X obj 334 266 spigot;
#X obj 372 302 t b b b b;
#X obj 628 29 inlet;
#X obj 440 26 inlet;
#X obj 559 453 outlet;
#X obj 47 27 inlet~;
#X text 631 457 trig playback;
#X text 129 36 sig;
#X text 507 27 thresh_hi;
#X obj 286 52 inlet;
#X text 346 52 thresh_lo;
#X text 694 30 auto_trig;
#X obj 183 31 inlet;
#X text 230 30 trig;
#X connect 0 0 18 0;
#X connect 1 0 2 0;
#X connect 1 1 16 1;
#X connect 3 0 0 0;
#X connect 4 0 8 0;
#X connect 5 0 4 1;
#X connect 6 0 5 0;
#X connect 7 0 9 0;
#X connect 7 1 19 0;
#X connect 9 0 11 0;
#X connect 10 0 9 1;
#X connect 11 0 13 0;
#X connect 11 1 12 0;
#X connect 12 0 5 0;
#X connect 13 0 14 0;
#X connect 14 0 8 0;
#X connect 15 0 10 0;
#X connect 16 0 3 0;
#X connect 17 0 9 0;
#X connect 18 0 7 0;
#X connect 19 0 22 0;
#X connect 19 1 8 0;
#X connect 19 2 6 0;
#X connect 19 2 17 0;
#X connect 20 0 18 1;
#X connect 21 0 1 0;
#X connect 23 0 0 0;
#X connect 23 0 4 0;
#X connect 27 0 16 0;
#X connect 30 0 7 0;
#X restore 49 407 pd \$0-eztrgrnstr_recorder;
#N canvas 843 439 1062 735 \$0-eztrgrnstr_player 0;
#X obj 706 229 pdkvabs/dkms2smp;
#X obj 706 254 array size \$0-eztrgrnstr_arr;
#X obj 435 323 pdkvabs/dkphsrd~;
#X msg 513 260 0;
#X obj 469 140 t b f;
#X msg 469 165 1;
#X obj 469 190 /;
#X obj 360 184 t b b b;
#X obj 409 505 line~;
#X obj 490 101 r \$0-eztrgrnstr_stretch_s;
#X msg 413 462 1 2;
#X obj 361 562 *~;
#X obj 357 229 del;
#X obj 706 189 r \$0-eztrgrnstr_len_s;
#X obj 596 220 *;
#X obj 585 174 t b f;
#X msg 378 472 0 2;
#X obj 596 245 - 2;
#X obj 344 671 outlet~;
#X msg 419 252 stop;
#X obj 634 348 loadbang;
#X msg 634 373 randms 10 \, grainms 50 \, overlap 4 \, randlen 0.2
;
#X obj 319 49 inlet;
#X text 383 48 on;
#X obj 107 40 inlet;
#X text 162 45 trig playback;
#X obj 757 41 inlet;
#X text 820 46 transposition;
#X msg 757 66 transpose \$1;
#X obj 32 473 pdkvabs/dkxgrn~ \$0-eztrgrnstr_arr 8;
#X connect 0 0 1 0;
#X connect 0 0 2 0;
#X connect 2 0 29 0;
#X connect 3 0 2 2;
#X connect 4 0 5 0;
#X connect 4 1 6 1;
#X connect 5 0 6 0;
#X connect 6 0 2 1;
#X connect 7 0 12 0;
#X connect 7 1 10 0;
#X connect 7 2 3 0;
#X connect 7 2 19 0;
#X connect 8 0 11 1;
#X connect 9 0 4 0;
#X connect 9 0 14 0;
#X connect 10 0 8 0;
#X connect 11 0 18 0;
#X connect 12 0 16 0;
#X connect 13 0 0 0;
#X connect 13 0 15 0;
#X connect 14 0 17 0;
#X connect 15 0 14 0;
#X connect 15 1 14 1;
#X connect 16 0 8 0;
#X connect 17 0 12 1;
#X connect 19 0 12 0;
#X connect 20 0 21 0;
#X connect 21 0 29 2;
#X connect 22 0 29 1;
#X connect 24 0 7 0;
#X connect 26 0 28 0;
#X connect 28 0 29 2;
#X connect 29 0 11 0;
#X restore 275 441 pd \$0-eztrgrnstr_player;
#X obj 355 207 inlet~;
#X obj 348 524 outlet~;
#X obj 337 489 pdkvabs/dkswitch2~;
#X floatatom 209 250 5 0 0 0 transpose(hs) - -, f 5;
#X obj 256 253 bng 15 250 50 0 empty empty no_t 17 7 0 10 -262144 -1
-1;
#X msg 252 325 0;
#X connect 0 0 33 3;
#X connect 1 0 33 2;
#X connect 2 0 4 0;
#X connect 3 0 5 0;
#X connect 8 0 20 0;
#X connect 13 0 15 0;
#X connect 16 0 18 0;
#X connect 19 0 37 2;
#X connect 21 0 34 1;
#X connect 28 0 33 4;
#X connect 29 0 33 1;
#X connect 30 0 31 0;
#X connect 33 0 34 0;
#X connect 34 0 37 0;
#X connect 35 0 33 0;
#X connect 35 0 37 1;
#X connect 37 0 36 0;
#X connect 38 0 34 2;
#X connect 39 0 40 0;
#X connect 40 0 38 0;
#X coords 0 -1 1 1 200 175 1 100 100;
