#N canvas 547 247 891 552 12;
#X obj 109 138 vsl 15 128 0 1 0 0 empty empty empty 0 -9 0 10 -262144
-1 -1 12700 1;
#X floatatom 105 277 7 0 0 0 - - -, f 7;
#X text 501 10 derek kwan;
#X text 506 34 pdkez;
#X text 504 57 gpl v 3 2017;
#X obj 207 157 inlet~;
#X obj 204 403 *~;
#X obj 240 362 line~;
#X msg 247 327 \$1 5;
#X obj 204 428 outlet~;
#X obj 350 29 loadbang;
#X obj 510 90 inlet;
#X text 569 86 vol;
#X msg 279 91 1;
#X obj 320 164 inlet~;
#X obj 317 410 *~;
#X obj 353 369 line~;
#X msg 360 334 \$1 5;
#X obj 317 435 outlet~;
#X obj 137 240 tgl 20 0 empty empty mute 0 -7 0 12 -262144 -1 -1 0
1;
#X msg 229 257 0;
#X obj 230 209 sel 1 0;
#X msg 458 131 0;
#X obj 350 54 t b b;
#X connect 0 0 1 0;
#X connect 1 0 8 0;
#X connect 1 0 17 0;
#X connect 5 0 6 0;
#X connect 6 0 9 0;
#X connect 7 0 6 1;
#X connect 8 0 7 0;
#X connect 10 0 23 0;
#X connect 11 0 0 0;
#X connect 13 0 0 0;
#X connect 14 0 15 0;
#X connect 15 0 18 0;
#X connect 16 0 15 1;
#X connect 17 0 16 0;
#X connect 19 0 21 0;
#X connect 20 0 8 0;
#X connect 20 0 17 0;
#X connect 21 0 20 0;
#X connect 21 1 1 0;
#X connect 22 0 19 0;
#X connect 23 0 13 0;
#X connect 23 1 22 0;
#X coords 0 -1 1 1 75 200 1 100 100;
