#N canvas 410 225 1708 712 12;
#X obj 111 202 hsl 128 15 0.01 5 0 0 empty \$0-ezchorus_rate rate -2
-8 0 12 -262144 -1 -1 1247 1;
#X floatatom 254 202 5 0 0 0 - - -, f 5;
#X obj 237 148 tgl 15 0 empty \$0-ezchorus_bypass bypass 17 7 0 12
-262144 -1 -1 0 1;
#X obj 405 643 pdkez_switcher;
#X obj 338 151 inlet~;
#X obj 112 173 hsl 128 15 0 1 0 0 empty \$0-ezchorus_depth depth -2
-8 0 12 -262144 -1 -1 12700 1;
#X floatatom 255 174 5 0 0 0 - - -, f 5;
#X obj 87 3 loadbang;
#X obj 405 668 outlet~;
#X text 1239 31 derek kwan;
#X text 1244 55 pdkez;
#X text 1242 78 gpl v 3 2017;
#X obj 862 88 inlet;
#X text 921 91 depth;
#X obj 952 161 inlet;
#X text 1001 163 rate;
#X obj 1130 99 inlet;
#X text 1183 95 bypass;
#X obj 862 113 s \$0-ezchorus_depth;
#X obj 959 212 s \$0-ezchorus_rate;
#X obj 349 480 +~;
#X obj 1130 124 s \$0-ezchorus_bypass;
#X obj 392 221 /~ 8;
#X obj 191 260 phasor~ 3;
#X msg 22 65 0.5;
#X msg 166 56 0.5;
#X obj 191 285 *~ 1;
#X obj 1212 207 loadbang;
#X obj 1211 407 pack \$0 f f, f 29;
#X obj 1303 294 f \$1;
#X text 1363 292 depth;
#X msg 1303 344 0.5;
#X obj 1431 292 f \$2;
#X obj 1303 319 moses 1e-20;
#X obj 1431 317 moses 1e-20;
#X msg 1431 342 1;
#X text 1481 292 rate;
#X obj 1212 232 t b b;
#X obj 796 625 pdkez_switcher;
#X obj 729 133 inlet~;
#X obj 796 650 outlet~;
#X obj 740 462 +~;
#X obj 783 203 /~ 8;
#X obj 417 319 delwrite~ \$0-pdkezchorus_delL 50;
#X obj 296 385 clone pdkez_chorus-voice~ 8 \$0-pdkezchorus_delL;
#X obj 808 301 delwrite~ \$0-pdkezchorus_delR 50;
#X obj 687 367 clone pdkez_chorus-voice~ 8 \$0-pdkezchorus_delR;
#X msg 1211 432 \; \$1-ezchorus_depth \$2 \; \$1-ezchorus_rate \$3
\;;
#X connect 0 0 1 0;
#X connect 0 0 23 0;
#X connect 2 0 3 2;
#X connect 2 0 38 2;
#X connect 3 0 8 0;
#X connect 4 0 3 1;
#X connect 4 0 22 0;
#X connect 5 0 6 0;
#X connect 5 0 26 1;
#X connect 7 0 25 0;
#X connect 7 0 24 0;
#X connect 12 0 18 0;
#X connect 14 0 19 0;
#X connect 16 0 21 0;
#X connect 20 0 3 0;
#X connect 22 0 20 1;
#X connect 22 0 43 0;
#X connect 23 0 26 0;
#X connect 24 0 5 0;
#X connect 25 0 0 0;
#X connect 26 0 44 0;
#X connect 26 0 46 0;
#X connect 27 0 37 0;
#X connect 28 0 47 0;
#X connect 29 0 33 0;
#X connect 31 0 28 1;
#X connect 32 0 34 0;
#X connect 33 0 31 0;
#X connect 33 1 28 1;
#X connect 34 0 35 0;
#X connect 34 1 28 2;
#X connect 35 0 28 2;
#X connect 37 0 28 0;
#X connect 37 1 32 0;
#X connect 37 1 29 0;
#X connect 38 0 40 0;
#X connect 39 0 38 1;
#X connect 39 0 42 0;
#X connect 41 0 38 0;
#X connect 42 0 41 1;
#X connect 42 0 45 0;
#X connect 44 0 20 0;
#X connect 46 0 41 0;
#X coords 0 -1 1 1 200 125 1 100 100;
