#N canvas 772 299 1392 714 12;
#X obj 186 115 tgl 15 0 \$0-ezringmod_bypass \$0-ezringmod_bypass_r
bypass 17 7 0 12 -262144 -1 -1 0 1;
#X obj 423 629 pdkez_switcher;
#X obj 478 102 inlet~;
#X obj 415 392 osc~ 3;
#X obj 423 654 outlet~;
#X text 1023 17 derek kwan;
#X text 1028 41 pdkez;
#X text 1026 64 gpl v 3 2017;
#X obj 554 66 inlet;
#X text 613 69 depth;
#X obj 644 139 inlet;
#X text 693 141 rate;
#X obj 921 141 inlet;
#X text 974 137 bypass;
#X obj 921 166 s \$0-ezringmod_bypass;
#X obj 407 570 *~;
#X obj 947 287 loadbang;
#X obj 949 352 f \$1;
#X obj 1077 350 f \$2;
#X obj 1077 375 moses 1e-20;
#X text 1127 350 rate;
#X obj 947 312 t b b;
#X obj 857 465 pack \$0 f f, f 29;
#X obj 949 377 moses 1e-20;
#X msg 1077 400 100;
#X floatatom 141 132 5 0 100 0 depth #0-ezringmod_depth_r #0-ezringmod_depth
, f 5;
#X msg 857 491 \; \$1-ezringmod_depth_r \$2 \; \$1-ezringmod_rate_r
\$3 \;;
#X text 1009 350 depth;
#X obj 554 91 s \$0-ezringmod_depth_r;
#X obj 651 190 s \$0-ezringmod_rate_r;
#X obj 485 426 r \$0-ezringmod_bypass;
#X floatatom 211 132 5 0 1e+20 0 rate #0-ezringmod_rate_r #0-ezringmod_rate
, f 5;
#X obj 409 359 r \$0-ezringmod_rate;
#X msg 949 402 100;
#X obj 287 288 r \$0-ezringmod_depth;
#X obj 298 318 / 100;
#X msg 273 418 \$1 5;
#X obj 273 442 line~;
#X obj 330 483 *~, f 4;
#X obj 298 342 t f f, f 8;
#X obj 527 479 sel 0;
#X msg 507 513 1;
#X msg 557 513 0;
#X obj 535 544 t b f;
#X obj 509 582 ||, f 9;
#X connect 1 0 4 0;
#X connect 2 0 1 1;
#X connect 2 0 15 1;
#X connect 3 0 38 1;
#X connect 8 0 28 0;
#X connect 10 0 29 0;
#X connect 12 0 14 0;
#X connect 15 0 1 0;
#X connect 16 0 21 0;
#X connect 17 0 23 0;
#X connect 18 0 19 0;
#X connect 19 0 24 0;
#X connect 19 1 22 2;
#X connect 21 0 22 0;
#X connect 21 1 18 0;
#X connect 21 1 17 0;
#X connect 22 0 26 0;
#X connect 23 0 33 0;
#X connect 23 1 22 1;
#X connect 24 0 22 2;
#X connect 30 0 44 0;
#X connect 32 0 3 0;
#X connect 33 0 22 1;
#X connect 34 0 35 0;
#X connect 35 0 39 0;
#X connect 36 0 37 0;
#X connect 37 0 38 0;
#X connect 38 0 15 0;
#X connect 39 0 36 0;
#X connect 39 1 40 0;
#X connect 40 0 41 0;
#X connect 40 1 42 0;
#X connect 41 0 43 0;
#X connect 42 0 43 0;
#X connect 43 0 44 0;
#X connect 43 1 44 1;
#X connect 44 0 1 2;
#X coords 0 -1 1 1 150 55 1 100 100;
