#N canvas 713 325 1445 797 12;
#X obj 386 257 inlet~;
#X floatatom 132 235 5 0 1e+20 0 freq #0-freq_r #0-freq, f 5;
#X obj 456 251 pack f 5;
#X floatatom 181 235 5 0 1e+20 0 q #0-q_r #0-q, f 5;
#X obj 537 258 r \$0-q;
#X obj 449 201 r \$0-freq;
#X floatatom 250 235 5 0 1e+20 0 ramp #0-ramp_r #0-ramp, f 5;
#X obj 534 197 r \$0-ramp;
#X obj 604 202 loadbang;
#X obj 617 304 f \$1;
#X obj 732 284 moses 1e-20;
#X obj 389 381 vcf~ 3, f 12;
#X msg 732 308 3;
#X obj 732 260 f \$2;
#X obj 866 272 f \$3;
#X obj 866 296 moses 1e-20;
#X msg 867 329 5;
#X text 898 0 derek kwan;
#X text 897 28 pdkez;
#X text 900 52 gpl v 3 2018;
#X obj 456 275 line~;
#X obj 723 124 inlet;
#X obj 394 515 pdkez_switcher;
#X obj 418 738 outlet~;
#X obj 237 216 tgl 15 0 \$0-bypass \$0-bypass_r bypass 17 7 0 12 -262144
-1 -1 0 1;
#X obj 1020 289 f \$4;
#X text 830 191 args: freq \, q \, ramp \, bp/lop \, bypass;
#X obj 131 218 hradio 15 1 0 2 \$0-filt \$0-filt_r filt -30 7 0 12
-262144 -1 -1 1;
#X obj 715 149 route freq q ramp filt bypass;
#X obj 604 226 t b b b b b, f 81;
#X obj 1143 283 f \$5;
#X obj 1143 307 s \$0-bypass_r;
#X obj 1020 313 s \$0-filt_r;
#X obj 867 353 s \$0-ramp_r;
#X obj 732 332 s \$0-q_r;
#X obj 617 328 s \$0-freq_r;
#X obj 469 443 r \$0-filt;
#X obj 394 568 pdkez_switcher;
#X obj 533 528 r \$0-bypass;
#X obj 568 360 inlet~;
#X obj 614 489 vcf~ 3, f 12;
#X obj 619 623 pdkez_switcher;
#X obj 625 739 outlet~;
#X obj 694 551 r \$0-filt;
#X obj 619 676 pdkez_switcher;
#X obj 758 636 r \$0-bypass;
#X obj 1192 158 inlet;
#X connect 0 0 11 0;
#X connect 0 0 37 1;
#X connect 2 0 20 0;
#X connect 4 0 11 2;
#X connect 4 0 40 2;
#X connect 5 0 2 0;
#X connect 7 0 2 1;
#X connect 8 0 29 0;
#X connect 9 0 35 0;
#X connect 10 0 12 0;
#X connect 10 1 34 0;
#X connect 11 0 22 0;
#X connect 11 1 22 1;
#X connect 12 0 34 0;
#X connect 13 0 10 0;
#X connect 14 0 15 0;
#X connect 15 0 16 0;
#X connect 15 1 33 0;
#X connect 16 0 33 0;
#X connect 20 0 11 1;
#X connect 20 0 40 1;
#X connect 21 0 28 0;
#X connect 22 0 37 0;
#X connect 25 0 32 0;
#X connect 28 0 35 0;
#X connect 28 1 34 0;
#X connect 28 2 33 0;
#X connect 28 3 32 0;
#X connect 28 4 31 0;
#X connect 29 0 9 0;
#X connect 29 1 13 0;
#X connect 29 2 14 0;
#X connect 29 3 25 0;
#X connect 29 4 30 0;
#X connect 30 0 31 0;
#X connect 36 0 22 2;
#X connect 37 0 23 0;
#X connect 38 0 37 2;
#X connect 39 0 40 0;
#X connect 39 0 44 1;
#X connect 40 0 41 0;
#X connect 40 1 41 1;
#X connect 41 0 44 0;
#X connect 43 0 41 2;
#X connect 44 0 42 0;
#X connect 45 0 44 2;
#X connect 46 0 31 0;
#X coords 0 -1 1 1 200 55 1 100 200;
