#N canvas 547 247 891 552 12;
#X floatatom 239 130 7 0 0 0 - - -, f 7;
#X text 501 10 derek kwan;
#X text 506 34 pdkez;
#X text 504 57 gpl v 3 2017;
#X obj 16 83 inlet~;
#X obj 203 404 *~;
#X obj 240 360 line~;
#X obj 209 494 outlet~;
#X obj 350 2 loadbang;
#X obj 136 57 inlet;
#X text 195 53 vol;
#X msg 194 17 1;
#X obj 68 52 inlet~;
#X obj 317 411 *~;
#X obj 353 369 line~;
#X obj 297 502 outlet~;
#X obj 247 105 tgl 15 0 empty empty mute 17 7 0 12 -262144 -1 -1 0
1;
#X msg 252 17 0;
#X obj 350 27 t b b;
#X obj 246 55 inlet;
#X text 300 60 mute;
#X obj 105 131 hsl 128 15 0 1 0 0 empty empty empty -2 -8 0 10 -262144
-1 -1 0 1;
#X obj 456 353 == 0;
#X obj 205 436 *~;
#X obj 317 436 *~;
#X msg 456 378 \$1 1;
#X obj 428 399 line~;
#X msg 360 334 \$1 1;
#X msg 247 327 \$1 1;
#X connect 0 0 28 0;
#X connect 0 0 27 0;
#X connect 4 0 5 0;
#X connect 5 0 23 0;
#X connect 6 0 5 1;
#X connect 8 0 18 0;
#X connect 9 0 21 0;
#X connect 11 0 21 0;
#X connect 12 0 13 0;
#X connect 13 0 24 0;
#X connect 14 0 13 1;
#X connect 16 0 22 0;
#X connect 17 0 16 0;
#X connect 18 0 11 0;
#X connect 18 1 17 0;
#X connect 19 0 16 0;
#X connect 21 0 0 0;
#X connect 22 0 25 0;
#X connect 23 0 7 0;
#X connect 24 0 15 0;
#X connect 25 0 26 0;
#X connect 26 0 24 1;
#X connect 26 0 23 1;
#X connect 27 0 14 0;
#X connect 28 0 6 0;
#X coords 0 -1 1 1 200 50 1 100 100;
