#N canvas 909 357 883 567 12;
#X obj 169 376 adc~ 1;
#X floatatom 242 143 5 0 0 0 - - -, f 5;
#X floatatom 268 122 3 0 0 0 chan #0-dkezadc-chan -, f 3;
#X obj 361 111 loadbang;
#X msg 361 136 1;
#X msg 158 335 set \$1;
#X obj 169 401 *~ 1;
#X obj 161 492 outlet~;
#X obj 427 322 f \$1;
#X obj 427 347 moses 1;
#X msg 427 372 1;
#X obj 106 130 hsl 128 30 0 2 0 0 empty \$0-dkezadc-gain gain -2 -8
0 12 -262144 -1 -1 6350 1;
#X obj 338 29 inlet;
#X obj 377 82 i;
#X obj 427 397 s \$0-dkezadc-chan;
#X obj 429 212 s \$0-dkezadc-gain;
#X text 8 15 dkezadc~ - adc abstraction;
#X text 11 75 arg: channel number;
#X text 10 200 out: signal~;
#X text 743 39 pdkvabs;
#X text 745 62 gpl v 3;
#X text 742 13 derek kwan \, 2017;
#X obj 193 113 bng 15 250 50 0 empty empty unity 17 7 0 12 -262144
-1 -1;
#X msg 184 202 1;
#X text 9 50 in: "gain (f)" and "chan (i)" and "unity";
#X obj 339 54 route gain chan unity mute;
#X obj 246 103 tgl 15 0 empty empty mute 17 7 0 12 -262144 -1 -1 0
1;
#X obj 169 425 *~ 1;
#X obj 266 279 == 0;
#X obj 551 36 inlet;
#X text 390 33 msgs;
#X text 598 39 mute;
#X msg 551 60 mute \$1;
#X connect 0 0 6 0;
#X connect 2 0 5 0;
#X connect 3 0 4 0;
#X connect 3 0 8 0;
#X connect 4 0 15 0;
#X connect 5 0 0 0;
#X connect 6 0 27 0;
#X connect 8 0 9 0;
#X connect 9 0 10 0;
#X connect 9 1 14 0;
#X connect 10 0 14 0;
#X connect 11 0 1 0;
#X connect 11 0 6 1;
#X connect 12 0 25 0;
#X connect 13 0 14 0;
#X connect 22 0 23 0;
#X connect 23 0 11 0;
#X connect 25 0 15 0;
#X connect 25 1 13 0;
#X connect 25 2 22 0;
#X connect 25 3 26 0;
#X connect 26 0 28 0;
#X connect 27 0 7 0;
#X connect 28 0 27 1;
#X connect 29 0 32 0;
#X connect 32 0 25 0;
#X coords 0 -1 1 1 200 65 1 100 100;
