#N canvas 292 116 937 725 12;
#X obj 163 592 dac~ 1 2;
#X floatatom 242 158 5 0 0 0 - - -, f 5;
#X obj 106 145 hsl 128 30 0 2 0 0 empty \$0-dkezdac-gain gain -2 -8
0 12 -262144 -1 -1 7300 1;
#X floatatom 189 127 3 0 0 0 chan1 #0-dkezdac-chan1 -, f 3;
#X floatatom 259 128 3 0 0 0 chan2 #0-dkezdac-chan2 -, f 3;
#X obj 480 105 loadbang;
#X obj 461 313 f \$1;
#X obj 525 316 f \$2;
#X obj 525 341 moses 1;
#X msg 525 366 2;
#X obj 667 420 s \$0-dkezdac-chan2;
#X obj 461 338 moses 1;
#X msg 461 363 1;
#X obj 584 493 s \$0-dkezdac-chan1;
#X obj 480 130 t b b b;
#X msg 344 351 set \$1 \$2;
#X obj 343 291 pack f f;
#X obj 615 167 s \$0-dkezdac-gain;
#X obj 622 44 inlet;
#X obj 622 69 route gain chan1 chan2;
#X text 3 6 dkezdac~ - dac~ abstraction;
#X text 5 30 args: integers for channels 1 and 2;
#X obj 668 117 i;
#X obj 717 122 i;
#X obj 414 49 inlet~;
#X text 3 79 in3: "gain (f)" \, "chan1 (i)" \, and "chan2 (i)";
#X text -1 49 in1: signal for chan1;
#X text 192 48 in2: signal for chan2;
#X obj 496 52 inlet~;
#X msg 567 139 1;
#X obj 288 146 tgl 30 0 empty \$0-dkezdac-dsp dsp 0 -7 0 12 -262144
-1 -1 1 1;
#X msg 203 227 \; pd dsp \$1;
#X obj 354 236 t b f;
#X obj 276 104 tgl 15 0 empty empty mono 17 7 0 10 -262144 -1 -1 0
1;
#X obj 277 427 == 1;
#X obj 328 433 == 0;
#X msg 421 196 0;
#X obj 184 501 *~ 1;
#X obj 312 523 *~ 0;
#X obj 171 380 *~;
#X obj 225 380 *~;
#X msg 103 222 \$1 5;
#X obj 103 247 line~;
#X connect 2 0 1 0;
#X connect 2 0 41 0;
#X connect 3 0 16 0;
#X connect 4 0 32 0;
#X connect 5 0 14 0;
#X connect 6 0 11 0;
#X connect 7 0 8 0;
#X connect 8 0 9 0;
#X connect 8 1 10 0;
#X connect 9 0 10 0;
#X connect 11 0 12 0;
#X connect 11 1 13 0;
#X connect 12 0 13 0;
#X connect 14 0 6 0;
#X connect 14 1 7 0;
#X connect 14 2 29 0;
#X connect 14 2 36 0;
#X connect 15 0 0 0;
#X connect 16 0 15 0;
#X connect 18 0 19 0;
#X connect 19 0 17 0;
#X connect 19 1 22 0;
#X connect 19 2 23 0;
#X connect 22 0 13 0;
#X connect 23 0 10 0;
#X connect 24 0 39 0;
#X connect 28 0 40 0;
#X connect 29 0 17 0;
#X connect 30 0 31 0;
#X connect 32 0 16 0;
#X connect 32 1 16 1;
#X connect 33 0 34 0;
#X connect 33 0 35 0;
#X connect 34 0 37 1;
#X connect 35 0 38 1;
#X connect 36 0 33 0;
#X connect 37 0 0 0;
#X connect 38 0 0 1;
#X connect 39 0 0 0;
#X connect 40 0 37 0;
#X connect 40 0 38 0;
#X connect 41 0 42 0;
#X connect 42 0 39 1;
#X connect 42 0 40 1;
#X coords 0 -1 1 1 220 80 1 100 100;
