#N canvas 737 575 1314 425 12;
#X floatatom 124 176 5 0 100 0 fb #0-ezdelay_fb_r #0-ezdelay_fb, f
5;
#X obj 175 124 tgl 15 0 \$0-ezdelay_bypass \$0-ezdelay_bypass_r bypass
17 7 0 12 -262144 -1 -1 1 1;
#X floatatom 124 150 5 0 1e+20 0 ms #0-ezdelay_ms_r #0-ezdelay_ms,
f 5;
#X obj 102 381 outlet~;
#X text 1180 10 derek kwan;
#X text 1185 34 pdkez;
#X text 1185 54 gpl v 3 2017;
#X obj 825 24 inlet;
#X text 878 20 bypass;
#X floatatom 189 172 5 0 100 0 wet #0-ezdelay_wet_r #0-ezdelay_wet
, f 5;
#X obj 115 124 bng 15 250 50 0 \$0-ezdelay_clear \$0-ezdelay_clear_r
clear 17 7 0 12 -262144 -1 -1;
#X floatatom 192 147 5 0 100 0 dry #0-ezdelay_dry_r #0-ezdelay_dry
, f 5;
#X obj 484 18 inlet;
#N canvas 793 570 1037 780 dkezdelay_voice 0;
#X obj 389 711 pdkez_switcher;
#X obj 67 48 inlet~;
#X msg 494 354 clear;
#X obj 211 655 +~;
#X obj 201 338 delread4~ \$0-dkezdelay_del;
#X obj 271 300 line~;
#X msg 271 275 \$1 50;
#X obj 574 320 t b f;
#X obj 61 415 delwrite~ \$0-dkezdelay_del \$1;
#X obj 359 585 *~;
#X obj 368 526 line~;
#X msg 371 498 \$1 1;
#X obj 187 598 *~;
#X obj 237 549 line~;
#X msg 256 496 \$1 1;
#X obj 131 511 *~;
#X obj 321 414 line~;
#X msg 325 381 \$1 1;
#X obj 389 735 outlet~;
#X obj 201 362 lop~;
#X obj 356 129 / 100;
#X obj 527 178 / 100;
#X obj 676 140 / 100;
#X obj 812 135 r \$0-ezdelay_clear;
#X obj 889 183 r \$0-ezdelay_bypass;
#X obj 192 118 r \$0-ezdelay_ms;
#X obj 356 105 r \$0-ezdelay_fb;
#X obj 467 131 r \$0-ezdelay_lop;
#X obj 527 154 r \$0-ezdelay_dry;
#X obj 676 116 r \$0-ezdelay_wet;
#X connect 0 0 18 0;
#X connect 1 0 0 1;
#X connect 1 0 8 0;
#X connect 1 0 12 0;
#X connect 2 0 8 0;
#X connect 3 0 0 0;
#X connect 4 0 19 0;
#X connect 5 0 4 0;
#X connect 6 0 5 0;
#X connect 7 0 2 0;
#X connect 7 1 0 2;
#X connect 9 0 3 1;
#X connect 10 0 9 1;
#X connect 11 0 10 0;
#X connect 12 0 3 0;
#X connect 13 0 12 1;
#X connect 14 0 13 0;
#X connect 15 0 8 0;
#X connect 16 0 15 1;
#X connect 17 0 16 0;
#X connect 19 0 15 0;
#X connect 19 0 9 0;
#X connect 20 0 17 0;
#X connect 21 0 14 0;
#X connect 22 0 11 0;
#X connect 23 0 2 0;
#X connect 24 0 7 0;
#X connect 25 0 6 0;
#X connect 26 0 20 0;
#X connect 27 0 19 1;
#X connect 28 0 21 0;
#X connect 29 0 22 0;
#X restore 102 318 pd dkezdelay_voice;
#X obj 93 42 inlet~;
#N canvas 614 471 955 700 dkezdelay_defaults 0;
#X obj 135 171 loadbang;
#X obj 157 315 f \$2;
#X msg 137 378 125;
#X obj 137 353 moses 1e-20;
#X text 205 320 ms;
#X obj 241 320 f \$3;
#X obj 241 345 moses 1e-20;
#X text 283 316 fb;
#X obj 590 359 moses 1e-20;
#X text 630 334 wet;
#X obj 452 357 moses 1e-20;
#X text 492 332 dry;
#X obj 119 248 t b b b b b b, f 49;
#X obj 452 332 f \$5;
#X obj 590 334 f \$6;
#X obj 365 314 f \$4;
#X obj 365 338 moses 1e-20;
#X obj 137 422 pack \$0 f f f f f, f 64;
#X text 379 287 lop;
#X msg 241 370 75;
#X msg 457 385 100;
#X msg 586 392 100;
#X msg 365 362 2000;
#X msg 125 462 \; \$1-ezdelay_ms_r \$2 \; \$1-ezdelay_fb_r \$3 \; \$1-ezdelay_lop_r
\$4 \; \$1-ezdelay_dry_r \$5 \; \$1-ezdelay_wet_r \$6 \;;
#X connect 0 0 12 0;
#X connect 1 0 3 0;
#X connect 2 0 17 1;
#X connect 3 0 2 0;
#X connect 3 1 17 1;
#X connect 5 0 6 0;
#X connect 6 0 19 0;
#X connect 6 1 17 2;
#X connect 8 0 21 0;
#X connect 8 1 17 5;
#X connect 10 0 20 0;
#X connect 10 1 17 4;
#X connect 12 0 17 0;
#X connect 12 1 1 0;
#X connect 12 2 5 0;
#X connect 12 3 15 0;
#X connect 12 4 13 0;
#X connect 12 5 14 0;
#X connect 13 0 10 0;
#X connect 14 0 8 0;
#X connect 15 0 16 0;
#X connect 16 0 22 0;
#X connect 16 1 17 3;
#X connect 17 0 23 0;
#X connect 19 0 17 2;
#X connect 20 0 17 4;
#X connect 21 0 17 5;
#X connect 22 0 17 3;
#X restore 888 74 pd dkezdelay_defaults;
#X floatatom 128 202 5 0 1e+20 0 lop #0-ezdelay_lop_r #0-ezdelay_lop
, f 5;
#X obj 484 42 route ms fb dry wet clear bypass lop;
#X obj 469 127 s \$0-ezdelay_ms_r;
#X obj 491 175 s \$0-ezdelay_fb_r;
#X obj 600 128 s \$0-ezdelay_dry_r;
#X obj 634 173 s \$0-ezdelay_wet_r;
#X obj 739 79 s \$0-ezdelay_lop_r;
#X obj 732 126 s \$0-ezdelay_clear_r;
#X obj 809 160 s \$0-ezdelay_bypass_r;
#X connect 7 0 24 0;
#X connect 12 0 17 0;
#X connect 13 0 3 0;
#X connect 14 0 13 0;
#X connect 17 0 18 0;
#X connect 17 1 19 0;
#X connect 17 2 20 0;
#X connect 17 3 21 0;
#X connect 17 4 23 0;
#X connect 17 5 24 0;
#X connect 17 6 22 0;
#X coords 0 -1 1 1 140 130 1 100 100;
