#N canvas 818 507 1249 578 12;
#X obj 46 484 soundfiler;
#X obj 104 149 bng 20 250 50 0 empty empty save 0 -7 0 15 -262144 -1
-1;
#X obj 30 235 savepanel;
#X obj 446 77 moses 1;
#X msg 420 102 5000;
#X obj 546 200 t f b;
#X obj 649 216 samplerate~;
#X obj 649 241 / 1000;
#X obj 546 253 *;
#X obj 546 278 i;
#X obj 454 15 loadbang;
#X obj 453 47 f \$1;
#X obj 512 98 inlet;
#X obj 147 152 nbx 7 16 1 1e+37 0 0 empty \$0-ezsndrecM_ms ms 0 -8
0 15 -262144 -1 -1 6571 256;
#X obj 104 196 tgl 20 0 empty \$0-ezsndrec_rec rec 0 -7 0 15 -262144
-1 -1 0 1;
#X obj 136 199 hsl 128 15 0 1 0 0 empty \$0-ezsndrecM_offset offset
-2 -8 0 12 -262144 -1 -1 0 1;
#X floatatom 185 179 9 0 0 0 - - -, f 9;
#X obj 284 285 * 1;
#X obj 126 267 sel 0 1;
#X msg 190 370 start \$1;
#X msg 131 333 stop;
#X obj 251 329 i;
#X obj 30 260 pack s \$0;
#X obj 490 141 s \$0-ezsndrecM_ms;
#X obj 545 338 array size \$0-ezsndrecM_arr;
#X obj 542 386 array define \$0-ezsndrecM_arr;
#X obj 158 405 tabwrite~ \$0-ezsndrecM_arr;
#X msg 40 442 write -wave \$1 \$2-ezsndrecM_arr;
#X obj 662 100 inlet;
#X obj 663 145 s \$0-ezsndrecM_rec;
#X obj 339 95 inlet~;
#X text 563 96 ms size;
#X text 722 100 rec;
#X obj 827 105 inlet;
#X text 887 105 offset;
#X obj 828 150 s \$0-ezsndrecM_offset;
#X text 1023 17 derek kwan;
#X text 1028 41 pdkez;
#X text 1026 64 gpl v 3 2017;
#X obj 302 227 t b f;
#X connect 1 0 2 0;
#X connect 2 0 22 0;
#X connect 3 0 4 0;
#X connect 3 1 23 0;
#X connect 4 0 23 0;
#X connect 5 0 8 0;
#X connect 5 1 6 0;
#X connect 6 0 7 0;
#X connect 7 0 8 1;
#X connect 8 0 9 0;
#X connect 9 0 24 0;
#X connect 9 0 39 0;
#X connect 10 0 11 0;
#X connect 11 0 3 0;
#X connect 12 0 23 0;
#X connect 13 0 5 0;
#X connect 14 0 18 0;
#X connect 15 0 16 0;
#X connect 15 0 17 0;
#X connect 17 0 21 1;
#X connect 18 0 20 0;
#X connect 18 1 21 0;
#X connect 19 0 26 0;
#X connect 20 0 26 0;
#X connect 21 0 19 0;
#X connect 22 0 27 0;
#X connect 27 0 0 0;
#X connect 28 0 29 0;
#X connect 30 0 26 0;
#X connect 33 0 35 0;
#X connect 39 0 15 0;
#X connect 39 1 17 1;
#X coords 0 -1 1 1 180 120 1 100 100;
