#N canvas 443 219 1375 809 12;
#X text 1070 36 derek kwan;
#X text 1075 60 pdkez;
#X text 1073 83 gpl v 3 2017;
#X obj 372 52 inlet;
#X obj 588 34 inlet;
#X obj 429 131 inlet;
#X obj 663 125 inlet;
#X text 723 112 feedback;
#X obj 664 161 max -1;
#X obj 664 186 min 1;
#X obj 664 212 pack 0 50;
#X obj 665 236 line~;
#N canvas 356 490 771 614 \$0-ezpshift-defaults 0;
#X obj 96 87 loadbang;
#X obj 82 286 pack \$0 f f f f, f 46;
#X obj 121 182 f \$1;
#X text 170 183 transpose;
#X obj 90 121 t b b b b b, f 56;
#X obj 255 179 f \$2;
#X text 301 181 delay;
#X msg 359 236 50;
#X obj 386 176 f \$3;
#X obj 478 181 f \$4;
#X obj 478 206 moses 1e-20;
#X msg 478 231 0.5;
#X text 417 156 window;
#X text 537 165 fb;
#X msg 82 311 \; \$1-ezpshift_transpose \$2 \; \$1-ezpshift_delay \$3
\; \$1-ezpshift_window \$4 \; \$1-ezpshift_fb \$5 \;;
#X obj 359 214 moses 1e-20;
#X connect 0 0 4 0;
#X connect 1 0 14 0;
#X connect 2 0 1 1;
#X connect 4 0 1 0;
#X connect 4 1 2 0;
#X connect 4 2 5 0;
#X connect 4 3 8 0;
#X connect 4 4 9 0;
#X connect 5 0 1 2;
#X connect 7 0 1 3;
#X connect 8 0 15 0;
#X connect 9 0 10 0;
#X connect 10 0 11 0;
#X connect 10 1 1 4;
#X connect 11 0 1 4;
#X connect 15 0 7 0;
#X connect 15 1 1 3;
#X restore 413 213 pd \$0-ezpshift-defaults;
#X obj 371 92 s \$0-ezpshift_transpose;
#X obj 428 166 s \$0-ezpshift_delay;
#X obj 591 71 s \$0-ezpshift_window;
#X text 424 51 transpose;
#X text 482 133 delay;
#X text 647 38 window;
#X obj 111 200 hsl 175 15 1.5 10 0 0 empty \$0-ezpshift_delay delay(ms)
-2 -8 0 12 -262144 -1 -1 0 1;
#X floatatom 175 179 5 0 0 0 - - -, f 5;
#X obj 238 119 tgl 15 0 empty \$0-ezpshift_bypass bypass 17 7 0 12
-262144 -1 -1 0 1;
#X obj 218 705 pdkez_switcher;
#X obj 112 159 hsl 175 15 -24 24 0 0 empty \$0-ezpshift_transpose transpose(.5steps)
-2 -8 0 12 -262144 -1 -1 8700 1;
#X floatatom 238 139 5 0 0 0 - - -, f 5;
#X obj 218 730 outlet~;
#X obj 108 278 hsl 175 15 0 1 0 0 empty \$0-ezpshift_fb fb -2 -8 0
12 -262144 -1 -1 8700 1;
#X floatatom 143 257 5 0 0 0 - - -, f 5;
#X obj 111 238 hsl 175 15 2 100 0 0 empty \$0-ezpshift_window window(ms)
-2 -8 0 12 -262144 -1 -1 8522 1;
#X floatatom 185 220 5 0 0 0 - - -, f 5;
#N canvas 810 619 1069 737 \$0-ezpshift_guts 0;
#X obj 157 403 *~;
#X obj 536 192 line~;
#X obj 536 166 pack 0 200;
#X obj 139 160 exp;
#X obj 139 296 /;
#X obj 442 163 * 0.001;
#X obj 527 454 line~;
#X obj 527 429 pack 0 200;
#X obj 157 429 +~;
#X obj 94 455 cos~;
#X obj 94 482 *~;
#X obj 94 511 +~;
#X obj 348 418 wrap~;
#X obj 418 483 *~;
#X obj 418 516 +~;
#X obj 355 543 cos~;
#X obj 355 570 *~;
#X obj 442 190 t b f;
#X obj 346 373 +~ 0.5;
#X obj 94 403 -~ 0.5;
#X obj 94 429 *~ 0.5;
#X obj 355 482 -~ 0.5;
#X obj 355 515 *~ 0.5;
#X obj 139 197 - 1;
#X obj 139 130 * 0.05776;
#X obj 139 223 * -1;
#X text 202 164 speed;
#X text 201 178 change;
#X text 191 288 tape head;
#X obj 85 335 phasor~;
#X obj 527 405 max 1.5;
#X obj 513 115 max 1;
#X text 192 301 rotation freq;
#X obj 313 661 outlet~;
#X obj 33 86 inlet~;
#X obj 83 580 *~;
#X obj 32 616 +~;
#X text 279 94 delay (ms);
#X text 538 36 window (msec);
#X text 133 23 transposition (halfsteps);
#X obj 139 47 inlet;
#X obj 372 98 inlet;
#X obj 503 62 inlet;
#X obj 120 556 r~ \$0-ezpshift_fbsig;
#X obj 34 657 delwrite~ \$0-ezpshift_delL 5000;
#X obj 142 459 delread4~ \$0-ezpshift_delL;
#X obj 418 545 delread4~ \$0-ezpshift_delL;
#X connect 0 0 8 0;
#X connect 1 0 0 1;
#X connect 1 0 13 1;
#X connect 2 0 1 0;
#X connect 3 0 23 0;
#X connect 4 0 29 0;
#X connect 5 0 17 0;
#X connect 6 0 8 1;
#X connect 6 0 14 1;
#X connect 7 0 6 0;
#X connect 8 0 45 0;
#X connect 9 0 10 0;
#X connect 10 0 11 0;
#X connect 11 0 35 0;
#X connect 11 0 33 0;
#X connect 12 0 13 0;
#X connect 12 0 21 0;
#X connect 13 0 14 0;
#X connect 14 0 46 0;
#X connect 15 0 16 0;
#X connect 16 0 11 1;
#X connect 17 0 4 0;
#X connect 17 1 4 1;
#X connect 18 0 12 0;
#X connect 19 0 20 0;
#X connect 20 0 9 0;
#X connect 21 0 22 0;
#X connect 22 0 15 0;
#X connect 23 0 25 0;
#X connect 24 0 3 0;
#X connect 25 0 4 0;
#X connect 29 0 0 0;
#X connect 29 0 19 0;
#X connect 29 0 18 0;
#X connect 30 0 7 0;
#X connect 31 0 5 0;
#X connect 31 0 2 0;
#X connect 34 0 36 0;
#X connect 35 0 36 1;
#X connect 36 0 44 0;
#X connect 40 0 24 0;
#X connect 41 0 30 0;
#X connect 42 0 31 0;
#X connect 43 0 35 1;
#X connect 45 0 10 1;
#X connect 46 0 16 1;
#X restore 30 510 pd \$0-ezpshift_guts, f 33;
#X obj 665 261 s~ \$0-ezpshift_fbsig;
#X obj 114 400 inlet~;
#X text 652 415 args: transposition (0) \, delay (0) \, window (50)
\, fb (0.5);
#X obj 805 48 inlet;
#X text 858 44 bypass;
#X obj 805 73 s \$0-ezpshift_bypass;
#X obj 156 125 bng 15 250 50 0 empty empty 0 17 7 0 10 -262144 -1 -1
;
#X msg 33 156 0;
#X obj 114 124 bng 15 250 50 0 empty empty -12 17 7 0 10 -262144 -1
-1;
#X msg 31 125 -12;
#X obj 190 125 bng 15 250 50 0 empty empty 12 17 7 0 10 -262144 -1
-1;
#X msg 30 186 12;
#X obj 411 697 pdkez_switcher;
#X obj 411 722 outlet~;
#N canvas 810 619 1069 737 \$0-ezpshift_guts 0;
#X obj 157 403 *~;
#X obj 536 192 line~;
#X obj 536 166 pack 0 200;
#X obj 139 160 exp;
#X obj 139 296 /;
#X obj 442 163 * 0.001;
#X obj 527 454 line~;
#X obj 527 429 pack 0 200;
#X obj 157 429 +~;
#X obj 94 455 cos~;
#X obj 94 482 *~;
#X obj 94 511 +~;
#X obj 348 418 wrap~;
#X obj 418 483 *~;
#X obj 418 516 +~;
#X obj 355 543 cos~;
#X obj 355 570 *~;
#X obj 442 190 t b f;
#X obj 346 373 +~ 0.5;
#X obj 94 403 -~ 0.5;
#X obj 94 429 *~ 0.5;
#X obj 355 482 -~ 0.5;
#X obj 355 515 *~ 0.5;
#X obj 139 197 - 1;
#X obj 139 130 * 0.05776;
#X obj 139 223 * -1;
#X text 202 164 speed;
#X text 201 178 change;
#X text 191 288 tape head;
#X obj 85 335 phasor~;
#X obj 527 405 max 1.5;
#X obj 513 115 max 1;
#X text 192 301 rotation freq;
#X obj 313 661 outlet~;
#X obj 33 86 inlet~;
#X obj 83 580 *~;
#X obj 32 616 +~;
#X text 279 94 delay (ms);
#X text 538 36 window (msec);
#X text 133 23 transposition (halfsteps);
#X obj 139 47 inlet;
#X obj 372 98 inlet;
#X obj 503 62 inlet;
#X obj 120 556 r~ \$0-ezpshift_fbsig;
#X obj 142 459 delread4~ \$0-ezpshift_delR;
#X obj 418 545 delread4~ \$0-ezpshift_delR;
#X obj 34 657 delwrite~ \$0-ezpshift_delR 5000;
#X connect 0 0 8 0;
#X connect 1 0 0 1;
#X connect 1 0 13 1;
#X connect 2 0 1 0;
#X connect 3 0 23 0;
#X connect 4 0 29 0;
#X connect 5 0 17 0;
#X connect 6 0 8 1;
#X connect 6 0 14 1;
#X connect 7 0 6 0;
#X connect 8 0 44 0;
#X connect 9 0 10 0;
#X connect 10 0 11 0;
#X connect 11 0 35 0;
#X connect 11 0 33 0;
#X connect 12 0 13 0;
#X connect 12 0 21 0;
#X connect 13 0 14 0;
#X connect 14 0 45 0;
#X connect 15 0 16 0;
#X connect 16 0 11 1;
#X connect 17 0 4 0;
#X connect 17 1 4 1;
#X connect 18 0 12 0;
#X connect 19 0 20 0;
#X connect 20 0 9 0;
#X connect 21 0 22 0;
#X connect 22 0 15 0;
#X connect 23 0 25 0;
#X connect 24 0 3 0;
#X connect 25 0 4 0;
#X connect 29 0 0 0;
#X connect 29 0 19 0;
#X connect 29 0 18 0;
#X connect 30 0 7 0;
#X connect 31 0 5 0;
#X connect 31 0 2 0;
#X connect 34 0 36 0;
#X connect 35 0 36 1;
#X connect 36 0 46 0;
#X connect 40 0 24 0;
#X connect 41 0 30 0;
#X connect 42 0 31 0;
#X connect 43 0 35 1;
#X connect 44 0 10 1;
#X connect 45 0 16 1;
#X restore 231 560 pd \$0-ezpshift_guts, f 35;
#X obj 231 396 inlet~;
#X text 653 331 in1: sig~ \, in2: sig~ \, in3: transposition \, in4:
delay;
#X text 654 354 in5: window \, in6: feedback \, in7: bypass;
#X connect 3 0 13 0;
#X connect 4 0 15 0;
#X connect 5 0 14 0;
#X connect 6 0 8 0;
#X connect 8 0 9 0;
#X connect 9 0 10 0;
#X connect 10 0 11 0;
#X connect 11 0 31 0;
#X connect 19 0 20 0;
#X connect 19 0 30 2;
#X connect 19 0 45 2;
#X connect 21 0 22 2;
#X connect 21 0 43 2;
#X connect 22 0 25 0;
#X connect 23 0 24 0;
#X connect 23 0 30 1;
#X connect 23 0 45 1;
#X connect 26 0 27 0;
#X connect 26 0 8 0;
#X connect 28 0 29 0;
#X connect 28 0 30 3;
#X connect 28 0 45 3;
#X connect 30 0 22 0;
#X connect 32 0 30 0;
#X connect 32 0 22 1;
#X connect 34 0 36 0;
#X connect 37 0 38 0;
#X connect 38 0 23 0;
#X connect 39 0 40 0;
#X connect 40 0 23 0;
#X connect 41 0 42 0;
#X connect 42 0 23 0;
#X connect 43 0 44 0;
#X connect 45 0 43 0;
#X connect 46 0 45 0;
#X connect 46 0 43 1;
#X coords 0 -1 1 1 200 200 1 100 100;
