#N canvas 629 302 1375 809 12;
#X text 1070 36 derek kwan;
#X text 1075 60 pdkez;
#X text 1073 83 gpl v 3 2017;
#X obj 215 121 tgl 15 0 \$0-ezfshift_bypass \$0-ezfshift_bypass_r bypass
17 7 0 12 -262144 -1 -1 0 1;
#X obj 184 556 pdkez_switcher;
#X floatatom 146 119 5 0 0 0 fshift #0-ezfshift_amt_r #0-ezfshift_amt
, f 5;
#X obj 184 581 outlet~;
#X obj 805 48 inlet;
#X text 858 44 bypass;
#X obj 187 121 bng 15 250 50 0 empty empty 0 17 7 0 10 -262144 -1 -1
;
#X obj 38 330 inlet~;
#X obj 177 453 *~;
#X obj 243 459 *~;
#X obj 184 494 -~;
#X obj 212 405 cos~;
#X obj 266 390 +~ 0.25;
#X obj 266 412 cos~;
#X text 30 11 FREQSHIFT~: frequency shifting by single sideband modulation
;
#X text 31 29 based on Miller Puckette's H90.ssb.modulation;
#X text 743 259 in 1: signal;
#X text 742 279 in 2: freq shift amount;
#X text 729 349 copied hilbert transform;
#X text 730 369 in case it doesn't exist;
#X text 647 38 fshift_amt;
#X obj 588 34 inlet;
#X obj 374 77 loadbang;
#X obj 217 333 phasor~;
#X obj 374 102 f \$1;
#X msg 484 34 0;
#X text 734 309 argt: freq shift amount;
#X obj 36 365 pdkez_hilbert;
#X obj 588 58 route freqshift bypass;
#X obj 568 151 s \$0-ezfshift_amt_r;
#X obj 805 73 s \$0-ezfshift_bypass_r;
#X obj 217 281 r \$0-ezfshift_amt;
#X obj 266 513 r \$0-ezfshift_bypass;
#X obj 477 547 pdkez_switcher;
#X obj 477 572 outlet~;
#X obj 331 321 inlet~;
#X obj 470 444 *~;
#X obj 536 450 *~;
#X obj 477 485 -~;
#X obj 505 396 cos~;
#X obj 559 381 +~ 0.25;
#X obj 559 403 cos~;
#X obj 510 324 phasor~;
#X obj 329 356 pdkez_hilbert;
#X obj 510 272 r \$0-ezfshift_amt;
#X obj 559 504 r \$0-ezfshift_bypass;
#X connect 4 0 6 0;
#X connect 7 0 33 0;
#X connect 9 0 28 0;
#X connect 10 0 4 1;
#X connect 10 0 30 0;
#X connect 11 0 13 0;
#X connect 12 0 13 1;
#X connect 13 0 4 0;
#X connect 14 0 11 1;
#X connect 15 0 16 0;
#X connect 16 0 12 1;
#X connect 24 0 31 0;
#X connect 25 0 27 0;
#X connect 26 0 14 0;
#X connect 26 0 15 0;
#X connect 27 0 32 0;
#X connect 28 0 32 0;
#X connect 30 0 11 0;
#X connect 30 1 12 0;
#X connect 31 0 32 0;
#X connect 31 1 33 0;
#X connect 34 0 26 0;
#X connect 35 0 4 2;
#X connect 36 0 37 0;
#X connect 38 0 36 1;
#X connect 38 0 46 0;
#X connect 39 0 41 0;
#X connect 40 0 41 1;
#X connect 41 0 36 0;
#X connect 42 0 39 1;
#X connect 43 0 44 0;
#X connect 44 0 40 1;
#X connect 45 0 42 0;
#X connect 45 0 43 0;
#X connect 46 0 39 0;
#X connect 46 1 40 0;
#X connect 47 0 45 0;
#X connect 48 0 36 2;
#X coords 0 -1 1 1 175 40 1 100 100;
