#N canvas 817 153 1104 1017 12;
#X text 432 302 length in samples;
#X obj 507 399 samplerate~;
#X obj 507 424 / 1000;
#X text 407 395 rate >= 0;
#X obj 59 677 pack f f f, f 29;
#X text 491 489 dur in ms;
#X obj 253 749 delay;
#X text 303 752 loop;
#X obj 222 802 spigot 0, f 38;
#X obj 131 716 t l b;
#X text 310 683 start \, end \, dur;
#X msg 94 867 \$1 \, \$2 \$3;
#X obj 131 919 vline~;
#X obj 131 944 outlet~;
#X obj 21 22 inlet;
#X text 88 23 trigger;
#X obj 346 22 inlet;
#X text 399 20 startpoint 0 - 1;
#X obj 578 31 inlet;
#X text 634 29 endpoint 0 - 1;
#X obj 941 34 inlet;
#X text 998 37 loop;
#X obj 490 190 array size \$1;
#X obj 782 40 inlet;
#X text 837 37 rate;
#X obj 398 357 t f b;
#X obj 439 491 /;
#X obj 242 17 inlet;
#X text 299 15 stop;
#X obj 363 867 outlet;
#X text 196 948 ptr;
#X text 425 870 dur in ms;
#X obj 341 159 f 1;
#X obj 347 238 * 1;
#X obj 578 56 t f b;
#X obj 427 243 * 1;
#X obj 54 625 f;
#X obj 377 309 -;
#X msg 242 42 stop;
#X obj 782 65 t b f;
#X obj 396 434 / 1;
#X obj 326 600 abs;
#X text 303 247 end;
#X text 477 242 start;
#X obj 341 193 t f b;
#X obj 342 55 t b f;
#X obj 29 122 t b b;
#X connect 1 0 2 0;
#X connect 2 0 26 1;
#X connect 4 0 9 0;
#X connect 6 0 8 0;
#X connect 8 0 46 0;
#X connect 9 0 11 0;
#X connect 9 1 6 0;
#X connect 11 0 12 0;
#X connect 12 0 13 0;
#X connect 14 0 46 0;
#X connect 16 0 45 0;
#X connect 18 0 34 0;
#X connect 20 0 8 1;
#X connect 22 0 33 1;
#X connect 22 0 35 1;
#X connect 23 0 39 0;
#X connect 25 0 40 0;
#X connect 25 1 1 0;
#X connect 26 0 41 0;
#X connect 26 0 29 0;
#X connect 27 0 38 0;
#X connect 32 0 44 0;
#X connect 33 0 37 0;
#X connect 33 0 4 1;
#X connect 34 0 32 0;
#X connect 34 1 22 0;
#X connect 35 0 37 1;
#X connect 35 0 36 1;
#X connect 36 0 4 0;
#X connect 37 0 25 0;
#X connect 38 0 12 0;
#X connect 38 0 6 0;
#X connect 39 0 32 0;
#X connect 39 1 40 1;
#X connect 40 0 26 0;
#X connect 41 0 4 2;
#X connect 41 0 6 1;
#X connect 44 0 33 0;
#X connect 44 1 22 0;
#X connect 45 0 32 0;
#X connect 45 1 35 0;
#X connect 46 0 36 0;
#X connect 46 1 32 0;
