#N canvas 684 421 1097 580 12;
#X obj 66 62 inlet~;
#X obj 253 73 f \$1;
#X text 300 75 voice number;
#X obj 253 98 / 8;
#X text 291 99 number of voices;
#X text 129 62 delay time 0-1;
#X obj 66 87 +~ 0;
#X obj 66 131 wrap~;
#X text 133 154 map to 10 - 50 ms;
#X obj 66 156 *~ 40;
#X obj 66 181 +~ 10;
#X obj 66 250 delread4~ \$2;
#X obj 66 275 /~ 8;
#X text 128 282 divide by number of voices for attenuation;
#X obj 66 300 outlet~;
#X obj 271 26 loadbang;
#X connect 0 0 6 0;
#X connect 1 0 3 0;
#X connect 3 0 6 1;
#X connect 6 0 7 0;
#X connect 7 0 9 0;
#X connect 9 0 10 0;
#X connect 10 0 11 0;
#X connect 11 0 12 0;
#X connect 12 0 14 0;
#X connect 15 0 1 0;
