#N canvas 1186 393 792 575 12;
#X obj 186 146 inlet~;
#X obj 305 148 inlet~;
#X obj 195 492 outlet~;
#X obj 372 182 == 0;
#X text 21 32 pdkez_switcher - signal selector helper;
#X text 548 39 derek kwan pdkez gplv3 2017;
#X obj 252 269 line~;
#X msg 252 234 \$1 2;
#X obj 499 245 line~;
#X msg 499 210 \$1 2;
#X obj 195 309 *~;
#X obj 382 328 *~;
#X obj 493 138 f 1;
#X obj 546 82 loadbang;
#X obj 468 83 inlet;
#X connect 0 0 10 0;
#X connect 1 0 11 0;
#X connect 3 0 7 0;
#X connect 6 0 10 1;
#X connect 7 0 6 0;
#X connect 8 0 11 1;
#X connect 9 0 8 0;
#X connect 10 0 2 0;
#X connect 11 0 2 0;
#X connect 12 0 3 0;
#X connect 12 0 9 0;
#X connect 13 0 12 0;
#X connect 14 0 12 0;
