#N canvas 443 219 1375 809 12;
#X text 1070 36 derek kwan;
#X text 1075 60 pdkez;
#X obj 29 256 max -1;
#X obj 29 281 min 1;
#X obj 29 307 pack 0 50;
#X obj 30 331 line~;
#N canvas 356 490 569 502 \$0-ezpshift-defaults 0;
#X obj 87 74 loadbang;
#X obj 70 299 pack \$0 f f f f, f 46;
#X obj 112 169 f \$1;
#X text 161 170 transpose;
#X obj 81 108 t b b b b b, f 56;
#X text 516 172 delay;
#X msg 350 223 50;
#X obj 377 163 f \$3;
#X obj 245 199 moses 1e-20;
#X msg 245 224 0.5;
#X text 408 143 window;
#X text 304 158 fb;
#X obj 350 201 moses 1e-20;
#X obj 470 170 f \$4;
#X obj 245 174 f \$2;
#X msg 73 351 \; \$1-ezpshift_transpose \$2 \; \$1-ezpshift_fb \$3
\; \$1-ezpshift_window \$4 \; \$1-ezpshift_delay \$5 \;;
#X connect 0 0 4 0;
#X connect 1 0 15 0;
#X connect 2 0 1 1;
#X connect 4 0 1 0;
#X connect 4 1 2 0;
#X connect 4 2 14 0;
#X connect 4 3 7 0;
#X connect 4 4 13 0;
#X connect 6 0 1 3;
#X connect 7 0 12 0;
#X connect 8 0 9 0;
#X connect 8 1 1 2;
#X connect 9 0 1 2;
#X connect 12 0 6 0;
#X connect 12 1 1 3;
#X connect 13 0 1 4;
#X connect 14 0 8 0;
#X restore 735 88 pd \$0-ezpshift-defaults;
#X obj 371 92 s \$0-ezpshift_transpose;
#X obj 562 70 s \$0-ezpshift_delay;
#X obj 547 97 s \$0-ezpshift_window;
#X obj 108 233 hsl 175 15 1.5 10 0 0 empty \$0-ezpshift_delay delay(ms)
-2 -8 0 12 -262144 -1 -1 0 1;
#X floatatom 289 232 5 0 0 0 - - -, f 5;
#X obj 264 120 tgl 15 0 empty \$0-ezpshift_bypass bypass 17 7 0 12
-262144 -1 -1 0 1;
#X obj 218 705 pdkez_switcher;
#X obj 109 138 hsl 175 15 -24 24 0 0 empty \$0-ezpshift_transpose tpose
-2 -8 0 12 -262144 -1 -1 4350 1;
#X floatatom 289 137 5 0 0 0 - - -, f 5;
#X obj 218 730 outlet~;
#X obj 108 169 hsl 175 15 0 1 0 0 empty \$0-ezpshift_fb fb -2 -8 0
12 -262144 -1 -1 8700 1;
#X floatatom 288 168 5 0 0 0 - - -, f 5;
#X obj 108 202 hsl 175 15 2 100 0 0 empty \$0-ezpshift_window window(ms)
-2 -8 0 12 -262144 -1 -1 8522 1;
#X floatatom 290 201 5 0 0 0 - - -, f 5;
#X obj 30 356 s~ \$0-ezpshift_fbsig;
#X obj 114 400 inlet~;
#X obj 725 16 inlet;
#X text 778 12 bypass;
#X obj 725 41 s \$0-ezpshift_bypass;
#X obj 207 121 bng 15 250 50 0 empty empty 0 17 7 0 10 -262144 -1 -1
;
#X msg 33 156 0;
#X obj 169 120 bng 15 250 50 0 empty empty -12 17 7 0 10 -262144 -1
-1;
#X msg 31 125 -12;
#X obj 232 121 bng 15 250 50 0 empty empty 12 17 7 0 10 -262144 -1
-1;
#X msg 30 186 12;
#X obj 411 697 pdkez_switcher;
#X obj 411 722 outlet~;
#X obj 231 396 inlet~;
#X obj 236 459 pdkvabs/dkpshift~, f 56;
#X obj 378 7 inlet;
#X obj 378 31 route transpose fb window delay;
#X obj 421 65 s \$0-ezpshift_fb;
#X text 1073 83 gpl v 3 2018;
#X obj 82 506 pdkvabs/dkpshift~, f 69;
#X text 409 133 in1: sig~ \, in2: transpose \, in3: fb;
#X text 413 156 in4: window \, in5: delay;
#X text 408 217 args: transposition (0) \, fb (0.5) \, window (50)
\, delay (0);
#X connect 2 0 3 0;
#X connect 3 0 4 0;
#X connect 4 0 5 0;
#X connect 5 0 21 0;
#X connect 10 0 11 0;
#X connect 10 0 35 4;
#X connect 10 0 40 4;
#X connect 12 0 13 2;
#X connect 12 0 32 2;
#X connect 13 0 16 0;
#X connect 14 0 15 0;
#X connect 14 0 35 1;
#X connect 14 0 40 1;
#X connect 17 0 18 0;
#X connect 17 0 2 0;
#X connect 17 0 35 2;
#X connect 17 0 40 2;
#X connect 19 0 20 0;
#X connect 19 0 35 3;
#X connect 19 0 40 3;
#X connect 22 0 13 1;
#X connect 22 0 40 0;
#X connect 23 0 25 0;
#X connect 26 0 27 0;
#X connect 27 0 14 0;
#X connect 28 0 29 0;
#X connect 29 0 14 0;
#X connect 30 0 31 0;
#X connect 31 0 14 0;
#X connect 32 0 33 0;
#X connect 34 0 32 1;
#X connect 34 0 35 0;
#X connect 35 0 32 0;
#X connect 36 0 37 0;
#X connect 37 0 7 0;
#X connect 37 1 38 0;
#X connect 37 2 9 0;
#X connect 37 3 8 0;
#X connect 40 0 13 0;
#X coords 0 -1 1 1 230 155 1 100 100;
