#N canvas 768 335 1113 710 12;
#X obj 28 625 pdkvabs/dkswitch2~;
#X obj 28 650 outlet~;
#X obj 199 130 hradio 15 1 0 2 empty \$0-ezspectgate_sel abv/blw 0
-8 0 10 -262144 -1 -1 0;
#X floatatom 244 148 5 0 0 0 - - -;
#X msg 122 336 \$1 2;
#X obj 49 72 inlet~;
#X text 21 43 args: fftsize \, thresh \, above/below (0/1);
#X text 112 72 sig~;
#X obj 236 129 tgl 15 0 empty empty bypass 17 7 0 10 -262144 -1 -1
0 1;
#X obj 339 75 inlet;
#X text 393 76 thresh;
#X obj 339 100 s \$0-ezspectgate_thresh;
#X obj 558 76 inlet;
#X text 615 76 above/below;
#X obj 558 101 s \$0-ezspectgate_sel;
#X obj 432 148 loadbang;
#X obj 435 485 pack \$0 f f;
#X msg 403 552 \; \$1-ezspectgate_thresh \$2 \; \$1-ezspectgate_sel
\$3 \;;
#X obj 439 185 t b b, f 27;
#X obj 660 246 f \$2;
#X obj 733 248 f \$3;
#X text 666 213 thresh;
#X text 775 205 above/below;
#X obj 751 80 inlet;
#X text 811 74 bypass;
#X text 964 52 pdkez;
#X text 966 20 derek kwan;
#X text 966 87 gpl v 3 2017;
#X text 25 11 dkezspectgateS~-only pass freqs above/below a certain
thresh;
#X obj 203 623 pdkvabs/dkswitch2~;
#X obj 203 648 outlet~;
#X obj 235 78 inlet~;
#X msg 409 260 0;
#X obj 107 149 hsl 128 15 0 3 0 0 empty \$0-ezspectgate_thresh thresh
-2 -8 0 10 -262144 -1 -1 0 1;
#X obj 371 334 == 0;
#X obj 5 580 pdkvabs/dkfftgate~ \$1 \$2 \$3;
#X obj 208 570 pdkvabs/dkfftgate~ \$1 \$2 \$3;
#X obj 122 361 line;
#X obj 122 385 t f f;
#X obj 122 409 *;
#X obj 122 468 *;
#X obj 122 433 t f f;
#X connect 0 0 1 0;
#X connect 2 0 35 3;
#X connect 2 0 36 3;
#X connect 4 0 37 0;
#X connect 5 0 0 1;
#X connect 5 0 35 0;
#X connect 8 0 0 2;
#X connect 8 0 29 2;
#X connect 8 0 34 0;
#X connect 9 0 11 0;
#X connect 12 0 14 0;
#X connect 15 0 18 0;
#X connect 16 0 17 0;
#X connect 18 0 16 0;
#X connect 18 0 32 0;
#X connect 18 1 19 0;
#X connect 18 1 20 0;
#X connect 19 0 16 1;
#X connect 20 0 16 2;
#X connect 23 0 8 0;
#X connect 29 0 30 0;
#X connect 31 0 29 1;
#X connect 31 0 36 0;
#X connect 32 0 8 0;
#X connect 33 0 3 0;
#X connect 33 0 4 0;
#X connect 34 0 35 4;
#X connect 34 0 36 4;
#X connect 35 0 0 0;
#X connect 36 0 29 0;
#X connect 37 0 38 0;
#X connect 38 0 39 0;
#X connect 38 1 39 1;
#X connect 39 0 41 0;
#X connect 40 0 35 1;
#X connect 40 0 36 1;
#X connect 41 0 40 0;
#X connect 41 1 40 1;
#X coords 0 -1 1 1 200 70 1 100 100;
