#N canvas 471 230 1297 937 12;
#X obj 302 265 nbx 6 14 0 100 0 0 \$0-ezseq1 \$0-ezseq1_r empty 0 -8
0 12 -262144 -1 -166441 0 256;
#X obj 225 264 nbx 6 14 0 100 0 0 \$0-ezseq0 \$0-ezseq0_r empty 0 -8
0 12 -262144 -1 -166441 0 256;
#X obj 452 265 nbx 6 14 0 100 0 0 \$0-ezseq3 \$0-ezseq3_r empty 0 -8
0 12 -262144 -1 -166441 0 256;
#X obj 377 264 nbx 6 14 0 100 0 0 \$0-ezseq2 \$0-ezseq2_r empty 0 -8
0 12 -262144 -1 -166441 0 256;
#X obj 603 265 nbx 6 14 0 100 0 0 \$0-ezseq5 \$0-ezseq5_r empty 0 -8
0 12 -262144 -1 -166441 0 256;
#X obj 527 265 nbx 6 14 0 100 0 0 \$0-ezseq4 \$0-ezseq4_r empty 0 -8
0 12 -262144 -1 -166441 0 256;
#X obj 756 265 nbx 6 14 0 100 0 0 \$0-ezseq7 \$0-ezseq7_r empty 0 -8
0 12 -262144 -1 -166441 0 256;
#X obj 680 265 nbx 6 14 0 100 0 0 \$0-ezseq6 \$0-ezseq6_r empty 0 -8
0 12 -262144 -1 -166441 0 256;
#X obj 302 287 nbx 6 14 0 100 0 0 \$0-ezseq9 \$0-ezseq9_r empty 0 -8
0 12 -262144 -1 -166441 0 256;
#X obj 225 286 nbx 6 14 0 100 0 0 \$0-ezseq8 \$0-ezseq8_r empty 0 -8
0 12 -262144 -1 -166441 0 256;
#X obj 452 287 nbx 6 14 0 100 0 0 \$0-ezseq10 \$0-ezseq10_r empty 0
-8 0 12 -262144 -1 -166441 0 256;
#X obj 377 286 nbx 6 14 0 100 0 0 \$0-ezseq11 \$0-ezseq11_r empty 0
-8 0 12 -262144 -1 -166441 0 256;
#X obj 603 287 nbx 6 14 0 100 0 0 \$0-ezseq13 \$0-ezseq13_r empty 0
-8 0 12 -262144 -1 -166441 0 256;
#X obj 527 287 nbx 6 14 0 100 0 0 \$0-ezseq12 \$0-ezseq12_r empty 0
-8 0 12 -262144 -1 -166441 0 256;
#X obj 756 287 nbx 6 14 0 100 0 0 \$0-ezseq15 \$0-ezseq15_r empty 0
-8 0 12 -262144 -1 -166441 0 256;
#X obj 680 287 nbx 6 14 0 100 0 0 \$0-ezseq14 \$0-ezseq14_r empty 0
-8 0 12 -262144 -1 -166441 0 256;
#X obj 302 309 nbx 6 14 0 100 0 0 \$0-ezseq17 \$0-ezseq17_r empty 0
-8 0 12 -262144 -1 -166441 0 256;
#X obj 225 308 nbx 6 14 0 100 0 0 \$0-ezseq16 \$0-ezseq16_r empty 0
-8 0 12 -262144 -1 -166441 0 256;
#X obj 452 309 nbx 6 14 0 100 0 0 \$0-ezseq19 \$0-ezseq19_r empty 0
-8 0 12 -262144 -1 -166441 0 256;
#X obj 377 308 nbx 6 14 0 100 0 0 \$0-ezseq18 \$0-ezseq18_r empty 0
-8 0 12 -262144 -1 -166441 0 256;
#X obj 603 309 nbx 6 14 0 100 0 0 \$0-ezseq21 \$0-ezseq21_r empty 0
-8 0 12 -262144 -1 -166441 0 256;
#X obj 527 309 nbx 6 14 0 100 0 0 \$0-ezseq20 \$0-ezseq20_r empty 0
-8 0 12 -262144 -1 -166441 0 256;
#X obj 756 309 nbx 6 14 0 100 0 0 \$0-ezseq23 \$0-ezseq23_r empty 0
-8 0 12 -262144 -1 -166441 0 256;
#X obj 680 309 nbx 6 14 0 100 0 0 \$0-ezseq22 \$0-ezseq22_r empty 0
-8 0 12 -262144 -1 -166441 0 256;
#X obj 302 330 nbx 6 14 0 100 0 0 \$0-ezseq25 \$0-ezseq25_r empty 0
-8 0 12 -262144 -1 -166441 0 256;
#X obj 225 329 nbx 6 14 0 100 0 0 \$0-ezseq24 \$0-ezseq24_r empty 0
-8 0 12 -262144 -1 -166441 0 256;
#X obj 452 330 nbx 6 14 0 100 0 0 \$0-ezseq27 \$0-ezseq27_r empty 0
-8 0 12 -262144 -1 -166441 0 256;
#X obj 377 329 nbx 6 14 0 100 0 0 \$0-ezseq26 \$0-ezseq26_r empty 0
-8 0 12 -262144 -1 -166441 0 256;
#X obj 603 330 nbx 6 14 0 100 0 0 \$0-ezseq29 \$0-ezseq29_r empty 0
-8 0 12 -262144 -1 -166441 0 256;
#X obj 527 330 nbx 6 14 0 100 0 0 \$0-ezseq28 \$0-ezseq28_r empty 0
-8 0 12 -262144 -1 -166441 0 256;
#X obj 756 330 nbx 6 14 0 100 0 0 \$0-ezseq31 \$0-ezseq31_r empty 0
-8 0 12 -262144 -1 -166441 0 256;
#X obj 680 330 nbx 6 14 0 100 0 0 \$0-ezseq30 \$0-ezseq30_r empty 0
-8 0 12 -262144 -1 -166441 0 256;
#X text 207 282 8;
#X text 202 305 16;
#X text 201 328 24;
#N canvas 622 454 1791 877 ezseqstuff 0;
#X obj 47 68 array define \$0-dkezseq 32;
#N canvas 503 163 1808 762 ezseqrcv 0;
#X obj 73 738 outlet;
#X obj 173 738 outlet;
#X obj 100 100 r \$0-ezseq0;
#X obj 100 130 t f b;
#X msg 120 160 0;
#X obj 225 100 r \$0-ezseq1;
#X obj 225 130 t f b;
#X msg 245 160 1;
#X obj 350 100 r \$0-ezseq2;
#X obj 350 130 t f b;
#X msg 370 160 2;
#X obj 475 100 r \$0-ezseq3;
#X obj 475 130 t f b;
#X msg 495 160 3;
#X obj 600 100 r \$0-ezseq4;
#X obj 600 130 t f b;
#X msg 620 160 4;
#X obj 725 100 r \$0-ezseq5;
#X obj 725 130 t f b;
#X msg 745 160 5;
#X obj 850 100 r \$0-ezseq6;
#X obj 850 130 t f b;
#X msg 870 160 6;
#X obj 975 100 r \$0-ezseq7;
#X obj 975 130 t f b;
#X msg 995 160 7;
#X obj 636 318 r \$0-ezseq8;
#X obj 632 343 t f b;
#X msg 656 378 8;
#X obj 761 318 r \$0-ezseq9;
#X obj 761 348 t f b;
#X msg 781 378 9;
#X obj 886 318 r \$0-ezseq10;
#X obj 886 348 t f b;
#X msg 906 378 10;
#X obj 1011 318 r \$0-ezseq11;
#X obj 1011 348 t f b;
#X msg 1031 378 11;
#X obj 1136 318 r \$0-ezseq12;
#X obj 1136 348 t f b;
#X msg 1156 378 12;
#X obj 1261 318 r \$0-ezseq13;
#X obj 1261 348 t f b;
#X msg 1281 378 13;
#X obj 1386 318 r \$0-ezseq14;
#X obj 1386 348 t f b;
#X msg 1406 378 14;
#X obj 1511 318 r \$0-ezseq15;
#X obj 1511 348 t f b;
#X msg 1531 378 15;
#X obj 657 462 r \$0-ezseq16;
#X obj 657 492 t f b;
#X msg 677 522 16;
#X obj 782 462 r \$0-ezseq17;
#X obj 782 492 t f b;
#X msg 802 522 17;
#X obj 907 462 r \$0-ezseq18;
#X obj 907 492 t f b;
#X msg 927 522 18;
#X obj 1032 462 r \$0-ezseq19;
#X obj 1032 492 t f b;
#X msg 1052 522 19;
#X obj 1157 462 r \$0-ezseq20;
#X obj 1157 492 t f b;
#X msg 1177 522 20;
#X obj 1282 462 r \$0-ezseq21;
#X obj 1282 492 t f b;
#X msg 1302 522 21;
#X obj 1407 462 r \$0-ezseq22;
#X obj 1407 492 t f b;
#X msg 1427 522 22;
#X obj 1532 462 r \$0-ezseq23;
#X obj 1532 492 t f b;
#X msg 1552 522 23;
#X obj 646 575 r \$0-ezseq24;
#X obj 646 605 t f b;
#X msg 666 635 24;
#X obj 771 575 r \$0-ezseq25;
#X obj 771 605 t f b;
#X msg 791 635 25;
#X obj 896 575 r \$0-ezseq26;
#X obj 896 605 t f b;
#X msg 916 635 26;
#X obj 1021 575 r \$0-ezseq27;
#X obj 1021 605 t f b;
#X msg 1041 635 27;
#X obj 1146 575 r \$0-ezseq28;
#X obj 1146 605 t f b;
#X msg 1166 635 28;
#X obj 1271 575 r \$0-ezseq29;
#X obj 1271 605 t f b;
#X msg 1291 635 29;
#X obj 1396 575 r \$0-ezseq30;
#X obj 1396 605 t f b;
#X msg 1416 635 30;
#X obj 1521 575 r \$0-ezseq31;
#X obj 1521 605 t f b;
#X msg 1541 635 31;
#X connect 2 0 3 0;
#X connect 3 0 0 0;
#X connect 3 1 4 0;
#X connect 4 0 1 0;
#X connect 5 0 6 0;
#X connect 6 0 0 0;
#X connect 6 1 7 0;
#X connect 7 0 1 0;
#X connect 8 0 9 0;
#X connect 9 0 0 0;
#X connect 9 1 10 0;
#X connect 10 0 1 0;
#X connect 11 0 12 0;
#X connect 12 0 0 0;
#X connect 12 1 13 0;
#X connect 13 0 1 0;
#X connect 14 0 15 0;
#X connect 15 0 0 0;
#X connect 15 1 16 0;
#X connect 16 0 1 0;
#X connect 17 0 18 0;
#X connect 18 0 0 0;
#X connect 18 1 19 0;
#X connect 19 0 1 0;
#X connect 20 0 21 0;
#X connect 21 0 0 0;
#X connect 21 1 22 0;
#X connect 22 0 1 0;
#X connect 23 0 24 0;
#X connect 24 0 0 0;
#X connect 24 1 25 0;
#X connect 25 0 1 0;
#X connect 26 0 27 0;
#X connect 27 0 0 0;
#X connect 27 1 28 0;
#X connect 28 0 1 0;
#X connect 29 0 30 0;
#X connect 30 0 0 0;
#X connect 30 1 31 0;
#X connect 31 0 1 0;
#X connect 32 0 33 0;
#X connect 33 0 0 0;
#X connect 33 1 34 0;
#X connect 34 0 1 0;
#X connect 35 0 36 0;
#X connect 36 0 0 0;
#X connect 36 1 37 0;
#X connect 37 0 1 0;
#X connect 38 0 39 0;
#X connect 39 0 0 0;
#X connect 39 1 40 0;
#X connect 40 0 1 0;
#X connect 41 0 42 0;
#X connect 42 0 0 0;
#X connect 42 1 43 0;
#X connect 43 0 1 0;
#X connect 44 0 45 0;
#X connect 45 0 0 0;
#X connect 45 1 46 0;
#X connect 46 0 1 0;
#X connect 47 0 48 0;
#X connect 48 0 0 0;
#X connect 48 1 49 0;
#X connect 49 0 1 0;
#X connect 50 0 51 0;
#X connect 51 0 0 0;
#X connect 51 1 52 0;
#X connect 52 0 1 0;
#X connect 53 0 54 0;
#X connect 54 0 0 0;
#X connect 54 1 55 0;
#X connect 55 0 1 0;
#X connect 56 0 57 0;
#X connect 57 0 0 0;
#X connect 57 1 58 0;
#X connect 58 0 1 0;
#X connect 59 0 60 0;
#X connect 60 0 0 0;
#X connect 60 1 61 0;
#X connect 61 0 1 0;
#X connect 62 0 63 0;
#X connect 63 0 0 0;
#X connect 63 1 64 0;
#X connect 64 0 1 0;
#X connect 65 0 66 0;
#X connect 66 0 0 0;
#X connect 66 1 67 0;
#X connect 67 0 1 0;
#X connect 68 0 69 0;
#X connect 69 0 0 0;
#X connect 69 1 70 0;
#X connect 70 0 1 0;
#X connect 71 0 72 0;
#X connect 72 0 0 0;
#X connect 72 1 73 0;
#X connect 73 0 1 0;
#X connect 74 0 75 0;
#X connect 75 0 0 0;
#X connect 75 1 76 0;
#X connect 76 0 1 0;
#X connect 77 0 78 0;
#X connect 78 0 0 0;
#X connect 78 1 79 0;
#X connect 79 0 1 0;
#X connect 80 0 81 0;
#X connect 81 0 0 0;
#X connect 81 1 82 0;
#X connect 82 0 1 0;
#X connect 83 0 84 0;
#X connect 84 0 0 0;
#X connect 84 1 85 0;
#X connect 85 0 1 0;
#X connect 86 0 87 0;
#X connect 87 0 0 0;
#X connect 87 1 88 0;
#X connect 88 0 1 0;
#X connect 89 0 90 0;
#X connect 90 0 0 0;
#X connect 90 1 91 0;
#X connect 91 0 1 0;
#X connect 92 0 93 0;
#X connect 93 0 0 0;
#X connect 93 1 94 0;
#X connect 94 0 1 0;
#X connect 95 0 96 0;
#X connect 96 0 0 0;
#X connect 96 1 97 0;
#X connect 97 0 1 0;
#X restore 44 144 pd ezseqrcv;
#X obj 55 224 array set \$0-dkezseq;
#X obj 307 153 text define \$0-ezseq_pretxt;
#X obj 315 77 savepanel;
#X msg 315 101 write \$1;
#X msg 573 104 read \$1;
#X obj 573 80 openpanel;
#N canvas 1393 133 899 846 ezseq_rnder 0;
#X msg 202 63 32;
#X obj 202 87 pdkvabs/dkfor;
#X obj 206 757 s;
#X obj 189 211 t b f, f 13;
#X obj 332 690 makefilename \$0-ezseq%d_r;
#X text 349 55 randomize;
#X obj 197 159 pdkvabs/dkrgate 100;
#X obj 202 39 r \$0-ezseq-rnd;
#X obj 349 113 r \$0-ezseq-rnd_ch;
#X obj 291 249 r \$0-ezseq-range_lo;
#X obj 202 331 pdkvabs/dkrandi 0 101;
#X obj 474 241 r \$0-ezseq-range_hi;
#X obj 474 265 + 1;
#X text 528 284 make sure we actually hit top of range;
#X obj 203 355 t f b, f 16;
#X obj 314 414 pdkvabs/dkrgate 100;
#X text 580 368 chance of decimal;
#X obj 199 622 +;
#X obj 465 362 r \$0-dec_ch;
#X obj 666 404 r \$0-grain;
#X obj 326 543 random;
#X obj 666 428 t f f;
#X obj 326 567 /;
#X connect 0 0 1 0;
#X connect 1 0 6 0;
#X connect 3 0 10 0;
#X connect 3 1 4 0;
#X connect 4 0 2 1;
#X connect 6 0 3 0;
#X connect 7 0 0 0;
#X connect 8 0 6 1;
#X connect 9 0 10 1;
#X connect 10 0 14 0;
#X connect 11 0 12 0;
#X connect 12 0 10 2;
#X connect 14 0 17 0;
#X connect 14 1 15 0;
#X connect 15 0 20 0;
#X connect 17 0 2 0;
#X connect 18 0 15 1;
#X connect 19 0 21 0;
#X connect 20 0 22 0;
#X connect 21 0 20 1;
#X connect 21 1 22 1;
#X connect 22 0 17 1;
#X restore 56 277 pd ezseq_rnder;
#N canvas 1535 96 888 736 ezseq-conster 0;
#X obj 107 20 r \$0-ezseq-const;
#X msg 81 227 32;
#X obj 81 251 pdkvabs/dkfor;
#X obj 102 699 s;
#X obj 90 378 t b f, f 31;
#X obj 319 658 makefilename \$0-ezseq%d_r;
#X obj 90 402 f, f 18;
#X obj 84 200 t b f;
#X text 204 48 seq_const;
#X obj 283 19 r \$0-const_sel;
#X obj 106 58 swap;
#X obj 106 82 pack f f;
#X text 393 20 all or range;
#X obj 88 115 route 0 1;
#X obj 574 99 r \$0-const_lo;
#X obj 427 102 r \$0-const_hi;
#X obj 124 160 t b f;
#X obj 223 295 pdkvabs/dkfor;
#X obj 223 319 + 0;
#X obj 358 184 -;
#X obj 574 123 t b f f;
#X obj 217 202 f;
#X obj 217 226 moses 0;
#X obj 233 259 min 32;
#X connect 0 0 10 0;
#X connect 1 0 2 0;
#X connect 2 0 4 0;
#X connect 4 0 6 0;
#X connect 4 1 5 0;
#X connect 5 0 3 1;
#X connect 6 0 3 0;
#X connect 7 0 1 0;
#X connect 7 1 6 1;
#X connect 9 0 10 1;
#X connect 10 0 11 0;
#X connect 10 1 11 1;
#X connect 11 0 13 0;
#X connect 13 0 7 0;
#X connect 13 1 16 0;
#X connect 14 0 20 0;
#X connect 15 0 19 0;
#X connect 16 0 21 0;
#X connect 16 1 6 1;
#X connect 17 0 18 0;
#X connect 18 0 4 0;
#X connect 19 0 21 1;
#X connect 20 0 19 0;
#X connect 20 1 19 1;
#X connect 20 2 18 1;
#X connect 21 0 22 0;
#X connect 22 1 23 0;
#X connect 23 0 17 0;
#X restore 62 355 pd ezseq-conster;
#N canvas 505 225 861 651 ezseq_initclr 0;
#X obj 119 81 loadbang;
#X msg 113 188 32;
#X obj 113 212 pdkvabs/dkfor;
#X obj 116 403 s;
#X obj 114 313 t b f, f 13;
#X obj 194 346 makefilename \$0-ezseq%d_r;
#X text 201 80 init/clear;
#X obj 114 337 f;
#X obj 116 161 t b f;
#X obj 206 100 r \$0-eznobu_clear;
#X msg 119 125 0;
#X connect 0 0 10 0;
#X connect 1 0 2 0;
#X connect 2 0 4 0;
#X connect 4 0 7 0;
#X connect 4 1 5 0;
#X connect 5 0 3 1;
#X connect 7 0 3 0;
#X connect 8 0 1 0;
#X connect 8 1 7 1;
#X connect 9 0 10 0;
#X connect 10 0 8 0;
#X restore 55 393 pd ezseq_initclr;
#N canvas 753 279 872 655 ezseq_lister 0;
#X obj 61 86 list length;
#X obj 67 40 t l l, f 21;
#X obj 52 126 pdkvabs/dkfor;
#X msg 52 209 get \$1 1;
#X obj 52 150 t f f, f 13;
#X obj 52 233 list store, f 25;
#X obj 54 313 s;
#X obj 145 275 makefilename \$0-ezseq%d_r;
#X obj 67 16 r \$0-ezseq-list;
#X connect 0 0 2 0;
#X connect 1 0 0 0;
#X connect 1 1 5 1;
#X connect 2 0 4 0;
#X connect 3 0 5 0;
#X connect 4 0 3 0;
#X connect 4 1 7 0;
#X connect 5 0 6 0;
#X connect 7 0 6 1;
#X connect 8 0 1 0;
#X restore 52 421 pd ezseq_lister;
#N canvas 908 531 1290 766 ezseq_savercl 0;
#X obj 192 269 text set \$0-ezseq_pretxt;
#X obj 145 181 t b a;
#X obj 151 321 text size \$0-ezseq_pretxt;
#X obj 152 417 t f f;
#X msg 217 457 range 0 \$1;
#X msg 143 587 range 0 \$1;
#X obj 143 611 s \$0-ezseq-rcl_num_r;
#X obj 152 441 - 1;
#X obj 220 352 loadbang;
#X msg 233 388 0;
#X obj 152 465 max 0;
#X obj 444 107 r \$0-ezseq-rcl_trig;
#X obj 145 151 array get \$0-dkezseq 0 -1;
#X obj 498 220 text get \$0-ezseq_pretxt;
#X obj 503 171 f 0;
#X text 334 218 save;
#X text 619 183 recall;
#X obj 636 109 r \$0-ezseq-rcl_num;
#X obj 391 157 loadbang;
#X msg 391 181 0;
#X obj 132 87 r \$0-ezseq-save_trig;
#X obj 298 40 r \$0-ezseq-save_num;
#X obj 217 481 s \$0-ezseq-save_num_r;
#X obj 497 251 s \$0-ezseq-list;
#X obj 428 353 r \$0-ezseq-pre_clear;
#X msg 462 458 -1;
#X obj 462 482 text delete \$0-ezseq_pretxt;
#X obj 428 377 t b b;
#X connect 1 0 2 0;
#X connect 1 1 0 0;
#X connect 2 0 3 0;
#X connect 3 0 7 0;
#X connect 3 1 4 0;
#X connect 4 0 22 0;
#X connect 5 0 6 0;
#X connect 7 0 10 0;
#X connect 8 0 9 0;
#X connect 9 0 3 0;
#X connect 10 0 5 0;
#X connect 11 0 14 0;
#X connect 12 0 1 0;
#X connect 13 0 23 0;
#X connect 14 0 13 0;
#X connect 17 0 14 1;
#X connect 18 0 19 0;
#X connect 19 0 0 1;
#X connect 20 0 12 0;
#X connect 21 0 0 1;
#X connect 24 0 27 0;
#X connect 25 0 26 0;
#X connect 27 0 9 0;
#X connect 27 1 25 0;
#X restore 71 471 pd ezseq_savercl;
#N canvas 948 158 859 603 ezseq-rngset 0;
#X obj 52 248 pdkvabs/dkfor;
#X obj 61 535 s;
#X obj 137 436 makefilename \$0-ezseq%d_r;
#X obj 102 18 r \$0-ezseq-range_lo;
#X obj 129 121 pack f f;
#X obj 266 21 r \$0-ezseq-range_hi;
#X obj 266 45 t b f;
#X msg 67 212 32;
#X obj 67 188 t b l, f 21;
#X obj 52 272 t b f, f 13;
#X obj 53 426 list trim;
#X msg 344 209 range \$1 \$2;
#X obj 344 233 s \$0-ezseq-const_r;
#X obj 129 145 t l l;
#X obj 52 355 list, f 25;
#X obj 52 379 list prepend range;
#X connect 0 0 9 0;
#X connect 2 0 1 1;
#X connect 3 0 4 0;
#X connect 4 0 13 0;
#X connect 5 0 6 0;
#X connect 6 0 4 0;
#X connect 6 1 4 1;
#X connect 7 0 0 0;
#X connect 8 0 7 0;
#X connect 8 1 14 1;
#X connect 9 0 14 0;
#X connect 9 1 2 0;
#X connect 10 0 1 0;
#X connect 11 0 12 0;
#X connect 13 0 8 0;
#X connect 13 1 11 0;
#X connect 14 0 15 0;
#X connect 15 0 10 0;
#X restore 53 320 pd ezseq-rngset;
#X obj 573 56 r \$0-ezseq-pre_load;
#X obj 315 53 r \$0-ezseq-pre_save;
#N canvas 907 156 741 809 ezseq-decrnder 0;
#X obj 40 199 array get \$0-dkezseq 0 -1;
#X obj 45 137 r \$0-dec_rnd;
#X obj 37 250 pdklist/pdkl-drip;
#X obj 181 554 makefilename \$0-ezseq%d_r;
#X obj 94 416 pdkvabs/dkrgate 100;
#X obj 25 349 pdkvabs/dkfloor;
#X obj 52 683 s;
#X obj 25 373 t f b;
#X obj 43 585 +;
#X obj 245 365 r \$0-dec_ch;
#X obj 434 312 r \$0-grain;
#X obj 94 451 random;
#X obj 434 336 t f f;
#X obj 94 475 /;
#X connect 0 0 2 0;
#X connect 1 0 0 0;
#X connect 2 0 5 0;
#X connect 2 1 3 0;
#X connect 3 0 6 1;
#X connect 4 0 11 0;
#X connect 5 0 7 0;
#X connect 7 0 8 0;
#X connect 7 1 4 0;
#X connect 8 0 6 0;
#X connect 9 0 4 1;
#X connect 10 0 12 0;
#X connect 11 0 13 0;
#X connect 12 0 11 1;
#X connect 12 1 13 1;
#X connect 13 0 8 1;
#X restore 352 359 pd ezseq-decrnder;
#X connect 1 0 2 0;
#X connect 1 1 2 1;
#X connect 4 0 5 0;
#X connect 5 0 3 0;
#X connect 6 0 3 0;
#X connect 7 0 6 0;
#X connect 14 0 7 0;
#X connect 15 0 4 0;
#X restore 79 373 pd ezseqstuff;
#X obj 288 227 bng 15 250 50 0 \$0-ezseq-rnd \$0-ezseq-rnd_r rnd 17
7 0 12 -262144 -1 -1;
#X obj 685 208 bng 15 250 50 0 \$0-ezseq-dump \$0-ezseq-dump_r dump
17 7 0 12 -262144 -1 -1;
#X floatatom 203 225 5 0 100 1 rnd_ch #0-ezseq-rnd_ch_r #0-ezseq-rnd_ch
, f 5;
#X obj 409 227 nbx 2 14 0 0 0 0 \$0-ezseq-save_num \$0-ezseq-save_num_r
save 32 7 0 12 -262144 -1 -1 0 256;
#X obj 471 228 bng 15 250 50 0 \$0-ezseq-save_trig \$0-ezseq-save_trig_r
save 17 7 0 12 -262144 -1 -1;
#X obj 405 246 nbx 2 14 0 0 0 0 \$0-ezseq-rcl_num \$0-ezseq-rcl_num_r
rcl 32 7 0 12 -262144 -1 -1 0 256;
#X obj 462 246 bng 15 250 50 0 \$0-ezseq-rcl_trig \$0-ezseq-rcl_trig_r
rcl 17 7 0 12 -262144 -1 -1;
#X obj 503 246 bng 15 250 50 0 \$0-ezseq-pre_load \$0-ezseq-pre_load_r
pre_load 17 7 0 12 -262144 -1 -1;
#X obj 519 227 bng 15 250 50 0 \$0-ezseq-pre_save \$0-ezseq-pre_save_r
pre_save 17 7 0 12 -262144 -1 -1;
#X floatatom 656 227 5 0 0 1 hi #0-ezseq-range_hi_r #0-ezseq-range_hi
, f 5;
#X floatatom 600 226 5 0 0 1 lo #0-ezseq-range_lo_r #0-ezseq-range_lo
, f 5;
#X obj 353 44 inlet;
#X obj 464 532 outlet;
#X text 521 532 dump;
#N canvas 177 532 1011 589 ezseq-dumper 0;
#X msg 45 161 bang;
#X obj 55 334 outlet;
#X obj 45 137 r \$0-ezseq-dump;
#X obj 55 224 array get \$0-dkezseq 0 -1;
#X connect 0 0 3 0;
#X connect 2 0 0 0;
#X connect 3 0 1 0;
#X restore 464 495 pd ezseq-dumper;
#X obj 205 481 r \$0-ezseq-count;
#X obj 220 551 tabread \$0-dkezseq;
#X obj 220 575 outlet;
#N canvas 1020 337 1366 786 ezseq-msgroute 0;
#X obj 240 3 inlet;
#X obj 199 457 t b f;
#X obj 280 498 t b f;
#X obj 146 618 s \$0-ezseq-save_trig_r;
#X obj 210 562 s \$0-ezseq-save_num_r;
#X obj 240 692 s \$0-ezseq-rcl_trig_r;
#X obj 303 636 s \$0-ezseq-rcl_num_r;
#X obj 347 469 s \$0-ezseq-pre_save_r;
#X obj 420 519 s \$0-ezseq-pre_load_r;
#X obj 206 176 s \$0-ezseq-list;
#X obj 315 121 s \$0-ezseq-count;
#X obj 470 141 s \$0-ezseq-rnd;
#X obj 631 99 s \$0-ezseq-const_r;
#X obj 660 156 s \$0-ezseq-rnd_ch_r;
#X obj 431 107 s \$0-ezseq-dump_r;
#X obj 859 157 s \$0-ezseq-range_hi_r;
#X obj 800 81 s \$0-ezseq-range_lo_r;
#X obj 1050 170 s \$0-ezseq-on_r;
#X obj 192 410 route save rcl preset_save preset_load preset_clear
;
#X obj 533 468 s \$0-ezseq-pre_clear_r;
#X obj 239 33 route list float dump rnd const rnd_ch lo hi dec_rnd
on, f 126;
#X obj 960 110 s \$0-dec_rnd_r;
#X obj 761 481 route grain const_lo const_hi const_sel;
#X obj 761 505 s \$0-grain_r;
#X obj 815 556 s \$0-const_lo_r;
#X obj 843 613 s \$0-const_hi_r;
#X obj 907 685 s \$0-const_sel_r;
#X connect 0 0 20 0;
#X connect 1 0 3 0;
#X connect 1 1 4 0;
#X connect 2 0 5 0;
#X connect 2 1 6 0;
#X connect 18 0 1 0;
#X connect 18 1 2 0;
#X connect 18 2 7 0;
#X connect 18 3 8 0;
#X connect 18 4 19 0;
#X connect 18 5 22 0;
#X connect 20 0 9 0;
#X connect 20 1 10 0;
#X connect 20 2 14 0;
#X connect 20 3 11 0;
#X connect 20 4 12 0;
#X connect 20 5 13 0;
#X connect 20 6 16 0;
#X connect 20 7 15 0;
#X connect 20 8 21 0;
#X connect 20 9 17 0;
#X connect 20 10 18 0;
#X connect 22 0 23 0;
#X connect 22 1 24 0;
#X connect 22 2 25 0;
#X connect 22 3 26 0;
#X restore 353 89 pd ezseq-msgroute;
#N canvas 1012 380 1299 743 ezseq-args 0;
#X obj 68 48 loadbang;
#X obj 190 184 f \$1;
#X obj 258 186 f \$2;
#X obj 246 268 s \$0-ezseq-range_hi_r;
#X obj 173 291 s \$0-ezseq-range_lo_r;
#X obj 258 210 moses 1e-20;
#X msg 258 234 100;
#X obj 331 158 s \$0-ezseq-rnd_ch_r;
#X msg 354 124 100;
#X obj 68 72 t b b b b, f 28;
#X obj 55 165 f \$3;
#X obj 55 189 s \$0-ezseq-const_r;
#X obj 514 156 s \$0-grain_r;
#X msg 507 119 99999;
#X msg 619 122 0;
#X obj 616 166 s \$0-const_lo_r;
#X obj 749 141 s \$0-const_hi_r;
#X msg 896 117 0;
#X obj 896 141 s \$0-const_sel_r;
#X obj 405 61 t b b b b b b, f 82;
#X msg 1066 110 0;
#X obj 1066 134 s \$0-dec_ch_r;
#X msg 749 117 31;
#X connect 0 0 9 0;
#X connect 1 0 4 0;
#X connect 2 0 5 0;
#X connect 5 0 6 0;
#X connect 5 1 3 0;
#X connect 6 0 3 0;
#X connect 8 0 7 0;
#X connect 9 0 10 0;
#X connect 9 1 1 0;
#X connect 9 2 2 0;
#X connect 9 3 19 0;
#X connect 10 0 11 0;
#X connect 13 0 12 0;
#X connect 14 0 15 0;
#X connect 17 0 18 0;
#X connect 19 0 8 0;
#X connect 19 1 13 0;
#X connect 19 2 14 0;
#X connect 19 3 22 0;
#X connect 19 4 17 0;
#X connect 19 5 20 0;
#X connect 20 0 21 0;
#X connect 22 0 16 0;
#X restore 472 144 pd ezseq-args;
#X text 1196 12 derek kwan;
#X text 1201 29 pdkez 2018;
#X text 1205 51 gpl v 3;
#X obj 660 247 nbx 6 14 0 100 0 0 \$0-ezseq-const \$0-ezseq-const_r
const 77 8 0 12 -262144 -1 -1 0 256;
#X obj 797 207 tgl 15 0 \$0-ezseq-on \$0-ezseq-on_r on 17 7 0 12 -262144
-1 -1 0 1;
#X text 637 76 args:range_lo \, range_hi \, const;
#X obj 345 489 r \$0-ezseq-on;
#X obj 206 515 spigot 0;
#X obj 581 247 bng 15 250 50 0 \$0-ezseq-pre_clear \$0-ezseq-pre_clear_r
pre_clear 17 7 0 12 -262144 -1 -1;
#X floatatom 286 245 7 0 1e+20 1 grain #0-grain_r #0-grain, f 7;
#X obj 739 213 hradio 15 1 0 2 \$0-const_sel \$0-const_sel_r const_sel
0 -8 0 10 -262144 -1 -1 0;
#X floatatom 778 245 5 0 1e+20 1 hi #0-const_hi_r #0-const_hi, f 5
;
#X text 734 227 a/rng;
#X floatatom 775 224 5 0 1e+20 1 lo #0-const_lo_r #0-const_lo, f 5
;
#X text 597 208 input range;
#X floatatom 202 246 5 0 100 1 dec_ch #0-dec_ch_r #0-dec_ch, f 5;
#X obj 331 227 bng 15 250 50 0 \$0-dec_rnd \$0-dec_rnd_r dec_rnd 17
7 0 12 -262144 -1 -1;
#X connect 47 0 54 0;
#X connect 50 0 48 0;
#X connect 51 0 63 0;
#X connect 52 0 53 0;
#X connect 62 0 63 1;
#X connect 63 0 52 0;
#X coords 0 -1 1 1 635 150 1 200 200;
