#N canvas 159 166 1338 1166 12;
#X floatatom 141 218 5 0 1e+20 0 pitch #0-pitch_r #0-pitch, f 5;
#X obj 104 241 tgl 15 0 \$0-midifreq \$0-midifreq_r midi/freq 17 7
0 12 -262144 -1 -1 0 1;
#X obj 159 367 r \$0-pitch;
#X obj 159 422 swap, f 14;
#X obj 157 467 pack f f;
#X obj 157 491 route 0 1;
#X obj 156 525 mtof;
#X obj 156 588 t f b;
#X floatatom 219 221 5 0 1e+20 0 att #0-att_r #0-att, f 5;
#X floatatom 285 221 5 0 1e+20 0 dec #0-dec_r #0-dec, f 5;
#X floatatom 221 245 5 0 1e+20 0 sus #0-sus_r #0-sus, f 5;
#X floatatom 286 246 5 0 1e+20 0 rel #0-rel_r #0-rel, f 5;
#X floatatom 221 267 5 0 1e+20 0 dur #0-dur_r #0-dur, f 5;
#X floatatom 284 271 5 0 1e+20 0 lvl #0-lvl_r #0-lvl, f 5;
#X obj 264 364 r \$0-midifreq;
#X obj 150 263 tgl 15 0 \$0-gate \$0-gate_r gate 17 7 0 12 -262144
-1 -1 0 1;
#X obj 104 265 tgl 15 0 \$0-trigtgl \$0-trigtgl_r trig 17 7 0 12 -262144
-1 -1 1 1;
#X obj 104 295 hradio 15 1 0 3 \$0-osc \$0-osc_r osc 0 -8 0 12 -262144
-1 -1 1;
#X floatatom 188 293 5 0 100 0 duty #0-duty_r #0-duty, f 5;
#X obj 418 404 r \$0-duty;
#X obj 760 516 r \$0-osc;
#X obj 542 536 pdkvabs/dksq~;
#X obj 367 531 osc~;
#X obj 420 532 pdkvabs/dksaw~;
#X obj 760 540 t f f f, f 27;
#X obj 760 564 == 0;
#X obj 843 565 == 1;
#X obj 942 565 == 2;
#X msg 760 588 \$1 5;
#X obj 760 612 line~;
#X msg 843 589 \$1 5;
#X obj 843 613 line~;
#X msg 942 589 \$1 5;
#X obj 942 613 line~;
#X obj 368 637 *~;
#X obj 427 636 *~;
#X obj 418 428 / 100;
#X obj 418 452 t f f;
#X obj 228 295 bng 15 250 50 0 \$0-resetph \$0-resetph_r reset_phase
17 7 0 12 -262144 -1 -1;
#X obj 548 645 *~;
#X obj 122 717 s \$0-freq;
#X obj 343 390 r \$0-freq;
#X obj 343 414 t f f f;
#X obj 368 661 +~;
#X obj 368 685 +~;
#X obj 433 994 *~;
#X obj 524 929 pdkvabs/dkvanadsr~, f 77;
#X obj 563 832 r \$0-att;
#X obj 651 834 r \$0-dec;
#X obj 747 828 r \$0-sus;
#X obj 838 832 r \$0-rel;
#X obj 911 838 r \$0-dur;
#X obj 999 845 r \$0-lvl;
#X obj 250 626 r \$0-trigtgl;
#X obj 188 658 spigot 0;
#X obj 188 682 s \$0-trig;
#X obj 482 690 r \$0-trig;
#X obj 590 675 r \$0-gate;
#X obj 590 699 * 1;
#X obj 676 679 r \$0-lvl;
#X obj 433 1018 outlet~;
#X obj 545 85 inlet;
#X obj 476 235 s \$0-pitch_r;
#X obj 567 280 s \$0-midifreq_r;
#X obj 640 239 s \$0-gate_r;
#X obj 691 282 s \$0-osc_r;
#X obj 710 318 s \$0-duty_r;
#X obj 743 238 s \$0-resetph_r;
#X obj 811 300 s \$0-att_r;
#X obj 825 340 s \$0-dec_r;
#X obj 864 250 s \$0-sus_r;
#X obj 904 284 s \$0-rel_r;
#X obj 924 330 s \$0-dur_r;
#X obj 1003 259 s \$0-lvl_r;
#N canvas 980 137 1327 764 \$0-args_defaults 0;
#X text 69 74 args: osc \, duty \, trig \, midifreq \, att \, dec \,
sus \, release \, dur \, lvl;
#X obj 42 176 loadbang;
#X obj 42 224 f \$1;
#X msg 42 248 osc \$1;
#X obj 183 658 outlet;
#X obj 117 264 f \$2;
#X msg 117 288 duty \$1;
#X obj 197 268 f \$3;
#X msg 199 301 trig \$1;
#X obj 269 269 f \$4;
#X msg 269 293 midifreq \$1;
#X obj 406 275 f \$5;
#X obj 406 299 moses 1e-20;
#X msg 406 323 5;
#X msg 406 347 att \$1;
#X obj 527 283 f \$6;
#X obj 527 307 moses 1e-20;
#X msg 527 331 5;
#X msg 527 355 dec \$1;
#X obj 42 200 t b b b b b b b b b b, f 145;
#X obj 628 286 f \$7;
#X obj 628 310 moses 1e-20;
#X msg 628 334 1;
#X msg 628 358 sus \$1;
#X obj 754 312 f \$8;
#X obj 754 336 moses 1e-20;
#X msg 754 360 5;
#X msg 754 384 rel \$1;
#X obj 926 302 f \$9;
#X obj 926 326 moses 1e-20;
#X msg 926 350 125;
#X msg 926 374 dur \$1;
#X obj 1025 304 f \$10;
#X obj 1025 328 moses 1e-20;
#X msg 1025 352 1;
#X msg 1025 376 lvl \$1;
#X connect 1 0 19 0;
#X connect 2 0 3 0;
#X connect 3 0 4 0;
#X connect 5 0 6 0;
#X connect 6 0 4 0;
#X connect 7 0 8 0;
#X connect 8 0 4 0;
#X connect 9 0 10 0;
#X connect 10 0 4 0;
#X connect 11 0 12 0;
#X connect 12 0 13 0;
#X connect 12 1 14 0;
#X connect 13 0 14 0;
#X connect 14 0 4 0;
#X connect 15 0 16 0;
#X connect 16 0 17 0;
#X connect 16 1 18 0;
#X connect 17 0 18 0;
#X connect 18 0 4 0;
#X connect 19 0 2 0;
#X connect 19 1 5 0;
#X connect 19 2 7 0;
#X connect 19 3 9 0;
#X connect 19 4 11 0;
#X connect 19 5 15 0;
#X connect 19 6 20 0;
#X connect 19 7 24 0;
#X connect 19 8 28 0;
#X connect 19 9 32 0;
#X connect 20 0 21 0;
#X connect 21 0 22 0;
#X connect 21 1 23 0;
#X connect 22 0 23 0;
#X connect 23 0 4 0;
#X connect 24 0 25 0;
#X connect 25 0 26 0;
#X connect 25 1 27 0;
#X connect 26 0 27 0;
#X connect 27 0 4 0;
#X connect 28 0 29 0;
#X connect 29 0 30 0;
#X connect 29 1 31 0;
#X connect 30 0 31 0;
#X connect 31 0 4 0;
#X connect 32 0 33 0;
#X connect 33 0 34 0;
#X connect 33 1 35 0;
#X connect 34 0 35 0;
#X connect 35 0 4 0;
#X restore 648 50 pd \$0-args_defaults;
#X obj 541 179 route pitch midifreq trig gate osc duty reset_phase
att dec sus rel dur lvl;
#X text 69 74 args: osc \, duty \, trig \, midifreq \, att \, dec \,
sus \, release \, dur \, lvl;
#X text 932 65 derek kwan;
#X text 934 85 pdkez;
#X text 934 104 gpl v 3 2018;
#X obj 596 316 s \$0-trigtgl_r;
#X obj 545 109 route float;
#X connect 2 0 3 0;
#X connect 3 0 4 0;
#X connect 3 1 4 1;
#X connect 4 0 5 0;
#X connect 5 0 6 0;
#X connect 5 1 7 0;
#X connect 6 0 7 0;
#X connect 7 0 40 0;
#X connect 7 1 54 0;
#X connect 14 0 3 1;
#X connect 19 0 36 0;
#X connect 20 0 24 0;
#X connect 21 0 39 0;
#X connect 22 0 34 0;
#X connect 23 0 35 0;
#X connect 24 0 25 0;
#X connect 24 1 26 0;
#X connect 24 2 27 0;
#X connect 25 0 28 0;
#X connect 26 0 30 0;
#X connect 27 0 32 0;
#X connect 28 0 29 0;
#X connect 29 0 34 1;
#X connect 30 0 31 0;
#X connect 31 0 35 1;
#X connect 32 0 33 0;
#X connect 33 0 39 1;
#X connect 34 0 43 0;
#X connect 35 0 43 1;
#X connect 36 0 37 0;
#X connect 37 0 23 1;
#X connect 37 1 21 1;
#X connect 39 0 44 1;
#X connect 41 0 42 0;
#X connect 42 0 22 0;
#X connect 42 1 23 0;
#X connect 42 2 21 0;
#X connect 43 0 44 0;
#X connect 44 0 45 0;
#X connect 45 0 60 0;
#X connect 46 0 45 1;
#X connect 47 0 46 1;
#X connect 48 0 46 2;
#X connect 49 0 46 3;
#X connect 50 0 46 4;
#X connect 51 0 46 5;
#X connect 52 0 46 6;
#X connect 53 0 54 1;
#X connect 54 0 55 0;
#X connect 56 0 46 0;
#X connect 57 0 58 0;
#X connect 58 0 46 0;
#X connect 59 0 58 1;
#X connect 61 0 81 0;
#X connect 74 0 75 0;
#X connect 75 0 62 0;
#X connect 75 1 63 0;
#X connect 75 2 80 0;
#X connect 75 3 64 0;
#X connect 75 4 65 0;
#X connect 75 5 66 0;
#X connect 75 6 67 0;
#X connect 75 7 68 0;
#X connect 75 8 69 0;
#X connect 75 9 70 0;
#X connect 75 10 71 0;
#X connect 75 11 72 0;
#X connect 75 12 73 0;
#X connect 81 0 62 0;
#X connect 81 1 75 0;
#X coords 0 -1 1 1 225 115 1 100 200;
