#N canvas 1100 342 1000 931 12;
#N canvas 1398 482 796 761 \$0-ezfftfilt 0;
#X obj 68 103 inlet~;
#X obj 60 189 *~;
#X obj 225 133 pdkvabs/dkhannblock~ 1024;
#X obj 21 252 rfft~;
#X obj 201 274 *~;
#X obj 201 222 tabreceive~ \$0-ezfftgain;
#X obj 201 312 *~;
#X obj 201 337 /~ 1536;
#X obj 433 226 * 3;
#X obj 433 251 / 2;
#X obj 20 445 *~;
#X obj 71 448 *~;
#X obj 20 497 rifft~;
#X obj 20 522 *~;
#X obj 20 547 outlet~;
#X obj 478 319 block~;
#X obj 496 101 inlet;
#X msg 472 201 set \$1 4;
#X connect 0 0 1 0;
#X connect 1 0 3 0;
#X connect 2 0 1 1;
#X connect 2 0 13 1;
#X connect 3 0 10 0;
#X connect 3 1 11 0;
#X connect 4 0 6 0;
#X connect 4 0 6 1;
#X connect 5 0 4 0;
#X connect 5 0 4 1;
#X connect 6 0 7 0;
#X connect 7 0 10 1;
#X connect 7 0 11 1;
#X connect 8 0 9 0;
#X connect 9 0 7 1;
#X connect 10 0 12 0;
#X connect 11 0 12 1;
#X connect 12 0 13 0;
#X connect 13 0 14 0;
#X connect 16 0 8 0;
#X connect 16 0 17 0;
#X connect 17 0 15 0;
#X restore 18 514 pd \$0-ezfftfilt;
#N canvas 0 50 450 250 (subpatch) 0;
#X array \$0-ezfftgain 512 float 1;
#A 0 1 1 1 1 1 1 1 1 1 1 1 1 1 1 1 1 1 1 1 1 1 1 1 1 1 1 1 1 1 1 1
1 1 1 1 1 1 1 1 1 1 1 1 1 1 1 1 1 1 1 1 1 1 1 1 1 1 1 1 1 1 1 1 1 1
1 1 1 1 1 1 1 1 1 1 1 1 1 1 1 1 1 1 1 1 1 1 1 1 1 1 1 1 1 1 1 1 1 1
1 1 1 1 1 1 1 1 1 1 1 1 1 1 1 1 1 1 1 1 1 1 1 1 1 1 1 1 1 1 1 1 1 1
1 1 1 1 1 1 1 1 1 1 1 1 1 1 1 1 1 1 1 1 1 1 1 1 1 1 1 1 1 1 1 1 1 1
1 1 1 1 1 1 1 1 1 1 1 1 1 1 1 1 1 1 1 1 1 1 1 1 1 1 1 1 1 1 1 1 1 1
1 1 1 1 1 1 1 1 1 1 1 1 1 1 1 1 1 1 1 1 1 1 1 1 1 1 1 1 1 1 1 1 1 1
1 1 1 1 1 1 1 1 1 1 1 1 1 1 1 1 1 1 1 1 1 1 1 1 1 1 1 1 1 1 1 1 1 1
1 1 1 1 1 1 1 1 1 1 1 1 1 1 1 1 1 1 1 1 1 1 1 1 1 1 1 1 1 1 1 1 1 1
1 1 1 1 1 1 1 1 1 1 1 1 1 1 1 1 1 1 1 1 1 1 1 1 1 1 1 1 1 1 1 1 1 1
1 1 1 1 1 1 1 1 1 1 1 1 1 1 1 1 1 1 1 1 1 1 1 1 1 1 1 1 1 1 1 1 1 1
1 1 1 1 1 1 1 1 1 1 1 1 1 1 1 1 1 1 1 1 1 1 1 1 1 1 1 1 1 1 1 1 1 1
1 1 1 1 1 1 1 1 1 1 1 1 1 1 1 1 1 1 1 1 1 1 1 1 1 1 1 1 1 1 1 1 1 1
1 1 1 1 1 1 1 1 1 1 1 1 1 1 1 1 1 1 1 1 1 1 1 1 1 1 1 1 1 1 1 1 1 1
1 1 1 1 1 1 1 1 1 1 1 1 1 1 1 1 1 1 1 1 1 1 1 1 1 1 1 1 1 1 1 1 1 1
1 1 1 1 1;
#X coords 0 1 511 -0.01 200 140 1;
#X restore 123 149 graph;
#X obj 664 391 - 1;
#X obj 468 406 pack \$0 \$1 \$2;
#X msg 636 241 1024;
#X msg 468 431 \; \$1-ezfftgain resize \$2 \; \$1-ezfftgain bounds
0 1 \$3 -0.01 \; \$1-ezfftgain xticks 0 128 4 \; \$1-ezfftgain yticks
0 0.1 5 \;;
#X text 103 272 0;
#X text 107 139 1;
#X text 301 288 22k;
#X obj 464 168 loadbang;
#X obj 627 199 moses 1e-20;
#X obj 20 558 pdkvabs/dkswitch2~;
#X obj 341 153 vsl 15 128 0 1 0 0 empty empty gain 0 -9 0 10 -262144
-1 -1 12700 1;
#X floatatom 329 288 5 0 0 0 - - -, f 5;
#X obj 287 355 t b f;
#X obj 268 395 pack \$0 f;
#X msg 268 420 \; \$1-ezfftgain const \$2;
#X msg 421 270 1;
#X obj 471 205 t b b b;
#X obj 166 21 inlet~;
#X obj 313 122 tgl 15 0 empty empty bypass 17 7 0 10 -262144 -1 -1
0 1;
#X obj 20 583 outlet~;
#X text 22 53 args: fft size;
#X obj 636 282 pdkvabs/dknearpow2;
#X obj 636 356 / 2;
#X text 873 112 pdkez;
#X text 875 80 derek kwan;
#X text 875 147 gpl v 3 2017;
#X text 21 17 dkezspectfiltM~;
#X obj 782 31 inlet;
#X obj 612 165 f \$1;
#X text 834 25 bypass;
#X obj 404 27 inlet;
#X text 458 30 gainlist;
#X obj 407 101 s \$0-ezfftgain;
#X obj 588 31 inlet;
#X text 640 32 overall gain;
#X msg 588 56 const \$1;
#X text 230 23 sig;
#N canvas 1398 482 796 761 \$0-ezfftfilt 0;
#X obj 68 103 inlet~;
#X obj 60 189 *~;
#X obj 225 133 pdkvabs/dkhannblock~ 1024;
#X obj 21 252 rfft~;
#X obj 201 274 *~;
#X obj 201 222 tabreceive~ \$0-ezfftgain;
#X obj 201 312 *~;
#X obj 201 337 /~ 1536;
#X obj 433 226 * 3;
#X obj 433 251 / 2;
#X obj 20 445 *~;
#X obj 71 448 *~;
#X obj 20 497 rifft~;
#X obj 20 522 *~;
#X obj 20 547 outlet~;
#X obj 478 319 block~;
#X obj 496 101 inlet;
#X msg 472 201 set \$1 4;
#X connect 0 0 1 0;
#X connect 1 0 3 0;
#X connect 2 0 1 1;
#X connect 2 0 13 1;
#X connect 3 0 10 0;
#X connect 3 1 11 0;
#X connect 4 0 6 0;
#X connect 4 0 6 1;
#X connect 5 0 4 0;
#X connect 5 0 4 1;
#X connect 6 0 7 0;
#X connect 7 0 10 1;
#X connect 7 0 11 1;
#X connect 8 0 9 0;
#X connect 9 0 7 1;
#X connect 10 0 12 0;
#X connect 11 0 12 1;
#X connect 12 0 13 0;
#X connect 13 0 14 0;
#X connect 16 0 8 0;
#X connect 16 0 17 0;
#X connect 17 0 15 0;
#X restore 201 504 pd \$0-ezfftfilt;
#X obj 201 563 pdkvabs/dkswitch2~;
#X obj 201 588 outlet~;
#X obj 268 25 inlet~;
#X connect 0 0 11 0;
#X connect 2 0 3 2;
#X connect 3 0 5 0;
#X connect 4 0 23 0;
#X connect 9 0 18 0;
#X connect 10 0 4 0;
#X connect 10 1 23 0;
#X connect 11 0 21 0;
#X connect 12 0 13 0;
#X connect 12 0 14 0;
#X connect 14 0 15 0;
#X connect 14 1 15 1;
#X connect 15 0 16 0;
#X connect 17 0 12 0;
#X connect 18 0 17 0;
#X connect 18 1 3 0;
#X connect 18 2 30 0;
#X connect 19 0 0 0;
#X connect 19 0 11 1;
#X connect 20 0 11 2;
#X connect 20 0 40 2;
#X connect 23 0 0 1;
#X connect 23 0 24 0;
#X connect 23 0 39 1;
#X connect 24 0 3 1;
#X connect 24 0 2 0;
#X connect 29 0 20 0;
#X connect 30 0 10 0;
#X connect 32 0 34 0;
#X connect 35 0 37 0;
#X connect 37 0 34 0;
#X connect 39 0 40 0;
#X connect 40 0 41 0;
#X connect 42 0 39 0;
#X connect 42 0 40 1;
#X coords 0 -1 1 1 275 215 1 100 100;
