#N canvas 711 564 1113 710 12;
#N canvas 346 477 1065 553 \$0-ezfftgate 0;
#X obj 125 62 inlet~;
#X obj 125 87 *~;
#X obj 216 87 pdkvabs/dkhannblock~;
#X obj 224 341 /~ 1536;
#X obj 682 151 * 3;
#X obj 682 176 / 2;
#X obj 727 244 block~;
#X obj 745 26 inlet;
#X msg 721 126 set \$1 4;
#X text 802 23 fft size;
#X obj 125 112 rfft~;
#X obj 209 167 pdkvabs/dkcmag~;
#X obj 219 250 pdkvabs/dkge~;
#X obj 349 251 pdkvabs/dkle~;
#X obj 433 89 inlet~;
#X text 497 88 comparator;
#X text 196 66 input;
#X obj 124 392 *~;
#X obj 186 390 *~;
#X obj 228 306 pdkvabs/dkswitch2~;
#X obj 124 417 rifft~;
#X obj 124 442 *~;
#X obj 124 467 outlet~;
#X obj 574 32 inlet;
#X text 630 35 above/below;
#X connect 0 0 1 0;
#X connect 1 0 10 0;
#X connect 2 0 1 1;
#X connect 2 0 21 1;
#X connect 3 0 17 1;
#X connect 3 0 18 1;
#X connect 4 0 5 0;
#X connect 5 0 3 1;
#X connect 7 0 4 0;
#X connect 7 0 8 0;
#X connect 8 0 6 0;
#X connect 10 0 11 0;
#X connect 10 0 17 0;
#X connect 10 1 11 1;
#X connect 10 1 18 0;
#X connect 11 0 12 0;
#X connect 11 0 13 0;
#X connect 12 0 19 0;
#X connect 13 0 19 1;
#X connect 14 0 12 1;
#X connect 14 0 13 1;
#X connect 17 0 20 0;
#X connect 18 0 20 1;
#X connect 19 0 3 0;
#X connect 20 0 21 0;
#X connect 21 0 22 0;
#X connect 23 0 19 2;
#X restore 126 476 pd \$0-ezfftgate;
#X obj 127 519 pdkvabs/dkswitch2~;
#X obj 127 544 outlet~;
#X obj 135 211 hradio 15 1 0 2 empty \$0-ezspectgate_sel abv/blw 0
-8 0 10 -262144 -1 -1 0;
#X obj 110 141 vsl 15 128 0 3 0 0 empty \$0-ezspectgate_thresh thresh
0 -9 0 10 -262144 -1 -1 6900 1;
#X floatatom 110 277 5 0 0 0 - - -, f 5;
#X msg 122 336 \$1 2;
#X obj 122 361 line~;
#X obj 49 72 inlet~;
#X text 21 43 args: fftsize \, thresh \, above/below (0/1);
#X text 112 72 sig~;
#X obj 129 243 tgl 15 0 empty empty bypass 17 7 0 10 -262144 -1 -1
0 1;
#X obj 213 86 inlet;
#X text 267 87 thresh;
#X obj 213 111 s \$0-ezspectgate_thresh;
#X obj 432 87 inlet;
#X text 489 87 above/below;
#X obj 432 112 s \$0-ezspectgate_sel;
#X msg 505 316 1024;
#X obj 432 148 loadbang;
#X obj 496 274 moses 1e-20;
#X obj 505 357 pdkvabs/dknearpow2;
#X obj 481 240 f \$1;
#X obj 435 485 pack \$0 f f;
#X msg 403 552 \; \$1-ezspectgate_thresh \$2 \; \$1-ezspectgate_sel
\$3 \;;
#X obj 439 185 t b b, f 27;
#X obj 660 246 f \$2;
#X obj 733 248 f \$3;
#X text 666 213 thresh;
#X text 775 205 above/below;
#X obj 625 91 inlet;
#X text 685 85 bypass;
#X text 964 52 pdkez;
#X text 966 20 derek kwan;
#X text 966 87 gpl v 3 2017;
#X text 25 11 dkezspectgateM~-only pass freqs above/below a certain
thresh;
#X obj 139 403 *~;
#X obj 139 428 *~;
#X connect 0 0 1 0;
#X connect 1 0 2 0;
#X connect 3 0 0 2;
#X connect 4 0 5 0;
#X connect 4 0 6 0;
#X connect 6 0 7 0;
#X connect 7 0 36 0;
#X connect 7 0 36 1;
#X connect 8 0 0 0;
#X connect 8 0 1 1;
#X connect 11 0 1 2;
#X connect 12 0 14 0;
#X connect 15 0 17 0;
#X connect 18 0 21 0;
#X connect 19 0 25 0;
#X connect 20 0 18 0;
#X connect 20 1 21 0;
#X connect 21 0 0 3;
#X connect 22 0 20 0;
#X connect 23 0 24 0;
#X connect 25 0 23 0;
#X connect 25 1 22 0;
#X connect 25 1 26 0;
#X connect 25 1 27 0;
#X connect 26 0 23 1;
#X connect 27 0 23 2;
#X connect 30 0 11 0;
#X connect 36 0 37 0;
#X connect 36 0 37 1;
#X connect 37 0 0 1;
#X coords 0 -1 1 1 85 200 1 100 100;
