#N canvas 711 564 1113 710 12;
#X obj 32 555 pdkvabs/dkswitch2~;
#X obj 32 580 outlet~;
#X obj 199 130 hradio 15 1 0 2 empty \$0-ezspectgate_sel abv/blw 0
-8 0 10 -262144 -1 -1 0;
#X floatatom 244 148 5 0 0 0 - - -, f 5;
#X msg 122 336 \$1 2;
#X obj 122 361 line~;
#X obj 49 72 inlet~;
#X text 21 43 args: fftsize \, thresh \, above/below (0/1);
#X text 112 72 sig~;
#X obj 238 128 tgl 15 0 empty empty bypass 17 7 0 10 -262144 -1 -1
0 1;
#X obj 339 75 inlet;
#X text 393 76 thresh;
#X obj 339 100 s \$0-ezspectgate_thresh;
#X obj 558 76 inlet;
#X text 615 76 above/below;
#X obj 558 101 s \$0-ezspectgate_sel;
#X msg 505 316 1024;
#X obj 432 148 loadbang;
#X obj 496 274 moses 1e-20;
#X obj 505 357 pdkvabs/dknearpow2;
#X obj 481 240 f \$1;
#X obj 435 485 pack \$0 f f;
#X msg 403 552 \; \$1-ezspectgate_thresh \$2 \; \$1-ezspectgate_sel
\$3 \;;
#X obj 439 185 t b b, f 27;
#X obj 660 246 f \$2;
#X obj 733 248 f \$3;
#X text 666 213 thresh;
#X text 775 205 above/below;
#X obj 751 80 inlet;
#X text 811 74 bypass;
#X text 964 52 pdkez;
#X text 966 20 derek kwan;
#X text 966 87 gpl v 3 2017;
#X obj 139 403 *~;
#X obj 139 428 *~;
#X text 25 11 dkezspectgateS~-only pass freqs above/below a certain
thresh;
#X obj 207 553 pdkvabs/dkswitch2~;
#X obj 207 578 outlet~;
#X obj 235 78 inlet~;
#X msg 317 290 0;
#X obj 57 500 dkezfftgate_h~;
#X obj 229 500 dkezfftgate_h~;
#X obj 312 362 == 0;
#X obj 107 149 hsl 128 15 0 127 0 0 empty \$0-ezspectgate_thresh thresh
-2 -8 0 10 -262144 -1 -1 0 1;
#X connect 0 0 1 0;
#X connect 2 0 40 2;
#X connect 2 0 41 2;
#X connect 4 0 5 0;
#X connect 5 0 33 0;
#X connect 5 0 33 1;
#X connect 6 0 0 1;
#X connect 6 0 40 0;
#X connect 9 0 0 2;
#X connect 9 0 36 2;
#X connect 9 0 42 0;
#X connect 10 0 12 0;
#X connect 13 0 15 0;
#X connect 16 0 19 0;
#X connect 17 0 23 0;
#X connect 18 0 16 0;
#X connect 18 1 19 0;
#X connect 19 0 40 3;
#X connect 19 0 41 3;
#X connect 20 0 18 0;
#X connect 21 0 22 0;
#X connect 23 0 21 0;
#X connect 23 0 39 0;
#X connect 23 1 20 0;
#X connect 23 1 24 0;
#X connect 23 1 25 0;
#X connect 24 0 21 1;
#X connect 25 0 21 2;
#X connect 28 0 9 0;
#X connect 33 0 34 0;
#X connect 33 0 34 1;
#X connect 34 0 40 1;
#X connect 34 0 41 1;
#X connect 36 0 37 0;
#X connect 38 0 36 1;
#X connect 38 0 41 0;
#X connect 39 0 9 0;
#X connect 40 0 0 0;
#X connect 41 0 36 0;
#X connect 42 0 40 4;
#X connect 42 0 41 4;
#X connect 43 0 3 0;
#X connect 43 0 4 0;
#X coords 0 -1 1 1 200 70 1 100 100;
