#N canvas 173 234 1355 1024 12;
#X floatatom 273 279 6 0 0 0 - #0-eznobu-seq1_r #0-eznobu-seq1, f
6;
#X floatatom 226 279 6 0 0 0 - #0-eznobu-seq0_r #0-eznobu-seq0, f
6;
#X floatatom 367 279 6 0 0 0 - #0-eznobu-seq3_r #0-eznobu-seq3, f
6;
#X floatatom 320 279 6 0 0 0 - #0-eznobu-seq2_r #0-eznobu-seq2, f
6;
#X floatatom 462 279 6 0 0 0 - #0-eznobu-seq5_r #0-eznobu-seq5, f
6;
#X floatatom 414 279 6 0 0 0 - #0-eznobu-seq4_r #0-eznobu-seq4, f
6;
#X floatatom 557 279 6 0 0 0 - #0-eznobu-seq7_r #0-eznobu-seq7, f
6;
#X floatatom 510 279 6 0 0 0 - #0-eznobu-seq6_r #0-eznobu-seq6, f
6;
#X floatatom 273 301 6 0 0 0 - #0-eznobu-seq9_r #0-eznobu-seq9, f
6;
#X floatatom 226 301 6 0 0 0 - #0-eznobu-seq8_r #0-eznobu-seq8, f
6;
#X floatatom 367 301 6 0 0 0 - #0-eznobu-seq10_r #0-eznobu-seq10,
f 6;
#X floatatom 320 301 6 0 0 0 - #0-eznobu-seq11_r #0-eznobu-seq11,
f 6;
#X floatatom 462 301 6 0 0 0 - #0-eznobu-seq13_r #0-eznobu-seq13,
f 6;
#X floatatom 414 301 6 0 0 0 - #0-eznobu-seq12_r #0-eznobu-seq12,
f 6;
#X floatatom 557 301 6 0 0 0 - #0-eznobu-seq15_r #0-eznobu-seq15,
f 6;
#X floatatom 510 301 6 0 0 0 - #0-eznobu-seq14_r #0-eznobu-seq14,
f 6;
#X floatatom 273 323 6 0 0 0 - #0-eznobu-seq17_r #0-eznobu-seq17,
f 6;
#X floatatom 226 323 6 0 0 0 - #0-eznobu-seq16_r #0-eznobu-seq16,
f 6;
#X floatatom 367 323 6 0 0 0 - #0-eznobu-seq19_r #0-eznobu-seq19,
f 6;
#X floatatom 320 323 6 0 0 0 - #0-eznobu-seq18_r #0-eznobu-seq18,
f 6;
#X floatatom 462 323 6 0 0 0 - #0-eznobu-seq21_r #0-eznobu-seq21,
f 6;
#X floatatom 414 323 6 0 0 0 - #0-eznobu-seq20_r #0-eznobu-seq20,
f 6;
#X floatatom 557 323 6 0 0 0 - #0-eznobu-seq23_r #0-eznobu-seq23,
f 6;
#X floatatom 510 323 6 0 0 0 - #0-eznobu-seq22_r #0-eznobu-seq22,
f 6;
#X floatatom 273 344 6 0 0 0 - #0-eznobu-seq25_r #0-eznobu-seq25,
f 6;
#X floatatom 226 344 6 0 0 0 - #0-eznobu-seq24_r #0-eznobu-seq24,
f 6;
#X floatatom 367 344 6 0 0 0 - #0-eznobu-seq27_r #0-eznobu-seq27,
f 6;
#X floatatom 320 344 6 0 0 0 - #0-eznobu-seq26_r #0-eznobu-seq26,
f 6;
#X floatatom 462 344 6 0 0 0 - #0-eznobu-seq29_r #0-eznobu-seq29,
f 6;
#X floatatom 414 344 6 0 0 0 - #0-eznobu-seq28_r #0-eznobu-seq28,
f 6;
#X floatatom 557 344 6 0 0 0 - #0-eznobu-seq31_r #0-eznobu-seq31,
f 6;
#X floatatom 510 344 6 0 0 0 - #0-eznobu-seq30_r #0-eznobu-seq30,
f 6;
#X floatatom 702 275 10 0 1e+30 0 - #0-eznobu-loc1_r #0-eznobu-loc1
, f 10;
#X floatatom 626 275 10 0 1e+30 0 - #0-eznobu-loc0_r #0-eznobu-loc0
, f 10;
#X floatatom 855 275 10 0 1e+30 0 - #0-eznobu-loc3_r #0-eznobu-loc3
, f 10;
#X floatatom 779 275 10 0 1e+30 0 - #0-eznobu-loc2_r #0-eznobu-loc2
, f 10;
#X floatatom 702 298 10 0 1e+30 0 - #0-eznobu-loc5_r #0-eznobu-loc5
, f 10;
#X floatatom 626 298 10 0 1e+30 0 - #0-eznobu-loc4_r #0-eznobu-loc4
, f 10;
#X floatatom 855 298 10 0 1e+30 0 - #0-eznobu-loc7_r #0-eznobu-loc7
, f 10;
#X floatatom 779 298 10 0 1e+30 0 - #0-eznobu-loc6_r #0-eznobu-loc6
, f 10;
#X floatatom 702 321 10 0 1e+30 0 - #0-eznobu-loc9_r #0-eznobu-loc9
, f 10;
#X floatatom 626 321 10 0 1e+30 0 - #0-eznobu-loc8_r #0-eznobu-loc8
, f 10;
#X floatatom 855 321 10 0 1e+30 0 - #0-eznobu-loc11_r #0-eznobu-loc11
, f 10;
#X floatatom 779 321 10 0 1e+30 0 - #0-eznobu-loc10_r #0-eznobu-loc10
, f 10;
#X floatatom 702 343 10 0 1e+30 0 - #0-eznobu-loc13_r #0-eznobu-loc13
, f 10;
#X floatatom 626 343 10 0 1e+30 0 - #0-eznobu-loc12_r #0-eznobu-loc12
, f 10;
#X floatatom 855 343 10 0 1e+30 0 - #0-eznobu-loc15_r #0-eznobu-loc15
, f 10;
#X floatatom 779 343 10 0 1e+30 0 - #0-eznobu-loc14_r #0-eznobu-loc14
, f 10;
#X text 206 299 8;
#X text 201 322 16;
#X text 200 345 24;
#X obj 206 946 pdkvabs/dknobu~ \$1 \$0-dkeznobu-loc 125;
#X obj 203 14 inlet;
#N canvas 1 248 1246 997 eznobu-locstuff 0;
#X obj 90 179 array set \$0-dkeznobu-loc;
#N canvas 282 144 1598 791 eznobu-locrcv 0;
#X obj 67 729 outlet;
#X obj 167 729 outlet;
#X obj 100 100 r \$0-eznobu-loc0;
#X obj 100 130 t f b;
#X msg 120 160 0;
#X obj 225 100 r \$0-eznobu-loc1;
#X obj 225 130 t f b;
#X msg 245 160 1;
#X obj 350 100 r \$0-eznobu-loc2;
#X obj 350 130 t f b;
#X msg 370 160 2;
#X obj 475 100 r \$0-eznobu-loc3;
#X obj 475 130 t f b;
#X msg 495 160 3;
#X obj 600 100 r \$0-eznobu-loc4;
#X obj 600 130 t f b;
#X msg 620 160 4;
#X obj 725 100 r \$0-eznobu-loc5;
#X obj 725 130 t f b;
#X msg 745 160 5;
#X obj 323 212 r \$0-eznobu-loc6;
#X obj 323 242 t f b;
#X msg 343 272 6;
#X obj 448 212 r \$0-eznobu-loc7;
#X obj 448 242 t f b;
#X msg 468 272 7;
#X obj 573 212 r \$0-eznobu-loc8;
#X obj 573 242 t f b;
#X msg 593 272 8;
#X obj 698 212 r \$0-eznobu-loc9;
#X obj 698 242 t f b;
#X msg 718 272 9;
#X obj 823 212 r \$0-eznobu-loc10;
#X obj 823 242 t f b;
#X msg 843 272 10;
#X obj 948 212 r \$0-eznobu-loc11;
#X obj 948 242 t f b;
#X msg 968 272 11;
#X obj 1073 212 r \$0-eznobu-loc12;
#X obj 1073 242 t f b;
#X msg 1093 272 12;
#X obj 1198 212 r \$0-eznobu-loc13;
#X obj 1198 242 t f b;
#X msg 1218 272 13;
#X obj 342 360 r \$0-eznobu-loc14;
#X obj 342 390 t f b;
#X msg 362 420 14;
#X obj 467 360 r \$0-eznobu-loc15;
#X obj 467 390 t f b;
#X msg 487 420 15;
#X obj 592 360 r \$0-eznobu-loc16;
#X obj 592 390 t f b;
#X msg 612 420 16;
#X obj 717 360 r \$0-eznobu-loc17;
#X obj 717 390 t f b;
#X msg 737 420 17;
#X obj 842 360 r \$0-eznobu-loc18;
#X obj 842 390 t f b;
#X msg 862 420 18;
#X obj 967 360 r \$0-eznobu-loc19;
#X obj 967 390 t f b;
#X msg 987 420 19;
#X obj 1092 360 r \$0-eznobu-loc20;
#X obj 1092 390 t f b;
#X msg 1112 420 20;
#X obj 1217 360 r \$0-eznobu-loc21;
#X obj 1217 390 t f b;
#X msg 1237 420 21;
#X obj 326 484 r \$0-eznobu-loc22;
#X obj 326 514 t f b;
#X msg 346 544 22;
#X obj 451 484 r \$0-eznobu-loc23;
#X obj 451 514 t f b;
#X msg 471 544 23;
#X obj 576 484 r \$0-eznobu-loc24;
#X obj 576 514 t f b;
#X msg 596 544 24;
#X obj 701 484 r \$0-eznobu-loc25;
#X obj 701 514 t f b;
#X msg 721 544 25;
#X obj 826 484 r \$0-eznobu-loc26;
#X obj 826 514 t f b;
#X msg 846 544 26;
#X obj 951 484 r \$0-eznobu-loc27;
#X obj 951 514 t f b;
#X msg 971 544 27;
#X obj 1076 484 r \$0-eznobu-loc28;
#X obj 1076 514 t f b;
#X msg 1096 544 28;
#X obj 1201 484 r \$0-eznobu-loc29;
#X obj 1201 514 t f b;
#X msg 1221 544 29;
#X obj 1326 484 r \$0-eznobu-loc30;
#X obj 1326 514 t f b;
#X msg 1346 544 30;
#X obj 1451 484 r \$0-eznobu-loc31;
#X obj 1451 514 t f b;
#X msg 1471 544 31;
#X connect 2 0 3 0;
#X connect 3 0 0 0;
#X connect 3 1 4 0;
#X connect 4 0 1 0;
#X connect 5 0 6 0;
#X connect 6 0 0 0;
#X connect 6 1 7 0;
#X connect 7 0 1 0;
#X connect 8 0 9 0;
#X connect 9 0 0 0;
#X connect 9 1 10 0;
#X connect 10 0 1 0;
#X connect 11 0 12 0;
#X connect 12 0 0 0;
#X connect 12 1 13 0;
#X connect 13 0 1 0;
#X connect 14 0 15 0;
#X connect 15 0 0 0;
#X connect 15 1 16 0;
#X connect 16 0 1 0;
#X connect 17 0 18 0;
#X connect 18 0 0 0;
#X connect 18 1 19 0;
#X connect 19 0 1 0;
#X connect 20 0 21 0;
#X connect 21 0 0 0;
#X connect 21 1 22 0;
#X connect 22 0 1 0;
#X connect 23 0 24 0;
#X connect 24 0 0 0;
#X connect 24 1 25 0;
#X connect 25 0 1 0;
#X connect 26 0 27 0;
#X connect 27 0 0 0;
#X connect 27 1 28 0;
#X connect 28 0 1 0;
#X connect 29 0 30 0;
#X connect 30 0 0 0;
#X connect 30 1 31 0;
#X connect 31 0 1 0;
#X connect 32 0 33 0;
#X connect 33 0 0 0;
#X connect 33 1 34 0;
#X connect 34 0 1 0;
#X connect 35 0 36 0;
#X connect 36 0 0 0;
#X connect 36 1 37 0;
#X connect 37 0 1 0;
#X connect 38 0 39 0;
#X connect 39 0 0 0;
#X connect 39 1 40 0;
#X connect 40 0 1 0;
#X connect 41 0 42 0;
#X connect 42 0 0 0;
#X connect 42 1 43 0;
#X connect 43 0 1 0;
#X connect 44 0 45 0;
#X connect 45 0 0 0;
#X connect 45 1 46 0;
#X connect 46 0 1 0;
#X connect 47 0 48 0;
#X connect 48 0 0 0;
#X connect 48 1 49 0;
#X connect 49 0 1 0;
#X connect 50 0 51 0;
#X connect 51 0 0 0;
#X connect 51 1 52 0;
#X connect 52 0 1 0;
#X connect 53 0 54 0;
#X connect 54 0 0 0;
#X connect 54 1 55 0;
#X connect 55 0 1 0;
#X connect 56 0 57 0;
#X connect 57 0 0 0;
#X connect 57 1 58 0;
#X connect 58 0 1 0;
#X connect 59 0 60 0;
#X connect 60 0 0 0;
#X connect 60 1 61 0;
#X connect 61 0 1 0;
#X connect 62 0 63 0;
#X connect 63 0 0 0;
#X connect 63 1 64 0;
#X connect 64 0 1 0;
#X connect 65 0 66 0;
#X connect 66 0 0 0;
#X connect 66 1 67 0;
#X connect 67 0 1 0;
#X connect 68 0 69 0;
#X connect 69 0 0 0;
#X connect 69 1 70 0;
#X connect 70 0 1 0;
#X connect 71 0 72 0;
#X connect 72 0 0 0;
#X connect 72 1 73 0;
#X connect 73 0 1 0;
#X connect 74 0 75 0;
#X connect 75 0 0 0;
#X connect 75 1 76 0;
#X connect 76 0 1 0;
#X connect 77 0 78 0;
#X connect 78 0 0 0;
#X connect 78 1 79 0;
#X connect 79 0 1 0;
#X connect 80 0 81 0;
#X connect 81 0 0 0;
#X connect 81 1 82 0;
#X connect 82 0 1 0;
#X connect 83 0 84 0;
#X connect 84 0 0 0;
#X connect 84 1 85 0;
#X connect 85 0 1 0;
#X connect 86 0 87 0;
#X connect 87 0 0 0;
#X connect 87 1 88 0;
#X connect 88 0 1 0;
#X connect 89 0 90 0;
#X connect 90 0 0 0;
#X connect 90 1 91 0;
#X connect 91 0 1 0;
#X connect 92 0 93 0;
#X connect 93 0 0 0;
#X connect 93 1 94 0;
#X connect 94 0 1 0;
#X connect 95 0 96 0;
#X connect 96 0 0 0;
#X connect 96 1 97 0;
#X connect 97 0 1 0;
#X restore 81 108 pd eznobu-locrcv;
#X obj 301 73 savepanel;
#X msg 301 97 write \$1;
#X msg 559 100 read \$1;
#X obj 559 76 openpanel;
#X obj 293 149 text define \$0-eznobu-loc_pretxt;
#X obj 559 52 r \$0-eznobu-loc_pre_load;
#X obj 301 49 r \$0-eznobu-loc_pre_save;
#N canvas 663 440 768 543 eznobu-loc_lister 0;
#X obj 110 117 list length;
#X obj 116 71 t l l, f 21;
#X obj 101 157 pdkvabs/dkfor;
#X msg 101 240 get \$1 1;
#X obj 101 181 t f f, f 13;
#X obj 101 264 list store, f 25;
#X obj 113 328 s;
#X obj 192 291 makefilename \$0-eznobu-loc%d_r;
#X obj 116 47 r \$0-eznobu-loc_list;
#X connect 0 0 2 0;
#X connect 1 0 0 0;
#X connect 1 1 5 1;
#X connect 2 0 4 0;
#X connect 3 0 5 0;
#X connect 4 0 3 0;
#X connect 4 1 7 0;
#X connect 5 0 6 0;
#X connect 7 0 6 1;
#X connect 8 0 1 0;
#X restore 49 222 pd eznobu-loc_lister;
#N canvas 1317 291 753 544 eznobu-loc_rnder 0;
#X obj 166 110 pdkvabs/dkfor;
#X obj 93 500 s, f 26;
#X obj 163 235 t b f, f 13;
#X obj 256 284 makefilename \$0-eznobu-loc%d_r;
#X text 237 60 randomize;
#X obj 296 226 r \$0-eznobu-absrel;
#X obj 162 283 f;
#X obj 94 326 sel 0 1, f 69;
#X obj 97 413 t f b;
#X obj 147 447 array size \$1;
#X obj 210 411 r \$0-eznobu-array;
#X obj 97 389 pdkvabs/dkrrand 0 1;
#X obj 339 429 pdkvabs/dkrrand 0 1;
#X obj 167 169 pdkvabs/dkrgate 100;
#X obj 95 469 *;
#X obj 170 32 r \$0-eznobu-loc_rnd;
#X obj 318 123 r \$0-eznobu-loc_rnd_ch;
#X msg 166 86 32;
#X connect 0 0 13 0;
#X connect 2 0 6 0;
#X connect 2 1 3 0;
#X connect 3 0 1 1;
#X connect 5 0 6 1;
#X connect 6 0 7 0;
#X connect 7 0 11 0;
#X connect 7 1 12 0;
#X connect 8 0 14 0;
#X connect 8 1 9 0;
#X connect 9 0 14 1;
#X connect 10 0 9 1;
#X connect 11 0 8 0;
#X connect 12 0 1 0;
#X connect 13 0 2 0;
#X connect 14 0 1 0;
#X connect 15 0 17 0;
#X connect 16 0 13 1;
#X connect 17 0 0 0;
#X restore 63 263 pd eznobu-loc_rnder;
#N canvas 523 412 865 540 eznobu-loc_initer 0;
#X obj 97 32 loadbang;
#X obj 97 80 pdkvabs/dkfor;
#X obj 102 203 s;
#X obj 96 129 t b f, f 13;
#X obj 189 178 makefilename \$0-eznobu-loc%d_r;
#X text 195 38 init;
#X msg 97 56 32;
#X connect 0 0 6 0;
#X connect 1 0 3 0;
#X connect 3 0 2 0;
#X connect 3 1 4 0;
#X connect 4 0 2 1;
#X connect 6 0 1 0;
#X restore 56 296 pd eznobu-loc_initer;
#N canvas 908 531 1290 766 eznobu-loc_savercl 0;
#X obj 145 181 t b a;
#X obj 152 417 t f f;
#X msg 217 457 range 0 \$1;
#X msg 143 587 range 0 \$1;
#X obj 152 441 - 1;
#X obj 220 352 loadbang;
#X msg 220 376 0;
#X obj 152 465 max 0;
#X obj 503 171 f 0;
#X text 334 218 save;
#X text 619 183 recall;
#X obj 298 40 r \$0-eznobu-loc_save_num;
#X obj 145 151 array get \$0-dkeznobu-loc 0 -1;
#X obj 192 269 text set \$0-eznobu-loc_pretxt;
#X obj 151 321 text size \$0-eznobu-loc_pretxt;
#X obj 217 481 s \$0-eznobu-loc_save_num_r;
#X obj 143 611 s \$0-eznobu-loc_rcl_num_r;
#X obj 636 109 r \$0-eznobu-loc_rcl_num;
#X obj 444 107 r \$0-eznobu-loc_rcl_trig;
#X obj 498 220 text get \$0-eznobu-loc_pretxt;
#X obj 497 251 s \$0-eznobu-loc_list;
#X obj 376 174 loadbang;
#X msg 376 198 0;
#X obj 132 87 r \$0-eznobu-loc_save_trig;
#X msg 499 473 -1;
#X obj 465 392 t b b;
#X obj 465 368 r \$0-eznobu-loc_pre_clear;
#X obj 499 497 text delete \$0-eznobu-loc_pretxt;
#X connect 0 0 14 0;
#X connect 0 1 13 0;
#X connect 1 0 4 0;
#X connect 1 1 2 0;
#X connect 2 0 15 0;
#X connect 3 0 16 0;
#X connect 4 0 7 0;
#X connect 5 0 6 0;
#X connect 6 0 1 0;
#X connect 7 0 3 0;
#X connect 8 0 19 0;
#X connect 11 0 13 1;
#X connect 12 0 0 0;
#X connect 14 0 1 0;
#X connect 17 0 8 1;
#X connect 18 0 8 0;
#X connect 19 0 20 0;
#X connect 21 0 22 0;
#X connect 22 0 13 1;
#X connect 23 0 12 0;
#X connect 24 0 27 0;
#X connect 25 0 6 0;
#X connect 25 1 24 0;
#X connect 26 0 25 0;
#X restore 66 334 pd eznobu-loc_savercl;
#X obj 29 21 array define \$0-dkeznobu-loc 32;
#X connect 1 0 0 0;
#X connect 1 1 0 1;
#X connect 2 0 3 0;
#X connect 3 0 6 0;
#X connect 4 0 6 0;
#X connect 5 0 4 0;
#X connect 7 0 5 0;
#X connect 8 0 2 0;
#X restore 89 575 pd eznobu-locstuff;
#N canvas 118 305 1791 877 eznobu-seqstuff 0;
#N canvas 216 115 2254 1028 eznobu-seqrcv 0;
#X obj 107 1006 outlet;
#X obj 207 1006 outlet;
#X obj 100 100 r \$0-eznobu-seq0;
#X obj 100 130 t f b;
#X msg 120 160 0;
#X obj 225 100 r \$0-eznobu-seq1;
#X obj 225 130 t f b;
#X msg 245 160 1;
#X obj 350 100 r \$0-eznobu-seq2;
#X obj 350 130 t f b;
#X msg 370 160 2;
#X obj 475 100 r \$0-eznobu-seq3;
#X obj 475 130 t f b;
#X msg 495 160 3;
#X obj 600 100 r \$0-eznobu-seq4;
#X obj 600 130 t f b;
#X msg 620 160 4;
#X obj 725 100 r \$0-eznobu-seq5;
#X obj 725 130 t f b;
#X msg 745 160 5;
#X obj 850 100 r \$0-eznobu-seq6;
#X obj 850 130 t f b;
#X msg 870 160 6;
#X obj 975 100 r \$0-eznobu-seq7;
#X obj 975 130 t f b;
#X msg 995 160 7;
#X obj 1100 100 r \$0-eznobu-seq8;
#X obj 1100 130 t f b;
#X msg 1120 160 8;
#X obj 1225 100 r \$0-eznobu-seq9;
#X obj 1225 130 t f b;
#X msg 1245 160 9;
#X obj 1350 100 r \$0-eznobu-seq10;
#X obj 1350 130 t f b;
#X msg 1370 160 10;
#X obj 1475 100 r \$0-eznobu-seq11;
#X obj 1475 130 t f b;
#X msg 1495 160 11;
#X obj 395 215 r \$0-eznobu-seq12;
#X obj 395 245 t f b;
#X msg 415 275 12;
#X obj 520 215 r \$0-eznobu-seq13;
#X obj 520 245 t f b;
#X msg 540 275 13;
#X obj 645 215 r \$0-eznobu-seq14;
#X obj 645 245 t f b;
#X msg 665 275 14;
#X obj 770 215 r \$0-eznobu-seq15;
#X obj 770 245 t f b;
#X msg 790 275 15;
#X obj 895 215 r \$0-eznobu-seq16;
#X obj 895 245 t f b;
#X msg 915 275 16;
#X obj 1020 215 r \$0-eznobu-seq17;
#X obj 1020 245 t f b;
#X msg 1040 275 17;
#X obj 1145 215 r \$0-eznobu-seq18;
#X obj 1145 245 t f b;
#X msg 1165 275 18;
#X obj 1270 215 r \$0-eznobu-seq19;
#X obj 1270 245 t f b;
#X msg 1290 275 19;
#X obj 1395 215 r \$0-eznobu-seq20;
#X obj 1395 245 t f b;
#X msg 1415 275 20;
#X obj 1520 215 r \$0-eznobu-seq21;
#X obj 1520 245 t f b;
#X msg 1540 275 21;
#X obj 1645 215 r \$0-eznobu-seq22;
#X obj 1645 245 t f b;
#X msg 1665 275 22;
#X obj 483 364 r \$0-eznobu-seq23;
#X obj 483 394 t f b;
#X msg 503 424 23;
#X obj 608 364 r \$0-eznobu-seq24;
#X obj 608 394 t f b;
#X msg 628 424 24;
#X obj 733 364 r \$0-eznobu-seq25;
#X obj 733 394 t f b;
#X msg 753 424 25;
#X obj 858 364 r \$0-eznobu-seq26;
#X obj 858 394 t f b;
#X msg 878 424 26;
#X obj 983 364 r \$0-eznobu-seq27;
#X obj 983 394 t f b;
#X msg 1003 424 27;
#X obj 1108 364 r \$0-eznobu-seq28;
#X obj 1108 394 t f b;
#X msg 1128 424 28;
#X obj 1233 364 r \$0-eznobu-seq29;
#X obj 1233 394 t f b;
#X msg 1253 424 29;
#X obj 1358 364 r \$0-eznobu-seq30;
#X obj 1358 394 t f b;
#X msg 1378 424 30;
#X obj 1483 364 r \$0-eznobu-seq31;
#X obj 1483 394 t f b;
#X msg 1503 424 31;
#X obj 1608 364 r \$0-eznobu-seq32;
#X obj 1608 394 t f b;
#X msg 1628 424 32;
#X obj 472 467 r \$0-eznobu-seq33;
#X obj 472 497 t f b;
#X msg 492 527 33;
#X obj 597 467 r \$0-eznobu-seq34;
#X obj 597 497 t f b;
#X msg 617 527 34;
#X obj 722 467 r \$0-eznobu-seq35;
#X obj 722 497 t f b;
#X msg 742 527 35;
#X obj 847 467 r \$0-eznobu-seq36;
#X obj 847 497 t f b;
#X msg 867 527 36;
#X obj 972 467 r \$0-eznobu-seq37;
#X obj 972 497 t f b;
#X msg 992 527 37;
#X obj 1097 467 r \$0-eznobu-seq38;
#X obj 1097 497 t f b;
#X msg 1117 527 38;
#X obj 1222 467 r \$0-eznobu-seq39;
#X obj 1222 497 t f b;
#X msg 1242 527 39;
#X obj 1347 467 r \$0-eznobu-seq40;
#X obj 1347 497 t f b;
#X msg 1367 527 40;
#X obj 1472 467 r \$0-eznobu-seq41;
#X obj 1472 497 t f b;
#X msg 1492 527 41;
#X obj 488 602 r \$0-eznobu-seq42;
#X obj 488 631 t f b;
#X msg 508 661 42;
#X obj 613 602 r \$0-eznobu-seq43;
#X obj 613 632 t f b;
#X msg 633 662 43;
#X obj 738 602 r \$0-eznobu-seq44;
#X obj 738 632 t f b;
#X msg 758 662 44;
#X obj 863 602 r \$0-eznobu-seq45;
#X obj 863 632 t f b;
#X msg 883 662 45;
#X obj 988 602 r \$0-eznobu-seq46;
#X obj 988 632 t f b;
#X msg 1008 662 46;
#X obj 1113 602 r \$0-eznobu-seq47;
#X obj 1113 632 t f b;
#X msg 1133 662 47;
#X obj 1238 602 r \$0-eznobu-seq48;
#X obj 1238 632 t f b;
#X msg 1258 662 48;
#X obj 1363 602 r \$0-eznobu-seq49;
#X obj 1363 632 t f b;
#X msg 1383 662 49;
#X obj 1488 602 r \$0-eznobu-seq50;
#X obj 1488 632 t f b;
#X msg 1508 662 50;
#X obj 1613 602 r \$0-eznobu-seq51;
#X obj 1613 632 t f b;
#X msg 1633 662 51;
#X obj 1738 602 r \$0-eznobu-seq52;
#X obj 1738 632 t f b;
#X msg 1758 662 52;
#X obj 473 727 r \$0-eznobu-seq53;
#X obj 473 757 t f b;
#X msg 493 787 53;
#X obj 598 727 r \$0-eznobu-seq54;
#X obj 598 757 t f b;
#X msg 618 787 54;
#X obj 723 727 r \$0-eznobu-seq55;
#X obj 723 757 t f b;
#X msg 743 787 55;
#X obj 848 727 r \$0-eznobu-seq56;
#X obj 848 757 t f b;
#X msg 868 787 56;
#X obj 973 727 r \$0-eznobu-seq57;
#X obj 973 757 t f b;
#X msg 993 787 57;
#X obj 1098 727 r \$0-eznobu-seq58;
#X obj 1098 757 t f b;
#X msg 1118 787 58;
#X obj 1223 727 r \$0-eznobu-seq59;
#X obj 1223 757 t f b;
#X msg 1243 787 59;
#X obj 1348 727 r \$0-eznobu-seq60;
#X obj 1348 757 t f b;
#X msg 1368 787 60;
#X obj 1473 727 r \$0-eznobu-seq61;
#X obj 1473 757 t f b;
#X msg 1493 787 61;
#X obj 1598 727 r \$0-eznobu-seq62;
#X obj 1598 757 t f b;
#X msg 1618 787 62;
#X obj 1723 727 r \$0-eznobu-seq63;
#X obj 1723 757 t f b;
#X msg 1743 787 63;
#X connect 2 0 3 0;
#X connect 3 0 0 0;
#X connect 3 1 4 0;
#X connect 4 0 1 0;
#X connect 5 0 6 0;
#X connect 6 0 0 0;
#X connect 6 1 7 0;
#X connect 7 0 1 0;
#X connect 8 0 9 0;
#X connect 9 0 0 0;
#X connect 9 1 10 0;
#X connect 10 0 1 0;
#X connect 11 0 12 0;
#X connect 12 0 0 0;
#X connect 12 1 13 0;
#X connect 13 0 1 0;
#X connect 14 0 15 0;
#X connect 15 0 0 0;
#X connect 15 1 16 0;
#X connect 16 0 1 0;
#X connect 17 0 18 0;
#X connect 18 0 0 0;
#X connect 18 1 19 0;
#X connect 19 0 1 0;
#X connect 20 0 21 0;
#X connect 21 0 0 0;
#X connect 21 1 22 0;
#X connect 22 0 1 0;
#X connect 23 0 24 0;
#X connect 24 0 0 0;
#X connect 24 1 25 0;
#X connect 25 0 1 0;
#X connect 26 0 27 0;
#X connect 27 0 0 0;
#X connect 27 1 28 0;
#X connect 28 0 1 0;
#X connect 29 0 30 0;
#X connect 30 0 0 0;
#X connect 30 1 31 0;
#X connect 31 0 1 0;
#X connect 32 0 33 0;
#X connect 33 0 0 0;
#X connect 33 1 34 0;
#X connect 34 0 1 0;
#X connect 35 0 36 0;
#X connect 36 0 0 0;
#X connect 36 1 37 0;
#X connect 37 0 1 0;
#X connect 38 0 39 0;
#X connect 39 0 0 0;
#X connect 39 1 40 0;
#X connect 40 0 1 0;
#X connect 41 0 42 0;
#X connect 42 0 0 0;
#X connect 42 1 43 0;
#X connect 43 0 1 0;
#X connect 44 0 45 0;
#X connect 45 0 0 0;
#X connect 45 1 46 0;
#X connect 46 0 1 0;
#X connect 47 0 48 0;
#X connect 48 0 0 0;
#X connect 48 1 49 0;
#X connect 49 0 1 0;
#X connect 50 0 51 0;
#X connect 51 0 0 0;
#X connect 51 1 52 0;
#X connect 52 0 1 0;
#X connect 53 0 54 0;
#X connect 54 0 0 0;
#X connect 54 1 55 0;
#X connect 55 0 1 0;
#X connect 56 0 57 0;
#X connect 57 0 0 0;
#X connect 57 1 58 0;
#X connect 58 0 1 0;
#X connect 59 0 60 0;
#X connect 60 0 0 0;
#X connect 60 1 61 0;
#X connect 61 0 1 0;
#X connect 62 0 63 0;
#X connect 63 0 0 0;
#X connect 63 1 64 0;
#X connect 64 0 1 0;
#X connect 65 0 66 0;
#X connect 66 0 0 0;
#X connect 66 1 67 0;
#X connect 67 0 1 0;
#X connect 68 0 69 0;
#X connect 69 0 0 0;
#X connect 69 1 70 0;
#X connect 70 0 1 0;
#X connect 71 0 72 0;
#X connect 72 0 0 0;
#X connect 72 1 73 0;
#X connect 73 0 1 0;
#X connect 74 0 75 0;
#X connect 75 0 0 0;
#X connect 75 1 76 0;
#X connect 76 0 1 0;
#X connect 77 0 78 0;
#X connect 78 0 0 0;
#X connect 78 1 79 0;
#X connect 79 0 1 0;
#X connect 80 0 81 0;
#X connect 81 0 0 0;
#X connect 81 1 82 0;
#X connect 82 0 1 0;
#X connect 83 0 84 0;
#X connect 84 0 0 0;
#X connect 84 1 85 0;
#X connect 85 0 1 0;
#X connect 86 0 87 0;
#X connect 87 0 0 0;
#X connect 87 1 88 0;
#X connect 88 0 1 0;
#X connect 89 0 90 0;
#X connect 90 0 0 0;
#X connect 90 1 91 0;
#X connect 91 0 1 0;
#X connect 92 0 93 0;
#X connect 93 0 0 0;
#X connect 93 1 94 0;
#X connect 94 0 1 0;
#X connect 95 0 96 0;
#X connect 96 0 0 0;
#X connect 96 1 97 0;
#X connect 97 0 1 0;
#X connect 98 0 99 0;
#X connect 99 0 0 0;
#X connect 99 1 100 0;
#X connect 100 0 1 0;
#X connect 101 0 102 0;
#X connect 102 0 0 0;
#X connect 102 1 103 0;
#X connect 103 0 1 0;
#X connect 104 0 105 0;
#X connect 105 0 0 0;
#X connect 105 1 106 0;
#X connect 106 0 1 0;
#X connect 107 0 108 0;
#X connect 108 0 0 0;
#X connect 108 1 109 0;
#X connect 109 0 1 0;
#X connect 110 0 111 0;
#X connect 111 0 0 0;
#X connect 111 1 112 0;
#X connect 112 0 1 0;
#X connect 113 0 114 0;
#X connect 114 0 0 0;
#X connect 114 1 115 0;
#X connect 115 0 1 0;
#X connect 116 0 117 0;
#X connect 117 0 0 0;
#X connect 117 1 118 0;
#X connect 118 0 1 0;
#X connect 119 0 120 0;
#X connect 120 0 0 0;
#X connect 120 1 121 0;
#X connect 121 0 1 0;
#X connect 122 0 123 0;
#X connect 123 0 0 0;
#X connect 123 1 124 0;
#X connect 124 0 1 0;
#X connect 125 0 126 0;
#X connect 126 0 0 0;
#X connect 126 1 127 0;
#X connect 127 0 1 0;
#X connect 128 0 129 0;
#X connect 129 0 0 0;
#X connect 129 1 130 0;
#X connect 130 0 1 0;
#X connect 131 0 132 0;
#X connect 132 0 0 0;
#X connect 132 1 133 0;
#X connect 133 0 1 0;
#X connect 134 0 135 0;
#X connect 135 0 0 0;
#X connect 135 1 136 0;
#X connect 136 0 1 0;
#X connect 137 0 138 0;
#X connect 138 0 0 0;
#X connect 138 1 139 0;
#X connect 139 0 1 0;
#X connect 140 0 141 0;
#X connect 141 0 0 0;
#X connect 141 1 142 0;
#X connect 142 0 1 0;
#X connect 143 0 144 0;
#X connect 144 0 0 0;
#X connect 144 1 145 0;
#X connect 145 0 1 0;
#X connect 146 0 147 0;
#X connect 147 0 0 0;
#X connect 147 1 148 0;
#X connect 148 0 1 0;
#X connect 149 0 150 0;
#X connect 150 0 0 0;
#X connect 150 1 151 0;
#X connect 151 0 1 0;
#X connect 152 0 153 0;
#X connect 153 0 0 0;
#X connect 153 1 154 0;
#X connect 154 0 1 0;
#X connect 155 0 156 0;
#X connect 156 0 0 0;
#X connect 156 1 157 0;
#X connect 157 0 1 0;
#X connect 158 0 159 0;
#X connect 159 0 0 0;
#X connect 159 1 160 0;
#X connect 160 0 1 0;
#X connect 161 0 162 0;
#X connect 162 0 0 0;
#X connect 162 1 163 0;
#X connect 163 0 1 0;
#X connect 164 0 165 0;
#X connect 165 0 0 0;
#X connect 165 1 166 0;
#X connect 166 0 1 0;
#X connect 167 0 168 0;
#X connect 168 0 0 0;
#X connect 168 1 169 0;
#X connect 169 0 1 0;
#X connect 170 0 171 0;
#X connect 171 0 0 0;
#X connect 171 1 172 0;
#X connect 172 0 1 0;
#X connect 173 0 174 0;
#X connect 174 0 0 0;
#X connect 174 1 175 0;
#X connect 175 0 1 0;
#X connect 176 0 177 0;
#X connect 177 0 0 0;
#X connect 177 1 178 0;
#X connect 178 0 1 0;
#X connect 179 0 180 0;
#X connect 180 0 0 0;
#X connect 180 1 181 0;
#X connect 181 0 1 0;
#X connect 182 0 183 0;
#X connect 183 0 0 0;
#X connect 183 1 184 0;
#X connect 184 0 1 0;
#X connect 185 0 186 0;
#X connect 186 0 0 0;
#X connect 186 1 187 0;
#X connect 187 0 1 0;
#X connect 188 0 189 0;
#X connect 189 0 0 0;
#X connect 189 1 190 0;
#X connect 190 0 1 0;
#X connect 191 0 192 0;
#X connect 192 0 0 0;
#X connect 192 1 193 0;
#X connect 193 0 1 0;
#X restore 44 144 pd eznobu-seqrcv;
#X obj 55 224 array set \$0-dkeznobu-seq;
#X obj 307 153 text define \$0-eznobu-seq_pretxt;
#X obj 315 53 r \$0-eznobu-seq_pre_save;
#X obj 315 77 savepanel;
#X msg 315 101 write \$1;
#X obj 573 56 r \$0-eznobu-seq_pre_load;
#X msg 573 104 read \$1;
#X obj 573 80 openpanel;
#N canvas 437 260 797 676 eznobu-seq_rnder 0;
#X obj 202 87 pdkvabs/dkfor;
#X obj 179 583 s;
#X obj 189 211 t b f, f 13;
#X obj 285 507 makefilename \$0-eznobu-seq%d_r;
#X text 349 55 randomize;
#X obj 202 39 r \$0-eznobu-seq_rnd;
#X obj 184 276 t f b;
#X obj 214 298 random 101;
#X obj 214 351 < 0;
#X obj 214 375 sel 0 1;
#X text 283 374 1 = add stut;
#X msg 209 482 0;
#X obj 195 518 + 0;
#X obj 280 324 r \$0-eznobu-rnd_stut_ch;
#X obj 349 113 r \$0-eznobu-seq_rnd_ch;
#X obj 197 159 pdkvabs/dkrgate 100;
#X msg 202 63 64;
#X obj 184 252 random 32;
#X obj 362 394 r \$0-grain;
#X obj 275 453 random;
#X obj 362 418 t f f;
#X obj 275 477 /;
#X connect 0 0 15 0;
#X connect 2 0 17 0;
#X connect 2 1 3 0;
#X connect 3 0 1 1;
#X connect 5 0 16 0;
#X connect 6 0 12 0;
#X connect 6 1 7 0;
#X connect 7 0 8 0;
#X connect 8 0 9 0;
#X connect 9 0 11 0;
#X connect 9 1 19 0;
#X connect 11 0 12 1;
#X connect 12 0 1 0;
#X connect 13 0 8 1;
#X connect 14 0 15 1;
#X connect 15 0 2 0;
#X connect 16 0 0 0;
#X connect 17 0 6 0;
#X connect 18 0 20 0;
#X connect 19 0 21 0;
#X connect 20 0 19 1;
#X connect 20 1 21 1;
#X connect 21 0 12 1;
#X restore 56 277 pd eznobu-seq_rnder;
#N canvas 515 206 759 606 eznobu-seq_stut_rnder 0;
#X obj 166 51 r \$0-ezvabs_rnd_stut;
#X obj 166 99 pdkvabs/dkfor;
#X obj 317 225 random 101;
#X obj 317 278 < 0;
#X obj 317 302 sel 0 1;
#X text 386 301 1 = add stut;
#X msg 313 341 0;
#X obj 184 403 + 0, f 10;
#X obj 170 226 pdkvabs/dkfloor;
#X obj 163 171 tabread \$0-dkeznobu-seq;
#X obj 163 195 t f b;
#X text 349 55 randomly add/clear stut;
#X obj 166 123 t f f, f 15;
#X obj 184 551 s;
#X obj 286 494 makefilename \$0-eznobu-seq%d_r;
#X obj 383 251 r \$0-eznobu-rnd_stut_ch;
#X msg 166 75 64;
#X obj 453 332 r \$0-grain;
#X obj 366 391 random;
#X obj 453 356 t f f;
#X obj 366 415 /;
#X connect 0 0 16 0;
#X connect 1 0 12 0;
#X connect 2 0 3 0;
#X connect 3 0 4 0;
#X connect 4 0 6 0;
#X connect 4 1 18 0;
#X connect 6 0 7 1;
#X connect 7 0 13 0;
#X connect 8 0 7 0;
#X connect 9 0 10 0;
#X connect 10 0 8 0;
#X connect 10 1 2 0;
#X connect 12 0 9 0;
#X connect 12 1 14 0;
#X connect 14 0 13 1;
#X connect 15 0 3 1;
#X connect 16 0 1 0;
#X connect 17 0 19 0;
#X connect 18 0 20 0;
#X connect 19 0 18 1;
#X connect 19 1 20 1;
#X connect 20 0 7 1;
#X restore 53 311 pd eznobu-seq_stut_rnder;
#N canvas 493 231 899 938 eznobu-seq_conster 0;
#X obj 107 20 r \$0-eznobu-seq_const;
#X obj 100 899 s;
#X obj 85 534 t b f, f 31;
#X obj 317 858 makefilename \$0-eznobu-seq%d_r;
#X obj 85 558 f;
#X text 183 46 seq_const;
#X obj 85 582 t f b;
#X obj 152 636 random 101;
#X obj 152 689 < 0;
#X obj 152 713 sel 0 1;
#X text 221 712 1 = add stut;
#X msg 148 752 0;
#X obj 77 821 + 0, f 10;
#X obj 218 662 r \$0-eznobu-rnd_stut_ch;
#X obj 119 327 pdkvabs/dkfor;
#X obj 122 276 t b f;
#X text 242 124 seq_const;
#X obj 321 95 r \$0-const_sel;
#X obj 144 134 swap;
#X obj 144 158 pack f f;
#X text 431 96 all or range;
#X obj 126 191 route 0 1;
#X obj 612 175 r \$0-const_lo;
#X obj 465 178 r \$0-const_hi;
#X obj 162 236 t b f;
#X obj 261 371 pdkvabs/dkfor;
#X obj 261 395 + 0;
#X obj 396 260 -;
#X obj 612 199 t b f f;
#X obj 255 278 f;
#X obj 255 302 moses 0;
#X msg 119 303 64;
#X obj 271 335 min 64;
#X obj 348 728 r \$0-grain;
#X obj 261 787 random;
#X obj 348 752 t f f;
#X obj 261 811 /;
#X connect 0 0 18 0;
#X connect 2 0 4 0;
#X connect 2 1 3 0;
#X connect 3 0 1 1;
#X connect 4 0 6 0;
#X connect 6 0 12 0;
#X connect 6 1 7 0;
#X connect 7 0 8 0;
#X connect 8 0 9 0;
#X connect 9 0 11 0;
#X connect 9 1 34 0;
#X connect 11 0 12 1;
#X connect 12 0 1 0;
#X connect 13 0 8 1;
#X connect 14 0 2 0;
#X connect 15 0 31 0;
#X connect 15 1 4 1;
#X connect 17 0 18 1;
#X connect 18 0 19 0;
#X connect 18 1 19 1;
#X connect 19 0 21 0;
#X connect 21 0 15 0;
#X connect 21 1 24 0;
#X connect 22 0 28 0;
#X connect 23 0 27 0;
#X connect 24 0 29 0;
#X connect 24 1 4 1;
#X connect 25 0 26 0;
#X connect 26 0 2 0;
#X connect 27 0 29 1;
#X connect 28 0 27 0;
#X connect 28 1 27 1;
#X connect 28 2 26 1;
#X connect 29 0 30 0;
#X connect 30 1 32 0;
#X connect 31 0 14 0;
#X connect 32 0 25 0;
#X connect 33 0 35 0;
#X connect 34 0 36 0;
#X connect 35 0 34 1;
#X connect 35 1 36 1;
#X connect 36 0 12 1;
#X restore 62 355 pd eznobu-seq_conster;
#N canvas 505 225 861 651 eznobu-seq_initclr 0;
#X obj 119 81 loadbang;
#X obj 113 212 pdkvabs/dkfor;
#X obj 116 403 s;
#X obj 114 313 t b f, f 13;
#X obj 194 346 makefilename \$0-eznobu-seq%d_r;
#X text 201 80 init/clear;
#X obj 114 337 f;
#X obj 116 161 t b f;
#X msg 119 125 -2;
#X obj 206 100 r \$0-eznobu-clear;
#X msg 113 188 64;
#X connect 0 0 8 0;
#X connect 1 0 3 0;
#X connect 3 0 6 0;
#X connect 3 1 4 0;
#X connect 4 0 2 1;
#X connect 6 0 2 0;
#X connect 7 0 10 0;
#X connect 7 1 6 1;
#X connect 8 0 7 0;
#X connect 9 0 8 0;
#X connect 10 0 1 0;
#X restore 55 393 pd eznobu-seq_initclr;
#N canvas 753 279 872 655 eznobu-seq_lister 0;
#X obj 61 86 list length;
#X obj 67 40 t l l, f 21;
#X obj 52 126 pdkvabs/dkfor;
#X msg 52 209 get \$1 1;
#X obj 52 150 t f f, f 13;
#X obj 52 233 list store, f 25;
#X obj 54 313 s;
#X obj 145 275 makefilename \$0-eznobu-seq%d_r;
#X obj 67 16 r \$0-eznobu-seq_list;
#X connect 0 0 2 0;
#X connect 1 0 0 0;
#X connect 1 1 5 1;
#X connect 2 0 4 0;
#X connect 3 0 5 0;
#X connect 4 0 3 0;
#X connect 4 1 7 0;
#X connect 5 0 6 0;
#X connect 7 0 6 1;
#X connect 8 0 1 0;
#X restore 52 421 pd eznobu-seq_lister;
#N canvas 908 531 1290 766 eznobu-seq_savercl 0;
#X obj 192 269 text set \$0-eznobu-seq_pretxt;
#X obj 298 40 r \$0-eznobu-seq_save_num;
#X obj 145 181 t b a;
#X obj 151 321 text size \$0-eznobu-seq_pretxt;
#X obj 152 417 t f f;
#X msg 217 457 range 0 \$1;
#X obj 217 481 s \$0-eznobu-seq_save_num_r;
#X msg 143 587 range 0 \$1;
#X obj 143 611 s \$0-eznobu-seq_rcl_num_r;
#X obj 152 441 - 1;
#X obj 220 352 loadbang;
#X msg 220 376 0;
#X obj 152 465 max 0;
#X obj 444 107 r \$0-eznobu-seq_rcl_trig;
#X obj 145 151 array get \$0-dkeznobu-seq 0 -1;
#X obj 498 220 text get \$0-eznobu-seq_pretxt;
#X obj 503 171 f 0;
#X obj 497 251 s \$0-eznobu-seq_list;
#X text 334 218 save;
#X text 619 183 recall;
#X obj 636 109 r \$0-eznobu-seq_rcl_num;
#X obj 391 157 loadbang;
#X msg 391 181 0;
#X obj 132 87 r \$0-eznobu-seq_save_trig;
#X msg 499 473 -1;
#X obj 465 392 t b b;
#X obj 465 368 r \$0-eznobu-seq_pre_clear;
#X obj 499 497 text delete \$0-eznobu-seq_pretxt;
#X connect 1 0 0 1;
#X connect 2 0 3 0;
#X connect 2 1 0 0;
#X connect 3 0 4 0;
#X connect 4 0 9 0;
#X connect 4 1 5 0;
#X connect 5 0 6 0;
#X connect 7 0 8 0;
#X connect 9 0 12 0;
#X connect 10 0 11 0;
#X connect 11 0 4 0;
#X connect 12 0 7 0;
#X connect 13 0 16 0;
#X connect 14 0 2 0;
#X connect 15 0 17 0;
#X connect 16 0 15 0;
#X connect 20 0 16 1;
#X connect 21 0 22 0;
#X connect 22 0 0 1;
#X connect 23 0 14 0;
#X connect 24 0 27 0;
#X connect 25 0 11 0;
#X connect 25 1 24 0;
#X connect 26 0 25 0;
#X restore 71 471 pd eznobu-seq_savercl;
#X obj 47 68 array define \$0-dkeznobu-seq 64;
#X connect 0 0 1 0;
#X connect 0 1 1 1;
#X connect 3 0 4 0;
#X connect 4 0 5 0;
#X connect 5 0 2 0;
#X connect 6 0 8 0;
#X connect 7 0 2 0;
#X connect 8 0 7 0;
#X restore 100 548 pd eznobu-seqstuff;
#N canvas 1235 459 1177 798 eznobu-dynamicpatcher 0;
#X obj 386 404 pack f f f 100 130 160 f f f;
#X msg 470 551 clear;
#X msg 613 216 obj 10 500 outlet \, obj 110 500 outlet;
#X obj 457 245 expr ($f1*3)+$f2 \; ($f1*125)+100 \; ($f1*125)+120 \;
($f1*3)+$f2+1 \; ($f1*3)+$f2+2 \; $f1, f 33;
#X obj 496 129 t f b b b;
#X msg 638 148 2;
#X obj 392 350 change;
#X obj 450 198 pdkvabs/dkfor;
#X msg 375 484 obj \$2 \$4 r #0-eznobu-loc\$9 \, obj \$2 \$5 t f b
\, msg \$3 \$6 \$9 \, connect \$1 0 \$7 0 \, connect \$7 0 0 0 \, connect
\$7 1 \$8 0 \, connect \$8 0 1 0;
#X msg 496 105 32, f 7;
#X obj 376 593 s pd-eznobu-locrcv;
#X connect 0 0 8 0;
#X connect 1 0 10 0;
#X connect 2 0 10 0;
#X connect 3 0 6 0;
#X connect 3 1 0 1;
#X connect 3 1 0 1;
#X connect 3 2 0 2;
#X connect 3 2 0 2;
#X connect 3 3 0 6;
#X connect 3 4 0 7;
#X connect 3 5 0 8;
#X connect 4 0 7 0;
#X connect 4 1 2 0;
#X connect 4 2 1 0;
#X connect 4 3 5 0;
#X connect 5 0 3 1;
#X connect 6 0 0 0;
#X connect 7 0 3 0;
#X connect 7 0 3 0;
#X connect 8 0 10 0;
#X connect 9 0 4 0;
#X restore 91 601 pd eznobu-dynamicpatcher;
#X obj 180 862 tabread \$0-dkeznobu-seq;
#X obj 112 654 r \$0-eznobu-count;
#X floatatom 202 219 5 0 1e+20 1 dur #0-eznobu-dur_r #0-eznobu-dur
, f 5;
#X obj 407 854 r \$0-eznobu-dur;
#X obj 203 998 outlet~;
#X obj 541 855 r \$0-eznobu-array;
#X msg 407 878 dur \$1;
#X msg 541 879 set \$1;
#X obj 496 225 tgl 15 0 \$0-eznobu-absrel \$0-eznobu-absrel_r absrel
17 7 0 12 -262144 -1 -1 0 1;
#X obj 537 758 r \$0-eznobu-absrel;
#X msg 537 782 absrel \$1;
#N canvas 817 762 1214 497 eznobu-argts 0;
#X obj 63 65 loadbang;
#X obj 63 113 f \$2;
#X obj 63 137 moses 1e-20;
#X msg 63 161 125;
#X obj 63 185 s \$0-eznobu-dur_r;
#X obj 198 257 f \$3;
#X obj 198 281 s \$0-eznobu-absrel_r;
#X obj 63 89 t b b b, f 35;
#X obj 337 227 s \$0-eznobu-seq_rnd_ch_r;
#X msg 337 172 100;
#X msg 491 180 100;
#X obj 456 267 s \$0-eznobu-loc_rnd_ch_r;
#X obj 677 269 s \$0-const_hi_r;
#X obj 837 277 s \$0-const_lo_r;
#X obj 885 229 s \$0-const_sel_r;
#X msg 827 219 0;
#X msg 938 187 0;
#X msg 689 202 63;
#X obj 337 148 t b b b b b b, f 108;
#X msg 1068 210 99999;
#X obj 1068 234 s \$0-grain_r;
#X connect 0 0 7 0;
#X connect 1 0 2 0;
#X connect 2 0 3 0;
#X connect 2 1 4 0;
#X connect 3 0 4 0;
#X connect 5 0 6 0;
#X connect 7 0 1 0;
#X connect 7 1 5 0;
#X connect 7 2 18 0;
#X connect 9 0 8 0;
#X connect 10 0 11 0;
#X connect 15 0 13 0;
#X connect 16 0 14 0;
#X connect 17 0 12 0;
#X connect 18 0 9 0;
#X connect 18 1 10 0;
#X connect 18 2 17 0;
#X connect 18 3 15 0;
#X connect 18 4 16 0;
#X connect 18 5 19 0;
#X connect 19 0 20 0;
#X restore 85 624 pd eznobu-argts;
#X text 610 296 4;
#X text 610 317 8;
#X text 604 341 12;
#X obj 353 821 r \$0-eznobu-loc;
#N canvas 177 532 1011 589 eznobu-dump 0;
#X obj 55 224 array get \$0-dkeznobu-seq;
#X obj 262 232 array get \$0-dkeznobu-loc;
#X msg 260 154 bang;
#X msg 45 161 bang;
#X obj 55 272 list trim;
#X obj 262 280 list trim;
#X obj 55 334 outlet;
#X obj 260 130 r \$0-eznobu-loc_dump;
#X obj 45 137 r \$0-eznobu-seq_dump;
#X obj 55 248 list prepend seq_list;
#X obj 262 256 list prepend loc_list;
#X connect 0 0 9 0;
#X connect 1 0 10 0;
#X connect 2 0 1 0;
#X connect 3 0 0 0;
#X connect 4 0 6 0;
#X connect 5 0 6 0;
#X connect 7 0 2 0;
#X connect 8 0 3 0;
#X connect 9 0 4 0;
#X connect 10 0 5 0;
#X restore 768 923 pd eznobu-dump;
#X obj 768 960 outlet;
#X text 825 960 dump;
#X obj 712 240 bng 15 250 50 0 \$0-eznobu-loc_rnd empty loc_rnd 17
7 0 12 -262144 -1 -1;
#X obj 279 245 bng 15 250 50 0 \$0-eznobu-seq_rnd empty seq_rnd 17
7 0 12 -262144 -1 -1;
#X obj 785 241 bng 15 250 50 0 \$0-eznobu-loc_dump empty loc_dump 17
7 0 12 -262144 -1 -1;
#X obj 484 244 bng 15 250 50 0 \$0-eznobu-seq_dump empty seq_dump 17
7 0 12 -262144 -1 -1;
#N canvas 209 416 1887 858 eznobu-msgroute 0;
#X obj 240 3 inlet;
#X obj 264 126 s \$0-eznobu-absrel_r;
#X obj 323 242 s \$0-eznobu-count;
#X obj 362 205 s \$0-eznobu-dur_r;
#X obj 415 166 s \$0-eznobu-array;
#X obj 501 130 s \$0-eznobu-loc;
#X msg 501 106 -2;
#X obj 546 325 s \$0-eznobu-seq_dump;
#X obj 602 292 s \$0-eznobu-loc_dump;
#X obj 749 224 s \$0-eznobu-loc_rnd;
#X obj 685 254 s \$0-eznobu-seq_rnd;
#X obj 233 153 s \$0-eznobu-loc_list;
#X obj 206 176 s \$0-eznobu-seq_list;
#X obj 808 187 s \$0-eznobu-clear_r;
#X msg 821 146 bang;
#X obj 872 145 s \$0-eznobu-seq_const_r;
#X obj 940 113 s \$0-eznobu-rnd_stut_ch_r;
#X obj 1005 89 s \$0-ezvabs_rnd_stut;
#X obj 1037 298 s \$0-eznobu-seq_rnd_ch_r;
#X obj 1072 258 s \$0-eznobu-loc_rnd_ch_r;
#X obj 199 457 t b f;
#X obj 210 562 s \$0-eznobu-seq_save_num_r;
#X obj 146 618 s \$0-eznobu-seq_save_trig_r;
#X obj 280 498 t b f;
#X obj 303 636 s \$0-eznobu-seq_rcl_num_r;
#X obj 240 692 s \$0-eznobu-seq_rcl_trig_r;
#X obj 347 469 s \$0-eznobu-seq_pre_save_r;
#X obj 421 519 s \$0-eznobu-seq_pre_load_r;
#X obj 239 33 route seq_list loc_list absrel float dur set loc off
seq_dump loc_dump seq_rnd loc_rnd clear seq_const rnd_stut_ch rnd_stut
seq_rnd_ch loc_rnd_ch, f 126;
#X obj 806 527 t b f;
#X obj 887 568 t b f;
#X obj 753 688 s \$0-eznobu-loc_save_trig_r;
#X obj 847 762 s \$0-eznobu-loc_rcl_trig_r;
#X obj 910 706 s \$0-eznobu-loc_rcl_num_r;
#X obj 817 632 s \$0-eznobu-loc_save_num_r;
#X obj 954 539 s \$0-eznobu-loc_pre_save_r;
#X obj 1028 589 s \$0-eznobu-loc_pre_load_r;
#X obj 192 410 route seq_save seq_rcl seq_preset_save seq_preset_load
seq_preset_clear;
#X obj 557 472 s \$0-eznobu-seq_pre_clear_r;
#X obj 799 480 route loc_save loc_rcl loc_preset_save loc_preset_load
loc_preset_clear;
#X obj 1119 667 s \$0-eznobu-loc_pre_clear_r;
#X obj 1224 624 s \$0-eznobu-on_r;
#X obj 1210 531 route on const_lo const_hi const_sel grain;
#X obj 1255 576 s \$0-const_lo_r;
#X obj 1350 632 s \$0-const_hi_r;
#X obj 1381 595 s \$0-const_sel_r;
#X obj 1508 578 s \$0-grain_r;
#X connect 0 0 28 0;
#X connect 6 0 5 0;
#X connect 14 0 13 0;
#X connect 20 0 22 0;
#X connect 20 1 21 0;
#X connect 23 0 25 0;
#X connect 23 1 24 0;
#X connect 28 0 12 0;
#X connect 28 1 11 0;
#X connect 28 2 1 0;
#X connect 28 3 2 0;
#X connect 28 4 3 0;
#X connect 28 5 4 0;
#X connect 28 6 5 0;
#X connect 28 7 6 0;
#X connect 28 8 7 0;
#X connect 28 9 8 0;
#X connect 28 10 10 0;
#X connect 28 11 9 0;
#X connect 28 12 14 0;
#X connect 28 13 15 0;
#X connect 28 14 16 0;
#X connect 28 15 17 0;
#X connect 28 16 18 0;
#X connect 28 17 19 0;
#X connect 28 18 37 0;
#X connect 29 0 31 0;
#X connect 29 1 34 0;
#X connect 30 0 32 0;
#X connect 30 1 33 0;
#X connect 37 0 20 0;
#X connect 37 1 23 0;
#X connect 37 2 26 0;
#X connect 37 3 27 0;
#X connect 37 4 38 0;
#X connect 37 5 39 0;
#X connect 39 0 29 0;
#X connect 39 1 30 0;
#X connect 39 2 35 0;
#X connect 39 3 36 0;
#X connect 39 4 40 0;
#X connect 39 5 42 0;
#X connect 42 0 41 0;
#X connect 42 1 43 0;
#X connect 42 2 44 0;
#X connect 42 3 45 0;
#X connect 42 4 46 0;
#X restore 203 59 pd eznobu-msgroute;
#X text 458 29 args: array \, dur (for skipping) \, abs/rel;
#X floatatom 264 220 5 0 15 1 seq_const #0-eznobu-seq_const_r #0-eznobu-seq_const
, f 5;
#X text 265 110 -2: silence \, [-1 \, 0): no skip;
#X text 274 130 ints 0-15: location;
#X text 266 148 any decimals: stutter x(1/dec) per dur;
#X text 199 278 seq;
#X text 603 277 loc;
#X obj 204 264 bng 15 250 50 0 \$0-eznobu-clear \$0-eznobu-clear_r
clear 17 7 0 12 -262144 -1 -1;
#X obj 103 828 del;
#X obj 106 770 v \$0-eznobu-dur;
#X obj 112 741 t b f b, f 21;
#X msg 258 774 stop;
#X msg 103 852 -2;
#X floatatom 637 216 5 0 100 1 rnd_stut_ch #0-eznobu-rnd_stut_ch_r
#0-eznobu-rnd_stut_ch, f 5;
#X obj 764 222 bng 15 250 50 0 \$0-ezvabs_rnd_stut \$0-ezvabs_rnd_stut_r
rnd_stut 17 7 0 12 -262144 -1 -1;
#X text 692 130 seq_rnd randomizes seq locations;
#X text 692 151 rnd_stut randomly adds stutter to seq locations;
#X text 768 883 dumped with selectors seq_list and loc_list;
#X text 1083 24 derek kwan;
#X text 1082 53 pdkez 2018;
#X text 1088 82 gpl v 3;
#X text 682 103 rnd_stut_ch applies with seq_rnd and rnd_stut and seq_const
;
#X floatatom 635 237 5 0 100 1 lr_ch #0-eznobu-loc_rnd_ch_r #0-eznobu-loc_rnd_ch
, f 5;
#X floatatom 202 243 5 0 100 1 sr_ch #0-eznobu-seq_rnd_ch_r #0-eznobu-seq_rnd_ch
, f 5;
#X obj 257 263 nbx 2 14 0 0 0 0 \$0-eznobu-seq_save_num \$0-eznobu-seq_save_num_r
seq_save 32 7 0 12 -262144 -1 -1 0 256;
#X obj 347 264 bng 15 250 50 0 \$0-eznobu-seq_save_trig \$0-eznobu-seq_save_trig_r
save 17 7 0 12 -262144 -1 -1;
#X obj 426 263 nbx 2 14 0 0 0 0 \$0-eznobu-seq_rcl_num \$0-eznobu-seq_rcl_num_r
seq_rcl 32 7 0 12 -262144 -1 -1 0 256;
#X obj 512 262 bng 15 250 50 0 \$0-eznobu-seq_rcl_trig \$0-eznobu-seq_rcl_trig_r
rcl 17 7 0 12 -262144 -1 -1;
#X obj 639 259 nbx 2 14 0 0 0 0 \$0-eznobu-loc_save_num \$0-eznobu-loc_save_num_r
loc_save 32 7 0 12 -262144 -1 -1 0 256;
#X obj 730 258 bng 15 250 50 0 \$0-eznobu-loc_save_trig \$0-eznobu-loc_save_trig_r
empty 17 7 0 12 -262144 -1 -1;
#X obj 748 260 nbx 2 14 0 0 0 0 \$0-eznobu-loc_rcl_num \$0-eznobu-loc_rcl_num_r
loc_rcl 32 7 0 12 -262144 -1 -1 0 256;
#X obj 830 258 bng 15 250 50 0 \$0-eznobu-loc_rcl_trig \$0-eznobu-loc_rcl_trig_r
empty 17 7 0 12 -262144 -1 -1;
#X obj 557 243 bng 15 250 50 0 \$0-eznobu-seq_pre_load \$0-eznobu-seq_pre_load_r
pre_load 17 7 0 12 -262144 -1 -1;
#X obj 849 259 bng 15 250 50 0 \$0-eznobu-loc_pre_clear \$0-eznobu-loc_pre_clear_r
pre_clear 17 7 0 12 -262144 -1 -1;
#X obj 849 241 bng 15 250 50 0 \$0-eznobu-loc_pre_load \$0-eznobu-loc_pre_load_r
pre_load 17 7 0 12 -262144 -1 -1;
#X obj 850 221 bng 15 250 50 0 \$0-eznobu-loc_pre_save \$0-eznobu-loc_pre_save_r
pre_save 17 7 0 12 -262144 -1 -1;
#X obj 897 205 tgl 15 0 \$0-eznobu-on \$0-eznobu-on_r on 17 7 0 12
-262144 -1 -1 0 1;
#X obj 331 639 r \$0-eznobu-on;
#X obj 329 663 t f f;
#X obj 112 700 spigot 0;
#X obj 329 687 sel 0;
#X msg 329 711 -2;
#X obj 558 223 bng 15 250 50 0 \$0-eznobu-seq_pre_save \$0-eznobu-seq_pre_save_r
pre_save 17 7 0 12 -262144 -1 -1;
#X obj 557 262 bng 15 250 50 0 \$0-eznobu-seq_pre_clear \$0-eznobu-seq_pre_clear_r
pre_clear 17 7 0 12 -262144 -1 -1;
#X floatatom 367 219 5 0 0 1 c_lo #0-const_lo_r #0-const_lo, f 5;
#X floatatom 367 240 5 0 0 1 c_hi #0-const_hi_r #0-const_hi, f 5;
#X obj 445 233 hradio 15 1 0 2 \$0-const_sel \$0-const_sel_r const_sel
0 -8 0 10 -262144 -1 -1 0;
#X text 441 246 a/rng;
#X floatatom 274 366 6 0 0 0 - #0-eznobu-seq33_r #0-eznobu-seq33,
f 6;
#X floatatom 227 366 6 0 0 0 - #0-eznobu-seq32_r #0-eznobu-seq32,
f 6;
#X floatatom 368 366 6 0 0 0 - #0-eznobu-seq35_r #0-eznobu-seq35,
f 6;
#X floatatom 321 366 6 0 0 0 - #0-eznobu-seq34_r #0-eznobu-seq34,
f 6;
#X floatatom 463 366 6 0 0 0 - #0-eznobu-seq37_r #0-eznobu-seq37,
f 6;
#X floatatom 415 366 6 0 0 0 - #0-eznobu-seq36_r #0-eznobu-seq36,
f 6;
#X floatatom 558 366 6 0 0 0 - #0-eznobu-seq39_r #0-eznobu-seq39,
f 6;
#X floatatom 511 366 6 0 0 0 - #0-eznobu-seq38_r #0-eznobu-seq38,
f 6;
#X floatatom 274 388 6 0 0 0 - #0-eznobu-seq41_r #0-eznobu-seq41,
f 6;
#X floatatom 227 388 6 0 0 0 - #0-eznobu-seq40_r #0-eznobu-seq40,
f 6;
#X floatatom 368 388 6 0 0 0 - #0-eznobu-seq43_r #0-eznobu-seq43,
f 6;
#X floatatom 321 388 6 0 0 0 - #0-eznobu-seq42_r #0-eznobu-seq42,
f 6;
#X floatatom 463 388 6 0 0 0 - #0-eznobu-seq45_r #0-eznobu-seq45,
f 6;
#X floatatom 415 388 6 0 0 0 - #0-eznobu-seq44_r #0-eznobu-seq44,
f 6;
#X floatatom 558 388 6 0 0 0 - #0-eznobu-seq47_r #0-eznobu-seq47,
f 6;
#X floatatom 511 388 6 0 0 0 - #0-eznobu-seq46_r #0-eznobu-seq46,
f 6;
#X floatatom 274 410 6 0 0 0 - #0-eznobu-seq49_r #0-eznobu-seq49,
f 6;
#X floatatom 227 410 6 0 0 0 - #0-eznobu-seq48_r #0-eznobu-seq48,
f 6;
#X floatatom 368 410 6 0 0 0 - #0-eznobu-seq51_r #0-eznobu-seq51,
f 6;
#X floatatom 321 410 6 0 0 0 - #0-eznobu-seq50_r #0-eznobu-seq50,
f 6;
#X floatatom 463 410 6 0 0 0 - #0-eznobu-seq53_r #0-eznobu-seq53,
f 6;
#X floatatom 415 410 6 0 0 0 - #0-eznobu-seq52_r #0-eznobu-seq52,
f 6;
#X floatatom 558 410 6 0 0 0 - #0-eznobu-seq55_r #0-eznobu-seq55,
f 6;
#X floatatom 511 410 6 0 0 0 - #0-eznobu-seq54_r #0-eznobu-seq54,
f 6;
#X floatatom 274 431 6 0 0 0 - #0-eznobu-seq57_r #0-eznobu-seq57,
f 6;
#X floatatom 227 431 6 0 0 0 - #0-eznobu-seq56_r #0-eznobu-seq56,
f 6;
#X floatatom 368 431 6 0 0 0 - #0-eznobu-seq59_r #0-eznobu-seq59,
f 6;
#X floatatom 321 431 6 0 0 0 - #0-eznobu-seq58_r #0-eznobu-seq58,
f 6;
#X floatatom 463 431 6 0 0 0 - #0-eznobu-seq61_r #0-eznobu-seq61,
f 6;
#X floatatom 415 431 6 0 0 0 - #0-eznobu-seq60_r #0-eznobu-seq60,
f 6;
#X floatatom 558 431 6 0 0 0 - #0-eznobu-seq63_r #0-eznobu-seq63,
f 6;
#X floatatom 511 431 6 0 0 0 - #0-eznobu-seq62_r #0-eznobu-seq62,
f 6;
#X text 200 365 32;
#X text 207 386 40;
#X text 202 409 48;
#X text 201 432 56;
#X floatatom 700 364 10 0 1e+30 0 - #0-eznobu-loc17_r #0-eznobu-loc17
, f 10;
#X floatatom 624 364 10 0 1e+30 0 - #0-eznobu-loc16_r #0-eznobu-loc16
, f 10;
#X floatatom 853 364 10 0 1e+30 0 - #0-eznobu-loc19_r #0-eznobu-loc19
, f 10;
#X floatatom 777 364 10 0 1e+30 0 - #0-eznobu-loc18_r #0-eznobu-loc18
, f 10;
#X floatatom 700 387 10 0 1e+30 0 - #0-eznobu-loc21_r #0-eznobu-loc21
, f 10;
#X floatatom 624 387 10 0 1e+30 0 - #0-eznobu-loc20_r #0-eznobu-loc20
, f 10;
#X floatatom 853 387 10 0 1e+30 0 - #0-eznobu-loc23_r #0-eznobu-loc23
, f 10;
#X floatatom 777 387 10 0 1e+30 0 - #0-eznobu-loc22_r #0-eznobu-loc22
, f 10;
#X floatatom 700 410 10 0 1e+30 0 - #0-eznobu-loc25_r #0-eznobu-loc25
, f 10;
#X floatatom 624 410 10 0 1e+30 0 - #0-eznobu-loc24_r #0-eznobu-loc24
, f 10;
#X floatatom 853 410 10 0 1e+30 0 - #0-eznobu-loc27_r #0-eznobu-loc27
, f 10;
#X floatatom 777 410 10 0 1e+30 0 - #0-eznobu-loc26_r #0-eznobu-loc26
, f 10;
#X floatatom 700 432 10 0 1e+30 0 - #0-eznobu-loc29_r #0-eznobu-loc29
, f 10;
#X floatatom 624 432 10 0 1e+30 0 - #0-eznobu-loc28_r #0-eznobu-loc28
, f 10;
#X floatatom 853 432 10 0 1e+30 0 - #0-eznobu-loc31_r #0-eznobu-loc31
, f 10;
#X floatatom 777 432 10 0 1e+30 0 - #0-eznobu-loc30_r #0-eznobu-loc30
, f 10;
#X text 601 366 16;
#X text 608 385 20;
#X text 608 406 24;
#X text 602 430 28;
#X floatatom 801 202 7 0 0 1 grain #0-grain_r #0-grain, f 7;
#X connect 51 0 60 0;
#X connect 52 0 79 0;
#X connect 56 0 51 0;
#X connect 57 0 119 0;
#X connect 59 0 62 0;
#X connect 61 0 63 0;
#X connect 62 0 51 1;
#X connect 63 0 51 1;
#X connect 65 0 66 0;
#X connect 66 0 51 1;
#X connect 71 0 51 0;
#X connect 72 0 73 0;
#X connect 88 0 92 0;
#X connect 89 0 88 0;
#X connect 90 0 89 0;
#X connect 90 1 56 0;
#X connect 90 2 91 0;
#X connect 91 0 88 0;
#X connect 92 0 51 0;
#X connect 117 0 118 0;
#X connect 118 0 120 0;
#X connect 118 1 119 1;
#X connect 120 0 121 0;
#X connect 121 0 51 0;
#X coords 0 -1 1 1 730 255 1 200 200;
