#N canvas 479 198 1566 758 12;
#X obj 146 579 outlet~;
#X obj 952 48 inlet;
#X obj 1180 39 inlet;
#X text 1233 35 bypass;
#X obj 911 143 s \$0-ezbitcrush_bitres_r;
#X obj 1026 167 s \$0-ezbitcrush_rate_r;
#X text 1404 66 derek kwan;
#X text 1409 90 pdkez;
#X text 1407 113 gpl v 3 2017;
#X obj 1229 311 loadbang;
#X obj 1231 376 f \$1;
#X obj 1359 374 f \$2;
#X obj 1359 399 moses 1e-20;
#X msg 1359 424 1;
#X text 1409 374 rate;
#X obj 1229 336 t b b;
#X obj 1139 489 pack \$0 f f, f 29;
#X text 1291 374 bitres;
#X msg 1139 515 \; \$1-ezbitcrush_bitres_r \$2 \; \$1-ezbitcrush_rate_r
\$3 \;;
#X obj 946 79 route bitres rate bypass;
#X obj 1180 64 s \$0-ezbitcrush_bypass_r;
#X obj 377 578 outlet~;
#X obj 125 178 r \$0-ezbitcrush_bitres_s;
#X obj 165 208 r \$0-ezbitcrush_rate_s;
#X obj 126 319 dkbitcrush~ 32 1;
#X obj 402 246 r \$0-ezbitcrush_bitres_s;
#X obj 429 198 r \$0-ezbitcrush_rate_s;
#X obj 377 311 dkbitcrush~ 32 1;
#X floatatom 224 135 5 1 128 0 ratered #0-ezbitcrush_rate_r #0-ezbitcrush_rate_s
;
#X obj 201 116 tgl 15 0 \$0-ezbitcrush_bypass_s \$0-ezbitcrush_bypass_r
bypass 17 7 0 12 -262144 -1 -1 0 1;
#X floatatom 133 134 5 1 32 0 bits #0-ezbitcrush_bitres_r #0-ezbitcrush_bitres_s
;
#X obj 42 74 inlet~;
#X obj 442 94 inlet~;
#X obj 1231 400 max 1;
#X connect 1 0 19 0;
#X connect 2 0 20 0;
#X connect 9 0 15 0;
#X connect 10 0 33 0;
#X connect 11 0 12 0;
#X connect 12 0 13 0;
#X connect 12 1 16 2;
#X connect 13 0 16 2;
#X connect 15 0 16 0;
#X connect 15 1 11 0;
#X connect 15 1 10 0;
#X connect 16 0 18 0;
#X connect 19 0 4 0;
#X connect 19 1 5 0;
#X connect 19 2 20 0;
#X connect 22 0 24 1;
#X connect 23 0 24 2;
#X connect 24 0 0 0;
#X connect 25 0 27 1;
#X connect 26 0 27 2;
#X connect 27 0 21 0;
#X connect 29 0 24 3;
#X connect 29 0 27 3;
#X connect 31 0 24 0;
#X connect 32 0 27 0;
#X connect 33 0 16 1;
#X coords 0 -1 1 1 165 55 1 100 100;
