#N canvas 751 159 1063 615 12;
#X obj 103 223 tgl 15 0 empty empty metro 17 7 0 12 -262144 -1 -1 0
1;
#X floatatom 121 247 5 0 1e+20 0 ms - -, f 5;
#X floatatom 177 246 5 0 100 0 ch - -, f 5;
#X floatatom 122 270 10 0 0 0 lo - -, f 10;
#X floatatom 122 294 10 0 0 0 hi - -, f 10;
#X obj 156 221 tgl 15 0 empty empty slave 17 7 0 12 -262144 -1 -1 0
1;
#X obj 245 344 spigot 0;
#X obj 73 354 metro;
#X obj 87 566 outlet;
#X obj 262 95 inlet;
#X obj 312 139 route metro slave ms ch lo hi;
#X obj 539 120 inlet;
#X text 218 75 messages;
#X text 585 123 master trig;
#X obj 374 35 loadbang;
#X text 370 332 args: ms chance lo hi slave;
#X obj 340 72 list \$1 \$2 \$3 \$4 \$5;
#X msg 340 96 ms \$1 \, ch \$2 \, lo \$3 \, hi \$4 \, slave \$5;
#X text 33 20 dkeztrigrand - triggers random floats;
#X text 762 42 derek kwan;
#X text 770 66 pdkez;
#X text 772 85 gpl v 3 2018;
#X obj 86 424 pdkvabs/dkrgate 0;
#X obj 86 448 pdkvabs/dkrrand 0 0;
#X connect 0 0 7 0;
#X connect 1 0 7 1;
#X connect 2 0 22 1;
#X connect 3 0 23 1;
#X connect 4 0 23 2;
#X connect 5 0 6 1;
#X connect 6 0 22 0;
#X connect 7 0 22 0;
#X connect 9 0 10 0;
#X connect 10 0 0 0;
#X connect 10 1 5 0;
#X connect 10 2 1 0;
#X connect 10 3 2 0;
#X connect 10 4 3 0;
#X connect 10 5 4 0;
#X connect 11 0 6 0;
#X connect 14 0 16 0;
#X connect 16 0 17 0;
#X connect 17 0 10 0;
#X connect 22 0 23 0;
#X connect 23 0 8 0;
#X coords 0 -1 1 1 120 120 1 100 200;
