#N canvas 443 219 1530 1002 12;
#X text 1070 36 derek kwan;
#X text 1075 60 pdkez;
#N canvas 356 490 569 502 \$0-ezpshift-defaults 0;
#X obj 87 74 loadbang;
#X obj 70 299 pack \$0 f f f f, f 46;
#X obj 112 169 f \$1;
#X text 161 170 transpose;
#X obj 81 108 t b b b b b, f 56;
#X text 516 172 delay;
#X msg 350 223 50;
#X obj 377 163 f \$3;
#X text 408 143 window;
#X text 304 158 fb;
#X obj 350 201 moses 1e-20;
#X obj 470 170 f \$4;
#X obj 245 174 f \$2;
#X msg 73 351 \; \$1-ezpshift_transpose_r \$2 \; \$1-ezpshift_fb_r
\$3 \; \$1-ezpshift_window_r \$4 \; \$1-ezpshift_delay_r \$5 \;;
#X connect 0 0 4 0;
#X connect 1 0 13 0;
#X connect 2 0 1 1;
#X connect 4 0 1 0;
#X connect 4 1 2 0;
#X connect 4 2 12 0;
#X connect 4 3 7 0;
#X connect 4 4 11 0;
#X connect 6 0 1 3;
#X connect 7 0 10 0;
#X connect 10 0 6 0;
#X connect 10 1 1 3;
#X connect 11 0 1 4;
#X connect 12 0 1 2;
#X restore 735 88 pd \$0-ezpshift-defaults;
#X floatatom 204 194 5 0 1e+20 0 delay(ms) #0-ezpshift_delay_r #0-ezpshift_delay
, f 5;
#X obj 199 120 tgl 15 0 \$0-ezpshift_bypass \$0-ezpshift_bypass_r bypass
17 7 0 12 -262144 -1 -1 0 1;
#X obj 218 705 pdkez_switcher;
#X floatatom 147 142 5 0 0 0 tpose #0-ezpshift_transpose_r #0-ezpshift_transpose
, f 5;
#X obj 218 730 outlet~;
#X floatatom 208 142 5 0 100 0 fb #0-ezpshift_fb_r #0-ezpshift_fb,
f 5;
#X floatatom 206 170 5 0 1e+20 0 window(ms) #0-ezpshift_window_r #0-ezpshift_window
, f 5;
#X obj 105 281 inlet~;
#X obj 725 16 inlet;
#X text 778 12 bypass;
#X obj 142 121 bng 15 250 50 0 empty empty 0 17 7 0 10 -262144 -1 -1
;
#X msg 171 39 0;
#X obj 104 120 bng 15 250 50 0 empty empty -12 17 7 0 10 -262144 -1
-1;
#X msg 169 8 -12;
#X obj 167 121 bng 15 250 50 0 empty empty 12 17 7 0 10 -262144 -1
-1;
#X msg 168 69 12;
#X obj 378 7 inlet;
#X obj 378 31 route transpose fb window delay;
#X text 1073 83 gpl v 3 2018;
#X obj 82 506 pdkvabs/dkpshift~, f 69;
#X text 474 142 in1: sig~ \, in2: transpose \, in3: fb;
#X text 478 165 in4: window \, in5: delay;
#X text 473 226 args: transposition (0) \, fb (0.5) \, window (50)
\, delay (0);
#X obj 205 49 s \$0-ezpshift_transpose_r;
#X obj 421 65 s \$0-ezpshift_fb_r;
#X obj 562 70 s \$0-ezpshift_delay_r;
#X obj 547 97 s \$0-ezpshift_window_r;
#X obj 725 41 s \$0-ezpshift_bypass_r;
#X obj 325 649 r \$0-ezpshift_bypass;
#X obj 174 352 r \$0-ezpshift_transpose;
#X obj 340 394 r \$0-ezpshift_fb;
#X obj 429 441 r \$0-ezpshift_window;
#X obj 340 418 / 100;
#X obj 598 418 r \$0-ezpshift_delay;
#X obj 780 776 pdkez_switcher;
#X obj 780 801 outlet~;
#X obj 204 275 inlet~;
#X obj 644 577 pdkvabs/dkpshift~, f 69;
#X obj 887 720 r \$0-ezpshift_bypass;
#X obj 736 423 r \$0-ezpshift_transpose;
#X obj 902 465 r \$0-ezpshift_fb;
#X obj 991 512 r \$0-ezpshift_window;
#X obj 902 489 / 100;
#X obj 1160 489 r \$0-ezpshift_delay;
#X connect 5 0 7 0;
#X connect 10 0 5 1;
#X connect 10 0 22 0;
#X connect 11 0 30 0;
#X connect 13 0 14 0;
#X connect 14 0 26 0;
#X connect 15 0 16 0;
#X connect 16 0 26 0;
#X connect 17 0 18 0;
#X connect 18 0 26 0;
#X connect 19 0 20 0;
#X connect 20 0 26 0;
#X connect 20 1 27 0;
#X connect 20 2 29 0;
#X connect 20 3 28 0;
#X connect 22 0 5 0;
#X connect 31 0 5 2;
#X connect 32 0 22 1;
#X connect 33 0 35 0;
#X connect 34 0 22 3;
#X connect 35 0 22 2;
#X connect 36 0 22 4;
#X connect 37 0 38 0;
#X connect 39 0 37 1;
#X connect 39 0 40 0;
#X connect 40 0 37 0;
#X connect 41 0 37 2;
#X connect 42 0 40 1;
#X connect 43 0 45 0;
#X connect 44 0 40 3;
#X connect 45 0 40 2;
#X connect 46 0 40 4;
#X coords 0 -1 1 1 160 120 1 100 100;
