#N canvas 1203 465 1057 449 12;
#X floatatom 126 149 14 0 0 0 sec #0-eztimer-sec_r #0-eztimer-sec,
f 14;
#X floatatom 190 130 5 1 1e+20 0 res(ms) #0-eztimer-res_r #0-eztimer-res
, f 5;
#X obj 178 114 bng 15 250 50 0 \$0-eztimer-reset \$0-eztimer-reset_r
reset 17 7 0 12 -262144 -1 -1;
#X obj 118 131 tgl 15 0 \$0-eztimer-tgl \$0-eztimer-tgl_r on -17 7
0 12 -262144 -1 -1 0 1;
#X obj 156 269 pdkvabs/dktimer;
#X obj 533 195 loadbang;
#X obj 534 304 max 1;
#X obj 534 328 s \$0-eztimer-res_r;
#X obj 130 227 r \$0-eztimer-res;
#X obj 260 224 r \$0-eztimer-reset;
#X obj 47 195 r \$0-eztimer-tgl;
#X obj 214 356 s \$0-eztimer-sec_r;
#X obj 156 293 t f f;
#X obj 206 324 / 1000;
#X obj 164 393 outlet;
#X obj 275 61 inlet;
#X obj 275 85 s \$0-eztimer-tgl_r;
#X text 328 68 on;
#X text 479 65 time res (ms);
#X obj 432 63 inlet;
#X obj 434 100 s \$0-eztimer-res_r;
#X obj 533 219 f \$1;
#X obj 535 250 moses 1e-20;
#X msg 535 274 10;
#X obj 598 58 inlet;
#X obj 598 82 s \$0-eztimer-reset_r;
#X text 15 28 dkeztimer:;
#X text 26 54 inlets: on/ time res/ reset;
#X text 28 75 args: time_res;
#X text 645 62 reset;
#X text 810 28 derek kwan;
#X text 819 52 pdkez;
#X text 818 82 gpl v 3 2018;
#X connect 4 0 12 0;
#X connect 5 0 21 0;
#X connect 6 0 7 0;
#X connect 8 0 4 1;
#X connect 9 0 4 2;
#X connect 10 0 4 0;
#X connect 12 0 14 0;
#X connect 12 1 13 0;
#X connect 13 0 11 0;
#X connect 15 0 16 0;
#X connect 19 0 20 0;
#X connect 21 0 22 0;
#X connect 22 0 23 0;
#X connect 22 1 6 0;
#X connect 23 0 6 0;
#X connect 24 0 25 0;
#X coords 0 -1 1 1 130 70 1 100 100;
