#N canvas 35 155 1255 997 12;
#X text 49 36 HELPER PATCH;
#X obj 89 109 inlet~;
#X obj 194 120 pdkvabs/dkhannblock~;
#X obj 581 182 * 3;
#X obj 581 207 / 2;
#X obj 644 57 inlet;
#X msg 620 157 set \$1 4;
#X text 701 54 fft size;
#X obj 89 134 *~;
#X obj 89 159 rfft~;
#X text 57 309 write real/imag to delay lines;
#X text 42 345 so values for bin i occur every i*blocksize samples
;
#X text 45 375 in delay buf;
#X obj 464 60 inlet;
#X text 493 29 samplerate for ms;
#X obj 50 526 -~;
#X obj 99 478 wrap~;
#X obj 50 551 *~ 512;
#X text 301 416 since values for bin i occur every i*blocksize samples
;
#X text 297 446 need to multiply by blocksize to get bin i's progression
;
#X text 302 470 in time (we're also limited to a resolution time-wise
of;
#X text 307 499 blocksize since we only have values for each bin every
;
#X text 306 529 blocksize);
#X obj 50 576 /~ 44.1;
#X text 130 577 divide by samprate in ms for delread units;
#X obj 21 643 delread4~ \$0-ezfftdel_r;
#X obj 248 649 delread4~ \$0-ezfftdel_i;
#X obj 47 772 /~ 768;
#X obj 222 779 /~ 768;
#X obj 42 822 rifft~, f 26;
#X obj 41 870 *~;
#X obj 41 895 outlet~;
#X obj 50 422 tabreceive~ \$1-ezfftdelay;
#X obj 318 689 *~;
#X obj 109 697 *~;
#X obj 529 634 tabreceive~ \$1-ezfftfb;
#X obj 32 268 delwrite~ \$0-ezfftdel_r \$2;
#X obj 117 227 delwrite~ \$0-ezfftdel_i \$2;
#X text 55 73 args: doll0 \, max delay * 4;
#X obj 807 52 inlet;
#X text 865 54 fft on/off;
#X obj 626 275 switch~;
#X connect 1 0 8 0;
#X connect 2 0 8 1;
#X connect 2 0 30 1;
#X connect 3 0 4 0;
#X connect 4 0 27 1;
#X connect 4 0 28 1;
#X connect 5 0 3 0;
#X connect 5 0 6 0;
#X connect 5 0 2 0;
#X connect 5 0 17 1;
#X connect 6 0 41 0;
#X connect 8 0 9 0;
#X connect 9 0 36 0;
#X connect 9 1 37 0;
#X connect 13 0 23 1;
#X connect 15 0 17 0;
#X connect 16 0 15 1;
#X connect 17 0 23 0;
#X connect 23 0 25 0;
#X connect 23 0 26 0;
#X connect 25 0 27 0;
#X connect 25 0 34 0;
#X connect 26 0 28 0;
#X connect 26 0 33 0;
#X connect 27 0 29 0;
#X connect 28 0 29 1;
#X connect 29 0 30 0;
#X connect 30 0 31 0;
#X connect 32 0 15 0;
#X connect 32 0 16 0;
#X connect 33 0 37 0;
#X connect 34 0 36 0;
#X connect 35 0 34 1;
#X connect 35 0 33 1;
#X connect 39 0 41 0;
