#N canvas 116 170 979 815 12;
#X obj 68 103 inlet~;
#X obj 60 189 *~;
#X obj 225 133 pdkvabs/dkhannblock~ 1024;
#X obj 21 252 rfft~;
#X obj 201 274 *~;
#X obj 201 312 *~;
#X obj 201 337 /~ 1536;
#X obj 433 226 * 3;
#X obj 433 251 / 2;
#X obj 20 445 *~;
#X obj 71 448 *~;
#X obj 20 497 rifft~;
#X obj 20 522 *~;
#X obj 20 547 outlet~;
#X obj 478 319 block~;
#X obj 496 101 inlet;
#X msg 472 201 set \$1 4;
#X text 20 13 HELPER PATCH;
#X text 34 46 args: doll0;
#X obj 201 222 tabreceive~ \$1-ezfftgain;
#X connect 0 0 1 0;
#X connect 1 0 3 0;
#X connect 2 0 1 1;
#X connect 2 0 12 1;
#X connect 3 0 9 0;
#X connect 3 1 10 0;
#X connect 4 0 5 0;
#X connect 4 0 5 1;
#X connect 5 0 6 0;
#X connect 6 0 9 1;
#X connect 6 0 10 1;
#X connect 7 0 8 0;
#X connect 8 0 6 1;
#X connect 9 0 11 0;
#X connect 10 0 11 1;
#X connect 11 0 12 0;
#X connect 12 0 13 0;
#X connect 15 0 7 0;
#X connect 15 0 16 0;
#X connect 15 0 2 0;
#X connect 16 0 14 0;
#X connect 19 0 4 0;
#X connect 19 0 4 1;
