#N canvas 1156 398 1160 576 12;
#X obj 112 126 hsl 128 15 -1 1 0 0 empty \$0-dkezpan_val empty -2 -8
0 12 -262144 -1 -1 6900 1;
#X text 985 48 derek kwan;
#X text 990 72 pdkez;
#X text 988 95 gpl v 3 2017;
#X floatatom 252 124 5 0 0 0 - - -, f 5;
#X obj 402 85 loadbang;
#X obj 566 83 inlet;
#X obj 738 83 inlet;
#X obj 233 105 bng 15 250 50 0 empty \$0-dkezpan_center center 17 7
0 12 -262144 -1 -1;
#X text 791 79 center;
#X obj 738 108 s \$0-dkezpan_center;
#X obj 554 199 s \$0-dkezpan_val;
#X obj 515 116 f \$1;
#X text 619 79 pan;
#X msg 124 67 0;
#X obj 345 200 inlet~;
#X obj 421 201 inlet~;
#X obj 327 533 outlet~;
#X obj 410 537 outlet~;
#X text 82 230 stereo-to-stereo panner;
#X obj 515 143 clip -1 1;
#X text 81 254 arg: pan, f 9;
#X obj 350 301 pdkvabs/dkstbal~;
#X connect 0 0 4 0;
#X connect 0 0 22 2;
#X connect 5 0 12 0;
#X connect 6 0 12 0;
#X connect 7 0 10 0;
#X connect 8 0 14 0;
#X connect 12 0 20 0;
#X connect 14 0 0 0;
#X connect 15 0 22 0;
#X connect 16 0 22 1;
#X connect 20 0 11 0;
#X connect 22 0 17 0;
#X connect 22 1 18 0;
#X coords 0 -1 1 1 200 45 1 100 100;
