#N canvas 260 283 989 590 12;
#X obj 38 150 inlet~;
#X obj 38 175 *~;
#X obj 129 175 pdkvabs/dkhannblock~;
#X obj 137 429 /~ 1536;
#X obj 595 239 * 3;
#X obj 595 264 / 2;
#X obj 658 114 inlet;
#X msg 634 214 set \$1 4;
#X text 715 111 fft size;
#X obj 38 200 rfft~;
#X obj 122 255 pdkvabs/dkcmag~;
#X obj 132 338 pdkvabs/dkge~;
#X obj 262 339 pdkvabs/dkle~;
#X obj 346 177 inlet~;
#X text 410 176 comparator;
#X text 109 154 input;
#X obj 37 480 *~;
#X obj 99 478 *~;
#X obj 141 394 pdkvabs/dkswitch2~;
#X obj 37 505 rifft~;
#X obj 37 530 *~;
#X obj 37 555 outlet~;
#X obj 487 120 inlet;
#X text 543 123 above/below;
#X text 25 20 HELPER PATCH;
#X obj 640 332 switch~;
#X obj 808 118 inlet;
#X text 861 117 fft on/0ff;
#X connect 0 0 1 0;
#X connect 1 0 9 0;
#X connect 2 0 1 1;
#X connect 2 0 20 1;
#X connect 3 0 16 1;
#X connect 3 0 17 1;
#X connect 4 0 5 0;
#X connect 5 0 3 1;
#X connect 6 0 2 0;
#X connect 6 0 7 0;
#X connect 6 0 4 0;
#X connect 7 0 25 0;
#X connect 9 0 10 0;
#X connect 9 0 16 0;
#X connect 9 1 10 1;
#X connect 9 1 17 0;
#X connect 10 0 11 0;
#X connect 10 0 12 0;
#X connect 11 0 18 0;
#X connect 12 0 18 1;
#X connect 13 0 11 1;
#X connect 13 0 12 1;
#X connect 16 0 19 0;
#X connect 17 0 19 1;
#X connect 18 0 3 0;
#X connect 19 0 20 0;
#X connect 20 0 21 0;
#X connect 22 0 18 2;
#X connect 26 0 25 0;
