#N canvas 1045 218 1000 931 12;
#N canvas 0 50 450 250 (subpatch) 0;
#X array \$0-ezfftgain 32 float 1;
#A 0 1 1 1 1 1 1 1 1 1 1 1 1 1 1 1 1 1 1 1 1 1 1 1 1 1 1 1 1 1 1 1
1;
#X coords 0 1 31 -0.01 200 140 1;
#X restore 123 149 graph;
#X obj 664 391 - 1;
#X msg 636 241 1024;
#X text 103 272 0;
#X text 107 139 1;
#X text 301 288 22k;
#X obj 464 168 loadbang;
#X obj 627 199 moses 1e-20;
#X obj 81 527 pdkvabs/dkswitch2~;
#X obj 341 153 vsl 15 128 0 1 0 0 empty empty gain 0 -9 0 10 -262144
-1 -1 12700 1;
#X floatatom 329 288 5 0 0 0 - - -;
#X obj 287 355 t b f;
#X obj 268 395 pack \$0 f;
#X msg 268 420 \; \$1-ezfftgain const \$2;
#X msg 421 270 1;
#X obj 471 205 t b b b;
#X obj 166 21 inlet~;
#X obj 313 122 tgl 15 0 empty empty bypass 17 7 0 10 -262144 -1 -1
0 1;
#X obj 81 552 outlet~;
#X text 22 53 args: fft size;
#X obj 636 282 pdkvabs/dknearpow2;
#X obj 636 336 / 2;
#X text 873 112 pdkez;
#X text 875 80 derek kwan;
#X text 875 147 gpl v 3 2017;
#X text 21 17 dkezspectfiltM~;
#X obj 782 31 inlet;
#X obj 612 165 f \$1;
#X text 834 25 bypass;
#X obj 404 27 inlet;
#X text 458 30 gainlist;
#X obj 407 101 s \$0-ezfftgain;
#X obj 588 31 inlet;
#X text 640 32 overall gain;
#X msg 588 56 const \$1;
#X text 230 23 sig;
#X obj 468 406 pack \$0 f f;
#X msg 468 431 \; \$1-ezfftgain resize \$2 \; \$1-ezfftgain bounds
0 1 \$3 -0.01 \; \$1-ezfftgain xticks 0 128 4 \; \$1-ezfftgain yticks
0 0.1 5 \;;
#X msg 416 215 0;
#X obj 189 434 == 0;
#X obj 82 485 pdkvabs/dkfftfilt~ 1024 \$0-ezfftgain;
#X connect 1 0 36 2;
#X connect 2 0 20 0;
#X connect 6 0 15 0;
#X connect 7 0 2 0;
#X connect 7 1 20 0;
#X connect 8 0 18 0;
#X connect 9 0 10 0;
#X connect 9 0 11 0;
#X connect 11 0 12 0;
#X connect 11 1 12 1;
#X connect 12 0 13 0;
#X connect 14 0 9 0;
#X connect 15 0 14 0;
#X connect 15 0 38 0;
#X connect 15 1 36 0;
#X connect 15 2 27 0;
#X connect 16 0 8 1;
#X connect 16 0 40 0;
#X connect 17 0 8 2;
#X connect 17 0 39 0;
#X connect 20 0 21 0;
#X connect 20 0 40 1;
#X connect 21 0 1 0;
#X connect 21 0 36 1;
#X connect 26 0 17 0;
#X connect 27 0 7 0;
#X connect 29 0 31 0;
#X connect 32 0 34 0;
#X connect 34 0 31 0;
#X connect 36 0 37 0;
#X connect 38 0 17 0;
#X connect 39 0 40 2;
#X connect 40 0 8 0;
#X coords 0 -1 1 1 275 215 1 100 100;
