#N canvas 517 187 1734 755 12;
#X floatatom 142 127 5 0 0 0 count #0-ezctr-count_r #0-ezctr-count
, f 5;
#X obj 197 648 outlet;
#X text 255 647 count;
#X obj 356 656 outlet;
#X text 414 652 begin;
#X obj 485 656 outlet;
#X text 542 657 end;
#X obj 283 106 tgl 15 0 \$0-ezctr-tgl \$0-ezctr-tgl_r on 17 7 0 12
-262144 -1 -1 0 1;
#X floatatom 135 148 5 0 0 0 step #0-ezctr-step_r #0-ezctr-step, f
5;
#X floatatom 282 149 5 0 0 0 lim #0-ezctr-lim_r #0-ezctr-lim, f 5
;
#X floatatom 214 149 5 0 0 0 start #0-ezctr-start_r #0-ezctr-start
, f 5;
#X obj 225 128 bng 15 250 50 0 \$0-ezctr-reset \$0-ezctr-reset_r reset
17 7 0 12 -262144 -1 -1;
#X obj 307 368 r \$0-ezctr-start;
#X obj 184 128 bng 15 250 50 0 \$0-ezctr-set \$0-ezctr-set_r set 17
7 0 12 -262144 -1 -1;
#X text 393 17 use "count" numbox to set;
#X obj 262 343 r \$0-ezctr-count;
#X obj 208 381 f;
#X obj 144 330 r \$0-ezctr-set;
#X obj 280 127 bng 15 250 50 0 \$0-ezctr-trig \$0-ezctr-trig_r trig
17 7 0 12 -262144 -1 -1;
#X obj 369 109 inlet;
#X obj 389 286 s \$0-ezctr-trig_r;
#X obj 435 319 s \$0-ezctr-set_r;
#X obj 546 284 s \$0-ezctr-reset_r;
#X obj 571 319 s \$0-ezctr-tgl_r;
#X obj 607 352 s \$0-ezctr-count_r;
#X obj 698 293 s \$0-ezctr-step_r;
#X obj 753 362 s \$0-ezctr-start_r;
#X msg 208 405 set \$1;
#X msg 307 392 start \$1;
#X obj 24 184 r \$0-ezctr-trig;
#X obj 727 327 s \$0-ezctr-lim_r;
#N canvas 1538 372 783 460 ezctr-args 0;
#X obj 54 65 loadbang;
#X obj 54 136 f \$1;
#X obj 54 183 moses 1e-20;
#X msg 54 207 32;
#X obj 54 231 s \$0-ezctr-lim_r;
#X obj 198 139 f \$2;
#X obj 198 163 moses 1e-20;
#X msg 198 187 1;
#X obj 198 211 s \$0-ezctr-step_r;
#X obj 327 149 f \$3;
#X obj 327 173 s \$0-ezctr-start_r;
#X obj 54 89 t b b b, f 45;
#X connect 0 0 11 0;
#X connect 1 0 2 0;
#X connect 2 0 3 0;
#X connect 2 1 4 0;
#X connect 3 0 4 0;
#X connect 5 0 6 0;
#X connect 6 0 7 0;
#X connect 6 1 8 0;
#X connect 7 0 8 0;
#X connect 9 0 10 0;
#X connect 11 0 1 0;
#X connect 11 1 5 0;
#X connect 11 2 9 0;
#X restore 589 557 pd ezctr-args;
#X obj 76 302 spigot 0;
#X obj 250 277 r \$0-ezctr-lim;
#X msg 250 301 limit \$1;
#X obj 240 510 s \$0-ezctr-count_r;
#X msg 76 368 bang;
#X obj 167 231 r \$0-ezctr-tgl;
#X obj 368 253 spigot 0;
#X obj 463 86 r \$0-ezctr-tgl;
#X obj 204 430 pdkvabs/dkvanctr 32, f 34;
#X obj 447 356 r \$0-ezctr-step;
#X obj 638 458 r \$0-ezctr-reset;
#X text 715 571 args: lim \, step \, start \, sync?;
#X text 16 19 dkezctr:;
#X text 1070 13 derek kwan;
#X text 1066 43 pdkez;
#X text 1069 64 gpl v 3 2018;
#X obj 591 96 inlet;
#X obj 708 110 inlet;
#X msg 591 120 lim \$1;
#X msg 708 134 step \$1;
#X obj 796 113 inlet;
#X msg 796 137 reset;
#X text 415 111 msgs;
#X text 639 89 limit;
#X text 720 76 stepsize;
#X text 824 83 reset;
#X text 28 55 inlets: msgs/trig/float(for on) \, limit \, stepsize
\, reset;
#X obj 366 211 route bang trig set reset on count step lim start float
;
#X connect 12 0 28 0;
#X connect 15 0 16 1;
#X connect 16 0 27 0;
#X connect 17 0 16 0;
#X connect 19 0 59 0;
#X connect 27 0 40 0;
#X connect 28 0 40 0;
#X connect 29 0 32 0;
#X connect 32 0 36 0;
#X connect 33 0 34 0;
#X connect 34 0 40 0;
#X connect 36 0 40 0;
#X connect 37 0 32 1;
#X connect 38 0 20 0;
#X connect 39 0 38 1;
#X connect 40 0 1 0;
#X connect 40 0 35 0;
#X connect 40 1 3 0;
#X connect 40 2 5 0;
#X connect 41 0 40 2;
#X connect 42 0 40 3;
#X connect 48 0 50 0;
#X connect 49 0 51 0;
#X connect 50 0 59 0;
#X connect 51 0 59 0;
#X connect 52 0 53 0;
#X connect 53 0 59 0;
#X connect 59 0 38 0;
#X connect 59 1 38 0;
#X connect 59 2 21 0;
#X connect 59 3 22 0;
#X connect 59 4 23 0;
#X connect 59 5 24 0;
#X connect 59 6 25 0;
#X connect 59 7 30 0;
#X connect 59 8 26 0;
#X connect 59 9 23 0;
#X coords 0 -1 1 1 230 70 1 100 100;
