#N canvas 329 294 933 471 12;
#X obj 112 182 hsl 175 15 0 1 0 0 \$0-ezgrnchop_pos-min \$0-ezgrnchop_pos-min_r
min_pos -2 -8 0 12 -262144 -1 -1 0 1;
#X floatatom 297 182 7 0 0 0 - - -, f 7;
#X obj 111 214 hsl 170 15 0 1 0 0 \$0-ezgrnchop_pos-max \$0-ezgrnchop_pos-max_r
max_pos -2 -8 0 12 -262144 -1 -1 16900 1;
#X floatatom 294 210 7 0 0 0 - - -, f 7;
#X obj 104 143 bng 20 250 50 0 \$0-ezgrnchop_trig empty trig 0 -7 0
12 -262144 -1 -1;
#X obj 165 161 tgl 15 0 \$0-ezgrnchop_randpos \$0-ezgrnchop_randpos_r
rand_pos 17 7 0 12 -262144 -1 -1 0 1;
#X obj 231 234 tgl 15 0 \$0-ezgrnchop_randspeed \$0-ezgrnchop_randspeed_r
rand_spd 17 7 0 12 -262144 -1 -1 0 1;
#X obj 105 299 tgl 15 0 \$0-ezgrnchop_randtpose \$0-ezgrnchop_randtpose_r
rand_tp 17 7 0 12 -262144 -1 -1 0 1;
#X obj 109 233 tgl 15 0 \$0-ezgrnchop_randdur \$0-ezgrnchop_randdur_r
rnd_dur 17 7 0 12 -262144 -1 -1 0 1;
#X obj 160 140 tgl 15 0 \$0-ezgrnchop_sync \$0-ezgrnchop_sync_r sync
17 7 0 12 -262144 -1 -1 0 1;
#X floatatom 183 279 5 1 1e+30 0 max_dur #0-ezgrnchop_dur-max_r #0-ezgrnchop_dur-max
, f 5;
#X floatatom 183 256 5 1 1e+30 0 min_dur #0-ezgrnchop_dur-min_r #0-ezgrnchop_dur-min
, f 5;
#X floatatom 313 255 5 0 0 0 min_speed #0-ezgrnchop_speed-min_r #0-ezgrnchop_speed-min
, f 5;
#X floatatom 315 278 5 0 0 0 max_speed #0-ezgrnchop_speed-max_r #0-ezgrnchop_speed-max
, f 5;
#X obj 307 234 bng 15 250 50 0 \$0-ezgrnchop_spd1 empty spd_1 17 7
0 12 -262144 -1 -1;
#X floatatom 179 335 5 0 0 0 min_tpose #0-ezgrnchop_tpose-min_r #0-ezgrnchop_tpose-min
, f 5;
#X floatatom 181 359 5 0 0 0 max_tpose #0-ezgrnchop_tpose-max_r #0-ezgrnchop_tpose-max
, f 5;
#X obj 176 300 bng 15 250 50 0 \$0-ezgrnchop_tpose0 empty tp_0 17 7
0 12 -262144 -1 -1;
#X obj 208 141 tgl 15 0 \$0-ezgrnchop_loop \$0-ezgrnchop_loop_r loop
17 7 0 12 -262144 -1 -1 0 1;
#X floatatom 303 158 5 0 1e+30 0 base_dur #0-ezgrnchop_dur-base_r #0-ezgrnchop_dur-base
, f 5;
#X floatatom 321 350 5 0 1e+30 0 max_break #0-ezgrnchop_break-max_r
#0-ezgrnchop_break-max, f 5;
#X floatatom 274 132 5 1 1e+30 0 len #0-ezgrnchop_length_r #0-ezgrnchop_length
, f 5;
#X obj 109 27 inlet;
#X obj 227 23 inlet;
#X text 165 27 trig;
#X text 283 24 sync;
#X obj 322 25 inlet;
#X text 387 25 loop;
#X text 428 149 args: array \, durbase \, sync \, loop;
#X obj 227 48 f \$3;
#X obj 322 50 f \$4;
#X obj 134 143 bng 20 250 50 0 \$0-ezgrnchop_stop empty stop 0 -7 0
12 -262144 -1 -1;
#X text 793 28 derek kwan;
#X text 793 48 pdkez;
#X text 793 70 gpl v 3 2017;
#X obj 178 234 bng 15 250 50 0 \$0-ezgrnchop_dur1 empty dur_1 17 7
0 12 -262144 -1 -1;
#X floatatom 321 327 5 0 1e+30 0 min_break #0-ezgrnchop_break-min_r
#0-ezgrnchop_break-min, f 5;
#X obj 233 305 tgl 15 0 \$0-ezgrnchop_randbreak \$0-ezgrnchop_randbreak_r
rand_brk 17 7 0 12 -262144 -1 -1 0 1;
#X obj 312 305 bng 15 250 50 0 \$0-ezgrnchop_break0 empty brk_0 17
7 0 12 -262144 -1 -1;
#X obj 125 318 tgl 15 0 \$0-ezgrnchop_tpose_i \$0-ezgrnchop_tpose_i_r
tp_i 17 7 0 12 -262144 -1 -1 0 1;
#X text 34 398 tp_i: restrict tranposition to integers;
#X obj 628 23 inlet;
#X text 683 26 messages;
#N canvas 1453 126 1020 504 pdkez_ezgrnchop_msg 0;
#X obj 64 44 inlet;
#X obj 61 165 s \$0-ezgrnchop_pos-min_r;
#X obj 88 192 s \$0-ezgrnchop_pos-max_r;
#X obj 128 230 s \$0-ezgrnchop_dur-min_r;
#X obj 166 264 s \$0-ezgrnchop_dur-max_r;
#X obj 195 305 s \$0-ezgrnchop_speed-min_r;
#X obj 233 339 s \$0-ezgrnchop_speed-max_r;
#X obj 266 370 s \$0-ezgrnchop_tpose-min_r;
#X obj 304 404 s \$0-ezgrnchop_tpose-max_r;
#X obj 308 166 s \$0-ezgrnchop_break-min_r;
#X obj 346 200 s \$0-ezgrnchop_break-max_r;
#X obj 387 238 s \$0-ezgrnchop_randpos_r;
#X obj 422 269 s \$0-ezgrnchop_randdur_r;
#X obj 458 298 s \$0-ezgrnchop_randspeed_r;
#X obj 508 334 s \$0-ezgrnchop_randtpose_r;
#X obj 541 373 s \$0-ezgrnchop_randbreak_r;
#X obj 595 171 s \$0-ezgrnchop_length_r;
#X obj 630 210 s \$0-ezgrnchop_dur-base_r;
#X obj 699 243 s \$0-ezgrnchop_sync_r;
#X obj 727 275 s \$0-ezgrnchop_loop_r;
#X obj 754 331 s \$0-ezgrnchop_tpose_i_r;
#X obj 60 93 route min_pos max_pos min_dur max_dur min_speed max_speed
min_tpose max_tpose min_break max_break rand_pos rand_dur rand_speed
rand_tpose rand_break length base_dur sync loop tpose_i ch, f 108
;
#X obj 777 157 s \$0-ezgrnchop_ch_r;
#X connect 0 0 21 0;
#X connect 21 0 1 0;
#X connect 21 1 2 0;
#X connect 21 2 3 0;
#X connect 21 3 4 0;
#X connect 21 4 5 0;
#X connect 21 5 6 0;
#X connect 21 6 7 0;
#X connect 21 7 8 0;
#X connect 21 8 9 0;
#X connect 21 9 10 0;
#X connect 21 10 11 0;
#X connect 21 11 12 0;
#X connect 21 12 13 0;
#X connect 21 13 14 0;
#X connect 21 14 15 0;
#X connect 21 15 16 0;
#X connect 21 16 17 0;
#X connect 21 17 18 0;
#X connect 21 18 19 0;
#X connect 21 19 20 0;
#X connect 21 20 22 0;
#X restore 584 88 pd pdkez_ezgrnchop_msg;
#N canvas 1379 361 938 655 pdkez_ezgrnchop_load 0;
#X obj 311 281 f \$0;
#X obj 320 252 r \$0-ezgrnchop_spd1;
#X obj 316 370 r \$0-ezgrnchop_tpose0;
#X obj 311 417 f \$0;
#X obj 103 37 loadbang;
#X obj 126 149 f \$2;
#X obj 69 252 pack \$0 f;
#X obj 126 174 moses 1;
#X msg 126 199 125;
#X msg 311 306 \; \$1-ezgrnchop_speed-min_r 1 \; \$1-ezgrnchop_speed-max_r
1;
#X msg 311 442 \; \$1-ezgrnchop_tpose-min_r 0 \; \$1-ezgrnchop_tpose-max_r
0;
#X obj 350 151 r \$0-ezgrnchop_dur1;
#X obj 350 176 f \$0;
#X msg 350 201 \; \$1-ezgrnchop_dur-min_r 1 \; \$1-ezgrnchop_dur-max_r
1;
#X obj 391 58 r \$0-ezgrnchop_break0;
#X obj 391 84 f \$0;
#X msg 385 112 \; \$1-ezgrnchop_break-min_r 0 \; \$1-ezgrnchop_break-max_r
0;
#X obj 97 71 t b b b b b b, f 33;
#X msg 56 313 \; \$1-ezgrnchop_pos-min_r 0 \; \$1-ezgrnchop_pos-max_r
1 \; \$1-ezgrnchop_dur-base_r \$2 \; \$1-ezgrnchop_break-min_r 0 \;
\$1-ezgrnchop_randpos_r 0 \; \$1-ezgrnchop_randdur_r 0 \; \$1-ezgrnchop_randbreak_r
0 \; \$1-ezgrnchop_randspeed_r 0 \; \$1-ezgrnchop_randtpose_r 0 \;
\$1-ezgrnchop_length_r 1 \; \$1-ezgrnchop_tpose_i_r 0 \; \$1-ezgrnchop_sync_r
0 \; \$1-ezgrnchop_loop_r 0 \; \$1-ezgrnchop_ch_r 100 \;;
#X connect 0 0 9 0;
#X connect 1 0 0 0;
#X connect 2 0 3 0;
#X connect 3 0 10 0;
#X connect 4 0 17 0;
#X connect 5 0 7 0;
#X connect 6 0 18 0;
#X connect 7 0 8 0;
#X connect 7 1 6 1;
#X connect 8 0 6 1;
#X connect 11 0 12 0;
#X connect 12 0 13 0;
#X connect 14 0 15 0;
#X connect 15 0 16 0;
#X connect 17 0 6 0;
#X connect 17 1 5 0;
#X connect 17 2 3 0;
#X connect 17 3 0 0;
#X connect 17 4 12 0;
#X connect 17 5 15 0;
#X restore 424 304 pd pdkez_ezgrnchop_load;
#N canvas 368 251 1560 1014 pdkez_ezgrnchop_snd 0;
#X obj 530 487 pdkvabs/dkbangroute;
#X obj 480 348 f 0;
#X obj 463 280 r \$0-ezgrnchop_trig;
#X obj 702 320 inlet;
#X obj 819 71 r \$0-ezgrnchop_randdur;
#X obj 886 117 r \$0-ezgrnchop_randspeed;
#X obj 886 142 t b f;
#X obj 983 155 r \$0-ezgrnchop_randtpose;
#X obj 983 180 t b f;
#X obj 482 552 list, f 19;
#X obj 819 96 t b f;
#X obj 744 28 r \$0-ezgrnchop_randpos;
#X obj 653 879 outlet;
#X text 710 889 trig;
#N canvas 416 325 1091 692 pdkez_ezgrnchop_listgen 0;
#X obj 102 108 unpack f f f f, f 62;
#X obj 120 520 pack f f f f, f 79;
#X obj 124 57 inlet;
#X text 192 53 norm/rand list;
#X obj 488 644 outlet;
#X text 558 650 trig;
#X obj 121 626 outlet;
#X text 194 584 param list;
#X obj 120 396 util/pdkez_randhelp-f \$0-ezgrnchop_pos;
#X obj 369 331 util/pdkez_randhelp-f \$0-ezgrnchop_speed;
#X obj 289 368 util/pdkez_randhelp-i \$0-ezgrnchop_dur;
#X obj 289 459 *;
#X obj 351 433 r \$0-ezgrnchop_dur-base;
#X obj 614 654 outlet;
#X msg 615 614 \$2;
#X text 659 621 dur, f 33;
#X obj 573 295 util/pdkez_randhelp-f \$0-ezgrnchop_tpose;
#X obj 122 551 t l b l, f 60;
#X obj 586 214 route 0 1;
#X obj 593 159 pack f f;
#X msg 593 184 \$2 \$1;
#X obj 684 258 util/pdkez_randhelp-i \$0-ezgrnchop_tpose;
#X obj 666 106 r \$0-ezgrnchop_tpose_i;
#X connect 0 0 8 0;
#X connect 0 1 10 0;
#X connect 0 2 9 0;
#X connect 0 3 19 0;
#X connect 1 0 17 0;
#X connect 2 0 0 0;
#X connect 8 0 1 0;
#X connect 9 0 1 2;
#X connect 10 0 11 0;
#X connect 11 0 1 1;
#X connect 12 0 11 1;
#X connect 14 0 13 0;
#X connect 16 0 1 3;
#X connect 17 0 6 0;
#X connect 17 1 4 0;
#X connect 17 2 14 0;
#X connect 18 0 16 0;
#X connect 18 1 21 0;
#X connect 19 0 20 0;
#X connect 20 0 18 0;
#X connect 21 0 1 3;
#X connect 22 0 19 1;
#X restore 458 697 pd pdkez_ezgrnchop_listgen;
#X text 809 768 loopback;
#X obj 571 735 t b b;
#X obj 755 778 f;
#X obj 481 434 sel 0 1, f 33;
#X obj 531 309 r \$0-ezgrnchop_sync;
#X obj 1036 611 spigot 0;
#X obj 1036 636 f;
#X obj 1059 560 r \$0-ezgrnchop_loop;
#X obj 712 257 pack 0 0 0 0, f 27;
#X obj 30 895 outlet~;
#X text 752 317 syncer;
#X obj 988 473 r \$0-ezgrnchop_stop;
#X msg 988 498 stop;
#X obj 827 561 r \$0-ezgrnchop_length;
#X obj 710 608 f;
#X obj 760 600 + 1;
#X obj 760 638 t f f;
#X msg 755 548 0;
#X obj 1123 628 r \$0-ezgrnchop_randbreak;
#X obj 798 669 >= 1;
#X obj 755 803 del;
#X obj 773 876 f;
#X obj 773 901 sel 0 1;
#X obj 798 694 t b f;
#X obj 484 393 t f b, f 49;
#X obj 1039 665 util/pdkez_randhelp-i \$0-ezgrnchop_break;
#X obj 1069 755 *;
#X obj 1131 729 r \$0-ezgrnchop_dur-base;
#X obj 1016 821 del;
#X obj 1069 780 sel 0;
#X obj 1043 858 s \$0-ezgrnchop_trig;
#X obj 514 892 outlet;
#X obj 514 820 list prepend;
#X text 530 865 count+list;
#X obj 149 690 r \$0-ezgrnchop_stop;
#X msg 149 715 stop;
#X obj 278 904 outlet~;
#X obj 30 853 pdkvabs/dksndchopgrn~ \$1-0 4 1;
#X obj 278 862 pdkvabs/dksndchopgrn~ \$1-1 4 1;
#X obj 477 632 pdkvabs/dkrgate 100;
#X obj 602 577 r \$0-ezgrnchop_ch;
#X connect 0 0 9 0;
#X connect 1 0 39 0;
#X connect 2 0 1 0;
#X connect 3 0 0 1;
#X connect 4 0 10 0;
#X connect 5 0 6 0;
#X connect 6 0 23 0;
#X connect 6 1 23 2;
#X connect 7 0 8 0;
#X connect 8 0 23 0;
#X connect 8 1 23 3;
#X connect 9 0 54 0;
#X connect 10 0 23 0;
#X connect 10 1 23 1;
#X connect 11 0 23 0;
#X connect 14 0 47 0;
#X connect 14 0 52 0;
#X connect 14 0 53 0;
#X connect 14 1 16 0;
#X connect 14 2 17 1;
#X connect 16 0 29 0;
#X connect 16 1 12 0;
#X connect 17 0 35 0;
#X connect 18 0 9 0;
#X connect 18 1 0 0;
#X connect 19 0 1 1;
#X connect 20 0 21 0;
#X connect 21 0 40 0;
#X connect 22 0 20 1;
#X connect 23 0 9 1;
#X connect 26 0 27 0;
#X connect 27 0 35 0;
#X connect 27 0 43 0;
#X connect 28 0 34 1;
#X connect 29 0 30 0;
#X connect 29 0 47 1;
#X connect 30 0 31 0;
#X connect 31 0 29 1;
#X connect 31 1 34 0;
#X connect 32 0 29 1;
#X connect 33 0 21 1;
#X connect 34 0 38 0;
#X connect 35 0 36 0;
#X connect 36 0 37 0;
#X connect 37 0 9 0;
#X connect 37 1 20 0;
#X connect 38 0 17 0;
#X connect 38 1 36 1;
#X connect 39 0 18 0;
#X connect 39 1 32 0;
#X connect 40 0 41 0;
#X connect 41 0 44 0;
#X connect 42 0 41 1;
#X connect 43 0 45 0;
#X connect 44 0 45 0;
#X connect 44 1 43 0;
#X connect 47 0 46 0;
#X connect 49 0 50 0;
#X connect 50 0 52 0;
#X connect 50 0 53 0;
#X connect 52 0 24 0;
#X connect 53 0 51 0;
#X connect 54 0 14 0;
#X connect 55 0 54 1;
#X restore 404 357 pd pdkez_ezgrnchop_snd;
#X obj 445 25 inlet;
#X obj 681 418 outlet;
#X obj 391 413 outlet~;
#X text 495 22 syncer;
#X obj 569 421 outlet;
#X text 585 394 count+list;
#X text 716 386 trig;
#X text 429 195 inlets: trig \, sync \, loop \, syncer \, messages
;
#X obj 466 422 outlet~;
#X text 433 230 outlets: sig \, sig \, count+list \, trig;
#X floatatom 329 131 5 0 0 0 ch #0-ezgrnchop_ch_r #0-ezgrnchop_ch,
f 5;
#X connect 0 0 1 0;
#X connect 2 0 3 0;
#X connect 22 0 4 0;
#X connect 23 0 29 0;
#X connect 26 0 30 0;
#X connect 29 0 9 0;
#X connect 30 0 18 0;
#X connect 41 0 43 0;
#X connect 45 0 48 0;
#X connect 45 1 54 0;
#X connect 45 2 50 0;
#X connect 45 3 47 0;
#X connect 46 0 45 0;
#X coords 0 -1 1 1 270 280 1 100 100;
