#N canvas 1020 213 909 825 12;
#X floatatom 268 231 5 0 0 0 - #0-eznobu-seq1_r #0-eznobu-seq1, f
5;
#X floatatom 227 231 5 0 0 0 - #0-eznobu-seq0_r #0-eznobu-seq0, f
5;
#X floatatom 350 231 5 0 0 0 - #0-eznobu-seq3_r #0-eznobu-seq3, f
5;
#X floatatom 309 231 5 0 0 0 - #0-eznobu-seq2_r #0-eznobu-seq2, f
5;
#X floatatom 431 231 5 0 0 0 - #0-eznobu-seq5_r #0-eznobu-seq5, f
5;
#X floatatom 390 231 5 0 0 0 - #0-eznobu-seq4_r #0-eznobu-seq4, f
5;
#X floatatom 513 231 5 0 0 0 - #0-eznobu-seq7_r #0-eznobu-seq7, f
5;
#X floatatom 472 231 5 0 0 0 - #0-eznobu-seq6_r #0-eznobu-seq6, f
5;
#X floatatom 268 253 5 0 0 0 - #0-eznobu-seq9_r #0-eznobu-seq9, f
5;
#X floatatom 227 253 5 0 0 0 - #0-eznobu-seq8_r #0-eznobu-seq8, f
5;
#X floatatom 350 253 5 0 0 0 - #0-eznobu-seq10_r #0-eznobu-seq10,
f 5;
#X floatatom 309 253 5 0 0 0 - #0-eznobu-seq11_r #0-eznobu-seq11,
f 5;
#X floatatom 431 253 5 0 0 0 - #0-eznobu-seq13_r #0-eznobu-seq13,
f 5;
#X floatatom 390 253 5 0 0 0 - #0-eznobu-seq12_r #0-eznobu-seq12,
f 5;
#X floatatom 513 253 5 0 0 0 - #0-eznobu-seq15_r #0-eznobu-seq15,
f 5;
#X floatatom 472 253 5 0 0 0 - #0-eznobu-seq14_r #0-eznobu-seq14,
f 5;
#X floatatom 268 275 5 0 0 0 - #0-eznobu-seq17_r #0-eznobu-seq17,
f 5;
#X floatatom 227 275 5 0 0 0 - #0-eznobu-seq16_r #0-eznobu-seq16,
f 5;
#X floatatom 350 275 5 0 0 0 - #0-eznobu-seq19_r #0-eznobu-seq19,
f 5;
#X floatatom 309 275 5 0 0 0 - #0-eznobu-seq18_r #0-eznobu-seq18,
f 5;
#X floatatom 431 275 5 0 0 0 - #0-eznobu-seq21_r #0-eznobu-seq21,
f 5;
#X floatatom 390 275 5 0 0 0 - #0-eznobu-seq20_r #0-eznobu-seq20,
f 5;
#X floatatom 513 275 5 0 0 0 - #0-eznobu-seq23_r #0-eznobu-seq23,
f 5;
#X floatatom 472 275 5 0 0 0 - #0-eznobu-seq22_r #0-eznobu-seq22,
f 5;
#X floatatom 268 296 5 0 0 0 - #0-eznobu-seq25_r #0-eznobu-seq25,
f 5;
#X floatatom 227 296 5 0 0 0 - #0-eznobu-seq24_r #0-eznobu-seq24,
f 5;
#X floatatom 350 296 5 0 0 0 - #0-eznobu-seq27_r #0-eznobu-seq27,
f 5;
#X floatatom 309 296 5 0 0 0 - #0-eznobu-seq26_r #0-eznobu-seq26,
f 5;
#X floatatom 431 296 5 0 0 0 - #0-eznobu-seq29_r #0-eznobu-seq29,
f 5;
#X floatatom 390 296 5 0 0 0 - #0-eznobu-seq28_r #0-eznobu-seq28,
f 5;
#X floatatom 513 296 5 0 0 0 - #0-eznobu-seq31_r #0-eznobu-seq31,
f 5;
#X floatatom 472 296 5 0 0 0 - #0-eznobu-seq30_r #0-eznobu-seq30,
f 5;
#X floatatom 646 230 10 0 1e+30 0 - #0-eznobu-loc1_r #0-eznobu-loc1
, f 10;
#X floatatom 570 230 10 0 1e+30 0 - #0-eznobu-loc0_r #0-eznobu-loc0
, f 10;
#X floatatom 799 230 10 0 1e+30 0 - #0-eznobu-loc3_r #0-eznobu-loc3
, f 10;
#X floatatom 723 230 10 0 1e+30 0 - #0-eznobu-loc2_r #0-eznobu-loc2
, f 10;
#X floatatom 646 253 10 0 1e+30 0 - #0-eznobu-loc5_r #0-eznobu-loc5
, f 10;
#X floatatom 570 253 10 0 1e+30 0 - #0-eznobu-loc4_r #0-eznobu-loc4
, f 10;
#X floatatom 799 253 10 0 1e+30 0 - #0-eznobu-loc7_r #0-eznobu-loc7
, f 10;
#X floatatom 723 253 10 0 1e+30 0 - #0-eznobu-loc6_r #0-eznobu-loc6
, f 10;
#X floatatom 646 276 10 0 1e+30 0 - #0-eznobu-loc9_r #0-eznobu-loc9
, f 10;
#X floatatom 570 276 10 0 1e+30 0 - #0-eznobu-loc8_r #0-eznobu-loc8
, f 10;
#X floatatom 799 276 10 0 1e+30 0 - #0-eznobu-loc11_r #0-eznobu-loc11
, f 10;
#X floatatom 723 276 10 0 1e+30 0 - #0-eznobu-loc10_r #0-eznobu-loc10
, f 10;
#X floatatom 646 298 10 0 1e+30 0 - #0-eznobu-loc13_r #0-eznobu-loc13
, f 10;
#X floatatom 570 298 10 0 1e+30 0 - #0-eznobu-loc12_r #0-eznobu-loc12
, f 10;
#X floatatom 799 298 10 0 1e+30 0 - #0-eznobu-loc15_r #0-eznobu-loc15
, f 10;
#X floatatom 723 298 10 0 1e+30 0 - #0-eznobu-loc14_r #0-eznobu-loc14
, f 10;
#X text 207 251 8;
#X text 202 274 16;
#X text 201 297 24;
#X obj 185 708 pdkvabs/dknobu~ \$1 \$0-dkeznobu_loc 125;
#X obj 203 14 inlet;
#N canvas 1440 347 1016 646 eznobu_locstuff 0;
#X obj 29 21 array define \$0-dkeznobu_loc 16;
#X obj 90 179 array set \$0-dkeznobu_loc;
#N canvas 735 317 1598 791 eznobu_locrcv 0;
#X obj 10 500 outlet;
#X obj 110 500 outlet;
#X obj 100 100 r \$0-eznobu-loc0;
#X obj 100 130 t f b;
#X msg 120 160 0;
#X obj 225 100 r \$0-eznobu-loc1;
#X obj 225 130 t f b;
#X msg 245 160 1;
#X obj 350 100 r \$0-eznobu-loc2;
#X obj 350 130 t f b;
#X msg 370 160 2;
#X obj 475 100 r \$0-eznobu-loc3;
#X obj 475 130 t f b;
#X msg 495 160 3;
#X obj 600 100 r \$0-eznobu-loc4;
#X obj 600 130 t f b;
#X msg 620 160 4;
#X obj 725 100 r \$0-eznobu-loc5;
#X obj 725 130 t f b;
#X msg 745 160 5;
#X obj 850 100 r \$0-eznobu-loc6;
#X obj 850 130 t f b;
#X msg 870 160 6;
#X obj 975 100 r \$0-eznobu-loc7;
#X obj 975 130 t f b;
#X msg 995 160 7;
#X obj 1100 100 r \$0-eznobu-loc8;
#X obj 1100 130 t f b;
#X msg 1120 160 8;
#X obj 530 236 r \$0-eznobu-loc9;
#X obj 530 266 t f b;
#X msg 550 296 9;
#X obj 655 231 r \$0-eznobu-loc10;
#X obj 655 266 t f b;
#X msg 675 296 10;
#X obj 780 236 r \$0-eznobu-loc11;
#X obj 780 266 t f b;
#X msg 800 296 11;
#X obj 905 236 r \$0-eznobu-loc12;
#X obj 905 266 t f b;
#X msg 925 296 12;
#X obj 1030 236 r \$0-eznobu-loc13;
#X obj 1030 266 t f b;
#X msg 1050 296 13;
#X obj 1155 236 r \$0-eznobu-loc14;
#X obj 1155 266 t f b;
#X msg 1175 296 14;
#X obj 1280 236 r \$0-eznobu-loc15;
#X obj 1280 266 t f b;
#X msg 1300 296 15;
#X connect 2 0 3 0;
#X connect 3 0 0 0;
#X connect 3 1 4 0;
#X connect 4 0 1 0;
#X connect 5 0 6 0;
#X connect 6 0 0 0;
#X connect 6 1 7 0;
#X connect 7 0 1 0;
#X connect 8 0 9 0;
#X connect 9 0 0 0;
#X connect 9 1 10 0;
#X connect 10 0 1 0;
#X connect 11 0 12 0;
#X connect 12 0 0 0;
#X connect 12 1 13 0;
#X connect 13 0 1 0;
#X connect 14 0 15 0;
#X connect 15 0 0 0;
#X connect 15 1 16 0;
#X connect 16 0 1 0;
#X connect 17 0 18 0;
#X connect 18 0 0 0;
#X connect 18 1 19 0;
#X connect 19 0 1 0;
#X connect 20 0 21 0;
#X connect 21 0 0 0;
#X connect 21 1 22 0;
#X connect 22 0 1 0;
#X connect 23 0 24 0;
#X connect 24 0 0 0;
#X connect 24 1 25 0;
#X connect 25 0 1 0;
#X connect 26 0 27 0;
#X connect 27 0 0 0;
#X connect 27 1 28 0;
#X connect 28 0 1 0;
#X connect 29 0 30 0;
#X connect 30 0 0 0;
#X connect 30 1 31 0;
#X connect 31 0 1 0;
#X connect 32 0 33 0;
#X connect 33 0 0 0;
#X connect 33 1 34 0;
#X connect 34 0 1 0;
#X connect 35 0 36 0;
#X connect 36 0 0 0;
#X connect 36 1 37 0;
#X connect 37 0 1 0;
#X connect 38 0 39 0;
#X connect 39 0 0 0;
#X connect 39 1 40 0;
#X connect 40 0 1 0;
#X connect 41 0 42 0;
#X connect 42 0 0 0;
#X connect 42 1 43 0;
#X connect 43 0 1 0;
#X connect 44 0 45 0;
#X connect 45 0 0 0;
#X connect 45 1 46 0;
#X connect 46 0 1 0;
#X connect 47 0 48 0;
#X connect 48 0 0 0;
#X connect 48 1 49 0;
#X connect 49 0 1 0;
#X restore 81 108 pd eznobu_locrcv;
#X obj 303 110 list length;
#X obj 309 64 t l l, f 21;
#X obj 294 150 pdkvabs/dkfor;
#X msg 294 233 get \$1 1;
#X obj 294 174 t f f, f 13;
#X obj 294 257 list store, f 25;
#X obj 307 391 s;
#X obj 702 99 loadbang;
#X obj 702 147 pdkvabs/dkfor;
#X obj 714 413 s;
#X obj 701 196 t b f, f 13;
#X text 773 97 init;
#X msg 702 123 16;
#X obj 794 336 makefilename \$0-eznobu-loc%d_r;
#X obj 387 314 makefilename \$0-eznobu-loc%d_r;
#X obj 309 40 r \$0-eznobu_loclist;
#X connect 2 0 1 0;
#X connect 2 1 1 1;
#X connect 3 0 5 0;
#X connect 4 0 3 0;
#X connect 4 1 8 1;
#X connect 5 0 7 0;
#X connect 6 0 8 0;
#X connect 7 0 6 0;
#X connect 7 1 17 0;
#X connect 8 0 9 0;
#X connect 10 0 15 0;
#X connect 11 0 13 0;
#X connect 13 0 12 0;
#X connect 13 1 16 0;
#X connect 15 0 11 0;
#X connect 16 0 12 1;
#X connect 17 0 9 1;
#X connect 18 0 4 0;
#X restore 199 395 pd eznobu_locstuff;
#N canvas 414 414 1246 784 eznobu_seqstuff 0;
#X obj 47 68 array define \$0-dkeznobu_seq 32;
#N canvas 503 163 1808 762 eznobu_seqrcv 0;
#X obj 73 738 outlet;
#X obj 173 738 outlet;
#X obj 100 100 r \$0-eznobu-seq0;
#X obj 100 130 t f b;
#X msg 120 160 0;
#X obj 225 100 r \$0-eznobu-seq1;
#X obj 225 130 t f b;
#X msg 245 160 1;
#X obj 350 100 r \$0-eznobu-seq2;
#X obj 350 130 t f b;
#X msg 370 160 2;
#X obj 475 100 r \$0-eznobu-seq3;
#X obj 475 130 t f b;
#X msg 495 160 3;
#X obj 600 100 r \$0-eznobu-seq4;
#X obj 600 130 t f b;
#X msg 620 160 4;
#X obj 725 100 r \$0-eznobu-seq5;
#X obj 725 130 t f b;
#X msg 745 160 5;
#X obj 850 100 r \$0-eznobu-seq6;
#X obj 850 130 t f b;
#X msg 870 160 6;
#X obj 975 100 r \$0-eznobu-seq7;
#X obj 975 130 t f b;
#X msg 995 160 7;
#X obj 636 318 r \$0-eznobu-seq8;
#X obj 632 343 t f b;
#X msg 656 378 8;
#X obj 761 318 r \$0-eznobu-seq9;
#X obj 761 348 t f b;
#X msg 781 378 9;
#X obj 886 318 r \$0-eznobu-seq10;
#X obj 886 348 t f b;
#X msg 906 378 10;
#X obj 1011 318 r \$0-eznobu-seq11;
#X obj 1011 348 t f b;
#X msg 1031 378 11;
#X obj 1136 318 r \$0-eznobu-seq12;
#X obj 1136 348 t f b;
#X msg 1156 378 12;
#X obj 1261 318 r \$0-eznobu-seq13;
#X obj 1261 348 t f b;
#X msg 1281 378 13;
#X obj 1386 318 r \$0-eznobu-seq14;
#X obj 1386 348 t f b;
#X msg 1406 378 14;
#X obj 1511 318 r \$0-eznobu-seq15;
#X obj 1511 348 t f b;
#X msg 1531 378 15;
#X obj 657 462 r \$0-eznobu-seq16;
#X obj 657 492 t f b;
#X msg 677 522 16;
#X obj 782 462 r \$0-eznobu-seq17;
#X obj 782 492 t f b;
#X msg 802 522 17;
#X obj 907 462 r \$0-eznobu-seq18;
#X obj 907 492 t f b;
#X msg 927 522 18;
#X obj 1032 462 r \$0-eznobu-seq19;
#X obj 1032 492 t f b;
#X msg 1052 522 19;
#X obj 1157 462 r \$0-eznobu-seq20;
#X obj 1157 492 t f b;
#X msg 1177 522 20;
#X obj 1282 462 r \$0-eznobu-seq21;
#X obj 1282 492 t f b;
#X msg 1302 522 21;
#X obj 1407 462 r \$0-eznobu-seq22;
#X obj 1407 492 t f b;
#X msg 1427 522 22;
#X obj 1532 462 r \$0-eznobu-seq23;
#X obj 1532 492 t f b;
#X msg 1552 522 23;
#X obj 646 575 r \$0-eznobu-seq24;
#X obj 646 605 t f b;
#X msg 666 635 24;
#X obj 771 575 r \$0-eznobu-seq25;
#X obj 771 605 t f b;
#X msg 791 635 25;
#X obj 896 575 r \$0-eznobu-seq26;
#X obj 896 605 t f b;
#X msg 916 635 26;
#X obj 1021 575 r \$0-eznobu-seq27;
#X obj 1021 605 t f b;
#X msg 1041 635 27;
#X obj 1146 575 r \$0-eznobu-seq28;
#X obj 1146 605 t f b;
#X msg 1166 635 28;
#X obj 1271 575 r \$0-eznobu-seq29;
#X obj 1271 605 t f b;
#X msg 1291 635 29;
#X obj 1396 575 r \$0-eznobu-seq30;
#X obj 1396 605 t f b;
#X msg 1416 635 30;
#X obj 1521 575 r \$0-eznobu-seq31;
#X obj 1521 605 t f b;
#X msg 1541 635 31;
#X connect 2 0 3 0;
#X connect 3 0 0 0;
#X connect 3 1 4 0;
#X connect 4 0 1 0;
#X connect 5 0 6 0;
#X connect 6 0 0 0;
#X connect 6 1 7 0;
#X connect 7 0 1 0;
#X connect 8 0 9 0;
#X connect 9 0 0 0;
#X connect 9 1 10 0;
#X connect 10 0 1 0;
#X connect 11 0 12 0;
#X connect 12 0 0 0;
#X connect 12 1 13 0;
#X connect 13 0 1 0;
#X connect 14 0 15 0;
#X connect 15 0 0 0;
#X connect 15 1 16 0;
#X connect 16 0 1 0;
#X connect 17 0 18 0;
#X connect 18 0 0 0;
#X connect 18 1 19 0;
#X connect 19 0 1 0;
#X connect 20 0 21 0;
#X connect 21 0 0 0;
#X connect 21 1 22 0;
#X connect 22 0 1 0;
#X connect 23 0 24 0;
#X connect 24 0 0 0;
#X connect 24 1 25 0;
#X connect 25 0 1 0;
#X connect 26 0 27 0;
#X connect 27 0 0 0;
#X connect 27 1 28 0;
#X connect 28 0 1 0;
#X connect 29 0 30 0;
#X connect 30 0 0 0;
#X connect 30 1 31 0;
#X connect 31 0 1 0;
#X connect 32 0 33 0;
#X connect 33 0 0 0;
#X connect 33 1 34 0;
#X connect 34 0 1 0;
#X connect 35 0 36 0;
#X connect 36 0 0 0;
#X connect 36 1 37 0;
#X connect 37 0 1 0;
#X connect 38 0 39 0;
#X connect 39 0 0 0;
#X connect 39 1 40 0;
#X connect 40 0 1 0;
#X connect 41 0 42 0;
#X connect 42 0 0 0;
#X connect 42 1 43 0;
#X connect 43 0 1 0;
#X connect 44 0 45 0;
#X connect 45 0 0 0;
#X connect 45 1 46 0;
#X connect 46 0 1 0;
#X connect 47 0 48 0;
#X connect 48 0 0 0;
#X connect 48 1 49 0;
#X connect 49 0 1 0;
#X connect 50 0 51 0;
#X connect 51 0 0 0;
#X connect 51 1 52 0;
#X connect 52 0 1 0;
#X connect 53 0 54 0;
#X connect 54 0 0 0;
#X connect 54 1 55 0;
#X connect 55 0 1 0;
#X connect 56 0 57 0;
#X connect 57 0 0 0;
#X connect 57 1 58 0;
#X connect 58 0 1 0;
#X connect 59 0 60 0;
#X connect 60 0 0 0;
#X connect 60 1 61 0;
#X connect 61 0 1 0;
#X connect 62 0 63 0;
#X connect 63 0 0 0;
#X connect 63 1 64 0;
#X connect 64 0 1 0;
#X connect 65 0 66 0;
#X connect 66 0 0 0;
#X connect 66 1 67 0;
#X connect 67 0 1 0;
#X connect 68 0 69 0;
#X connect 69 0 0 0;
#X connect 69 1 70 0;
#X connect 70 0 1 0;
#X connect 71 0 72 0;
#X connect 72 0 0 0;
#X connect 72 1 73 0;
#X connect 73 0 1 0;
#X connect 74 0 75 0;
#X connect 75 0 0 0;
#X connect 75 1 76 0;
#X connect 76 0 1 0;
#X connect 77 0 78 0;
#X connect 78 0 0 0;
#X connect 78 1 79 0;
#X connect 79 0 1 0;
#X connect 80 0 81 0;
#X connect 81 0 0 0;
#X connect 81 1 82 0;
#X connect 82 0 1 0;
#X connect 83 0 84 0;
#X connect 84 0 0 0;
#X connect 84 1 85 0;
#X connect 85 0 1 0;
#X connect 86 0 87 0;
#X connect 87 0 0 0;
#X connect 87 1 88 0;
#X connect 88 0 1 0;
#X connect 89 0 90 0;
#X connect 90 0 0 0;
#X connect 90 1 91 0;
#X connect 91 0 1 0;
#X connect 92 0 93 0;
#X connect 93 0 0 0;
#X connect 93 1 94 0;
#X connect 94 0 1 0;
#X connect 95 0 96 0;
#X connect 96 0 0 0;
#X connect 96 1 97 0;
#X connect 97 0 1 0;
#X restore 44 144 pd eznobu_seqrcv;
#X obj 55 224 array set \$0-dkeznobu_seq;
#X obj 303 110 list length;
#X obj 309 64 t l l, f 21;
#X obj 294 150 pdkvabs/dkfor;
#X msg 294 233 get \$1 1;
#X obj 294 174 t f f, f 13;
#X obj 294 257 list store, f 25;
#X obj 307 391 s;
#X obj 702 99 loadbang;
#X msg 702 123 32;
#X obj 702 147 pdkvabs/dkfor;
#X obj 714 413 s;
#X obj 701 196 t b f, f 13;
#X text 773 97 init;
#X obj 309 40 r \$0-eznobu_seqlist;
#X obj 794 336 makefilename \$0-eznobu-seq%d_r;
#X obj 387 314 makefilename \$0-eznobu-seq%d_r;
#X connect 1 0 2 0;
#X connect 1 1 2 1;
#X connect 3 0 5 0;
#X connect 4 0 3 0;
#X connect 4 1 8 1;
#X connect 5 0 7 0;
#X connect 6 0 8 0;
#X connect 7 0 6 0;
#X connect 7 1 18 0;
#X connect 8 0 9 0;
#X connect 10 0 11 0;
#X connect 11 0 12 0;
#X connect 12 0 14 0;
#X connect 14 0 13 0;
#X connect 14 1 17 0;
#X connect 16 0 4 0;
#X connect 17 0 13 1;
#X connect 18 0 9 1;
#X restore 198 363 pd eznobu_seqstuff;
#N canvas 820 499 1177 798 eznobu-dynamicpatcher 0;
#X obj 386 404 pack f f f 100 130 160 f f f;
#X msg 470 551 clear;
#X msg 613 216 obj 10 500 outlet \, obj 110 500 outlet;
#X obj 457 245 expr ($f1*3)+$f2 \; ($f1*125)+100 \; ($f1*125)+120 \;
($f1*3)+$f2+1 \; ($f1*3)+$f2+2 \; $f1, f 33;
#X obj 496 129 t f b b b;
#X msg 638 148 2;
#X obj 392 350 change;
#X msg 496 105 32, f 7;
#X msg 375 484 obj \$2 \$4 r #0-eznobu-seq\$9 \, obj \$2 \$5 t f b
\, msg \$3 \$6 \$9 \, connect \$1 0 \$7 0 \, connect \$7 0 0 0 \, connect
\$7 1 \$8 0 \, connect \$8 0 1 0;
#X obj 376 593 s pd-eznobu_seqrcv;
#X obj 450 198 pdkvabs/dkfor;
#X connect 0 0 8 0;
#X connect 1 0 9 0;
#X connect 2 0 9 0;
#X connect 3 0 6 0;
#X connect 3 1 0 1;
#X connect 3 1 0 1;
#X connect 3 2 0 2;
#X connect 3 2 0 2;
#X connect 3 3 0 6;
#X connect 3 4 0 7;
#X connect 3 5 0 8;
#X connect 4 0 10 0;
#X connect 4 1 2 0;
#X connect 4 2 1 0;
#X connect 4 3 5 0;
#X connect 5 0 3 1;
#X connect 6 0 0 0;
#X connect 7 0 4 0;
#X connect 8 0 9 0;
#X connect 10 0 3 0;
#X connect 10 0 3 0;
#X restore 206 425 pd eznobu-dynamicpatcher;
#X obj 206 176 s \$0-eznobu_seqlist;
#X obj 233 153 s \$0-eznobu_loclist;
#X obj 264 126 s \$0-eznobu_absrel_r;
#X obj 328 100 s \$0-eznobu_count;
#X obj 394 78 s \$0-eznobu_dur_r;
#X obj 111 607 tabread \$0-dkeznobu_seq;
#X obj 113 577 r \$0-eznobu_count;
#X floatatom 748 206 5 0 1e+20 0 dur #0-eznobu_dur_r #0-eznobu_dur
, f 5;
#X obj 386 616 r \$0-eznobu_dur;
#X obj 182 760 outlet~;
#X obj 520 617 r \$0-eznobu_array;
#X msg 386 640 dur \$1;
#X msg 520 641 set \$1;
#X obj 792 208 tgl 15 0 \$0-eznobu_absrel \$0-eznobu_absrel_r abs/rel
17 7 0 12 -262144 -1 -1 1 1;
#X obj 516 520 r \$0-eznobu_absrel;
#X msg 516 544 absrel \$1;
#N canvas 698 332 643 474 eznobu_argts 0;
#X obj 63 65 loadbang;
#X obj 63 89 t b b, f 35;
#X obj 63 113 f \$2;
#X obj 63 137 moses 1e-20;
#X msg 63 161 125;
#X obj 63 185 s \$0-eznobu_dur_r;
#X obj 280 139 f \$3;
#X obj 280 163 s \$0-eznobu_absrel_r;
#X connect 0 0 1 0;
#X connect 1 0 2 0;
#X connect 1 1 6 0;
#X connect 2 0 3 0;
#X connect 3 0 4 0;
#X connect 3 1 5 0;
#X connect 4 0 5 0;
#X connect 6 0 7 0;
#X restore 227 507 pd eznobu_argts;
#X obj 519 77 s \$0-eznobu_array;
#X text 555 251 4;
#X text 555 272 8;
#X text 549 296 12;
#X obj 332 583 r \$0-eznobu_loc;
#X obj 203 38 route seqlist loclist absrel float dur set loc off,
f 76;
#X obj 681 92 s \$0-eznobu_loc;
#X msg 681 68 -2;
#X connect 51 0 65 0;
#X connect 52 0 78 0;
#X connect 61 0 51 0;
#X connect 62 0 61 0;
#X connect 64 0 67 0;
#X connect 66 0 68 0;
#X connect 67 0 51 1;
#X connect 68 0 51 1;
#X connect 70 0 71 0;
#X connect 71 0 51 1;
#X connect 77 0 51 0;
#X connect 78 0 56 0;
#X connect 78 1 57 0;
#X connect 78 2 58 0;
#X connect 78 3 59 0;
#X connect 78 4 60 0;
#X connect 78 5 73 0;
#X connect 78 6 79 0;
#X connect 78 7 80 0;
#X connect 80 0 79 0;
#X coords 0 -1 1 1 675 120 1 200 200;
