#N canvas 609 251 1074 799 12;
#X obj 111 151 hsl 128 15 1 100 0 0 empty \$0-ezfftcross_squelch squelch
-2 -8 0 10 -262144 -1 -1 0 1;
#X obj 126 581 pdkvabs/dkfftcross~ \$1 \$2;
#X floatatom 251 151 5 0 0 0 - - -, f 5;
#X obj 132 628 pdkvabs/dkswitch2~;
#X obj 132 653 outlet~;
#X obj 113 50 inlet~;
#X obj 238 129 tgl 15 0 empty empty bypass 17 7 0 10 -262144 -1 -1
0 1;
#X obj 768 33 inlet;
#X text 828 27 bypass;
#X msg 385 264 0;
#X obj 316 50 inlet~;
#X text 389 48 amp signal;
#X text 143 75 input;
#X obj 476 178 loadbang;
#X obj 476 203 t b b;
#X obj 506 252 f \$1;
#X obj 506 277 moses 1;
#X msg 506 302 1024;
#X obj 506 327 pdkvabs/dknearpow2;
#X text 552 248 fft size;
#X obj 706 262 f \$2;
#X obj 706 287 max 1;
#X text 755 265 squelch;
#X obj 460 378 pack \$0 f, f 39;
#X obj 288 374 == 0;
#X msg 460 403 \; \$1-ezfftcross_squelch \$2 \;;
#X obj 571 44 inlet;
#X text 624 47 squelch;
#X obj 571 69 s \$0-ezfftcross_squelch;
#X text 573 478 args: fftsize \, squelch;
#X text 917 50 pdkez;
#X text 919 18 derek kwan;
#X text 919 85 gpl v 3 2017;
#X text 579 513 ins: input1~ \, input2~ \, amp sig~ \, squelch \, bypass
;
#X obj 218 56 inlet~;
#X text 232 79 input2;
#X text 18 12 dkezspectcrossS~ - spectral cross-synthesis;
#X obj 369 567 pdkvabs/dkfftcross~ \$1 \$2;
#X obj 375 614 pdkvabs/dkswitch2~;
#X obj 375 639 outlet~;
#X connect 0 0 2 0;
#X connect 0 0 1 4;
#X connect 0 0 37 4;
#X connect 1 0 3 0;
#X connect 3 0 4 0;
#X connect 5 0 3 1;
#X connect 5 0 1 0;
#X connect 6 0 3 2;
#X connect 6 0 24 0;
#X connect 7 0 6 0;
#X connect 9 0 6 0;
#X connect 10 0 1 1;
#X connect 10 0 37 1;
#X connect 13 0 14 0;
#X connect 14 0 23 0;
#X connect 14 1 9 0;
#X connect 14 1 15 0;
#X connect 14 1 20 0;
#X connect 15 0 16 0;
#X connect 16 0 17 0;
#X connect 16 1 18 0;
#X connect 17 0 18 0;
#X connect 18 0 1 2;
#X connect 18 0 37 2;
#X connect 20 0 21 0;
#X connect 21 0 23 1;
#X connect 23 0 25 0;
#X connect 24 0 1 3;
#X connect 24 0 37 3;
#X connect 26 0 28 0;
#X connect 34 0 37 0;
#X connect 34 0 38 1;
#X connect 37 0 38 0;
#X connect 38 0 39 0;
#X coords 0 -1 1 1 200 75 1 100 100;
