#N canvas 1057 332 1409 929 12;
#X obj 103 132 tgl 15 0 \$0-ezlooper-rec \$0-ezlooper-rec_r rec 17
7 0 12 -262144 -1 -1 0 1;
#X obj 161 376 r \$0-ezlooper-rec;
#X obj 202 132 tgl 15 0 \$0-ezlooper-sync \$0-ezlooper-sync_r sync
17 7 0 12 -262144 -1 -1 0 1;
#X obj 328 403 r \$0-ezlooper-sync;
#X msg 328 427 sync \$1;
#X floatatom 302 131 5 0 1e+20 0 syncdur #0-ezlooper-syncdur_r #0-ezlooper-syncdur
, f 5;
#X obj 511 379 r \$0-ezlooper-syncdur;
#X msg 511 403 syncdur \$1;
#X floatatom 174 155 5 0 1e+20 0 start(ms) #0-ezlooper-start_r #0-ezlooper-start
, f 5;
#X obj 342 284 r \$0-ezlooper-start;
#X msg 342 308 start \$1;
#X obj 256 555 route end rec;
#X msg 298 587 set \$1;
#X obj 298 611 s \$0-ezlooper-rec_r;
#X floatatom 278 156 5 0 1e+20 0 end(ms) #0-ezlooper-end_r #0-ezlooper-end
, f 5;
#X msg 257 634 set \$1;
#X obj 257 658 s \$0-ezlooper-end_r;
#X obj 515 316 r \$0-ezlooper-end;
#X msg 515 340 end \$1;
#X obj 322 158 tgl 15 0 \$0-ezlooper-override \$0-ezlooper-override_r
override 17 7 0 12 -262144 -1 -1 0 1;
#X obj 517 254 r \$0-ezlooper-override;
#X msg 517 278 override \$1;
#X obj 321 180 tgl 15 0 \$0-ezlooper-quantize \$0-ezlooper-quantize_r
quantize 17 7 0 12 -262144 -1 -1 0 1;
#X msg 521 209 quantize \$1;
#X floatatom 174 177 5 0 1e+20 0 rate #0-ezlooper-rate_r #0-ezlooper-rate
, f 5;
#X obj 338 343 r \$0-ezlooper-rate;
#X obj 522 177 r \$0-ezlooper-quantize;
#X msg 338 367 rate \$1;
#X floatatom 277 180 5 0 1e+20 0 ramp #0-ezlooper-ramp_r #0-ezlooper-ramp
, f 5;
#X obj 506 433 r \$0-ezlooper-ramp_r;
#X msg 506 457 ramp \$1;
#X obj 342 134 bng 15 250 50 0 \$0-ezlooper-clear \$0-ezlooper-clear_r
clear 17 7 0 12 -262144 -1 -1;
#X obj 504 487 r \$0-ezlooper-clear;
#X msg 504 511 clear;
#X obj 276 254 r \$0-ezlooper-syncer;
#X obj 127 327 inlet~;
#X obj 533 28 inlet;
#X text 593 33 rec;
#X obj 533 91 s \$0-ezlooper-rec_r;
#X obj 746 54 inlet;
#X text 793 55 on;
#X obj 1119 59 inlet;
#X text 1171 61 messages;
#N canvas 1265 381 1039 728 dkezlooper-messages 0;
#X obj 21 27 inlet;
#X obj 21 75 s \$0-ezlooper-set;
#X obj 86 121 s \$0-ezlooper-start_r;
#X obj 151 162 s \$0-ezlooper-end_r;
#X obj 222 225 s \$0-ezlooper-rec_r;
#X obj 346 157 s \$0-ezlooper-sync_r;
#X obj 417 199 s \$0-ezlooper-syncer;
#X obj 580 189 s \$0-ezlooper-rate_r;
#X obj 533 137 s \$0-ezlooper-clear_r;
#X obj 667 97 s \$0-ezlooper-ramp_r;
#X obj 735 132 s \$0-ezlooper-override_r;
#X obj 478 99 s \$0-ezlooper-syncdur_r;
#X obj 805 181 s \$0-ezlooper-quantize_r;
#X obj 21 51 route set start end rec on sync syncer syncdur clear rate
ramp override quantize bang, f 121;
#X obj 272 119 s \$0-ezlooper-on-tgl_r;
#X connect 0 0 13 0;
#X connect 13 0 1 0;
#X connect 13 1 2 0;
#X connect 13 2 3 0;
#X connect 13 3 4 0;
#X connect 13 4 14 0;
#X connect 13 5 5 0;
#X connect 13 6 6 0;
#X connect 13 7 11 0;
#X connect 13 8 8 0;
#X connect 13 9 7 0;
#X connect 13 10 9 0;
#X connect 13 11 10 0;
#X connect 13 12 12 0;
#X restore 1117 154 pd dkezlooper-messages;
#X obj 520 117 r \$0-ezlooper-set;
#X msg 520 141 set \$1;
#X obj 142 477 pdkvabs/dklooper~ \$1;
#N canvas 990 469 929 645 dkezlooper-args 0;
#X obj 43 144 f \$2;
#X text 329 30 args: array name \, sync \, syncdur;
#X obj 328 95 f \$3;
#X obj 25 298 outlet;
#X obj 618 115 loadbang;
#X obj 27 10 loadbang;
#X obj 26 213 pack f f, f 43;
#X obj 26 42 t b b, f 38;
#X msg 26 237 syncdur \$2 \, sync \$1;
#X msg 618 139 start 0 \, ramp 2 \, rate 1;
#X connect 0 0 6 0;
#X connect 2 0 6 1;
#X connect 4 0 9 0;
#X connect 5 0 7 0;
#X connect 6 0 8 0;
#X connect 7 0 0 0;
#X connect 7 1 2 0;
#X connect 8 0 3 0;
#X connect 9 0 3 0;
#X restore 1178 93 pd dkezlooper-args;
#X text 707 454 args: array name \, sync \, syncdur;
#X text 703 481 inlets: signal \, playback/rec \, on \, syncer \, messages
;
#X obj 132 792 outlet~;
#X text 707 504 outlets: signal \, info dump \, end of loop;
#X obj 212 510 t a a;
#X obj 201 796 outlet;
#X obj 283 807 outlet;
#X text 992 254 derek kwan;
#X text 993 284 pdkez 2018;
#X text 995 310 gpl v 3;
#X obj 912 60 inlet;
#X text 972 59 syncer;
#X obj 912 84 s \$0-ezlooper-syncer;
#X obj 751 84 > 0;
#X obj 533 52 > 0;
#X obj 746 116 s \$0-ezlooper-on-tgl_r;
#X obj 170 296 r \$0-ezlooper-on-tgl;
#X obj 157 132 tgl 15 0 \$0-ezlooper-on-tgl \$0-ezlooper-on-tgl_r on
17 7 0 12 -262144 -1 -1 0 1;
#X connect 1 0 46 1;
#X connect 3 0 4 0;
#X connect 4 0 46 4;
#X connect 6 0 7 0;
#X connect 7 0 46 4;
#X connect 9 0 10 0;
#X connect 10 0 46 4;
#X connect 11 0 15 0;
#X connect 11 1 12 0;
#X connect 12 0 13 0;
#X connect 15 0 16 0;
#X connect 17 0 18 0;
#X connect 18 0 46 4;
#X connect 20 0 21 0;
#X connect 21 0 46 4;
#X connect 23 0 46 4;
#X connect 25 0 27 0;
#X connect 26 0 23 0;
#X connect 27 0 46 4;
#X connect 29 0 30 0;
#X connect 30 0 46 4;
#X connect 32 0 33 0;
#X connect 33 0 46 4;
#X connect 34 0 46 3;
#X connect 35 0 46 0;
#X connect 36 0 62 0;
#X connect 39 0 61 0;
#X connect 41 0 43 0;
#X connect 44 0 45 0;
#X connect 45 0 46 4;
#X connect 46 0 50 0;
#X connect 46 1 52 0;
#X connect 46 2 54 0;
#X connect 47 0 43 0;
#X connect 52 0 53 0;
#X connect 52 1 11 0;
#X connect 58 0 60 0;
#X connect 61 0 63 0;
#X connect 62 0 38 0;
#X connect 64 0 46 2;
#X coords 0 -1 1 1 300 100 1 100 100;
