#N canvas 983 254 1241 903 12;
#X floatatom 208 176 5 0 0 0 thresh_hi #0-eztrgrnstr_hi -, f 5;
#X floatatom 208 149 5 0 0 0 thresh_lo #0-eztrgrnstr_lo -, f 5;
#X obj 492 24 inlet;
#X obj 447 155 s \$0-eztrgrnstr_lo;
#X obj 475 194 s \$0-eztrgrnstr_hi;
#X obj 954 342 array define \$0-eztrgrnstr_arr;
#X floatatom 138 198 5 0 0 0 str #0-eztrgrnstr_stretch #0-eztrgrnstr_stretch_s
, f 5;
#X floatatom 209 224 5 0 0 0 max_len(ms) #0-eztrgrnstr_len #0-eztrgrnstr_len_s
, f 5;
#X obj 567 126 s \$0-eztrgrnstr_stretch;
#X obj 603 165 s \$0-eztrgrnstr_len;
#X obj 232 127 tgl 15 0 empty \$0-eztrgrnstr_bypass bypass 17 7 0 12
-262144 -1 -1 0 1;
#X obj 751 204 s \$0-eztrgrnstr_bypass;
#X obj 187 127 tgl 15 0 empty empty on 17 7 0 12 -262144 -1 -1 0 1
;
#N canvas 1042 521 933 449 \$0-eztrgrnstr_defaults 0;
#X obj 169 99 loadbang;
#X obj 534 232 moses 1e-20;
#X obj 129 142 t b b, f 59;
#X obj 408 216 moses 1e-20;
#X text 453 189 thresh_lo;
#X text 580 204 thresh_hi;
#X obj 278 217 moses 1e-20;
#X text 327 193 stretch;
#X msg 277 243 100;
#X obj 154 221 moses 1e-20;
#X text 204 196 max_len;
#X msg 157 246 1000;
#X msg 530 254 10;
#X msg 408 241 6;
#X obj 408 191 f \$3;
#X obj 530 204 f \$4;
#X obj 277 193 f \$2;
#X obj 155 195 f \$1;
#X obj 87 322 pack \$0 f f f f f, f 61;
#X obj 157 270 f;
#X obj 272 271 f;
#X obj 406 272 f;
#X obj 530 278 f;
#X obj 704 196 f \$5;
#X obj 704 220 moses 1e-20;
#X msg 704 244 7;
#X obj 704 268 f;
#X text 753 193 minvel;
#X msg 85 355 \; \$1-eztrgrnstr_len \$2 \; \$1-eztrgrnstr_stretch \$3
\; \$1-eztrgrnstr_lo \$4 \; \$1-eztrgrnstr_hi \$5 \; \$1-eztrgrnstr_minvel
\$6 \;;
#X connect 0 0 2 0;
#X connect 1 0 12 0;
#X connect 1 1 22 0;
#X connect 2 0 18 0;
#X connect 2 1 16 0;
#X connect 2 1 17 0;
#X connect 2 1 14 0;
#X connect 2 1 15 0;
#X connect 2 1 23 0;
#X connect 3 0 13 0;
#X connect 3 1 21 0;
#X connect 6 0 8 0;
#X connect 6 1 20 0;
#X connect 8 0 20 0;
#X connect 9 0 11 0;
#X connect 9 1 19 0;
#X connect 11 0 19 0;
#X connect 12 0 22 0;
#X connect 13 0 21 0;
#X connect 14 0 3 0;
#X connect 15 0 1 0;
#X connect 16 0 6 0;
#X connect 17 0 9 0;
#X connect 18 0 28 0;
#X connect 19 0 18 1;
#X connect 20 0 18 2;
#X connect 21 0 18 3;
#X connect 22 0 18 4;
#X connect 23 0 24 0;
#X connect 24 0 25 0;
#X connect 24 1 26 0;
#X connect 25 0 26 0;
#X connect 26 0 18 5;
#X restore 974 373 pd \$0-eztrgrnstr_defaults;
#X text 26 39 dkeztrgrnstrM~ - granular triggered stretcher;
#X text 1067 11 derek kwan;
#X text 1073 37 pdkez;
#X text 1081 72 gpl v 3 2017;
#X obj 132 128 tgl 15 0 empty empty auto 17 7 0 12 -262144 -1 -1 0
1;
#X obj 265 158 bng 30 250 50 0 empty \$0-eztrgrnstr_trig trig 0 -7
0 12 -262144 -1 -1;
#X obj 753 151 s \$0-eztrgrnstr_trig;
#N canvas 334 575 942 651 \$0-eztrgrnstr_recorder 0;
#X obj 334 228 bonk~;
#X obj 442 88 t b f;
#X obj 373 117 s \$0-eztrgrnstr_lo;
#X msg 341 176 thresh \$1 \$2;
#X obj 393 458 *~;
#X obj 425 418 line~;
#X msg 429 375 1 2;
#X obj 300 300 t b b;
#X obj 261 512 tabwrite~ \$0-eztrgrnstr_arr;
#X obj 280 362 del;
#X obj 144 338 - 2;
#X obj 280 387 t b b;
#X msg 354 401 0 2;
#X obj 280 412 del 2;
#X msg 280 437 stop;
#X obj 108 303 r \$0-eztrgrnstr_len_s;
#X obj 341 151 pack f 10000;
#X msg 326 333 stop;
#X obj 345 271 spigot;
#X obj 372 302 t b b b b;
#X obj 559 453 outlet;
#X obj 47 27 inlet~;
#X text 631 457 trig playback;
#X text 129 36 sig;
#X obj 209 13 inlet;
#X obj 801 291 outlet;
#X obj 217 43 route trig thresh_lo thresh_hi minvel auto_trig;
#X msg 584 183 minvel \$1;
#X obj 217 67 sel 1;
#X connect 0 0 18 0;
#X connect 1 0 2 0;
#X connect 1 1 16 1;
#X connect 3 0 0 0;
#X connect 4 0 8 0;
#X connect 5 0 4 1;
#X connect 6 0 5 0;
#X connect 7 0 9 0;
#X connect 7 1 19 0;
#X connect 9 0 11 0;
#X connect 10 0 9 1;
#X connect 11 0 13 0;
#X connect 11 1 12 0;
#X connect 12 0 5 0;
#X connect 13 0 14 0;
#X connect 14 0 8 0;
#X connect 15 0 10 0;
#X connect 16 0 3 0;
#X connect 17 0 9 0;
#X connect 18 0 25 0;
#X connect 19 0 20 0;
#X connect 19 1 8 0;
#X connect 19 2 6 0;
#X connect 19 2 17 0;
#X connect 21 0 0 0;
#X connect 21 0 4 0;
#X connect 24 0 26 0;
#X connect 26 0 28 0;
#X connect 26 1 16 0;
#X connect 26 2 1 0;
#X connect 26 3 27 0;
#X connect 26 4 18 1;
#X connect 27 0 0 0;
#X connect 28 0 7 0;
#X restore 60 549 pd \$0-eztrgrnstr_recorder;
#N canvas 843 439 1062 735 \$0-eztrgrnstr_player 0;
#X obj 706 254 array size \$0-eztrgrnstr_arr;
#X msg 513 260 0;
#X obj 469 140 t b f;
#X msg 469 165 1;
#X obj 469 190 /;
#X obj 409 505 line~;
#X obj 490 101 r \$0-eztrgrnstr_stretch_s;
#X msg 413 462 1 2;
#X obj 361 562 *~;
#X obj 357 229 del;
#X obj 706 189 r \$0-eztrgrnstr_len_s;
#X obj 596 220 *;
#X obj 585 174 t b f;
#X msg 378 472 0 2;
#X obj 596 245 - 2;
#X obj 344 671 outlet~;
#X msg 419 252 stop;
#X obj 634 348 loadbang;
#X msg 634 373 randms 10 \, grainms 50 \, overlap 4 \, randlen 0.2
;
#X obj 319 49 inlet;
#X text 383 48 on;
#X obj 107 40 inlet;
#X text 162 45 trig playback;
#X obj 757 41 inlet;
#X text 820 46 transposition;
#X msg 757 66 transpose \$1;
#X obj 32 473 pdkvabs/dkxgrn~ \$0-eztrgrnstr_arr 8;
#X obj 706 211 pdkvabs/dkmstosamp;
#X obj 435 323 pdkvabs/dkphsrd~ \$0-eztrgrnstr_arr;
#X obj 360 184 t b b b b;
#X msg 666 269 reset;
#X connect 1 0 28 1;
#X connect 2 0 3 0;
#X connect 2 1 4 1;
#X connect 3 0 4 0;
#X connect 4 0 28 0;
#X connect 5 0 8 1;
#X connect 6 0 2 0;
#X connect 6 0 11 0;
#X connect 7 0 5 0;
#X connect 8 0 15 0;
#X connect 9 0 13 0;
#X connect 10 0 12 0;
#X connect 10 0 27 0;
#X connect 11 0 14 0;
#X connect 12 0 11 0;
#X connect 12 1 11 1;
#X connect 13 0 5 0;
#X connect 14 0 9 1;
#X connect 16 0 9 0;
#X connect 17 0 18 0;
#X connect 18 0 26 2;
#X connect 19 0 26 1;
#X connect 21 0 29 0;
#X connect 23 0 25 0;
#X connect 25 0 26 2;
#X connect 26 0 8 0;
#X connect 27 0 0 0;
#X connect 28 0 26 0;
#X connect 29 0 9 0;
#X connect 29 1 7 0;
#X connect 29 2 1 0;
#X connect 29 2 16 0;
#X connect 29 3 30 0;
#X connect 30 0 28 4;
#X restore 97 666 pd \$0-eztrgrnstr_player;
#X obj 355 207 inlet~;
#X obj 172 750 outlet~;
#X obj 161 715 pdkvabs/dkswitch2~;
#X floatatom 209 250 5 0 0 0 transpose(hs) - -, f 5;
#X obj 256 253 bng 15 250 50 0 empty empty no_t 17 7 0 10 -262144 -1
-1;
#X msg 252 325 0;
#X floatatom 236 200 5 0 1e+20 0 minvel #0-eztrgrnstr_minvel -, f
5;
#X text 780 442 args: max_len (ms) \, stretch \, thresh_lo \, thresh_hi
\, minvel;
#X obj 416 55 route thresh_lo thresh_hi stretch maxlen trigger bypass
minvel on auto;
#X msg 83 335 thresh_lo \$1;
#X msg 255 381 trig 1;
#X msg 95 403 thresh_hi \$1;
#X msg 481 256 minvel \$1;
#X msg 174 459 minvel \$1;
#X msg 37 487 auto_trig \$1;
#X connect 0 0 34 0;
#X connect 1 0 32 0;
#X connect 2 0 31 0;
#X connect 10 0 25 2;
#X connect 12 0 22 1;
#X connect 18 0 37 0;
#X connect 19 0 33 0;
#X connect 21 0 22 0;
#X connect 21 1 19 0;
#X connect 22 0 25 0;
#X connect 23 0 21 0;
#X connect 23 0 25 1;
#X connect 25 0 24 0;
#X connect 26 0 22 2;
#X connect 27 0 28 0;
#X connect 28 0 26 0;
#X connect 29 0 36 0;
#X connect 31 0 3 0;
#X connect 31 1 4 0;
#X connect 31 2 8 0;
#X connect 31 3 9 0;
#X connect 31 5 20 0;
#X connect 31 6 11 0;
#X connect 31 7 12 0;
#X connect 31 8 18 0;
#X connect 32 0 21 1;
#X connect 33 0 21 1;
#X connect 34 0 21 1;
#X connect 36 0 21 1;
#X connect 37 0 21 1;
#X coords 0 -1 1 1 200 175 1 100 100;
