#N canvas 798 260 1759 906 12;
#X floatatom 136 120 5 1 100 0 gain #0-ezdistort_gain_r #0-ezdistort_gain
, f 5;
#X obj 181 123 tgl 15 0 \$0-ezoverdrive_bypass \$0-ezoverdrive_bypass_r
bypass 17 7 0 12 -262144 -1 -1 0 1;
#X obj 300 538 outlet~;
#X obj 444 113 inlet~;
#X text 1401 60 derek kwan;
#X text 1406 84 pdkez;
#X text 1404 107 gpl v 3 2017;
#X obj 306 472 pdkez_switcher;
#X obj 957 87 inlet;
#X obj 1154 95 inlet;
#X text 1207 91 bypass;
#X obj 1205 239 loadbang;
#X obj 1207 304 f \$1;
#X obj 1205 264 t b b;
#X obj 1207 329 moses 1e-20;
#X msg 1207 354 1;
#X obj 1115 417 pack \$0 f, f 29;
#X text 1267 302 gain;
#X obj 957 111 route gain bypass;
#X msg 1115 443 \; \$1-ezdistort_gain_r \$2 \;;
#X obj 1154 120 s \$0-ezdistort_bypass_r;
#X obj 480 428 r \$0-ezdistort_bypass;
#X obj 954 169 s \$0-ezdistort_gain_r;
#X obj 500 328 r \$0-ezdistort_gain;
#X obj 327 388 pdkvabs/dkdistort~ 0;
#X obj 500 352 / 100;
#X obj 636 585 outlet~;
#X obj 780 160 inlet~;
#X obj 642 519 pdkez_switcher;
#X obj 663 435 pdkvabs/dkdistort~ 0;
#X connect 3 0 7 1;
#X connect 3 0 24 0;
#X connect 7 0 2 0;
#X connect 8 0 18 0;
#X connect 9 0 20 0;
#X connect 11 0 13 0;
#X connect 12 0 14 0;
#X connect 13 0 16 0;
#X connect 13 1 12 0;
#X connect 14 0 15 0;
#X connect 14 1 16 1;
#X connect 15 0 16 1;
#X connect 16 0 19 0;
#X connect 18 0 22 0;
#X connect 18 1 20 0;
#X connect 21 0 7 2;
#X connect 21 0 28 2;
#X connect 23 0 25 0;
#X connect 24 0 7 0;
#X connect 25 0 24 1;
#X connect 25 0 29 1;
#X connect 27 0 28 1;
#X connect 27 0 29 0;
#X connect 28 0 26 0;
#X connect 29 0 28 0;
#X coords 0 -1 1 1 150 40 1 100 100;
