#N canvas 610 98 1713 985 12;
#X obj 102 118 bng 15 250 50 0 empty empty load 17 7 0 12 -262144 -1
-1;
#X obj 118 348 openpanel;
#X obj 1413 90 array define \$1;
#X msg 114 614 read -resize -maxsize 4e+10 \$1 \$2;
#X obj 114 639 soundfiler;
#X symbolatom 130 176 25 0 0 0 file #0-ezarray-filename_r -, f 25
;
#X obj 207 519 symbol \$1;
#X obj 116 578 pack s s;
#X text 356 92 derek kwan;
#X text 361 116 pdkez;
#X text 359 139 gpl v 3 2017;
#X obj 195 675 outlet;
#X obj 555 33 inlet;
#X obj 277 681 outlet;
#X obj 531 99 symbol;
#X obj 1262 120 moses 1e-20;
#X obj 1327 169 t b f, f 18;
#X obj 1327 194 samplerate~;
#X obj 1327 219 / 1000;
#X obj 1327 244 *;
#X obj 1327 269 array size \$1;
#X text 667 193 arg1: array name;
#X text 675 223 arg2: array size in ms;
#X obj 900 37 loadbang;
#X obj 900 95 f \$2;
#X obj 900 120 moses 1e-20, f 18;
#X msg 900 145 1000;
#X obj 163 774 samplerate~;
#X obj 163 799 / 1000;
#X obj 120 837 /;
#X obj 83 900 outlet;
#X msg 120 862 set \$1;
#X obj 109 731 t f b;
#X obj 103 136 bng 15 250 50 0 empty empty normalize 17 7 0 12 -262144
-1 -1;
#X obj 523 320 symbol \$1;
#X msg 523 344 \; \$1 normalize;
#X obj 574 159 symbol;
#X floatatom 229 123 10 1 1e+37 0 ms #0-ezarrayM_ms_r #0-ezarrayM_ms
, f 10;
#X obj 887 227 s \$0-ezarrayM_ms_r;
#X obj 200 897 s \$0-ezarrayM_ms_r;
#X obj 1257 91 r \$0-ezarrayM_ms;
#X obj 118 372 t s s;
#X obj 112 509 t s b;
#N canvas 766 326 608 392 ezarray-getfilename 0;
#X obj 274 69 inlet;
#X text 332 66 os;
#X obj 90 278 list split;
#X obj 76 168 t l l;
#X obj 165 208 list length;
#X obj 73 132 pdklist/pdkl-pathsplit 0;
#X obj 67 71 inlet;
#X text 115 72 path;
#X obj 269 109 > 0;
#X obj 126 340 s \$0-ezarray-filename_r;
#X obj 165 232 - 1;
#X connect 0 0 8 0;
#X connect 2 1 9 0;
#X connect 3 0 2 0;
#X connect 3 1 4 0;
#X connect 4 0 10 0;
#X connect 5 0 3 0;
#X connect 6 0 5 0;
#X connect 8 0 5 1;
#X connect 10 0 2 1;
#X restore 155 450 pd ezarray-getfilename;
#X obj 136 282 symbol;
#X symbolatom 131 154 25 0 0 0 path #0-ezarray-path_r -, f 25;
#X obj 555 57 route file set open os ms;
#X obj 900 61 t b b, f 22;
#X obj 1048 101 symbol \$3;
#X obj 1044 317 s \$0-ezarray-path_r;
#X obj 1096 156 list fromsymbol;
#X obj 1096 180 t f f;
#X obj 1126 214 sel 0;
#X obj 1048 125 t a s;
#X obj 1048 223 spigot;
#X msg 1126 238 symbol ~/sounds;
#X text 108 73 args: array name \, ms \, path;
#X connect 0 0 44 0;
#X connect 1 0 41 0;
#X connect 3 0 4 0;
#X connect 4 0 32 0;
#X connect 4 1 11 0;
#X connect 6 0 7 1;
#X connect 7 0 3 0;
#X connect 12 0 46 0;
#X connect 14 0 41 0;
#X connect 15 1 16 0;
#X connect 16 0 17 0;
#X connect 16 1 19 1;
#X connect 17 0 18 0;
#X connect 18 0 19 0;
#X connect 19 0 20 0;
#X connect 23 0 47 0;
#X connect 24 0 25 0;
#X connect 25 0 26 0;
#X connect 25 1 38 0;
#X connect 26 0 38 0;
#X connect 27 0 28 0;
#X connect 28 0 29 1;
#X connect 29 0 31 0;
#X connect 31 0 39 0;
#X connect 32 0 29 0;
#X connect 32 0 30 0;
#X connect 32 1 27 0;
#X connect 33 0 34 0;
#X connect 34 0 35 0;
#X connect 36 0 34 1;
#X connect 36 0 6 1;
#X connect 40 0 15 0;
#X connect 41 0 13 0;
#X connect 41 0 42 0;
#X connect 41 1 43 0;
#X connect 42 0 7 0;
#X connect 42 1 6 0;
#X connect 44 0 1 0;
#X connect 45 0 44 1;
#X connect 46 0 14 0;
#X connect 46 1 36 0;
#X connect 46 2 44 0;
#X connect 46 3 43 1;
#X connect 46 4 38 0;
#X connect 47 0 24 0;
#X connect 47 1 48 0;
#X connect 48 0 53 0;
#X connect 50 0 51 0;
#X connect 51 0 54 1;
#X connect 51 1 52 0;
#X connect 52 0 55 0;
#X connect 53 0 54 0;
#X connect 53 1 50 0;
#X connect 54 0 49 0;
#X connect 55 0 49 0;
#X coords 0 -1 1 1 210 100 1 100 100;
