#N canvas 390 217 804 618 12;
#X symbolatom 134 137 30 0 0 0 path - -, f 30;
#N canvas 805 144 685 590 ezarray-getfilename 0;
#X obj 274 69 inlet;
#X text 332 66 os;
#X obj 90 278 list split;
#X obj 76 168 t l l;
#X obj 165 208 list length;
#X obj 73 132 pdklist/pdkl-pathsplit 0;
#X obj 67 71 inlet;
#X text 115 72 path;
#X obj 269 119 > 0;
#X obj 165 232 - 1;
#X obj 159 333 outlet;
#X obj 77 443 outlet;
#X text 136 446 path;
#X text 216 336 filename;
#X obj 82 401 pdklist/pdkl-pathjoin 0;
#X connect 0 0 8 0;
#X connect 2 0 14 0;
#X connect 2 1 10 0;
#X connect 3 0 2 0;
#X connect 3 1 4 0;
#X connect 4 0 9 0;
#X connect 5 0 3 0;
#X connect 6 0 5 0;
#X connect 8 0 5 1;
#X connect 8 0 14 1;
#X connect 9 0 2 1;
#X connect 14 0 11 0;
#X restore 178 333 pd ezarray-getfilename;
#X obj 372 51 inlet;
#X obj 171 296 openpanel;
#X obj 172 263 symbol;
#X obj 178 386 pack s s;
#X msg 178 410 \; pd open \$2 \$1;
#X obj 441 176 pdkvabs/dksymbolcheck;
#X obj 359 180 symbol;
#X obj 600 226 pdkvabs/dksymbolcheck;
#X obj 600 250 route bang;
#X obj 600 314 s \$0-load;
#X obj 45 215 r \$0-load;
#X obj 295 118 bng 15 250 50 0 \$0-load empty open 17 7 0 12 -262144
-1 -1;
#X obj 441 200 route bang;
#X obj 372 75 route path os openfile openfilepath open;
#X obj 359 204 t s s;
#X obj 464 262 list prepend;
#X obj 160 35 loadbang;
#X obj 160 59 pdkvabs/dksymbolcheck \$1;
#X connect 0 0 4 1;
#X connect 1 0 5 0;
#X connect 1 1 5 1;
#X connect 2 0 15 0;
#X connect 3 0 1 0;
#X connect 4 0 3 0;
#X connect 5 0 6 0;
#X connect 7 0 14 0;
#X connect 8 0 16 0;
#X connect 9 0 10 0;
#X connect 10 0 11 0;
#X connect 10 1 1 0;
#X connect 12 0 4 0;
#X connect 14 0 4 0;
#X connect 14 1 17 0;
#X connect 15 0 8 0;
#X connect 15 1 1 1;
#X connect 15 2 7 0;
#X connect 15 3 9 0;
#X connect 15 4 7 0;
#X connect 16 0 0 0;
#X connect 16 1 17 1;
#X connect 17 0 1 0;
#X connect 18 0 19 0;
#X connect 19 0 0 0;
#X coords 0 -1 1 1 250 60 1 100 100;
